<?xml version="1.0" encoding="UTF-8" standalone="no"?>
<svg width="17px" height="15px" viewBox="0 0 17 15" version="1.1" xmlns="http://www.w3.org/2000/svg" xmlns:xlink="http://www.w3.org/1999/xlink" xmlns:sketch="http://www.bohemiancoding.com/sketch/ns">
    <!-- Generator: Sketch 3.3.2 (12043) - http://www.bohemiancoding.com/sketch -->
    <title>Imported Layers</title>
    <desc>Created with Sketch.</desc>
    <defs></defs>
    <g id="What_hurts?_landing" stroke="none" stroke-width="1" fill="none" fill-rule="evenodd" sketch:type="MSPage">
        <g id="Desktop-HD" sketch:type="MSArtboardGroup" transform="translate(-81.000000, -692.000000)" fill="#508FBB">
            <g id="wh?_cards" sketch:type="MSLayerGroup" transform="translate(57.000000, 371.000000)">
                <g id="Group-Copy" sketch:type="MSShapeGroup">
                    <g id="myelopathy-copy-+-Quisque-malesuada-te-+-continue-reading-+-Imported-Layers-+-Oval-35" transform="translate(24.000000, 201.000000)">
                        <g id="continue-reading-+-Imported-Layers-+-Oval-35" transform="translate(0.000000, 119.000000)">
                            <g id="Imported-Layers-+-Oval-35" transform="translate(0.000000, 1.000000)">
                                <path d="M15.938,6.32733062 C16.259,6.64933062 16.42,7.04433062 16.42,7.51233062 C16.42,7.98033062 16.259,8.38333062 15.938,8.72033062 L10.454,14.1653306 C10.115,14.5203306 9.717,14.6043306 9.26,14.4183306 C8.803,14.2323306 8.575,13.8933306 8.575,13.4023306 L8.575,10.5593306 C8.575,10.2373306 8.473,9.97433062 8.27,9.77133062 C8.067,9.56833062 7.804,9.46733062 7.483,9.46733062 L2.43,9.46733062 C1.888,9.46733062 1.431,9.28333062 1.059,8.91633062 C0.686,8.54833062 0.5,8.09733062 0.5,7.56233062 L0.5,7.51233062 C0.5,6.97733062 0.686,6.52633062 1.059,6.15933062 C1.431,5.79133062 1.888,5.60733062 2.43,5.60733062 L7.483,5.60733062 C7.804,5.60733062 8.067,5.50533062 8.27,5.30133062 C8.473,5.09733062 8.575,4.83433062 8.575,4.51033062 L8.575,1.65433062 C8.575,1.16133062 8.803,0.812330616 9.26,0.608330616 C9.717,0.404330616 10.115,0.488330616 10.454,0.861330616 L15.938,6.32733062" id="Imported-Layers"></path>
                            </g>
                        </g>
                    </g>
                </g>
            </g>
        </g>
    </g>
</svg>