<?xml version="1.0" encoding="UTF-8" standalone="no"?>
<svg width="239px" height="42px" viewBox="0 0 239 42" version="1.1" xmlns="http://www.w3.org/2000/svg" xmlns:xlink="http://www.w3.org/1999/xlink" xmlns:sketch="http://www.bohemiancoding.com/sketch/ns">
    <!-- Generator: Sketch 3.3.2 (12043) - http://www.bohemiancoding.com/sketch -->
    <title>optim_logo_white</title>
    <desc>Created with Sketch.</desc>
    <defs></defs>
    <g id="What_hurts?_landing" stroke="none" stroke-width="1" fill="none" fill-rule="evenodd" sketch:type="MSPage">
        <g id="Desktop-HD" sketch:type="MSArtboardGroup" transform="translate(-61.000000, -40.000000)">
            <g id="optim_logo_white" sketch:type="MSLayerGroup" transform="translate(61.000000, 40.000000)">
                <path d="M24.2273876,0.6615 C19.3717278,-0.4207 14.3237367,1.2117 11.563216,5.8856 C11.4111893,6.1838 11.5950355,6.2524 11.7993876,6.0788 C12.0185888,5.8926 12.3092071,5.5713 12.877716,5.0015 C15.9048136,1.9509 18.8208964,1.5848 21.875571,2.1245 C28.0761361,3.2263 31.7276036,11.2028 30.0751095,19.5839 C29.5497337,22.2509 28.5470651,24.6596 27.2240799,26.6658 C30.2059231,26.7225 32.9721006,26.1009 35.1931036,24.92 C37.2260178,13.0088 32.3717722,2.4759 24.2273876,0.6615" id="Fill-1" fill="#90BEDC" sketch:type="MSShapeGroup"></path>
                <path d="M42.134003,23.5116 C43.2278876,18.704 41.5761006,13.7067 36.855497,10.9711 C36.5549793,10.8241 36.4842692,11.0047 36.658216,11.2063 C36.848426,11.4261 37.171571,11.7124 37.7506864,12.2745 C40.8301095,15.2719 41.2006302,18.1552 40.6533343,21.182 C39.5431864,27.321 31.485068,30.9365 23.0175385,29.2964 C20.3241923,28.7791 17.8910592,27.7872 15.865216,26.4782 C15.8072337,29.4273 16.4351391,32.1664 17.6273107,34.3658 C29.6621627,36.3783 40.299784,31.5728 42.134003,23.5116" id="Fill-2" fill="#508FBB" sketch:type="MSShapeGroup"></path>
                <path d="M18.7240237,40.9955 C23.5796834,42.0784 28.6283817,40.4453 31.3924379,35.7728 C31.5416361,35.4732 31.3592041,35.4018 31.1534379,35.5768 C30.9335296,35.7658 30.6422041,36.0836 30.0758166,36.6555 C27.0487189,39.7061 24.1333432,40.0708 21.0758402,39.5304 C14.8773964,38.4314 11.225929,30.4535 12.877716,22.0731 C13.4037988,19.4061 14.4050533,16.9974 15.7266243,14.9926 C12.7476095,14.9359 9.98284615,15.5561 7.75972189,16.737 C5.72680769,28.6496 10.5824675,39.1825 18.7240237,40.9955" id="Fill-3" fill="#1E4166" sketch:type="MSShapeGroup"></path>
                <path d="M0.799023669,18.4898 C-0.294860947,23.2995 1.35692604,28.2954 6.07752959,31.0296 C6.37875444,31.1794 6.4487574,30.9967 6.27339645,30.7944 C6.08318639,30.5767 5.76145562,30.2897 5.18234024,29.7269 C2.10291716,26.7309 1.73381065,23.8455 2.27969231,20.818 C3.38984024,14.6825 11.4486657,11.0663 19.9154882,12.7029 C22.6088343,13.2237 25.0405533,14.2156 27.0663964,15.5246 C27.1265,12.5734 26.4993018,9.8371 25.3043018,7.637 C13.2729852,5.6231 2.6318284,10.4307 0.799023669,18.4898" id="Fill-4" fill="#508FBB" sketch:type="MSShapeGroup"></path>
                <path d="M32.5563254,35.5278 L32.5563254,35.5222 C32.5563254,34.8544 33.1050355,34.2965 33.7979941,34.2965 C34.493074,34.2965 35.0325917,34.8481 35.0325917,35.5159 L35.0325917,35.5222 C35.0325917,36.1893 34.486003,36.7479 33.7909231,36.7479 C33.0979645,36.7479 32.5563254,36.1963 32.5563254,35.5278 L32.5563254,35.5278 Z M34.9208698,35.5222 L34.9208698,35.5159 C34.9208698,34.9034 34.437213,34.4008 33.7979941,34.4008 C33.1559467,34.4008 32.6694615,34.9076 32.6694615,35.5222 L32.6694615,35.5278 C32.6694615,36.1417 33.1531183,36.6422 33.7909231,36.6422 C34.4336775,36.6422 34.9208698,36.134 34.9208698,35.5222 L34.9208698,35.5222 Z M33.3079734,34.8579 L33.8771893,34.8579 C34.0369941,34.8579 34.169929,34.9076 34.2526598,34.9909 C34.3148846,35.0476 34.3544822,35.133 34.3544822,35.2352 L34.3544822,35.2422 C34.3544822,35.4438 34.2180118,35.5649 34.0285089,35.6083 L34.4195355,36.1144 L34.1876065,36.1144 L33.8213284,35.6405 L33.4967692,35.6405 L33.4967692,36.1144 L33.3079734,36.1144 L33.3079734,34.8579 L33.3079734,34.8579 Z M33.8602189,35.4746 C34.0369941,35.4746 34.1600296,35.3927 34.1600296,35.2534 L34.1600296,35.245 C34.1600296,35.1134 34.0511361,35.0273 33.8701183,35.0273 L33.4967692,35.0273 L33.4967692,35.4746 L33.8602189,35.4746 L33.8602189,35.4746 Z" id="Fill-5" fill="#1E4166" sketch:type="MSShapeGroup"></path>
                <path d="M52.0404822,22.9726 L52.0404822,22.9026 C52.0404822,17.381 56.4407692,12.8163 62.3846568,12.8163 C68.3285444,12.8163 72.6899408,17.3103 72.6899408,22.8298 L72.6899408,22.9026 C72.6899408,28.3822 68.2896538,32.9476 62.3111183,32.9476 C56.4047071,32.9476 52.0404822,28.4557 52.0404822,22.9726 L52.0404822,22.9726 Z M68.2514704,22.9726 L68.2514704,22.9026 C68.2514704,19.5055 65.7928817,16.6908 62.3111183,16.6908 C58.7522811,16.6908 56.4789527,19.4656 56.4789527,22.8298 L56.4789527,22.9026 C56.4789527,26.2626 58.934713,29.1102 62.3846568,29.1102 C65.9795562,29.1102 68.2514704,26.299 68.2514704,22.9726 L68.2514704,22.9726 Z" id="Fill-6" fill="#1E4166" sketch:type="MSShapeGroup"></path>
                <path d="M74.7419467,13.2636 L79.2956746,13.2636 L79.2956746,16.3394 C80.7650296,14.4144 82.8354201,12.8751 86.0350503,12.8751 C90.7400976,12.8751 95.2938254,16.3394 95.2938254,22.4511 L95.2938254,22.5218 C95.2938254,28.6384 90.7761598,32.4492 86.0350503,32.4492 C82.7562249,32.4492 80.690784,30.9127 79.2956746,29.2019 L79.2956746,36.3356 L74.7419467,36.3356 L74.7419467,13.2636 L74.7419467,13.2636 Z M90.6630237,22.5218 L90.6630237,22.4511 C90.6630237,18.8895 88.0665503,16.5466 84.9800562,16.5466 C81.8949763,16.5466 79.1811243,18.9245 79.1811243,22.4511 L79.1811243,22.5218 C79.1811243,26.0855 81.8949763,28.427 84.9800562,28.427 C88.1082692,28.427 90.6630237,26.1548 90.6630237,22.5218 L90.6630237,22.5218 Z" id="Fill-7" fill="#1E4166" sketch:type="MSShapeGroup"></path>
                <path d="M98.3612278,27.5296 L98.3612278,16.8966 L95.839,16.8966 L95.839,13.2636 L98.3612278,13.2636 L98.3612278,8.7101 L102.914249,8.7101 L102.914249,13.2636 L108.257808,13.2636 L108.257808,16.8966 L102.914249,16.8966 L102.914249,26.8639 C102.914249,28.5061 103.817923,29.1704 105.361524,29.1704 C106.375506,29.1704 107.281302,28.9597 108.182855,28.546 L108.182855,32.0033 C107.05503,32.5955 105.775885,32.9476 104.0845,32.9476 C100.732136,32.9476 98.3612278,31.5812 98.3612278,27.5296" id="Fill-8" fill="#1E4166" sketch:type="MSShapeGroup"></path>
                <path d="M111.231166,13.2188 L115.784186,13.2188 L115.784186,32.7565 L111.231166,32.7565 L111.231166,13.2188 Z" id="Fill-9" fill="#1E4166" sketch:type="MSShapeGroup"></path>
                <path d="M119.21221,13.2188 L123.768059,13.2188 L123.768059,16.2253 C125.044376,14.5824 126.776065,13.0438 129.827204,13.0438 C132.684598,13.0438 134.682864,14.3353 135.736444,16.2939 C137.356411,14.3353 139.458621,13.0438 142.47087,13.0438 C146.799033,13.0438 149.433689,15.5967 149.433689,20.1061 L149.433689,32.8272 L144.882083,32.8272 L144.882083,21.3976 C144.882083,18.4611 143.412728,16.8917 140.854438,16.8917 C138.370393,16.8917 136.598399,18.4982 136.598399,21.4655 L136.598399,32.8272 L132.046086,32.8272 L132.046086,21.364 C132.046086,18.4982 130.541376,16.8917 128.01632,16.8917 C125.496213,16.8917 123.768059,18.6361 123.768059,21.504 L123.768059,32.8272 L119.21221,32.8272 L119.21221,13.2188" id="Fill-10" fill="#1E4166" sketch:type="MSShapeGroup"></path>
                <path d="M164.080571,21.6818 C161.590163,20.9727 159.014195,20.2384 159.014195,18.256 L159.014195,18.1839 C159.014195,16.3828 160.690024,15.1256 163.089923,15.1256 C164.93192,15.1256 166.934429,15.7703 168.727636,16.9414 L168.861278,17.0282 L169.977083,15.2873 L169.849805,15.204 C167.935683,13.9405 165.372444,13.1558 163.16134,13.1558 C159.462497,13.1558 156.879459,15.3125 156.879459,18.4009 L156.879459,18.473 C156.879459,21.8183 160.246672,22.7815 163.218615,23.6313 L163.374885,23.6761 C166.006006,24.4097 168.184583,25.1825 168.184583,27.2097 L168.184583,27.2818 C168.184583,29.2523 166.403396,30.6292 163.855006,30.6292 C161.571778,30.6292 159.35926,29.8263 157.276849,28.2422 L157.150985,28.1463 L155.909317,29.8004 L156.024574,29.8935 C158.062438,31.5371 161.093778,32.5997 163.746112,32.5997 C167.554556,32.5997 170.31932,30.2715 170.31932,27.0648 L170.31932,26.9934 C170.31932,23.6901 167.237068,22.5582 164.080571,21.6818" id="Fill-11" fill="#1E4166" sketch:type="MSShapeGroup"></path>
                <path d="M183.109355,13.0844 C180.075186,13.0844 177.616598,14.4592 175.606311,17.2844 L175.606311,13.517 L173.506929,13.517 L173.506929,38.0149 L175.606311,38.0149 L175.606311,28.6132 C177.539524,31.3075 180.061751,32.6718 183.109355,32.6718 C187.632678,32.6718 192.310148,29.0087 192.310148,22.8774 L192.310148,22.8046 C192.310148,19.208 190.739678,16.9358 189.422349,15.6639 C187.725308,14.0238 185.424402,13.0844 183.109355,13.0844 L183.109355,13.0844 Z M190.064396,22.8774 L190.064396,22.9495 C190.064396,27.4925 187.129222,30.6656 182.926216,30.6656 C178.337133,30.6656 175.497417,26.642 175.497417,22.9138 L175.497417,22.8417 C175.497417,18.0537 179.353237,15.0899 182.926216,15.0899 C186.994873,15.0899 190.064396,18.438 190.064396,22.8774 L190.064396,22.8774 Z" id="Fill-12" fill="#1E4166" sketch:type="MSShapeGroup"></path>
                <path d="M195.641299,13.517 L197.74068,13.517 L197.74068,32.2385 L195.641299,32.2385 L195.641299,13.517 Z" id="Fill-13" fill="#1E4166" sketch:type="MSShapeGroup"></path>
                <path d="M210.930935,13.0844 C208.077077,13.0844 205.875166,14.2485 204.37682,16.5459 L204.37682,13.517 L202.277438,13.517 L202.277438,32.2385 L204.37682,32.2385 L204.37682,21.4333 C204.37682,17.7758 207.085015,15.0171 210.675672,15.0171 C214.223195,15.0171 216.427228,17.3656 216.427228,21.1442 L216.427228,32.2385 L218.526609,32.2385 L218.526609,20.8194 C218.526609,16.1203 215.544766,13.0844 210.930935,13.0844" id="Fill-14" fill="#1E4166" sketch:type="MSShapeGroup"></path>
                <path d="M230.148515,13.0844 C225.112544,13.0844 221.16763,17.3705 221.16763,22.8417 L221.16763,22.9138 C221.16763,28.4767 225.153556,32.6718 230.43984,32.6718 C233.601994,32.6718 235.93684,31.6211 238.248352,29.1571 L238.357246,29.0409 L236.884355,27.7529 L236.781118,27.8621 C234.952556,29.7997 232.960654,30.702 230.512672,30.702 C226.661095,30.702 223.75279,27.853 223.388633,23.7538 L238.782213,23.7538 L238.799891,23.6187 C238.838074,23.3205 238.838074,23.2092 238.838074,22.8774 C238.838074,17.1115 235.265095,13.0844 230.148515,13.0844 L230.148515,13.0844 Z M223.390047,21.8568 C223.778953,17.8836 226.567757,15.0171 230.074976,15.0171 C234.456879,15.0171 236.308775,18.6634 236.579595,21.8568 L223.390047,21.8568 L223.390047,21.8568 Z" id="Fill-15" fill="#1E4166" sketch:type="MSShapeGroup"></path>
            </g>
        </g>
    </g>
</svg>