<?xml version="1.0" encoding="UTF-8" standalone="no"?>
<svg width="22px" height="23px" viewBox="0 0 22 23" version="1.1" xmlns="http://www.w3.org/2000/svg" xmlns:xlink="http://www.w3.org/1999/xlink" xmlns:sketch="http://www.bohemiancoding.com/sketch/ns">
    <!-- Generator: Sketch 3.3.2 (12043) - http://www.bohemiancoding.com/sketch -->
    <title>search</title>
    <desc>Created with Sketch.</desc>
    <defs></defs>
    <g id="What_hurts?_landing" stroke="none" stroke-width="1" fill="none" fill-rule="evenodd" sketch:type="MSPage">
        <g id="Desktop-HD" sketch:type="MSArtboardGroup" transform="translate(-1105.000000, -50.000000)" fill="#508FBB">
            <g id="search" sketch:type="MSLayerGroup" transform="translate(1105.000000, 50.000000)">
                <path d="M21.578,19.422 L17.203,15.046 C18.329,13.484 19,11.572 19,9.5 C19,4.253 14.747,0 9.5,0 C4.253,0 0,4.253 0,9.5 C0,14.747 4.253,19 9.5,19 C11.224,19 12.836,18.534 14.231,17.731 L18.75,22.25 L21.578,19.422 L21.578,19.422 Z M3.455,9.5 C3.455,6.166 6.167,3.455 9.5,3.455 C12.833,3.455 15.546,6.166 15.546,9.5 C15.546,12.833 12.833,15.545 9.5,15.545 C6.167,15.545 3.455,12.833 3.455,9.5 L3.455,9.5 Z" id="Imported-Layers" sketch:type="MSShapeGroup"></path>
            </g>
        </g>
    </g>
</svg>