<?xml version="1.0" encoding="UTF-8" standalone="no"?>
<svg width="63px" height="89px" viewBox="0 0 63 89" version="1.1" xmlns="http://www.w3.org/2000/svg" xmlns:xlink="http://www.w3.org/1999/xlink" xmlns:sketch="http://www.bohemiancoding.com/sketch/ns">
    <!-- Generator: Sketch 3.3.2 (12043) - http://www.bohemiancoding.com/sketch -->
    <title>email</title>
    <desc>Created with Sketch.</desc>
    <defs>
    </defs>
    <g id="Sharing" stroke="none" stroke-width="1" fill="none" fill-rule="evenodd" sketch:type="MSPage">
        <g id="Desktop" sketch:type="MSArtboardGroup" transform="translate(-597.000000, -397.000000)">
            <g id="box" sketch:type="MSLayerGroup" transform="translate(297.000000, 223.000000)">
                <g id="email" transform="translate(300.000000, 174.000000)">
                    <path d="M62.4446811,31.9335135 C62.4446811,49.1287568 48.5047892,63.0686486 31.3095459,63.0686486 C14.1143027,63.0686486 0.174410811,49.1287568 0.174410811,31.9335135 C0.174410811,14.7382703 14.1143027,0.798378378 31.3095459,0.798378378 C48.5047892,0.798378378 62.4446811,14.7382703 62.4446811,31.9335135 L62.4446811,31.9335135 Z" id="Path-2" fill="#1E4166" sketch:type="MSShapeGroup"></path>
                    <path d="M46.8771135,26.3028361 L46.8771135,39.7090764 C46.8771135,40.1866596 46.70009,40.5907684 46.3430426,40.9270548 C45.9889956,41.2605153 45.5509374,41.4357233 45.0318684,41.447027 L17.5872234,41.447027 C17.0681545,41.4357233 16.6300963,41.2605153 16.2760493,40.9270548 C15.9190019,40.5907684 15.7419784,40.1866596 15.7419784,39.7090764 L15.7419784,26.3028361 C15.75398,25.9411162 15.9250027,25.6839561 16.2550465,25.5285296 C16.58209,25.375929 16.8971318,25.4070143 17.1971716,25.6274373 L30.0178744,35.3317015 C30.3869234,35.6340767 30.8099796,35.7866772 31.2900434,35.7866772 C31.7671067,35.7866772 32.1961637,35.6340767 32.5802147,35.3317015 L45.4189198,25.6274373 C45.7219601,25.4070143 46.0370019,25.375929 46.3640454,25.5285296 C46.6910888,25.6839561 46.8621115,25.9411162 46.8771135,26.3028361 Z M44.2727676,22.42 C44.6958238,22.42 44.9748609,22.6121636 45.1128792,22.9993169 C45.2478971,23.3864701 45.1458836,23.6888453 44.8038382,23.9064423 L32.1691601,33.0257378 C31.9111258,33.2065977 31.6170868,33.2942017 31.2900434,33.2942017 C30.9599995,33.2942017 30.6659605,33.2065977 30.4079262,33.0257378 L17.8122533,23.9064423 C17.4702079,23.6634118 17.3681944,23.3525589 17.5062127,22.9795353 C17.6412306,22.6065118 17.9232681,22.42 18.3463243,22.42 L44.2727676,22.42 Z" id="Fill-1" fill="#FFFFFF" sketch:type="MSShapeGroup"></path>
                </g>
            </g>
        </g>
    </g>
</svg>