<?xml version="1.0" encoding="UTF-8" standalone="no"?>
<svg width="63px" height="89px" viewBox="0 0 63 89" version="1.1" xmlns="http://www.w3.org/2000/svg" xmlns:xlink="http://www.w3.org/1999/xlink" xmlns:sketch="http://www.bohemiancoding.com/sketch/ns">
    <!-- Generator: Sketch 3.3.3 (12081) - http://www.bohemiancoding.com/sketch -->
    <title>twitter</title>
    <desc>Created with Sketch.</desc>
    <defs>
    </defs>
    <g id="Sharing" stroke="none" stroke-width="1" fill="none" fill-rule="evenodd" sketch:type="MSPage">
        <g id="Desktop" sketch:type="MSArtboardGroup" transform="translate(-481.000000, -397.000000)">
            <g id="box" sketch:type="MSLayerGroup" transform="translate(297.000000, 223.000000)">
                <g id="twitter" transform="translate(184.000000, 174.000000)">
                    <path d="M62.4446811,31.9335135 C62.4446811,49.1287568 48.5047892,63.0686486 31.3095459,63.0686486 C14.1143027,63.0686486 0.174410811,49.1287568 0.174410811,31.9335135 C0.174410811,14.7382703 14.1143027,0.798378378 31.3095459,0.798378378 C48.5047892,0.798378378 62.4446811,14.7382703 62.4446811,31.9335135 L62.4446811,31.9335135 Z" id="Path" fill="#1E4166" sketch:type="MSShapeGroup"></path>
                    <path d="M44.4350909,26.4988964 C44.4464401,26.7745193 44.4529253,27.0517636 44.4529253,27.3306291 C44.4529253,35.8133304 37.9968633,45.5930808 26.1904737,45.5930808 C22.5652214,45.5930808 19.1912724,44.5311218 16.3491135,42.7103891 C16.85172,42.7687563 17.3624331,42.7995612 17.8812528,42.7995612 C20.8887854,42.7995612 23.656364,41.7732711 25.8532409,40.0514384 C23.0435083,39.9995564 20.673151,38.1431549 19.8576314,35.592832 C20.2483674,35.6690337 20.6504527,35.7095665 21.0638871,35.7095665 C21.6491805,35.7095665 22.2166395,35.6301222 22.7549149,35.4842042 C19.8187199,34.8940468 17.6072512,32.2999486 17.6072512,29.1902733 L17.6072512,29.1092077 C18.4730314,29.5891159 19.4620314,29.8777093 20.5142625,29.9117569 C18.7924298,28.7606258 17.6591331,26.7955964 17.6591331,24.5695358 C17.6591331,23.3924637 17.9752888,22.289972 18.528156,21.3415048 C21.6945772,25.2245456 26.4239426,27.7813537 31.7580571,28.0488701 C31.6494292,27.5786898 31.5926833,27.0890537 31.5926833,26.5848259 C31.5926833,23.0406392 34.4656471,20.1660541 38.0114551,20.1660541 C39.8581288,20.1660541 41.5264583,20.9459048 42.6970451,22.1943146 C44.159468,21.9057212 45.5327187,21.3723097 46.7730219,20.6362344 C46.2947351,22.1343261 45.2765515,23.3924637 43.9503188,24.1869063 C45.2489892,24.0328817 46.4860498,23.6875424 47.6371809,23.1768293 C46.7762646,24.4641506 45.6883646,25.5942046 44.4350909,26.4988964" id="Twitter" fill="#FFFFFF" sketch:type="MSShapeGroup"></path>
               
                </g>
            </g>
        </g>
    </g>
</svg>