<?xml version="1.0" encoding="UTF-8" standalone="no"?>
<svg width="233px" height="40px" viewBox="0 0 233 40" version="1.1" xmlns="http://www.w3.org/2000/svg" xmlns:xlink="http://www.w3.org/1999/xlink">
    <!-- Generator: Sketch 3.6.1 (26313) - http://www.bohemiancoding.com/sketch -->
    <title>c-coastal-m</title>
    <desc>Created with Sketch.</desc>
    <defs></defs>
    <g id="Page-1" stroke="none" stroke-width="1" fill="none" fill-rule="evenodd">
        <g id="c-coastal-m">
            <path d="M60.7465448,21.7744744 C60.4791022,21.9048297 60.157192,22.020497 59.780202,22.1245365 C59.4026001,22.2273519 58.9815464,22.3197634 58.5152049,22.4023829 C58.0488635,22.4843905 57.5617141,22.5253943 57.0555929,22.5253943 C55.9723587,22.5253943 54.9717442,22.3705591 54.0525252,22.0621128 C53.1345302,21.7536665 52.3432185,21.284265 51.6798141,20.6526845 C51.0157977,20.0223279 50.4956005,19.2499881 50.1198346,18.3381131 C49.7440686,17.426238 49.5561856,16.3876797 49.5561856,15.220602 C49.5561856,14.0547484 49.7440686,13.015578 50.1198346,12.103703 C50.4956005,11.1918279 51.0225297,10.4201001 51.699398,9.78851956 C52.3774903,9.15816299 53.1896099,8.6777456 54.1351447,8.34849139 C55.0806796,8.01923718 56.1235219,7.85461008 57.2612237,7.85461008 C58.1657548,7.85461008 58.9913383,7.94702157 59.7385863,8.13245656 C60.4858342,8.31666756 61.1474026,8.54004635 61.7232915,8.80075693 C61.6131321,8.99231189 61.5237806,9.25302247 61.4558489,9.58105269 C61.3873053,9.91030689 61.3322256,10.1850934 61.2918338,10.4041882 L61.1675985,10.445804 C61.0311232,10.2811769 60.8383443,10.0957419 60.5923216,9.88949901 C60.345075,9.68448012 60.0574365,9.4861932 59.7294063,9.29341425 C59.3995401,9.10185929 59.0286701,8.94090417 58.6180204,8.81054888 C58.2073706,8.68019359 57.7544931,8.61532194 57.2612237,8.61532194 C56.4521641,8.61532194 55.7012442,8.74628923 55.009076,9.00638781 C54.3169078,9.2664864 53.714091,9.66795621 53.1994018,10.2101853 C52.6859366,10.7518023 52.2850788,11.4372386 51.9968284,12.2671061 C51.7091899,13.0963616 51.5653707,14.0804522 51.5653707,15.219378 C51.5653707,16.3583038 51.7091899,17.3417825 51.9968284,18.171038 C52.2850788,19.0015174 52.6859366,19.6869537 53.1994018,20.2285708 C53.714091,20.7707998 54.3169078,21.1722696 55.009076,21.4317562 C55.7012442,21.6924668 56.4521641,21.8234341 57.2612237,21.8234341 C57.7544931,21.8234341 58.2104306,21.7610104 58.6284243,21.6379991 C59.046418,21.5143758 59.4301399,21.3687206 59.780202,21.1967495 C60.1296521,21.0260024 60.4448304,20.8405674 60.7257369,20.6416685 C61.0066434,20.4427696 61.2434861,20.2683506 61.435653,20.1171874 L61.5176606,20.2004189 L61.3322256,21.4146203 C61.2092143,21.5241677 61.0133753,21.6441191 60.7465448,21.7744744 L60.7465448,21.7744744 Z" id="Fill-1" fill="#010201"></path>
            <path d="M65.6947827,13.5511975 C66.0179169,12.7696777 66.4695705,12.1099453 67.0509673,11.5683283 C67.6329761,11.0285472 68.3288163,10.6172854 69.1397119,10.335767 C69.9499955,10.0530245 70.8373907,9.91287728 71.8006735,9.91287728 C72.7749722,9.91287728 73.6684873,10.0530245 74.4787709,10.335767 C75.2890545,10.6172854 75.9848947,11.0285472 76.5662915,11.5683283 C77.1483004,12.1099453 77.5999539,12.7696777 77.9237001,13.5511975 C78.2462224,14.3327172 78.4077895,15.2231724 78.4077895,16.220115 C78.4077895,17.2188935 78.2462224,18.1087367 77.9237001,18.8908684 C77.5999539,19.6723882 77.1483004,20.3333446 76.5662915,20.8731257 C75.9848947,21.4135187 75.2890545,21.8156005 74.4787709,22.0805951 C73.6684873,22.3437537 72.7749722,22.4771689 71.8006735,22.4771689 C70.8373907,22.4771689 69.9499955,22.3437537 69.1397119,22.0805951 C68.3288163,21.8156005 67.6329761,21.4135187 67.0509673,20.8731257 C66.4695705,20.3333446 66.0179169,19.6723882 65.6947827,18.8908684 C65.3710364,18.1087367 65.2100813,17.2188935 65.2100813,16.220115 C65.2100813,15.2231724 65.3710364,14.3327172 65.6947827,13.5511975 M76.3110889,13.6950167 C76.0644543,12.9838766 75.7205121,12.3969718 75.2804865,11.9318543 C74.8398489,11.4673488 74.3233237,11.1246307 73.729075,10.9006399 C73.1366622,10.6772611 72.4928417,10.5658777 71.8006735,10.5658777 C71.1189092,10.5658777 70.4812086,10.6772611 69.8881839,10.9006399 C69.2945471,11.1246307 68.7780219,11.4673488 68.3373843,11.9318543 C67.8973587,12.3969718 67.5534166,12.9838766 67.3061699,13.6950167 C67.0595352,14.4061568 66.9365239,15.2488763 66.9365239,16.224399 C66.9365239,17.1999216 67.0595352,18.0420291 67.3061699,18.7531692 C67.5534166,19.4636973 67.8973587,20.0512141 68.3373843,20.5163316 C68.7780219,20.9790011 69.2945471,21.3235552 69.8881839,21.546322 C70.4812086,21.7697008 71.1189092,21.8816962 71.8006735,21.8816962 C72.4928417,21.8816962 73.1366622,21.7697008 73.729075,21.546322 C74.3233237,21.3235552 74.8398489,20.9790011 75.2804865,20.5163316 C75.7205121,20.0512141 76.0644543,19.4636973 76.3110889,18.7531692 C76.5583356,18.0420291 76.6813469,17.1999216 76.6813469,16.224399 C76.6813469,15.2488763 76.5583356,14.4061568 76.3110889,13.6950167" id="Fill-5" fill="#010201"></path>
            <path d="M91.7180439,22.2526886 C91.5534168,22.2257607 91.3973577,22.2135208 91.2510905,22.2135208 L90.783525,22.2135208 L90.3165715,22.2135208 C90.1696923,22.2135208 90.0136332,22.2257607 89.8496181,22.2526886 C89.7669985,21.981574 89.6550031,21.6559918 89.5148559,21.2734939 C89.3734847,20.891608 89.2174255,20.4919741 89.0472904,20.0745924 C88.8771554,19.6578227 88.7039603,19.234321 88.5270933,18.8053113 C88.3508382,18.3763016 88.1868231,17.9680999 88.033824,17.580094 C87.658058,17.56663 87.2761721,17.5568381 86.8881662,17.5507181 C86.5007723,17.5445982 86.1127664,17.5409262 85.7247605,17.5409262 C85.3606225,17.5409262 85.0019924,17.5445982 84.6494824,17.5507181 C84.2969723,17.5568381 83.9389542,17.56663 83.5742042,17.580094 C83.1978263,18.496865 82.8575561,19.3701842 82.5515578,20.1982157 C82.2461714,21.0268592 82.0172847,21.7110715 81.8648975,22.2526886 C81.6647746,22.2257607 81.4475158,22.2135208 81.2125091,22.2135208 C80.9768903,22.2135208 80.7602435,22.2257607 80.5601206,22.2526886 C81.5123874,20.1951558 82.4401744,18.1510869 83.3447055,16.1180339 C84.2498485,14.083757 85.1604996,12.0164322 86.0772706,9.91299968 L86.4120328,9.91299968 C86.6947752,10.594152 86.9989376,11.33222 87.3288038,12.1247556 C87.658058,12.9185153 87.9934322,13.720843 88.3337023,14.5317386 C88.6745845,15.3426341 89.0148546,16.1474098 89.3557368,16.9460654 C89.6966189,17.7459451 90.0173052,18.488297 90.3165715,19.1761813 C90.6158379,19.8640656 90.8863404,20.4785102 91.1280791,21.0182913 C91.3679818,21.5586843 91.5656567,21.9711701 91.7180439,22.2526886 L91.7180439,22.2526886 Z M83.9095784,16.7704224 C84.2143527,16.7704224 84.531979,16.7765423 84.8606212,16.7900063 C85.1892634,16.8034702 85.5062777,16.8089782 85.812888,16.8089782 C86.1421422,16.8089782 86.4701725,16.8059182 86.8000387,16.7991862 C87.1286809,16.7936783 87.4579351,16.7838863 87.7865773,16.7704224 L85.8306359,12.2930547 L83.9095784,16.7704224 Z" id="Fill-9" fill="#010201"></path>
            <path d="M95.5017745,20.6038471 C95.6602817,20.8211059 95.8542846,21.0181689 96.0831714,21.1938119 C96.3126701,21.370679 96.5807247,21.5144982 96.886111,21.6271056 C97.1914973,21.737877 97.5329915,21.7941807 97.9087574,21.7941807 C98.2979873,21.7941807 98.6474374,21.725637 98.9583317,21.5916098 C99.27045,21.4563585 99.5348326,21.2733715 99.7520914,21.0438727 C99.9705742,20.814986 100.137649,20.5457074 100.255153,20.2335891 C100.373268,19.9220828 100.431408,19.5903806 100.431408,19.2384826 C100.431408,18.6968655 100.293708,18.2672438 100.017086,17.9508416 C99.7404635,17.6332153 99.3965213,17.3694447 98.9840356,17.1583059 C98.5721618,16.945943 98.1284642,16.7519401 97.6517188,16.576909 C97.1743614,16.39943 96.7306638,16.1791112 96.3187901,15.9141166 C95.9063043,15.6509581 95.5629742,15.3131359 95.2857397,14.9012621 C95.0103412,14.4900004 94.871418,13.9379794 94.871418,13.2439752 C94.871418,12.7500938 94.9589335,12.3015003 95.1358005,11.8951345 C95.3126676,11.4906047 95.5678702,11.1405426 95.9032444,10.8467842 C96.2380065,10.5530258 96.6400883,10.323527 97.1101018,10.1588999 C97.5807272,9.99488483 98.1101043,9.91287728 98.6976212,9.91287728 C99.2606581,9.91287728 99.7490314,9.98019691 100.159681,10.1148362 C100.572167,10.2519234 100.953441,10.4606143 101.305951,10.7421328 C101.199464,10.9422557 101.111948,11.1546185 101.040956,11.3773853 C100.970577,11.6007641 100.899585,11.8822826 100.83043,12.2237767 L100.618067,12.2237767 C100.559315,12.0585376 100.480367,11.8798346 100.380612,11.6858316 C100.280857,11.4918287 100.144993,11.3125137 99.9754702,11.1478866 C99.8047231,10.9832595 99.6021522,10.8455602 99.3671455,10.7335648 C99.1315268,10.6227934 98.8500083,10.5664897 98.5207541,10.5664897 C98.1914999,10.5664897 97.8891735,10.6191214 97.6125511,10.7249969 C97.3371526,10.8308723 97.0954139,10.9795875 96.890395,11.1735904 C96.6847641,11.3675934 96.525645,11.6007641 96.4136496,11.8700426 C96.3028782,12.1405452 96.2465745,12.4343036 96.2465745,12.7513178 C96.2465745,13.3027268 96.3854977,13.7378565 96.6615082,14.0548708 C96.9381307,14.371885 97.2820729,14.6393276 97.6939466,14.8559744 C98.1064324,15.0744572 98.55013,15.2684601 99.0268754,15.4373712 C99.5036208,15.6087303 99.9479304,15.8168092 100.359804,16.0628318 C100.771678,16.3094665 101.11562,16.6277048 101.392242,17.0138747 C101.669477,17.4018805 101.807176,17.9190177 101.807176,18.5652862 C101.807176,19.1050673 101.710481,19.6160845 101.515254,20.0977259 C101.321863,20.5793673 101.039732,21.000421 100.668862,21.357215 C100.298604,21.7158451 99.8457269,21.9912436 99.3108418,22.1858585 C98.7765687,22.3792495 98.16702,22.4771689 97.4858677,22.4771689 C96.7563677,22.4771689 96.1664029,22.3804735 95.7123014,22.1876945 C95.2606478,21.9949156 94.8812099,21.7758208 94.5764356,21.5291861 C94.681087,21.2586836 94.7557506,21.0144969 94.7955304,20.7978501 C94.8371461,20.5812033 94.8750899,20.3015208 94.9105857,19.9600266 L95.1223366,19.9600266 C95.2165841,20.1723895 95.3432674,20.3872003 95.5017745,20.6038471" id="Fill-13" fill="#010201"></path>
            <path d="M108.480388,11.0541287 C108.17439,11.0541287 107.854315,11.0565767 107.519553,11.0626966 C107.184179,11.0688166 106.850029,11.0810565 106.514655,11.0975804 C106.17928,11.1165523 105.856146,11.1361362 105.545252,11.1600041 C105.234358,11.18326 104.955287,11.2126358 104.707428,11.2481316 C104.76618,11.0357688 104.79678,10.8478858 104.79678,10.6838707 C104.79678,10.5541274 104.76618,10.3723644 104.707428,10.1367457 C105.48344,10.1600015 106.241704,10.1808094 106.981608,10.1979453 C107.722124,10.2163052 108.480388,10.2248732 109.255788,10.2248732 C110.031188,10.2248732 110.788227,10.2163052 111.529967,10.1979453 C112.269871,10.1808094 113.027523,10.1600015 113.802923,10.1367457 C113.744171,10.3723644 113.714795,10.5602474 113.714795,10.7016186 C113.714795,10.8540058 113.744171,11.0357688 113.802923,11.2481316 C113.5569,11.2126358 113.277218,11.18326 112.966324,11.1600041 C112.654205,11.1361362 112.330459,11.1165523 111.996921,11.0975804 C111.661547,11.0810565 111.326172,11.0688166 110.992022,11.0626966 C110.656648,11.0565767 110.335962,11.0541287 110.031188,11.0541287 C109.995692,12.2652701 109.979168,13.4819195 109.979168,14.7046888 L109.979168,17.7371323 C109.979168,18.5137561 109.993244,19.2775279 110.02262,20.0296719 C110.051995,20.7830398 110.083819,21.5235557 110.118703,22.2524438 C109.8482,22.2255159 109.560562,22.213276 109.255788,22.213276 C108.949789,22.213276 108.662151,22.2255159 108.39226,22.2524438 C108.426532,21.5235557 108.458356,20.7830398 108.486508,20.0296719 C108.514048,19.2775279 108.529348,18.5137561 108.529348,17.7371323 L108.529348,14.7046888 C108.529348,13.4819195 108.512824,12.2652701 108.480388,11.0541287" id="Fill-17" fill="#010201"></path>
            <path d="M126.067703,22.2526886 C125.903688,22.2257607 125.748241,22.2135208 125.60075,22.2135208 L125.133797,22.2135208 L124.666843,22.2135208 C124.520576,22.2135208 124.364517,22.2257607 124.19989,22.2526886 C124.117882,21.981574 124.005887,21.6559918 123.864515,21.2734939 C123.724368,20.891608 123.568309,20.4919741 123.397562,20.0745924 C123.226815,19.6578227 123.054232,19.234321 122.877977,18.8053113 C122.701722,18.3763016 122.536483,17.9680999 122.384708,17.580094 C122.008942,17.56663 121.625832,17.5568381 121.23905,17.5507181 C120.851656,17.5445982 120.46365,17.5409262 120.076256,17.5409262 C119.711506,17.5409262 119.352876,17.5445982 119.000978,17.5507181 C118.648468,17.5568381 118.289838,17.56663 117.925088,17.580094 C117.549934,18.496865 117.20844,19.3701842 116.903053,20.1982157 C116.597667,21.0268592 116.368168,21.7110715 116.215781,22.2526886 C116.015658,22.2257607 115.798399,22.2135208 115.563393,22.2135208 C115.327774,22.2135208 115.111127,22.2257607 114.911004,22.2526886 C115.863271,20.1951558 116.791058,18.1510869 117.696201,16.1180339 C118.600732,14.083757 119.511995,12.0164322 120.428766,9.91299968 L120.76414,9.91299968 C121.045659,10.594152 121.351657,11.33222 121.679687,12.1247556 C122.008942,12.9185153 122.343092,13.720843 122.683974,14.5317386 C123.024856,15.3426341 123.365738,16.1474098 123.706008,16.9460654 C124.047502,17.7459451 124.366965,18.488297 124.666843,19.1761813 C124.966721,19.8640656 125.236612,20.4785102 125.478351,21.0182913 C125.718865,21.5586843 125.915316,21.9711701 126.067703,22.2526886 L126.067703,22.2526886 Z M118.260462,16.7704224 C118.565236,16.7704224 118.883475,16.7765423 119.211505,16.7900063 C119.541371,16.8034702 119.858385,16.8089782 120.163772,16.8089782 C120.493026,16.8089782 120.82228,16.8059182 121.151534,16.7991862 C121.479564,16.7936783 121.808819,16.7838863 122.138073,16.7704224 L120.182131,12.2930547 L118.260462,16.7704224 Z" id="Fill-21" fill="#010201"></path>
            <path d="M129.810308,12.4209008 C129.779708,11.6748769 129.74666,10.912329 129.70994,10.1369293 C129.862328,10.1601851 130.008595,10.180993 130.150578,10.1981289 C130.290725,10.2164888 130.432097,10.2250568 130.573468,10.2250568 C130.713615,10.2250568 130.854986,10.2164888 130.995133,10.1981289 C131.137117,10.180993 131.283384,10.1601851 131.436995,10.1369293 C131.402111,10.912329 131.370899,11.6736529 131.342748,12.4196768 C131.313372,13.1663128 131.299908,13.9270246 131.299908,14.7024244 C131.299908,16.1840684 131.305416,17.4680374 131.31582,18.5543315 C131.326836,19.6418496 131.337852,20.6137003 131.348868,21.4723316 C132.183019,21.4723316 132.981675,21.4637637 133.746059,21.4466277 C134.509218,21.4282678 135.332354,21.3627842 136.212405,21.2465048 C136.154265,21.4582557 136.12489,21.6357347 136.12489,21.775882 C136.12489,21.9050133 136.154265,22.0647444 136.212405,22.2526274 C135.672624,22.2256995 135.132231,22.2134596 134.59245,22.2134596 L132.970659,22.2134596 L131.339076,22.2134596 C130.817042,22.2134596 130.273589,22.2256995 129.70994,22.2526274 C129.74666,21.5231273 129.779708,20.7832234 129.810308,20.0298555 C129.840296,19.2770995 129.856208,18.5139397 129.856208,17.7373159 L129.856208,14.7048724 C129.856208,13.9282486 129.840296,13.1669248 129.810308,12.4209008" id="Fill-25" fill="#010201"></path>
            <path d="M146.594194,11.0100649 C146.561146,10.1398056 146.525651,9.25241047 146.486483,8.3466554 C146.66335,8.37419525 146.835321,8.39622713 146.998724,8.41519903 C147.163351,8.43478292 147.326754,8.44457487 147.491381,8.44457487 C147.654784,8.44457487 147.819412,8.43478292 147.982815,8.41519903 C148.147442,8.39622713 148.318189,8.37419525 148.49628,8.3466554 C148.452216,9.25241047 148.411824,10.1398056 148.375105,11.0100649 C148.338997,11.8809362 148.320637,12.7683313 148.320637,13.6734744 L148.320637,17.2095912 C148.320637,18.1141223 148.338997,19.0039654 148.375105,19.8821807 C148.411824,20.7585599 148.452216,21.6220872 148.49628,22.4715386 C148.181714,22.4464467 147.846339,22.4329828 147.491381,22.4329828 C147.135199,22.4329828 146.801049,22.4464467 146.486483,22.4715386 C146.525651,21.6220872 146.561146,20.7585599 146.594194,19.8821807 C146.626018,19.0039654 146.642542,18.1141223 146.642542,17.2095912 L146.642542,13.6734744 C146.642542,12.7683313 146.626018,11.8809362 146.594194,11.0100649" id="Fill-29" fill="#010201"></path>
            <path d="M157.720355,14.997468 C158.548386,16.5727475 159.415586,18.1884187 160.320117,19.8457057 C160.437008,19.6223269 160.607755,19.3028646 160.830522,18.8848709 C161.053901,18.4681011 161.312163,17.9882958 161.606534,17.4485147 C161.900292,16.9081216 162.214246,16.3230528 162.550233,15.6945322 C162.883771,15.0653997 163.225877,14.4276991 163.571655,13.7814306 C163.918045,13.1357742 164.261987,12.5005216 164.603481,11.878121 C164.943752,11.2551084 165.260766,10.6737115 165.554524,10.1327065 L165.784023,10.1327065 C165.913154,11.2612283 166.033718,12.3518064 166.146325,13.4026047 C166.257096,14.454627 166.37154,15.4889014 166.489655,16.5060398 C166.607159,17.5213423 166.723438,18.5262408 166.842165,19.5201234 C166.959669,20.51217 167.088188,21.4968727 167.229559,22.4717834 C167.088188,22.4460795 166.950489,22.4332276 166.815849,22.4332276 L166.400916,22.4332276 L165.987206,22.4332276 C165.851955,22.4332276 165.714255,22.4460795 165.572884,22.4717834 C165.443753,20.9099679 165.314622,19.3934401 165.18549,17.9240361 C165.055747,16.4558561 164.89724,14.9570762 164.709357,13.4289206 L164.673861,13.4289206 C163.863577,14.9099525 163.066758,16.3799685 162.285238,17.8438645 C161.503718,19.3053126 160.760142,20.8353043 160.055734,22.4332276 L159.896615,22.4332276 C159.191595,20.9528076 158.454751,19.4699397 157.684859,17.9833998 C156.915579,16.4986959 156.142627,14.9803321 155.367228,13.4289206 L155.331732,13.4289206 C155.249724,14.1571966 155.158537,14.9491203 155.058169,15.7997957 C154.958414,16.652307 154.867226,17.4925785 154.785219,18.3212219 C154.702599,19.1492534 154.632832,19.9307732 154.573468,20.6657812 C154.514716,21.4001772 154.485341,22.0023819 154.485341,22.4717834 C154.29807,22.4460795 154.091215,22.4332276 153.868448,22.4332276 C153.645069,22.4332276 153.439438,22.4460795 153.251555,22.4717834 C153.403942,21.5207405 153.563674,20.515842 153.728301,19.4576998 C153.891704,18.4001695 154.051435,17.3359073 154.203822,16.2667491 C154.356209,15.1975909 154.49758,14.1425087 154.626712,13.1027263 C154.756455,12.062332 154.867226,11.0721214 154.961474,10.1327065 L155.26074,10.1327065 C156.071636,11.8016214 156.891099,13.4234126 157.720355,14.997468" id="Fill-33" fill="#010201"></path>
            <path d="M181.29361,22.4717834 C181.128983,22.4460795 180.974148,22.4332276 180.826656,22.4332276 L180.359703,22.4332276 L179.89275,22.4332276 C179.745258,22.4332276 179.590423,22.4460795 179.425796,22.4717834 C179.342564,22.2025048 179.231793,21.8756986 179.090422,21.4938127 C178.949051,21.1125388 178.794215,20.7129049 178.623468,20.2942992 C178.452721,19.8769175 178.279526,19.4540278 178.103883,19.0250181 C177.927016,18.5972324 177.762389,18.1884187 177.610002,17.7998008 C177.233012,17.7869489 176.851738,17.7771569 176.463732,17.7704249 C176.076338,17.764305 175.688332,17.760633 175.300938,17.760633 C174.936188,17.760633 174.577558,17.764305 174.225048,17.7704249 C173.872538,17.7771569 173.51452,17.7869489 173.150994,17.7998008 C172.774616,18.7165718 172.434346,19.589279 172.127736,20.4185345 C171.821737,21.246566 171.593463,21.9320023 171.439851,22.4717834 C171.240341,22.4460795 171.023082,22.4332276 170.788075,22.4332276 C170.55368,22.4332276 170.335197,22.4460795 170.136299,22.4717834 C171.087341,20.4160866 172.016964,18.3714057 172.922107,16.3377407 C173.826638,14.3052998 174.737902,12.236751 175.653449,10.1327065 L175.988211,10.1327065 C176.270341,10.8138588 176.57634,11.5513148 176.904982,12.3456864 C177.233012,13.1376101 177.568998,13.9399378 177.910492,14.7514454 C178.25015,15.561729 178.591645,16.3671166 178.931915,17.1663842 C179.273409,17.9650399 179.592871,18.7092278 179.89275,19.3965001 C180.192628,20.0831604 180.462518,20.697605 180.703645,21.2379981 C180.943548,21.7796151 181.141223,22.1902649 181.29361,22.4717834 L181.29361,22.4717834 Z M173.485144,16.9895172 C173.791143,16.9895172 174.108157,16.9968611 174.437411,17.0091011 C174.766665,17.022565 175.08368,17.028685 175.388454,17.028685 C175.717708,17.028685 176.046962,17.026237 176.376217,17.018893 C176.705471,17.0127731 177.034725,17.0029811 177.363979,16.9895172 L175.406814,12.5121495 L173.485144,16.9895172 Z" id="Fill-37" fill="#010201"></path>
            <path d="M193.729749,11.8795286 C193.464755,11.6677777 193.171608,11.4817307 192.846638,11.3238356 C192.523504,11.1647165 192.165486,11.0355852 191.77136,10.9358297 C191.377846,10.8360743 190.956793,10.7858905 190.509423,10.7858905 C189.780535,10.7858905 189.101219,10.8978859 188.472086,11.1212647 C187.842953,11.3446435 187.29644,11.6879736 186.831935,12.1530911 C186.367429,12.6157606 186.002679,13.2038894 185.738297,13.9144175 C185.473914,14.6255576 185.341723,15.4695011 185.341723,16.4437998 C185.341723,17.3024311 185.459226,18.0772189 185.694233,18.7712231 C185.929852,19.4640033 186.273794,20.0490721 186.725448,20.5245936 C187.178325,21.000115 187.730958,21.367313 188.382735,21.6255756 C189.035123,21.8844502 189.773803,22.0135815 190.596938,22.0135815 C190.843573,22.0135815 191.101836,22.0025655 191.37295,21.9780857 C191.643453,21.9548298 191.904163,21.919946 192.156918,21.8728222 C192.410285,21.8256985 192.645903,21.7675588 192.86255,21.6965672 C193.079809,21.6255756 193.265244,21.54418 193.418855,21.4493205 C193.430483,21.0968104 193.440275,20.7443004 193.448231,20.3917903 C193.454351,20.0380562 193.458023,19.6794262 193.458023,19.3152881 C193.458023,18.9040264 193.448231,18.4921526 193.430483,18.0808909 C193.412735,17.6690171 193.393151,17.2748912 193.369895,16.8997373 C193.66243,16.957877 193.94456,16.9872528 194.213839,16.9872528 C194.341746,16.9872528 194.470877,16.9811328 194.600009,16.9695049 C194.72914,16.957877 194.851539,16.9352331 194.969655,16.8997373 C194.946399,17.1690158 194.929263,17.5955775 194.918247,18.1763623 C194.906619,18.7577592 194.901723,19.524591 194.901723,20.4756338 C194.901723,20.7112525 194.903559,20.9493192 194.911515,21.1904459 C194.917023,21.4309606 194.921307,21.6684153 194.921307,21.9034221 C194.673448,21.9976695 194.365002,22.095589 193.994132,22.1941205 C193.623262,22.2938759 193.229748,22.3771075 192.812978,22.4419791 C192.395597,22.5062388 191.977603,22.5643785 191.560833,22.6170102 C191.143452,22.6708659 190.764014,22.6959577 190.422519,22.6959577 C189.376617,22.6959577 188.432918,22.5704984 187.591423,22.3183558 C186.751151,22.0662132 186.036951,21.6745353 185.449434,21.1463822 C184.861306,20.6176171 184.407816,19.9591086 184.090802,19.1720809 C183.773788,18.3844412 183.61528,17.4756261 183.61528,16.4407398 C183.61528,15.4425732 183.779908,14.55273 184.109162,13.7718223 C184.438416,12.9903025 184.901697,12.3293461 185.501454,11.7895651 C186.101211,11.249172 186.827039,10.8372983 187.680774,10.5557798 C188.533286,10.2736493 189.476373,10.1322781 190.510647,10.1322781 C191.110404,10.1322781 191.642229,10.1653259 192.106734,10.2301976 C192.57124,10.2944572 192.983725,10.3795247 193.341744,10.4860122 C193.700374,10.5918876 194.01494,10.703883 194.284218,10.8213863 C194.555333,10.9395017 194.79646,11.0502731 195.008822,11.1567605 C194.913351,11.3213876 194.828283,11.5319145 194.753008,11.7907891 C194.675896,12.0490517 194.625713,12.2907903 194.603069,12.5135571 L194.390706,12.5135571 C194.213839,12.3030303 193.994132,12.0900554 193.729749,11.8795286" id="Fill-41" fill="#010201"></path>
            <path d="M199.720156,12.6403628 C199.690781,11.8943389 199.660793,11.133015 199.626521,10.3570033 C199.778908,10.3808711 199.925175,10.400455 200.066547,10.4188149 C200.206694,10.4359508 200.348065,10.4445188 200.490048,10.4445188 C200.629584,10.4445188 200.771567,10.4359508 200.911714,10.4188149 C201.053085,10.400455 201.199352,10.3808711 201.352964,10.3570033 C201.316244,11.133015 201.282584,11.8943389 201.251984,12.6403628 C201.221384,13.3876108 201.206696,14.1489346 201.206696,14.9243344 L201.206696,17.9580019 C201.206696,18.7334017 201.221384,19.4977855 201.251984,20.2505415 C201.282584,21.0026854 201.316244,21.7438133 201.352964,22.4714774 C201.081849,22.4463855 200.794211,22.4329216 200.490048,22.4329216 C200.183438,22.4329216 199.8958,22.4463855 199.626521,22.4714774 C199.660793,21.7438133 199.690781,21.0026854 199.720156,20.2505415 C199.748308,19.4977855 199.762996,18.7334017 199.762996,17.9580019 L199.762996,14.9243344 C199.762996,14.1489346 199.748308,13.3876108 199.720156,12.6403628" id="Fill-45" fill="#010201"></path>
            <path d="M212.028328,17.8947827 C210.501396,16.2558556 208.975076,14.6267204 207.448144,13.0049293 C207.437128,13.3341835 207.427337,13.7742091 207.416933,14.3268421 C207.405917,14.8794751 207.399797,15.630395 207.399797,16.5826618 C207.399797,16.8286845 207.402857,17.1340708 207.409589,17.4982088 C207.414485,17.8629588 207.420605,18.2448448 207.426725,18.6432546 C207.432233,19.0428884 207.441412,19.4480302 207.45304,19.859904 C207.464056,20.2711657 207.476296,20.6530517 207.488536,21.0049497 C207.499552,21.3574598 207.511792,21.6659062 207.524032,21.9302887 C207.535048,22.1940593 207.547288,22.3733743 207.559528,22.4670098 C207.370421,22.4437539 207.164178,22.432738 206.940799,22.432738 C206.705792,22.432738 206.489146,22.4437539 206.289023,22.4670098 C206.311667,22.3495064 206.338594,22.1328596 206.36797,21.8158453 C206.397346,21.4988311 206.424274,21.1193931 206.44753,20.6793675 C206.470174,20.2381179 206.497102,19.7601485 206.526477,19.2430113 C206.555853,18.7258741 206.579109,18.209349 206.597469,17.6922118 C206.614605,17.1750746 206.629293,16.6701773 206.640921,16.176296 C206.653773,15.6836387 206.658669,15.2423891 206.658669,14.8549952 C206.658669,13.7264733 206.655609,12.7589066 206.650713,11.948011 C206.644593,11.1371154 206.631741,10.5324627 206.609709,10.1322169 L206.891227,10.1322169 C207.606652,10.9076167 208.372871,11.7393201 209.188663,12.6254913 C210.003843,13.5134985 210.813514,14.3880417 211.618902,15.252181 C212.422453,16.1150963 213.184389,16.9314999 213.905933,17.7001677 C214.628089,18.4700595 215.25967,19.12612 215.798227,19.666513 L215.798227,17.2687101 C215.798227,16.0361488 215.789659,14.8354113 215.772523,13.6658857 C215.755999,12.49636 215.719279,11.395378 215.661752,10.3611036 C215.89737,10.4198553 216.095657,10.4492312 216.260284,10.4492312 C216.401044,10.4492312 216.588315,10.4198553 216.822709,10.3611036 C216.799454,10.6199782 216.772526,11.0079841 216.743762,11.5245093 C216.714386,12.0416465 216.68501,12.5942795 216.655634,13.1805723 C216.625035,13.7680891 216.599943,14.343978 216.575463,14.9082389 C216.551595,15.4718878 216.539967,15.9241534 216.539967,16.2644235 L216.539967,17.3225658 C216.539967,17.7215876 216.543639,18.1383573 216.548535,18.573487 C216.554655,19.0080046 216.559551,19.4455822 216.564447,19.8856078 C216.570567,20.3268574 216.575463,20.7381192 216.580971,21.1193931 C216.585867,21.501279 216.588315,21.8329812 216.588315,22.1151117 L216.588315,22.6958965 L216.342292,22.6958965 C214.992227,21.134081 213.553423,19.5330978 212.028328,17.8947827" id="Fill-49" fill="#010201"></path>
            <path d="M231.341229,11.8795286 C231.076846,11.6677777 230.783088,11.4817307 230.458118,11.3238356 C230.134983,11.1647165 229.776965,11.0355852 229.38284,10.9358297 C228.989326,10.8360743 228.568272,10.7858905 228.120902,10.7858905 C227.392014,10.7858905 226.712698,10.8978859 226.083565,11.1212647 C225.454433,11.3446435 224.90792,11.6879736 224.443414,12.1530911 C223.978909,12.6157606 223.614159,13.2038894 223.349776,13.9144175 C223.085394,14.6255576 222.953202,15.4695011 222.953202,16.4437998 C222.953202,17.3024311 223.070706,18.0772189 223.305713,18.7712231 C223.541331,19.4640033 223.884661,20.0490721 224.337539,20.5245936 C224.789804,21.000115 225.341825,21.367313 225.994826,21.6255756 C226.646602,21.8844502 227.385894,22.0135815 228.20903,22.0135815 C228.455053,22.0135815 228.713315,22.0025655 228.98443,21.9780857 C229.254932,21.9548298 229.515643,21.919946 229.768397,21.8728222 C230.021764,21.8256985 230.257383,21.7675588 230.474642,21.6965672 C230.691288,21.6255756 230.876723,21.54418 231.030335,21.4493205 C231.042574,21.0968104 231.052366,20.7443004 231.05971,20.3917903 C231.06583,20.0380562 231.069502,19.6794262 231.069502,19.3152881 C231.069502,18.9040264 231.05971,18.4921526 231.042574,18.0808909 C231.024215,17.6690171 231.004631,17.2748912 230.981375,16.8997373 C231.274521,16.957877 231.55604,16.9872528 231.825318,16.9872528 C231.953226,16.9872528 232.082357,16.9811328 232.211488,16.9695049 C232.341231,16.957877 232.463019,16.9352331 232.581746,16.8997373 C232.557878,17.1690158 232.541354,17.5955775 232.530338,18.1763623 C232.518098,18.7577592 232.513202,19.524591 232.513202,20.4756338 C232.513202,20.7112525 232.51565,20.9493192 232.522994,21.1904459 C232.528502,21.4309606 232.532786,21.6684153 232.532786,21.9034221 C232.284928,21.9976695 231.976481,22.095589 231.605611,22.1941205 C231.235353,22.2938759 230.841228,22.3771075 230.424458,22.4419791 C230.007076,22.5062388 229.589082,22.5643785 229.172313,22.6170102 C228.754931,22.6708659 228.375493,22.6959577 228.033999,22.6959577 C226.988097,22.6959577 226.044398,22.5704984 225.202902,22.3183558 C224.363243,22.0662132 223.648431,21.6745353 223.060914,21.1463822 C222.472785,20.6176171 222.019296,19.9591086 221.702281,19.1720809 C221.385267,18.3844412 221.22676,17.4756261 221.22676,16.4407398 C221.22676,15.4425732 221.391387,14.55273 221.720641,13.7718223 C222.049895,12.9903025 222.513177,12.3293461 223.112934,11.7895651 C223.713302,11.249172 224.438518,10.8372983 225.292254,10.5557798 C226.144765,10.2736493 227.087852,10.1322781 228.122126,10.1322781 C228.721883,10.1322781 229.253708,10.1653259 229.718214,10.2301976 C230.183331,10.2944572 230.595205,10.3795247 230.953223,10.4860122 C231.311853,10.5918876 231.626419,10.703883 231.89631,10.8213863 C232.166812,10.9395017 232.408551,11.0502731 232.620302,11.1567605 C232.525442,11.3213876 232.439763,11.5319145 232.364487,11.7907891 C232.287376,12.0490517 232.237192,12.2907903 232.214548,12.5135571 L232.002185,12.5135571 C231.825318,12.3030303 231.605611,12.0900554 231.341229,11.8795286" id="Fill-53" fill="#010201"></path>
            <path d="M49.1953524,28.3459722 L232.945517,28.3459722 L232.945517,24.8508592 L49.1953524,24.8508592 L49.1953524,28.3459722 Z" id="Fill-57" fill="#E41C3B"></path>
            <path id="Fill-59" fill="#010201" d="M11.4702828,3.87274374 C11.4606806,3.87874374 11.4476491,3.88574374 11.437361,3.89174374 C11.6259755,3.79374374 11.7960716,3.71274374 11.937361,3.65074374 C11.7638356,3.72174374 11.6026559,3.79474374 11.4702828,3.87274374"></path>
            <path d="M11.951377,3.70845503 C10.4574931,4.28801588 11.6484386,4.93306037 11.9966647,5.09646348 C11.9838128,5.08238756 11.9666769,5.06831163 11.956273,5.05362371 C11.6992344,4.68030574 14.4899392,4.19682837 16.4728084,4.07442904 C18.4617976,3.9520297 24.079927,3.94590974 28.871861,4.59462621 C28.2916881,4.74884937 27.6943794,4.89572857 27.0976826,5.03403982 C28.4734511,4.76965726 29.9765149,4.43305909 31.1980603,3.88899405 C31.1258447,3.91408591 31.0573011,3.93917777 30.9832495,3.96426964 C30.5609718,3.87247014 30.2060137,3.79903054 29.967335,3.7500708 C28.0028257,3.34003303 21.5585007,2.8871555 19.7347507,2.8871555 C18.0786877,2.8871555 14.1233532,3.10931029 12.1576199,3.57809974 C12.2959311,3.55055989 12.2659433,3.58666769 11.951377,3.70845503" id="Fill-60" fill="#010201"></path>
            <path id="Fill-61" fill="#010201" d="M11.7615934,37.7891463 C11.6215934,37.7041463 11.4905934,37.6171463 11.3675934,37.5271463 C11.4775934,37.6131463 11.6095934,37.7011463 11.7615934,37.7891463"></path>
            <path d="M34.3982521,37.2382838 C35.5365659,37.574882 34.6369308,38.6336363 33.6638561,39.1538334 L34.0922538,39.1538334 C34.6308108,39.0375541 35.3162471,38.866195 35.6895651,38.6948359 C36.2832018,38.4255574 37.1032774,37.8992403 36.6320399,37.4096429 C36.255662,37.0155171 35.695685,36.7303266 35.0653285,36.5075598 C34.6442748,36.7052347 34.2024132,36.8882218 33.7440277,37.0589688 C33.9692424,37.1171085 34.1895612,37.1746362 34.3982521,37.2382838" id="Fill-62" fill="#010201"></path>
            <path d="M5.8283503,10.7721206 C3.54315473,11.6442159 5.44768837,12.6411584 5.92443378,12.8627012 C5.90240189,12.8382214 5.87241406,12.8143535 5.85466615,12.7892616 C5.46910825,12.2262247 9.64904552,11.5040686 12.6111094,11.3204696 C15.7457564,11.1252427 25.1142014,10.876772 32.6393125,11.982038 C33.4110403,11.7482553 34.1509442,11.4777528 34.8296486,11.1613505 C34.1025965,11.0144713 33.4832559,10.8981919 33.0640382,10.8125124 C29.6858165,10.1148362 19.8326701,9.67419858 17.3173638,9.70479841 C15.1796594,9.73111427 9.29653543,9.81373382 6.29224377,10.5579218 C6.32529159,10.5658777 6.1955483,10.6319734 5.8283503,10.7721206" id="Fill-63" fill="#010201"></path>
            <path d="M33.6912735,4.65245989 C33.3889472,4.89481058 33.0370491,5.11757736 32.6416993,5.32137226 C32.8142823,5.367884 32.9887014,5.41317176 33.1557765,5.46335548 C34.4960492,5.86727329 35.5303235,6.26507112 36.3075593,6.65062903 C36.3197992,6.65062903 36.3259192,6.65674899 36.3320392,6.66286896 C36.6380375,6.84034799 36.9011961,7.01782703 37.103155,7.1891861 C37.2114784,7.27792561 37.3051139,7.36482914 37.3944654,7.45112067 C37.1949545,6.62614916 36.7671688,5.94438487 36.6600694,5.78342974 C35.8907896,5.35564407 34.7922556,4.97253415 33.6912735,4.65245989" id="Fill-64" fill="#010201"></path>
            <path id="Fill-65" fill="#010201" d="M18.2561055,7.54915191 C16.8938009,7.53015191 15.6728676,7.41615191 14.5920814,7.22315191 C16.6747061,7.65015191 18.9868295,7.69715191 21.2689651,7.48115191 C20.1741031,7.54515191 19.1483966,7.56215191 18.2561055,7.54915191"></path>
            <path id="Fill-66" fill="#010201" d="M7.17664016,28.9501248 C7.05485283,29.0021933 6.87798579,29.07352 6.67174291,29.1605385 C7.24579579,28.9273003 7.76599296,28.7511234 8.08545522,28.6605385 C7.73661712,28.7511234 7.42266283,28.8459879 7.17664016,28.9501248"></path>
            <path d="M36.3566414,32.1342316 C36.6320399,32.43411 36.8248189,32.7364363 36.9104984,33.0301947 C37.178553,32.6415769 37.354808,32.2217471 37.4117237,31.7584657 C37.4129477,31.7492857 37.4209037,31.7498977 37.4245756,31.7443897 C37.4209037,31.7394938 37.4190677,31.7352098 37.4153957,31.7303138 L37.4153957,31.7303138 C37.0457497,31.8435332 36.6656998,31.9524686 36.2746339,32.055896 C36.3003378,32.0822119 36.3327736,32.1079158 36.3566414,32.1342316" id="Fill-67" fill="#010201"></path>
            <path d="M13.6435478,35.6210214 C12.1857717,36.1546825 13.3448934,36.7483193 13.6857756,36.9000945 C13.6735356,36.8860186 13.6557877,36.8731666 13.6453838,36.8590907 C13.3944651,36.5163726 16.1300903,36.069615 18.0701197,35.9594556 C19.9905653,35.8474602 25.377972,35.8107404 30.0254747,36.3921373 C30.7298829,36.2097622 31.3987952,36.0218793 32.0218078,35.8248163 C31.8388208,35.7929925 31.6631778,35.7630047 31.5095666,35.7330168 C29.5817771,35.3535789 22.8865335,34.9190613 21.2647423,34.9068213 C19.7702465,34.8909094 15.9195634,35.0267727 13.9397542,35.4692463 C14.0309417,35.4588423 13.963622,35.5041301 13.6435478,35.6210214" id="Fill-68" fill="#010201"></path>
            <path id="Fill-69" fill="#010201" d="M17.6878666,39.0000226 C19.5881163,39.2030226 21.6156612,39.1630226 23.5924105,38.9390226 C22.2472418,39.0750226 20.9632728,39.1230226 19.815779,39.1070226 C19.0599631,39.0970226 18.353719,39.0600226 17.6878666,39.0000226"></path>
            <path id="Fill-70" fill="#010201" d="M14.4270259,25.8818962 C12.4141689,25.8168962 10.5738949,25.6628962 8.92762384,25.4138962 C10.6858903,25.7148962 12.5390162,25.8638962 14.4270259,25.8818962"></path>
            <path d="M9.55173804,4.74829857 C9.90424813,4.45148019 10.485645,4.16996172 11.0180821,3.95637488 C10.5480686,4.1363019 9.90241214,4.40925242 9.55173804,4.74829857" id="Fill-71" fill="#010201"></path>
            <path d="M3.48183266,14.5081155 C2.9604115,14.2620928 2.52405787,13.9958743 2.17644376,13.7119078 C2.42063043,13.9664984 2.84229614,14.232717 3.48183266,14.5081155" id="Fill-72" fill="#010201"></path>
            <path d="M1.25391998,23.6138916 C0.829806286,23.3746009 0.4779082,23.1145023 0.212301645,22.8305358 C0.383660713,23.0832904 0.717198899,23.345225 1.25391998,23.6138916" id="Fill-73" fill="#010201"></path>
            <path id="Fill-74" fill="#010201" d="M15.258607,16.4678956 C13.5603162,16.4438956 12.0101287,16.3178956 10.6062083,16.1068956 C13.1447705,16.5298956 15.8846796,16.6068956 18.6190807,16.4258956 C17.4109993,16.4718956 16.2751335,16.4818956 15.258607,16.4678956"></path>
            <path d="M38.4691928,12.090239 C38.1197427,12.3913414 37.7250048,12.6740839 37.2800832,12.9347944 C37.5193739,13.0027261 37.7605006,13.0688217 37.9906114,13.1440973 C38.1558505,13.199177 38.3149696,13.2481367 38.4740887,13.3032164 C40.5346815,14.0008926 41.8174265,14.7567085 42.3896434,15.5584242 C42.2727521,14.483758 41.729911,13.6073788 41.5977197,13.4084799 C40.6668728,12.8729828 39.5750707,12.4396891 38.4691928,12.090239" id="Fill-75" fill="#010201"></path>
            <path d="M4.76035491,19.8168194 C2.64101043,20.4636999 3.55288547,21.3345712 4.30747737,21.8064206 C4.86561833,21.2623555 8.604306,20.6546429 11.3503351,20.4820598 C14.7022408,20.2770409 25.5657937,20.1271017 33.7592052,21.3260032 C34.7335039,21.0781445 35.6967866,20.81009 36.5951977,20.5304075 C35.2396251,20.2495011 34.0162438,20.079366 33.2659359,19.9618626 C29.2940775,19.3498659 22.029677,18.9214683 18.529056,18.8602686 C16.2114246,18.8186528 8.77566507,18.9361562 5.08226516,19.6546403 C5.27320812,19.6295484 5.21323244,19.6785082 4.76035491,19.8168194" id="Fill-76" fill="#010201"></path>
            <path d="M42.6174286,22.9192753 C42.0941714,22.4725178 41.438723,22.0930798 40.7147309,21.7711696 C40.2135057,22.0141323 39.6761726,22.243631 39.1106877,22.4602778 C41.0268492,23.0484066 42.1547591,23.7289469 42.6572084,24.447431 C42.8236715,23.6763152 42.6786283,23.1065463 42.6174286,22.9192753" id="Fill-77" fill="#010201"></path>
            <path id="Fill-78" fill="#010201" d="M14.3486292,31.9193249 C13.6295331,31.8853249 12.9459328,31.8303249 12.3100682,31.7533249 C12.8547453,31.8433249 13.5481375,31.8973249 14.3486292,31.9193249"></path>
            <path d="M7.93912682,28.8015425 C5.65331925,29.5763303 7.41280968,30.4655615 7.98196658,30.7115841 C7.96789066,30.6956722 7.94769477,30.6815963 7.93545484,30.6656844 C7.537657,30.1454872 11.8461136,29.4784109 14.899977,29.3070518 C18.5156533,29.1075409 28.1668408,28.532876 33.2562051,30.2544226 C33.7715063,30.1418152 34.2764036,30.0212519 34.7733449,29.8945686 C31.1197247,28.0695945 23.0891044,27.7648202 19.7714705,27.7648202 C17.3797875,27.7648202 11.209025,27.9949309 8.19065745,28.6363034 C8.51379169,28.5653118 8.51991166,28.6044796 7.93912682,28.8015425" id="Fill-79" fill="#010201"></path>
            <path d="M30.4380828,22.3206202 C30.4380828,22.4919793 30.4442028,22.6143786 30.3585233,22.6510984 C30.2728437,22.6878182 30.1688043,22.6021387 30.0770048,22.35734 C29.9790853,22.1125413 29.9240056,22.1309012 29.8444461,22.0513417 C29.7648865,21.9717821 29.6057674,21.9350623 29.6057674,21.9350623 L29.6424872,21.9717821 C29.6424872,21.9717821 29.7710065,22.4001798 29.8444461,22.5286991 C29.9178857,22.6572184 30.046405,23.0733761 30.0831248,23.1712956 C30.1198446,23.269215 30.2483639,23.7098526 30.1626843,23.7649323 C30.0096852,23.8567318 29.8260862,23.5017738 29.7342867,23.2386152 C29.6424872,22.9815766 29.3976885,22.5837788 29.3670887,22.5715388 C29.3364888,22.5592989 29.4344083,23.1406957 29.4527682,23.2386152 C29.4711281,23.3426546 29.5690476,23.9485313 29.5262078,24.003611 C29.483368,24.0525708 29.5017279,24.2116899 29.3732086,24.2239298 C29.2446893,24.2239298 29.0733303,23.1590556 29.0733303,23.1590556 C29.0733303,23.1590556 29.0243705,22.7061781 28.9509309,22.6510984 C28.8774913,22.5960187 28.932571,23.5935733 28.8530115,23.8077721 C28.7673319,24.015851 28.8958512,24.1627302 28.6938923,24.1566102 C28.571493,24.1566102 28.5164133,23.8934516 28.5041734,23.7771723 C28.4980534,23.6608929 28.5041734,22.8958971 28.4919334,22.8102175 C28.4796935,22.724538 28.3389343,23.4344541 28.2960945,23.5262536 C28.2593747,23.6119332 28.2287749,23.8016521 28.1369754,23.7649323 C28.0390559,23.7220926 27.9962161,23.5568535 28.014576,23.3854944 C28.0329359,23.2141353 28.0512958,22.7734977 28.0574158,22.730658 C28.0574158,22.6878182 28.0574158,22.6021387 28.0512958,22.547059 C28.0451759,22.5042192 28.026816,22.4185397 28.014576,22.3695799 C28.0023361,22.3206202 27.9044166,21.4944247 27.9350165,21.2985857 C27.9656163,21.1027468 27.9962161,20.9681075 27.9778562,20.8946679 C27.9594963,20.8212283 27.647378,19.7930739 27.3780995,19.4687157 C27.1149409,19.1443575 26.7416229,18.1712828 26.6375835,17.8958843 C26.539664,17.6204858 26.2948654,16.8738498 26.3071053,16.4882919 C26.3193452,16.102734 26.3438251,15.9068951 26.2826254,15.8028556 C26.2275457,15.6926962 25.9215474,14.9583002 25.8603477,14.9093405 C25.7930281,14.8665007 25.6767487,15.9374949 25.6522689,16.096614 C25.633909,16.2496132 25.5665893,16.6412911 25.6155491,16.7024907 C25.6706288,16.7698104 25.7257085,17.394047 25.7073486,17.6021259 C25.6951086,17.8102047 25.6889887,18.2324824 25.6033091,18.318162 C25.5115096,18.3977215 25.7012286,18.6914799 25.7746682,18.9423986 C25.8481078,19.1994372 26.2091858,20.0072728 26.2275457,20.3071511 C26.2459056,20.6009095 26.5213041,21.5739843 26.4539845,22.2839004 C26.3927848,22.9938165 26.3377051,25.1908846 26.0929065,25.9314006 C25.8481078,26.6657966 25.9827471,26.5617571 25.9276674,26.6902764 C25.9093075,26.7453561 25.7930281,27.0941942 25.7685482,27.1859937 C25.7379484,27.2777932 25.633909,28.5385064 25.633909,28.6792656 L25.633909,29.0893034 C25.627789,29.1382631 25.4686699,29.6217405 25.5115096,29.7257799 C25.5543494,29.8236994 25.811388,30.9008135 25.8787076,31.1639721 C25.9399073,31.4271307 25.9215474,32.5593245 25.7134685,32.9326425 C25.4992697,33.2998405 25.1014719,34.7441526 24.9913125,35.0134312 C24.8811531,35.2888297 24.7709937,35.6193079 24.7465138,35.9742659 C24.715914,36.323104 24.7587537,36.518943 24.7587537,36.5985025 C24.7587537,36.6780621 24.7403938,37.0513801 24.7587537,37.1186997 C24.7709937,37.1798994 24.9239928,37.7123365 24.9974324,37.791896 C25.0647521,37.8714556 25.1137118,37.9938549 25.1137118,37.9938549 L25.1137118,38.0734145 C25.1137118,38.0734145 25.2728309,38.3059732 25.1565516,38.4283726 C25.0341522,38.5507719 24.8138334,38.5691318 24.8138334,38.5691318 C24.8138334,38.5691318 24.7832336,38.5936117 24.6363544,38.6670513 C24.4894752,38.7404909 24.3976757,38.6670513 24.3793158,38.6486914 C24.3609559,38.6242115 24.1773569,38.8016905 24.0794374,38.7894506 C23.981518,38.7772107 23.9570381,38.6486914 23.9570381,38.6486914 C23.9570381,38.6486914 23.8835985,38.7894506 23.7611992,38.7894506 C23.6449198,38.7833306 23.5225205,38.709891 23.5225205,38.709891 C23.5225205,38.709891 23.424601,38.9118499 23.234882,38.8506503 C23.045163,38.7894506 22.9105238,38.709891 22.8799239,38.4895722 C22.873804,38.4100127 23.045163,38.0305747 23.045163,38.0305747 C23.045163,38.0305747 23.045163,37.8347358 23.0880028,37.7123365 C23.1247226,37.5960571 23.2532419,37.4002182 23.2532419,37.3573784 C23.247122,37.3145386 23.1981622,37.0085403 23.234882,36.9289807 C23.2716018,36.8433012 23.2716018,36.6535822 23.3205616,36.5556628 C23.3634013,36.4577433 23.4123611,36.3047441 23.4062411,36.2741443 C23.4062411,36.2435445 23.4001211,36.151745 23.424601,35.9742659 C23.4552008,35.7906669 23.5286404,35.4601887 23.5653602,35.405109 C23.5959601,35.3561493 23.60208,34.7380326 23.60208,34.6523531 C23.6082,34.5666736 23.6632797,33.6364386 23.6449198,33.5385192 C23.6265599,33.4467197 23.5164005,32.7857633 23.5470003,32.7062037 C23.5714802,32.6205242 23.4552008,31.9473278 23.4796807,31.8004486 C23.5041606,31.6596894 23.6877596,30.7416944 23.6877596,30.6192951 C23.6877596,30.4907758 23.6326799,29.3647019 23.5470003,29.1811029 C23.4552008,28.9975039 23.2899617,27.9203897 23.3083216,27.5531917 C23.3266815,27.1798738 23.1186027,25.9497605 23.1002428,25.7172017 C23.0818829,25.4907629 22.8248442,24.015851 22.8064843,23.9240515 C22.7881244,23.8383719 22.7391647,23.3304147 22.7330447,23.269215 C22.7269248,23.2080154 22.7269248,22.8102175 22.7269248,22.8102175 L22.6473652,22.8102175 C22.6473652,22.8102175 22.5984055,24.0586907 22.5494457,24.2422897 C22.506606,24.4258887 22.3780867,25.472403 22.3352469,25.7294416 C22.2862872,25.9803603 22.0659684,26.9228352 22.0843283,27.5164719 C22.1026882,28.1039887 21.9864088,28.8139049 21.9925288,28.966904 C22.0047687,29.1260232 21.9252091,29.2117027 21.8946093,29.3279821 C21.8701294,29.4442614 21.7293702,30.5886952 21.7171303,30.637655 C21.6987704,30.6804947 21.9129692,31.4944503 21.9252091,31.6780493 C21.9374491,31.8677683 21.8884893,32.9387624 21.8395296,33.1590812 C21.7966898,33.3732801 21.7477301,33.9057172 21.75997,33.9852767 C21.76609,34.0709563 21.8578895,34.5666736 21.8578895,34.6156333 C21.8517695,34.6584731 21.8334096,35.2949496 21.8578895,35.3316694 C21.8762494,35.3622693 22.0047687,35.6866275 21.9864088,35.772307 C21.9680489,35.8518666 21.9864088,36.0966653 22.0170086,36.1701049 C22.0414885,36.2435445 22.1149281,36.5434228 22.133288,36.6413423 C22.1516479,36.7331418 22.133288,37.0513801 22.133288,37.0819799 C22.133288,37.1186997 22.1577679,37.3022987 22.2006076,37.3634984 C22.2312075,37.430818 22.3352469,37.5532173 22.3536068,37.5960571 C22.3719667,37.6327769 22.3719667,37.9510152 22.3719667,37.9510152 C22.3719667,37.9510152 22.4882461,38.2508935 22.5678056,38.348813 C22.5678056,38.348813 22.6412452,38.6058516 22.3719667,38.709891 C22.1026882,38.8078105 21.9864088,38.7282509 21.9129692,38.6486914 C21.8395296,38.5630118 21.7905699,38.7343709 21.7048903,38.722131 C21.6130908,38.709891 21.4968115,38.5874917 21.4968115,38.5874917 C21.4968115,38.5874917 21.4111319,38.709891 21.3009725,38.709891 C21.1846932,38.7037711 21.0622938,38.5507719 21.0622938,38.5507719 C21.0622938,38.5507719 20.9704943,38.6303315 20.8725749,38.6303315 C20.7807754,38.6242115 20.6216562,38.4712123 20.6216562,38.4712123 C20.6216562,38.4712123 20.5053769,38.5507719 20.4258173,38.5079321 C20.3462577,38.4712123 20.2544582,38.5079321 20.297298,38.2631335 C20.3156579,38.1529741 20.2666982,38.0734145 20.303418,37.9938549 C20.3462577,37.9081754 20.3584977,37.8530957 20.3584977,37.8530957 C20.3584977,37.8530957 20.664496,37.0819799 20.664496,37.0391401 L20.664496,37.0269002 L20.664496,36.9167408 C20.664496,36.9167408 20.6889759,36.2068247 20.6950958,36.1272651 C20.7012158,36.0415856 20.5359767,34.6095133 20.119819,34.1076761 C20.0769792,34.0525964 19.6914213,33.0060821 19.6363416,32.7551634 C19.5812619,32.5103648 19.379303,31.6413295 19.7097812,31.0844125 C19.740381,31.0354528 19.8627804,30.3622564 19.8750203,30.3194167 C19.8811403,30.2704569 19.8383005,27.6694711 19.746501,27.5776716 C19.6547015,27.4858721 19.4588626,26.9411951 19.3487032,26.4638377 C19.2446637,25.9926002 19.0304649,23.7710523 19.012105,23.4956538 C18.9937451,23.2263753 18.9631453,21.1761864 19.0671847,20.9864674 C19.1651042,20.7906285 19.1528642,20.7416688 19.1528642,20.7416688 C19.1528642,20.7416688 19.1345043,20.2887912 19.189584,20.1174322 C19.2446637,19.9460731 19.4405027,19.3769162 19.4772225,19.3463164 C19.5078223,19.3095966 19.7097812,18.5078809 19.746501,18.4589212 C19.7832208,18.4160814 19.6547015,18.2447224 19.6669414,17.9815638 C19.6730614,17.7184052 19.6853013,17.0635688 19.746501,16.9656493 C19.746501,16.9656493 19.7587409,16.1884135 19.746501,16.1333338 C19.740381,16.0782541 19.556782,14.7012616 19.556782,14.7012616 C19.556782,14.7012616 19.1100245,15.7722558 19.0916646,15.8089756 C19.0733047,15.8518154 19.0794246,16.9595294 19.0365849,17.0390889 C18.9937451,17.1247685 18.9509053,17.2838876 18.9509053,17.2838876 C18.9509053,17.2838876 18.9937451,17.3634472 18.9509053,17.4430067 C18.9141855,17.5225663 18.6877468,17.9570839 18.6326671,18.0794833 C18.5775874,18.1957626 18.461308,18.6058004 18.4062283,18.67924 C18.3572685,18.7526796 17.8799111,19.6094749 17.8064715,19.7196343 C17.7330319,19.8297937 17.6657123,20.0745924 17.6412324,20.1051922 C17.6167526,20.1357921 17.5555529,20.2337115 17.5249531,20.3071511 C17.4882333,20.3744708 17.3719539,20.692709 17.3719539,20.692709 L17.3229942,20.7783886 C17.3229942,20.7783886 17.3903138,21.3720254 17.4515135,21.5862242 C17.4576334,21.616824 17.4147937,22.0880615 17.3719539,22.1309012 C17.3229942,22.179861 17.3658339,23.5996932 17.3658339,23.5996932 C17.3658339,23.5996932 17.2985143,23.6853728 17.2434346,23.6853728 C17.1883549,23.6792528 17.0965554,23.5996932 17.0598356,23.4956538 C17.0231158,23.3977343 16.9190764,22.5103392 16.8884765,22.4919793 C16.8517567,22.4919793 16.8823566,23.7098526 16.8272769,23.8138921 C16.7660772,23.9179315 16.7905571,24.0280909 16.6865176,24.0403308 C16.5885982,24.0525708 16.5335185,23.8628518 16.5273985,23.8016521 C16.5212785,23.7404525 16.4478389,22.5286991 16.4478389,22.5286991 L16.1296007,23.9546513 C16.1296007,23.9546513 16.1051208,24.1260104 16.0072013,24.1260104 C15.9031619,24.1260104 15.8542022,23.9240515 15.8542022,23.9240515 L16.0133213,22.4919793 L15.5053641,23.5690934 C15.5053641,23.5690934 15.4013246,23.7037327 15.2850453,23.6608929 C15.1687659,23.6119332 15.2972852,23.0733761 15.3952047,22.8224575 C15.4931241,22.5715388 15.5726837,22.4001798 15.5788037,22.3695799 L15.5788037,22.2533006 L15.7318028,21.8187829 C15.7318028,21.8187829 15.7134429,21.7392234 15.6522433,21.7759432 C15.5971636,21.812663 15.3156451,22.1982209 15.2850453,22.3206202 C15.2605654,22.4491395 15.0708464,22.5531789 15.0157667,22.5286991 C14.8505276,22.4430195 14.9790469,22.1309012 14.9790469,22.1309012 C14.9790469,22.1309012 15.2177256,21.5739843 15.2789253,21.4760648 C15.334005,21.3781453 15.6155235,20.8212283 15.7318028,20.7416688 C15.8542022,20.6621092 16.0255612,20.5335899 16.0500411,20.4601503 C16.074521,20.3928307 16.1296007,20.2275916 16.1724404,20.1847518 C16.2091602,20.148032 16.3315596,19.7624741 16.3499195,19.6890345 C16.3682794,19.6217149 16.6314379,18.495641 16.6375579,18.4099615 C16.6497978,18.318162 16.6497978,17.761245 16.6497978,17.761245 C16.6497978,17.761245 17.0537156,16.1455738 17.2311947,15.9680947 C17.4147937,15.7967357 17.3658339,15.7722558 17.3658339,15.7722558 C17.3658339,15.7722558 17.5249531,14.9705402 17.5555529,14.8971006 C17.5800328,14.8297809 17.7819917,13.16515 17.8799111,13.0305107 C17.9778306,12.8958715 17.9900705,12.620473 17.9533507,12.5103136 C17.9227509,12.3940342 17.8493113,11.9472766 17.8431913,11.6351583 C17.8431913,11.32304 17.8676712,10.1724863 18.277709,9.73184867 C18.6938667,9.29121106 18.9080656,9.04029243 19.189584,8.97909276 C19.4772225,8.91177313 20.0341394,8.85669343 20.3401378,8.77101389 C20.6400161,8.69145432 21.0010942,8.56905499 21.1296135,8.43441572 C21.2581328,8.29977645 21.5518912,7.90809859 21.4968115,7.14310275 C21.4845715,6.98398361 21.4845715,6.87994418 21.4906915,6.81262454 C21.4968115,6.80650458 21.4906915,6.80650458 21.4906915,6.80650458 C21.4356118,6.61678561 21.3376923,6.46378644 21.3376923,6.43318661 C21.1969331,6.48214634 21.1051336,6.21286781 21.0928937,6.17002804 C21.0806537,6.13330824 20.9643744,5.6437109 20.9582544,5.58251123 C20.9521344,5.52131157 20.9276546,5.45399193 20.9827343,5.31935267 C20.9827343,5.3132327 20.9888542,5.30711273 20.9888542,5.30711273 C20.9704943,5.28875283 20.9704943,5.258153 20.9704943,5.258153 C20.9704943,5.258153 20.848095,4.86035516 20.8786948,4.32179809 C20.9031747,3.78324102 21.1785732,3.40992305 21.6192108,3.09780475 C22.0537284,2.77956648 22.5616857,2.78568645 22.8493241,2.73672671 C23.1369626,2.68164701 23.6816396,3.09780475 23.8040389,3.09780475 C23.9203183,3.09780475 24.0794374,3.21408412 24.158997,3.25080392 C24.2385566,3.29364368 24.4772353,3.89340042 24.532315,4.05863952 C24.5873947,4.22387862 24.5078351,4.54211689 24.4955952,4.60943653 C24.4772353,4.67675616 24.520075,4.92155483 24.520075,5.00723436 C24.520075,5.05007413 24.4588754,5.13575366 24.3976757,5.21531323 C24.4037957,5.20919327 24.4160356,5.20919327 24.4221556,5.20919327 C24.4772353,5.2214332 24.5996346,5.28263287 24.6179945,5.35607247 C24.6363544,5.43563203 24.6608343,5.441752 24.6363544,5.53967147 C24.6118745,5.63759094 24.4772353,6.19450791 24.4772353,6.19450791 C24.4772353,6.19450791 24.3793158,6.41482671 24.2691564,6.42094667 C24.2018368,6.42706664 24.1895968,6.41482671 24.1895968,6.39646681 C24.1712369,6.50050624 24.1283972,6.70246514 24.1039173,6.75754484 C24.0610775,6.85546431 23.981518,7.18594251 23.8897185,7.32058178 C23.8529987,7.36954151 23.8285188,7.40626131 23.8101589,7.43686115 C23.8223988,7.52254068 23.8591186,7.68165982 23.9019584,7.82241905 C23.9631581,8.03661789 23.9631581,8.42217579 24.4772353,8.58129492 C24.9974324,8.74041406 26.0990264,8.97297279 26.5090642,9.13209193 C26.9252219,9.2850911 27.2251003,9.78692837 27.3597396,10.1235265 C27.4882589,10.4540047 27.6718579,11.2618403 27.6351381,11.7330778 C27.5984183,12.2043152 27.4454191,12.7857121 27.4515391,12.9081114 C27.463779,13.0243908 27.5678184,13.2385896 27.5984183,13.3793488 C27.6228981,13.526228 27.7881373,14.8909806 27.8248571,15.0562197 C27.8615769,15.2214588 28.1736952,16.2496132 28.2960945,16.4882919 C28.4123739,16.7269706 28.6449326,17.4919665 28.6632925,17.6327257 C28.6816524,17.767365 28.7000123,18.7343197 28.7428521,18.7893994 C28.7856918,18.8444791 29.0488504,20.1847518 29.2508093,20.3867107 C29.4466482,20.5825496 29.9546055,21.1088668 30.0035652,21.2985857 C30.0525249,21.4883047 30.4319629,22.1553811 30.4380828,22.3206202" id="Fill-80" fill="#898B8E"></path>
            <path d="M39.0698675,11.5055986 C38.8923885,11.7075575 38.6843096,11.9033965 38.4701107,12.0931154 C38.1212726,12.3929938 37.7234748,12.6745123 37.2828372,12.9376708 C33.0539402,15.4101374 24.8531848,16.1567733 18.6169387,16.3036525 C17.4113053,16.3281324 16.2729915,16.3342524 15.257077,16.3281324 C13.5618462,16.3158925 12.0073747,16.2363329 10.6059023,16.1078136 C7.46635939,15.8201751 5.0734524,15.2571382 3.48226106,14.5105023 C2.96206389,14.2595836 2.52142629,13.9964251 2.17870815,13.7087866 C2.09914858,13.647587 2.01958901,13.5863873 1.94614941,13.5190677 C0.942474874,12.5704728 4.16157736,11.2302001 5.62424941,10.7467227 L5.63036937,10.7467227 C5.97920748,10.6243234 6.22400615,10.5570038 6.28520581,10.5570038 L6.29132578,10.5570038 C6.32804558,10.5631237 6.19340631,10.6304434 5.82620831,10.7712026 C3.54346073,11.6463579 5.44677037,12.6439124 5.92412778,12.8642312 C5.98532744,12.8948311 6.02816721,12.907071 6.02816721,12.907071 C6.02816721,12.907071 7.42351962,13.635347 9.90822611,13.9474653 C13.3170476,14.375863 23.7454708,13.8434259 26.4382562,13.3293487 C28.2742462,12.9805106 30.5631138,12.6071926 32.6377825,11.982956 C33.4088983,11.7503973 34.1494143,11.4749988 34.8287306,11.1628805 C35.5202868,10.8385222 36.1445234,10.4713242 36.6647206,10.0429266 C37.5643557,9.3024106 37.6010755,8.29873606 37.3929966,7.45418065 C37.1971577,6.62798515 36.76876,5.94254888 36.6586006,5.78342974 C36.6524806,5.77118981 36.6463607,5.76506984 36.6402407,5.75282991 C36.7136803,5.78342974 37.9866334,6.35870661 39.0270277,7.37462109 C40.0062224,8.32321593 40.3061008,10.0735264 39.0698675,11.5055986" id="Fill-81" fill="#E41C3B"></path>
            <path d="M34.1800141,4.19835836 C34.0331349,4.3574775 33.8740157,4.51047667 33.6904167,4.6512359 C33.3905384,4.89603457 33.0355803,5.11635337 32.6439024,5.31831227 C29.9082773,6.73202458 25.1530632,7.23998182 21.2668843,7.38074105 C20.1714103,7.41746085 19.1493758,7.42970079 18.2558607,7.42358082 C16.8911081,7.41134089 15.6732347,7.34402125 14.5900006,7.22162192 C12.4755521,6.99151117 10.9241406,6.56739748 9.97003777,5.99762858 C9.92046604,5.96947673 9.87762627,5.94193688 9.83417451,5.91439703 C9.65363549,5.79628167 9.48778439,5.67449433 9.3574291,5.54475104 C9.1003905,5.29383241 9.23502977,5.01231394 9.55326804,4.74915537 C9.90210614,4.449277 10.483503,4.16775853 11.0159401,3.95967966 C11.1872991,3.89236003 11.3341783,3.83728033 11.4382178,3.80056053 C11.6034569,3.73936086 11.7564561,3.69040113 11.8849754,3.65368133 C11.9706549,3.62308149 12.0624544,3.59860163 12.1603739,3.58024173 C12.2950131,3.54964189 12.2644133,3.58636169 11.952295,3.70876103 C10.4590231,4.29015786 11.6462967,4.93275437 11.9951348,5.09799347 C12.0502145,5.12247334 12.0869343,5.13471327 12.0869343,5.13471327 C12.0869343,5.13471327 13.0171692,5.62431061 14.6818001,5.83238948 C16.9584278,6.11390794 23.8801101,5.64267051 25.6793803,5.29995237 C26.1200179,5.2203928 26.6034953,5.1285933 27.0992126,5.0367938 C28.4762051,4.76751527 29.975597,4.4309171 31.1995903,3.88624006 C31.6830677,3.67204123 32.1298252,3.42724256 32.4970232,3.13348416 C34.1494143,1.81769131 32.9805006,0.128580501 32.8887011,6.11996671e-05 C32.9743806,0.0306610332 33.7577364,0.348899302 34.4921324,1.21793458 C35.0735292,1.90949081 35.1592088,3.09676436 34.1800141,4.19835836" id="Fill-82" fill="#E41C3B"></path>
            <path d="M43.1335254,20.2693909 C42.466449,20.820188 41.6524934,21.3159053 40.7161385,21.7687828 C40.2143013,22.0135815 39.6757442,22.2461402 39.1127073,22.460339 C32.6867422,24.9266856 22.4480379,25.771241 15.7527943,25.7222813 C15.2999168,25.7161613 14.8592792,25.7100414 14.4247615,25.6978014 C12.4174125,25.6610816 10.5753025,25.5692821 8.92903143,25.416283 C5.43453044,25.0919247 2.82130465,24.4982879 1.25459318,23.6108928 C0.832315473,23.3722141 0.477357403,23.1151755 0.214198835,22.827537 C0.195838935,22.8152971 0.177479035,22.7969372 0.165239101,22.7846973 C0.0917995007,22.7051377 0.0367198003,22.6194582 0,22.5398986 L0,22.0013415 C0.41003777,21.0405068 2.86414442,20.2020713 4.2472569,19.8409933 C4.29621663,19.8287533 4.35129633,19.8165134 4.40637603,19.7981535 C4.53489533,19.7675537 4.64505473,19.7430738 4.74909417,19.7185939 C4.74909417,19.7185939 4.75521413,19.7247139 4.75521413,19.7185939 C4.8347737,19.706354 4.92045324,19.6879941 5.00613277,19.6696342 C5.03061264,19.6696342 5.0550925,19.6635142 5.07957237,19.6573943 C5.27541131,19.6267944 5.21421164,19.6757542 4.7613341,19.8165134 C2.64382562,20.4652299 3.55570066,21.3342652 4.30845656,21.8055026 C4.63893477,22.0135815 4.93881314,22.1421008 4.93881314,22.1421008 C4.93881314,22.1421008 6.57284425,22.9070966 9.4859484,23.2314548 C13.4822867,23.6782124 25.5937008,22.9376964 28.7516036,22.3991394 C30.2448755,22.1482207 32.0196658,21.7687828 33.7577364,21.3281452 C34.7308111,21.0772266 35.6977658,20.807948 36.5974009,20.5325495 C38.1457525,20.0490721 39.4982652,19.5349949 40.3734204,19.0453976 C42.1665706,18.0356031 42.5154087,16.6892104 42.3868894,15.5570166 C42.2706101,14.4860224 41.732053,13.6047472 41.5974137,13.4089083 C41.5790538,13.3783084 41.5668139,13.3660685 41.5668139,13.3660685 C41.5668139,13.3660685 42.8642468,13.825066 43.8740414,15.1714587 C44.7553166,16.3526123 45.0735548,18.6659597 43.1335254,20.2693909" id="Fill-83" fill="#E41C3B"></path>
            <path d="M42.3747107,29.1800625 C41.3281964,30.2265768 39.571766,31.0650122 37.4420175,31.7259686 C37.4358976,31.7259686 37.4358976,31.7259686 37.4297776,31.7320886 L37.4175377,31.7320886 C37.0442197,31.842248 36.6647818,31.9524074 36.2731039,32.0564468 C30.5937748,33.5558387 22.8030572,33.9842363 17.7357247,33.9475165 C10.4407244,33.8924368 5.66715037,32.9254821 3.90459996,31.3465307 C3.15796402,30.6733344 4.62675603,29.8654988 6.07718814,29.3147017 C6.15062774,29.2902219 6.21794738,29.259622 6.27914705,29.2351422 C6.34646668,29.2106623 6.40766635,29.1861824 6.47498598,29.1617026 C6.54230561,29.1372227 6.60962525,29.1127428 6.67082492,29.088263 C7.24610179,28.892424 7.76629896,28.7394249 8.08453723,28.6598653 C8.12125703,28.6537453 8.15185686,28.6415054 8.18857666,28.6353854 C8.5129349,28.5619458 8.51905486,28.6047856 7.93765802,28.8006245 C5.65491044,29.5778603 7.41134089,30.4652555 7.98049779,30.7100542 C8.07841726,30.7528939 8.14573689,30.7773738 8.14573689,30.7773738 C8.14573689,30.7773738 9.596169,31.4505701 12.178795,31.7382086 L12.3073143,31.7565685 C12.8519913,31.8055282 13.5496675,31.842248 14.3513831,31.8544879 C18.9352382,31.9340475 26.9156748,31.4077304 29.271862,31.0038126 C30.5754149,30.7834938 31.9340475,30.5386951 33.2559603,30.2510567 C33.7700375,30.1408973 34.2779948,30.0184979 34.7737121,29.8960986 C36.260864,29.5166606 37.6500964,29.0637831 38.7578104,28.5007462 C41.5240353,27.0992738 42.4175505,25.5631622 42.6562292,24.4493282 C42.8214683,23.6782124 42.680709,23.1090555 42.6195094,22.9193365 C42.6011495,22.8764968 42.5950295,22.8520169 42.5950295,22.8520169 C42.5950295,22.8520169 43.6843836,23.5925329 44.0087418,25.2449239 C44.2107007,26.2914382 43.9047024,27.6500708 42.3747107,29.1800625" id="Fill-84" fill="#E41C3B"></path>
            <path d="M35.7283657,36.1813044 C35.5141668,36.2975838 35.293848,36.4016232 35.0674093,36.5056626 C34.6451316,36.7076215 34.204494,36.8912205 33.7454964,37.0564596 C33.1273798,37.2890184 32.4786633,37.4909773 31.805467,37.6745763 C31.4058332,37.7822877 30.9670316,37.8863271 30.5080341,37.9873066 C28.4676372,38.4505881 26.3115729,38.7412865 24.259548,38.8924497 C24.0392292,38.9108096 23.8127905,38.9230495 23.5924717,38.9414094 C22.246079,39.020969 20.960886,39.0515688 19.8164522,39.0393289 C19.0575763,39.0332089 18.3537802,39.014849 17.6867038,38.9781292 C14.9082389,38.82513 12.9131298,38.4150922 11.7503361,37.7663758 C11.7013764,37.7418959 11.6524166,37.7112961 11.6095769,37.6868162 C11.5238973,37.6378565 11.4443378,37.5827768 11.3647782,37.5276971 C11.2729787,37.4603774 11.1811792,37.3869378 11.1016196,37.3134982 C10.4406632,36.6953816 12.4357724,35.9059059 13.4394469,35.5999076 C13.5863261,35.5570678 13.7576852,35.514228 13.9412842,35.4713883 C14.0330837,35.4591483 13.965764,35.5019881 13.6414058,35.6182675 C12.1848537,36.1568245 13.3476474,36.7504613 13.6842456,36.8973405 C13.7393253,36.9218204 13.7760451,36.9401803 13.7760451,36.9401803 C13.7760451,36.9401803 14.6879201,37.3869378 16.3158313,37.5766568 C18.5434991,37.8398154 25.3305422,37.4726174 27.0808527,37.0870595 C28.121247,36.8606207 29.1065617,36.628062 30.0245567,36.3893833 C30.7283529,36.2119042 31.4015492,36.0221853 32.0196658,35.8263463 C34.375853,35.0797104 36.0955637,34.2106751 36.9095192,33.0295215 C37.1787978,32.6439636 37.3562768,32.2216859 37.4113565,31.7565685 C37.4113565,31.7504485 37.4235964,31.7504485 37.4235964,31.7443285 C37.4235964,31.7382086 37.4297164,31.7382086 37.4297164,31.7320886 C37.4358364,31.7259686 37.4358364,31.7259686 37.4419563,31.7259686 C37.7051149,31.7259686 39.3881058,34.2229151 35.7283657,36.1813044" id="Fill-85" fill="#E41C3B"></path>
        </g>
    </g>
</svg>