<?xml version="1.0" encoding="UTF-8" standalone="no"?>
<svg width="298px" height="50px" viewBox="0 0 298 50" version="1.1" xmlns="http://www.w3.org/2000/svg" xmlns:xlink="http://www.w3.org/1999/xlink">
    <!-- Generator: Sketch 3.6.1 (26313) - http://www.bohemiancoding.com/sketch -->
    <title>c-coastal-d</title>
    <desc>Created with Sketch.</desc>
    <defs></defs>
    <g id="Page-1" stroke="none" stroke-width="1" fill="none" fill-rule="evenodd">
        <g id="c-coastal-d">
            <path d="M77.5465625,27.7964063 C77.2051562,27.9628125 76.7942187,28.1104688 76.3129687,28.2432813 C75.8309375,28.3745313 75.2934375,28.4925 74.698125,28.5979688 C74.1028125,28.7026563 73.4809375,28.755 72.8348437,28.755 C71.4520312,28.755 70.1746875,28.5573438 69.00125,28.1635938 C67.829375,27.7698438 66.8192187,27.170625 65.9723437,26.364375 C65.1246875,25.5596875 64.460625,24.57375 63.9809375,23.4096875 C63.50125,22.245625 63.2614062,20.9198438 63.2614062,19.43 C63.2614062,17.9417188 63.50125,16.6151563 63.9809375,15.4510938 C64.460625,14.2870313 65.1332812,13.301875 65.9973437,12.495625 C66.8629687,11.6909375 67.8996875,11.0776563 69.1067187,10.6573438 C70.31375,10.2370313 71.645,10.026875 73.0973437,10.026875 C74.2520312,10.026875 75.3059375,10.1448438 76.2598437,10.3815625 C77.21375,10.6167188 78.0582812,10.901875 78.7934375,11.2346875 C78.6528125,11.4792188 78.53875,11.8120313 78.4520312,12.2307813 C78.3645312,12.6510938 78.2942187,13.001875 78.2426562,13.2815625 L78.0840625,13.3346875 C77.9098437,13.1245313 77.66375,12.8878125 77.3496875,12.6245313 C77.0340625,12.3628125 76.666875,12.1096875 76.248125,11.8635938 C75.8270312,11.6190625 75.3535937,11.4135938 74.829375,11.2471875 C74.3051562,11.0807813 73.7270312,10.9979688 73.0973437,10.9979688 C72.0645312,10.9979688 71.1059375,11.1651563 70.2223437,11.4971875 C69.33875,11.8292188 68.5692187,12.3417188 67.9121875,13.0339063 C67.2567187,13.7253125 66.745,14.6003125 66.3770312,15.6596875 C66.0098437,16.7182813 65.82625,17.9745313 65.82625,19.4284375 C65.82625,20.8823438 66.0098437,22.1378125 66.3770312,23.1964063 C66.745,24.2565625 67.2567187,25.1315625 67.9121875,25.8229688 C68.5692187,26.5151563 69.33875,27.0276563 70.2223437,27.3589063 C71.1059375,27.6917188 72.0645312,27.8589063 73.0973437,27.8589063 C73.7270312,27.8589063 74.3090625,27.7792188 74.8426562,27.6221875 C75.37625,27.464375 75.8660937,27.2784375 76.3129687,27.0589063 C76.7590625,26.8409375 77.1614062,26.6042188 77.52,26.3503125 C77.8785937,26.0964063 78.1809375,25.87375 78.42625,25.6807813 L78.5309375,25.7870313 L78.2942187,27.3370313 C78.1371875,27.476875 77.8871875,27.63 77.5465625,27.7964063 L77.5465625,27.7964063 Z" id="Fill-1" fill="#010201"></path>
            <path d="M83.8632812,17.2989062 C84.2757812,16.30125 84.8523437,15.4590625 85.5945312,14.7676562 C86.3375,14.0785937 87.2257812,13.5535937 88.2609375,13.1942187 C89.2953125,12.8332812 90.428125,12.654375 91.6578125,12.654375 C92.9015625,12.654375 94.0421875,12.8332812 95.0765625,13.1942187 C96.1109375,13.5535937 96.9992187,14.0785937 97.7414062,14.7676562 C98.484375,15.4590625 99.0609375,16.30125 99.4742187,17.2989062 C99.8859375,18.2965625 100.092187,19.4332812 100.092187,20.7059375 C100.092187,21.9809375 99.8859375,23.116875 99.4742187,24.1153125 C99.0609375,25.1129687 98.484375,25.9567187 97.7414062,26.6457812 C96.9992187,27.335625 96.1109375,27.8489062 95.0765625,28.1871875 C94.0421875,28.523125 92.9015625,28.6934375 91.6578125,28.6934375 C90.428125,28.6934375 89.2953125,28.523125 88.2609375,28.1871875 C87.2257812,27.8489062 86.3375,27.335625 85.5945312,26.6457812 C84.8523437,25.9567187 84.2757812,25.1129687 83.8632812,24.1153125 C83.45,23.116875 83.2445312,21.9809375 83.2445312,20.7059375 C83.2445312,19.4332812 83.45,18.2965625 83.8632812,17.2989062 M97.415625,17.4825 C97.1007812,16.5746875 96.6617187,15.8254687 96.1,15.2317187 C95.5375,14.63875 94.878125,14.20125 94.1195312,13.9153125 C93.3632812,13.6301563 92.5414062,13.4879688 91.6578125,13.4879688 C90.7875,13.4879688 89.9734375,13.6301563 89.2164062,13.9153125 C88.4585937,14.20125 87.7992187,14.63875 87.2367187,15.2317187 C86.675,15.8254687 86.2359375,16.5746875 85.9203125,17.4825 C85.6054687,18.3903125 85.4484375,19.4660937 85.4484375,20.7114062 C85.4484375,21.9567187 85.6054687,23.0317187 85.9203125,23.9395312 C86.2359375,24.8465625 86.675,25.5965625 87.2367187,26.1903125 C87.7992187,26.7809375 88.4585937,27.2207813 89.2164062,27.5051562 C89.9734375,27.7903125 90.7875,27.9332813 91.6578125,27.9332813 C92.5414062,27.9332813 93.3632812,27.7903125 94.1195312,27.5051562 C94.878125,27.2207813 95.5375,26.7809375 96.1,26.1903125 C96.6617187,25.5965625 97.1007812,24.8465625 97.415625,23.9395312 C97.73125,23.0317187 97.8882812,21.9567187 97.8882812,20.7114062 C97.8882812,19.4660937 97.73125,18.3903125 97.415625,17.4825" id="Fill-5" fill="#010201"></path>
            <path d="M117.083516,28.406875 C116.873359,28.3725 116.674141,28.356875 116.487422,28.356875 L115.890547,28.356875 L115.294453,28.356875 C115.106953,28.356875 114.907734,28.3725 114.698359,28.406875 C114.592891,28.0607812 114.449922,27.6451562 114.271016,27.156875 C114.090547,26.669375 113.891328,26.1592188 113.674141,25.6264062 C113.456953,25.094375 113.235859,24.55375 113.010078,24.0060937 C112.785078,23.4584375 112.575703,22.9373437 112.380391,22.4420312 C111.900703,22.4248438 111.413203,22.4123438 110.917891,22.4045312 C110.423359,22.3967187 109.928047,22.3920312 109.432734,22.3920312 C108.967891,22.3920312 108.510078,22.3967187 108.060078,22.4045312 C107.610078,22.4123438 107.153047,22.4248438 106.687422,22.4420312 C106.206953,23.6123438 105.772578,24.7271875 105.381953,25.7842188 C104.992109,26.8420312 104.699922,27.7154687 104.505391,28.406875 C104.249922,28.3725 103.972578,28.356875 103.672578,28.356875 C103.371797,28.356875 103.095234,28.3725 102.839766,28.406875 C104.055391,25.7803125 105.239766,23.1709375 106.394453,20.575625 C107.549922,17.97875 108.712422,15.3396875 109.882734,12.6545313 L110.310078,12.6545313 C110.671016,13.5240625 111.059297,14.46625 111.480391,15.4779687 C111.900703,16.49125 112.328828,17.5154688 112.763203,18.550625 C113.198359,19.5857813 113.632734,20.613125 114.067891,21.6326562 C114.503047,22.65375 114.912422,23.6014063 115.294453,24.4795313 C115.676484,25.3576563 116.021797,26.1420312 116.330391,26.8310938 C116.636641,27.5209375 116.888984,28.0475 117.083516,28.406875 L117.083516,28.406875 Z M107.115547,21.4084375 C107.504609,21.4084375 107.910078,21.41625 108.329609,21.4334375 C108.749141,21.450625 109.153828,21.4576563 109.545234,21.4576563 C109.965547,21.4576563 110.384297,21.45375 110.805391,21.4451563 C111.224922,21.438125 111.645234,21.425625 112.064766,21.4084375 L109.567891,15.6928125 L107.115547,21.4084375 Z" id="Fill-9" fill="#010201"></path>
            <path d="M121.913672,26.3020312 C122.116016,26.579375 122.363672,26.8309375 122.655859,27.0551562 C122.948828,27.2809375 123.291016,27.4645312 123.680859,27.6082812 C124.070703,27.7496875 124.506641,27.8215625 124.986328,27.8215625 C125.483203,27.8215625 125.929297,27.7340625 126.326172,27.5629687 C126.724609,27.3903125 127.062109,27.1567187 127.339453,26.86375 C127.618359,26.5715625 127.831641,26.2278125 127.981641,25.829375 C128.132422,25.4317187 128.206641,25.0082812 128.206641,24.5590625 C128.206641,23.8676562 128.030859,23.3192187 127.677734,22.9153125 C127.324609,22.5098437 126.885547,22.173125 126.358984,21.9035937 C125.833203,21.6325 125.266797,21.3848437 124.658203,21.1614062 C124.048828,20.9348437 123.482422,20.6535937 122.956641,20.3153125 C122.430078,19.979375 121.991797,19.548125 121.637891,19.0223437 C121.286328,18.4973437 121.108984,17.7926562 121.108984,16.9067187 C121.108984,16.27625 121.220703,15.7035937 121.446484,15.1848437 C121.672266,14.6684375 121.998047,14.2215625 122.426172,13.8465625 C122.853516,13.4715625 123.366797,13.1785937 123.966797,12.9684375 C124.567578,12.7590625 125.243359,12.654375 125.993359,12.654375 C126.712109,12.654375 127.335547,12.7403125 127.859766,12.9121875 C128.386328,13.0871875 128.873047,13.3535937 129.323047,13.7129687 C129.187109,13.9684375 129.075391,14.2395312 128.984766,14.5239062 C128.894922,14.8090625 128.804297,15.1684375 128.716016,15.604375 L128.444922,15.604375 C128.369922,15.3934375 128.269141,15.1653125 128.141797,14.9176562 C128.014453,14.67 127.841016,14.4410937 127.624609,14.2309375 C127.406641,14.0207812 127.148047,13.845 126.848047,13.7020312 C126.547266,13.560625 126.187891,13.48875 125.767578,13.48875 C125.347266,13.48875 124.961328,13.5559375 124.608203,13.6910937 C124.256641,13.82625 123.948047,14.0160937 123.686328,14.26375 C123.423828,14.5114062 123.220703,14.8090625 123.077734,15.1528125 C122.936328,15.498125 122.864453,15.873125 122.864453,16.2778125 C122.864453,16.9817187 123.041797,17.5371875 123.394141,17.941875 C123.747266,18.3465625 124.186328,18.6879687 124.712109,18.9645312 C125.238672,19.2434375 125.805078,19.4910937 126.413672,19.7067187 C127.022266,19.9254687 127.589453,20.1910937 128.115234,20.5051562 C128.641016,20.82 129.080078,21.22625 129.433203,21.7192187 C129.787109,22.2145312 129.962891,22.8746875 129.962891,23.6996875 C129.962891,24.38875 129.839453,25.0410937 129.590234,25.6559375 C129.343359,26.2707812 128.983203,26.8082812 128.509766,27.26375 C128.037109,27.7215625 127.458984,28.073125 126.776172,28.3215625 C126.094141,28.5684375 125.316016,28.6934375 124.446484,28.6934375 C123.515234,28.6934375 122.762109,28.57 122.182422,28.3239062 C121.605859,28.0778125 121.121484,27.798125 120.732422,27.4832812 C120.866016,27.1379687 120.961328,26.82625 121.012109,26.5496875 C121.065234,26.273125 121.113672,25.9160937 121.158984,25.4801562 L121.429297,25.4801562 C121.549609,25.75125 121.711328,26.0254687 121.913672,26.3020312" id="Fill-13" fill="#010201"></path>
            <path d="M138.481641,14.11125 C138.091016,14.11125 137.682422,14.114375 137.255078,14.1221875 C136.826953,14.13 136.400391,14.145625 135.972266,14.1667188 C135.544141,14.1909375 135.131641,14.2159375 134.734766,14.2464063 C134.337891,14.2760938 133.981641,14.3135938 133.665234,14.3589063 C133.740234,14.0878125 133.779297,13.8479687 133.779297,13.6385938 C133.779297,13.4729688 133.740234,13.2409375 133.665234,12.9401563 C134.655859,12.9698438 135.623828,12.9964063 136.568359,13.0182813 C137.513672,13.0417188 138.481641,13.0526563 139.471484,13.0526563 C140.461328,13.0526563 141.427734,13.0417188 142.374609,13.0182813 C143.319141,12.9964063 144.286328,12.9698438 145.276172,12.9401563 C145.201172,13.2409375 145.163672,13.4807813 145.163672,13.66125 C145.163672,13.8557813 145.201172,14.0878125 145.276172,14.3589063 C144.962109,14.3135938 144.605078,14.2760938 144.208203,14.2464063 C143.809766,14.2159375 143.396484,14.1909375 142.970703,14.1667188 C142.542578,14.145625 142.114453,14.13 141.687891,14.1221875 C141.259766,14.114375 140.850391,14.11125 140.461328,14.11125 C140.416016,15.6573438 140.394922,17.2104688 140.394922,18.7714063 L140.394922,22.6425 C140.394922,23.6339063 140.412891,24.6089063 140.450391,25.5690625 C140.487891,26.5307813 140.528516,27.4760938 140.573047,28.4065625 C140.227734,28.3721875 139.860547,28.3565625 139.471484,28.3565625 C139.080859,28.3565625 138.713672,28.3721875 138.369141,28.4065625 C138.412891,27.4760938 138.453516,26.5307813 138.489453,25.5690625 C138.524609,24.6089063 138.544141,23.6339063 138.544141,22.6425 L138.544141,18.7714063 C138.544141,17.2104688 138.523047,15.6573438 138.481641,14.11125" id="Fill-17" fill="#010201"></path>
            <path d="M160.932891,28.406875 C160.723516,28.3725 160.525078,28.356875 160.336797,28.356875 L159.740703,28.356875 L159.144609,28.356875 C158.957891,28.356875 158.758672,28.3725 158.548516,28.406875 C158.443828,28.0607812 158.300859,27.6451562 158.120391,27.156875 C157.941484,26.669375 157.742266,26.1592188 157.524297,25.6264062 C157.306328,25.094375 157.086016,24.55375 156.861016,24.0060937 C156.636016,23.4584375 156.425078,22.9373437 156.231328,22.4420312 C155.751641,22.4248438 155.262578,22.4123438 154.768828,22.4045312 C154.274297,22.3967187 153.778984,22.3920312 153.284453,22.3920312 C152.818828,22.3920312 152.361016,22.3967187 151.911797,22.4045312 C151.461797,22.4123438 151.003984,22.4248438 150.538359,22.4420312 C150.059453,23.6123438 149.623516,24.7271875 149.233672,25.7842188 C148.843828,26.8420312 148.550859,27.7154687 148.356328,28.406875 C148.100859,28.3725 147.823516,28.356875 147.523516,28.356875 C147.222734,28.356875 146.946172,28.3725 146.690703,28.406875 C147.906328,25.7803125 149.090703,23.1709375 150.246172,20.575625 C151.400859,17.97875 152.564141,15.3396875 153.734453,12.6545313 L154.162578,12.6545313 C154.521953,13.5240625 154.912578,14.46625 155.331328,15.4779687 C155.751641,16.49125 156.178203,17.5154688 156.613359,18.550625 C157.048516,19.5857813 157.483672,20.613125 157.918047,21.6326562 C158.353984,22.65375 158.761797,23.6014063 159.144609,24.4795313 C159.527422,25.3576563 159.871953,26.1420312 160.180547,26.8310938 C160.487578,27.5209375 160.738359,28.0475 160.932891,28.406875 L160.932891,28.406875 Z M150.966484,21.4084375 C151.355547,21.4084375 151.761797,21.41625 152.180547,21.4334375 C152.601641,21.450625 153.006328,21.4576563 153.396172,21.4576563 C153.816484,21.4576563 154.236797,21.45375 154.657109,21.4451563 C155.075859,21.438125 155.496172,21.425625 155.916484,21.4084375 L153.419609,15.6928125 L150.966484,21.4084375 Z" id="Fill-21" fill="#010201"></path>
            <path d="M165.710547,15.8560156 C165.671484,14.9036719 165.629297,13.9302344 165.582422,12.9403906 C165.776953,12.9700781 165.963672,12.9966406 166.144922,13.0185156 C166.323828,13.0419531 166.504297,13.0528906 166.684766,13.0528906 C166.863672,13.0528906 167.044141,13.0419531 167.223047,13.0185156 C167.404297,12.9966406 167.591016,12.9700781 167.787109,12.9403906 C167.742578,13.9302344 167.702734,14.9021094 167.666797,15.8544531 C167.629297,16.8075781 167.612109,17.7786719 167.612109,18.7685156 C167.612109,20.6599219 167.619141,22.2989844 167.632422,23.6857031 C167.646484,25.0739844 167.660547,26.3146094 167.674609,27.4107031 C168.739453,27.4107031 169.758984,27.3997656 170.734766,27.3778906 C171.708984,27.3544531 172.759766,27.2708594 173.883203,27.1224219 C173.808984,27.3927344 173.771484,27.6192969 173.771484,27.7982031 C173.771484,27.9630469 173.808984,28.1669531 173.883203,28.4067969 C173.194141,28.3724219 172.504297,28.3567969 171.815234,28.3567969 L169.744922,28.3567969 L167.662109,28.3567969 C166.995703,28.3567969 166.301953,28.3724219 165.582422,28.4067969 C165.629297,27.4755469 165.671484,26.5310156 165.710547,25.5692969 C165.748828,24.6083594 165.769141,23.6341406 165.769141,22.6427344 L165.769141,18.7716406 C165.769141,17.7802344 165.748828,16.8083594 165.710547,15.8560156" id="Fill-25" fill="#010201"></path>
            <path d="M187.136172,14.055 C187.093984,12.9440625 187.048672,11.81125 186.998672,10.655 C187.224453,10.6901562 187.443984,10.7182812 187.652578,10.7425 C187.862734,10.7675 188.071328,10.78 188.281484,10.78 C188.490078,10.78 188.700234,10.7675 188.908828,10.7425 C189.118984,10.7182812 189.336953,10.6901562 189.564297,10.655 C189.508047,11.81125 189.456484,12.9440625 189.409609,14.055 C189.363516,15.1667187 189.340078,16.2995312 189.340078,17.455 L189.340078,21.9690625 C189.340078,23.12375 189.363516,24.2596875 189.409609,25.3807812 C189.456484,26.4995312 189.508047,27.601875 189.564297,28.68625 C189.162734,28.6542187 188.734609,28.6370312 188.281484,28.6370312 C187.826797,28.6370312 187.400234,28.6542187 186.998672,28.68625 C187.048672,27.601875 187.093984,26.4995312 187.136172,25.3807812 C187.176797,24.2596875 187.197891,23.12375 187.197891,21.9690625 L187.197891,17.455 C187.197891,16.2995312 187.176797,15.1667187 187.136172,14.055" id="Fill-29" fill="#010201"></path>
            <path d="M201.339375,19.1451563 C202.396406,21.1560938 203.503438,23.2185938 204.658125,25.3342188 C204.807344,25.0490625 205.025313,24.64125 205.309688,24.1076563 C205.594844,23.575625 205.924531,22.963125 206.300313,22.2740625 C206.675313,21.5842188 207.076094,20.8373438 207.505,20.035 C207.930781,19.231875 208.3675,18.4178125 208.808906,17.5928125 C209.251094,16.7685938 209.690156,15.9576563 210.126094,15.163125 C210.560469,14.3678125 210.965156,13.625625 211.340156,12.935 L211.633125,12.935 C211.797969,14.375625 211.951875,15.7678125 212.095625,17.1092188 C212.237031,18.4521875 212.383125,19.7725 212.533906,21.0709375 C212.683906,22.3670313 212.832344,23.6498438 212.983906,24.9185938 C213.133906,26.185 213.297969,27.4420313 213.478438,28.6865625 C213.297969,28.65375 213.122188,28.6373438 212.950313,28.6373438 L212.420625,28.6373438 L211.8925,28.6373438 C211.719844,28.6373438 211.544063,28.65375 211.363594,28.6865625 C211.19875,26.6928125 211.033906,24.756875 210.869063,22.8810938 C210.703438,21.006875 210.501094,19.0935938 210.26125,17.1428125 L210.215938,17.1428125 C209.181563,19.0334375 208.164375,20.91 207.166719,22.77875 C206.169063,24.644375 205.219844,26.5975 204.320625,28.6373438 L204.1175,28.6373438 C203.2175,26.7475 202.276875,24.8545313 201.294063,22.956875 C200.312031,21.0615625 199.325313,19.1232813 198.335469,17.1428125 L198.290156,17.1428125 C198.185469,18.0725 198.069063,19.0834375 197.940938,20.169375 C197.813594,21.2576563 197.697188,22.3303125 197.5925,23.388125 C197.487031,24.4451563 197.397969,25.4428125 197.322188,26.3810938 C197.247188,27.3185938 197.209688,28.0873438 197.209688,28.6865625 C196.970625,28.65375 196.706563,28.6373438 196.422188,28.6373438 C196.137031,28.6373438 195.874531,28.65375 195.634688,28.6865625 C195.829219,27.4725 196.033125,26.1896875 196.243281,24.8389063 C196.451875,23.4889063 196.655781,22.1303125 196.850313,20.7654688 C197.044844,19.400625 197.225313,18.05375 197.390156,16.7264063 C197.555781,15.3982813 197.697188,14.1342188 197.8175,12.935 L198.199531,12.935 C199.234688,15.0654688 200.280781,17.1357813 201.339375,19.1451563" id="Fill-33" fill="#010201"></path>
            <path d="M231.432031,28.6865625 C231.221875,28.65375 231.024219,28.6373438 230.835938,28.6373438 L230.239844,28.6373438 L229.64375,28.6373438 C229.455469,28.6373438 229.257813,28.65375 229.047656,28.6865625 C228.941406,28.3428125 228.8,27.925625 228.619531,27.438125 C228.439063,26.9514063 228.241406,26.44125 228.023438,25.906875 C227.805469,25.3740625 227.584375,24.8342188 227.360156,24.2865625 C227.134375,23.7404688 226.924219,23.2185938 226.729688,22.7225 C226.248438,22.7060938 225.761719,22.6935938 225.266406,22.685 C224.771875,22.6771875 224.276563,22.6725 223.782031,22.6725 C223.316406,22.6725 222.858594,22.6771875 222.408594,22.685 C221.958594,22.6935938 221.501563,22.7060938 221.0375,22.7225 C220.557031,23.8928125 220.122656,25.006875 219.73125,26.0654688 C219.340625,27.1225 219.049219,27.9975 218.853125,28.6865625 C218.598438,28.65375 218.321094,28.6373438 218.021094,28.6373438 C217.721875,28.6373438 217.442969,28.65375 217.189063,28.6865625 C218.403125,26.0623438 219.589844,23.4521875 220.745313,20.8560938 C221.9,18.2615625 223.063281,15.6209375 224.232031,12.935 L224.659375,12.935 C225.019531,13.8045313 225.410156,14.7459375 225.829688,15.76 C226.248438,16.7709375 226.677344,17.7951563 227.113281,18.8310938 C227.546875,19.8654688 227.982813,20.8935938 228.417188,21.9139063 C228.853125,22.9334375 229.260938,23.8834375 229.64375,24.7607813 C230.026563,25.6373438 230.371094,26.4217188 230.678906,27.1115625 C230.985156,27.8029688 231.2375,28.3271875 231.432031,28.6865625 L231.432031,28.6865625 Z M221.464063,21.688125 C221.854688,21.688125 222.259375,21.6975 222.679688,21.713125 C223.1,21.7303125 223.504688,21.738125 223.89375,21.738125 C224.314063,21.738125 224.734375,21.735 225.154688,21.725625 C225.575,21.7178125 225.995313,21.7053125 226.415625,21.688125 L223.917188,15.9725 L221.464063,21.688125 Z" id="Fill-37" fill="#010201"></path>
            <path d="M247.3075,15.1649219 C246.969219,14.8946094 246.595,14.6571094 246.180156,14.4555469 C245.767656,14.2524219 245.310625,14.0875781 244.8075,13.9602344 C244.305156,13.8328906 243.767656,13.7688281 243.196563,13.7688281 C242.266094,13.7688281 241.398906,13.9117969 240.595781,14.1969531 C239.792656,14.4821094 239.095,14.9203906 238.502031,15.5141406 C237.909063,16.1047656 237.443438,16.8555469 237.105938,17.7625781 C236.768438,18.6703906 236.599688,19.7477344 236.599688,20.9914844 C236.599688,22.0875781 236.749688,23.0766406 237.049688,23.9625781 C237.350469,24.8469531 237.789531,25.5938281 238.366094,26.2008594 C238.944219,26.8078906 239.649688,27.2766406 240.481719,27.6063281 C241.314531,27.9367969 242.2575,28.1016406 243.308281,28.1016406 C243.623125,28.1016406 243.952813,28.0875781 244.298906,28.0563281 C244.644219,28.0266406 244.977031,27.9821094 245.299688,27.9219531 C245.623125,27.8617969 245.923906,27.7875781 246.200469,27.6969531 C246.477813,27.6063281 246.714531,27.5024219 246.910625,27.3813281 C246.925469,26.9313281 246.937969,26.4813281 246.948125,26.0313281 C246.955938,25.5797656 246.960625,25.1219531 246.960625,24.6571094 C246.960625,24.1321094 246.948125,23.6063281 246.925469,23.0813281 C246.902813,22.5555469 246.877813,22.0524219 246.848125,21.5735156 C247.221563,21.6477344 247.581719,21.6852344 247.925469,21.6852344 C248.08875,21.6852344 248.253594,21.6774219 248.418438,21.6625781 C248.583281,21.6477344 248.739531,21.6188281 248.890313,21.5735156 C248.860625,21.9172656 248.83875,22.4617969 248.824688,23.2032031 C248.809844,23.9453906 248.803594,24.9242969 248.803594,26.1383594 C248.803594,26.4391406 248.805938,26.7430469 248.816094,27.0508594 C248.823125,27.3578906 248.828594,27.6610156 248.828594,27.9610156 C248.512188,28.0813281 248.118438,28.2063281 247.645,28.3321094 C247.171563,28.4594531 246.669219,28.5657031 246.137188,28.6485156 C245.604375,28.7305469 245.070781,28.8047656 244.53875,28.8719531 C244.005938,28.9407031 243.521563,28.9727344 243.085625,28.9727344 C241.750469,28.9727344 240.545781,28.8125781 239.471563,28.4907031 C238.398906,28.1688281 237.487188,27.6688281 236.737188,26.9946094 C235.986406,26.3196094 235.4075,25.4789844 235.002813,24.4742969 C234.598125,23.4688281 234.395781,22.3086719 234.395781,20.9875781 C234.395781,19.7133594 234.605938,18.5774219 235.02625,17.5805469 C235.446563,16.5828906 236.037969,15.7391406 236.803594,15.0500781 C237.569219,14.3602344 238.495781,13.8344531 239.585625,13.4750781 C240.673906,13.1149219 241.877813,12.9344531 243.198125,12.9344531 C243.96375,12.9344531 244.642656,12.9766406 245.235625,13.0594531 C245.828594,13.1414844 246.355156,13.2500781 246.812188,13.3860156 C247.27,13.5211719 247.671563,13.6641406 248.015313,13.8141406 C248.361406,13.9649219 248.669219,14.1063281 248.940313,14.2422656 C248.818438,14.4524219 248.709844,14.7211719 248.61375,15.0516406 C248.515313,15.3813281 248.45125,15.6899219 248.422344,15.9742969 L248.15125,15.9742969 C247.925469,15.7055469 247.645,15.4336719 247.3075,15.1649219" id="Fill-41" fill="#010201"></path>
            <path d="M254.954609,16.1361719 C254.917109,15.1838281 254.878828,14.2119531 254.835078,13.2213281 C255.029609,13.2517969 255.216328,13.2767969 255.396797,13.3002344 C255.575703,13.3221094 255.756172,13.3330469 255.937422,13.3330469 C256.115547,13.3330469 256.296797,13.3221094 256.475703,13.3002344 C256.656172,13.2767969 256.842891,13.2517969 257.038984,13.2213281 C256.992109,14.2119531 256.949141,15.1838281 256.910078,16.1361719 C256.871016,17.0900781 256.852266,18.0619531 256.852266,19.0517969 L256.852266,22.9244531 C256.852266,23.9142969 256.871016,24.8900781 256.910078,25.8510156 C256.949141,26.8111719 256.992109,27.7572656 257.038984,28.6861719 C256.692891,28.6541406 256.325703,28.6369531 255.937422,28.6369531 C255.546016,28.6369531 255.178828,28.6541406 254.835078,28.6861719 C254.878828,27.7572656 254.917109,26.8111719 254.954609,25.8510156 C254.990547,24.8900781 255.009297,23.9142969 255.009297,22.9244531 L255.009297,19.0517969 C255.009297,18.0619531 254.990547,17.0900781 254.954609,16.1361719" id="Fill-45" fill="#010201"></path>
            <path d="M270.666719,22.84375 C268.7175,20.7515625 266.769062,18.671875 264.819844,16.6015625 C264.805781,17.021875 264.793281,17.5835938 264.78,18.2890625 C264.765937,18.9945313 264.758125,19.953125 264.758125,21.16875 C264.758125,21.4828125 264.762031,21.8726563 264.770625,22.3375 C264.776875,22.803125 264.784687,23.290625 264.7925,23.7992188 C264.799531,24.309375 264.81125,24.8265625 264.826094,25.3523438 C264.840156,25.8773438 264.855781,26.3648438 264.871406,26.8140625 C264.885469,27.2640625 264.901094,27.6578125 264.916719,27.9953125 C264.930781,28.3320313 264.946406,28.5609375 264.962031,28.6804688 C264.720625,28.6507813 264.457344,28.6367188 264.172187,28.6367188 C263.872187,28.6367188 263.595625,28.6507813 263.340156,28.6804688 C263.369062,28.5304688 263.403437,28.2539063 263.440937,27.8492188 C263.478437,27.4445313 263.512812,26.9601563 263.5425,26.3984375 C263.571406,25.8351563 263.605781,25.225 263.643281,24.5648438 C263.680781,23.9046875 263.710469,23.2453125 263.733906,22.5851563 C263.755781,21.925 263.774531,21.2804688 263.789375,20.65 C263.805781,20.0210938 263.812031,19.4578125 263.812031,18.9632813 C263.812031,17.5226563 263.808125,16.2875 263.801875,15.2523438 C263.794062,14.2171875 263.777656,13.4453125 263.749531,12.934375 L264.108906,12.934375 C265.022187,13.9242188 266.000312,14.9859375 267.041719,16.1171875 C268.082344,17.2507813 269.115937,18.3671875 270.144062,19.4703125 C271.169844,20.571875 272.1425,21.6140625 273.063594,22.5953125 C273.985469,23.578125 274.791719,24.415625 275.479219,25.1054688 L275.479219,22.0445313 C275.479219,20.4710938 275.468281,18.9382813 275.446406,17.4453125 C275.425312,15.9523438 275.378437,14.546875 275.305,13.2265625 C275.605781,13.3015625 275.858906,13.3390625 276.069062,13.3390625 C276.24875,13.3390625 276.487812,13.3015625 276.787031,13.2265625 C276.757344,13.5570313 276.722969,14.0523438 276.68625,14.7117188 C276.64875,15.371875 276.61125,16.0773438 276.57375,16.8257813 C276.534687,17.5757813 276.502656,18.3109375 276.471406,19.03125 C276.440937,19.7507813 276.426094,20.328125 276.426094,20.7625 L276.426094,22.1132813 C276.426094,22.6226563 276.430781,23.1546875 276.437031,23.7101563 C276.444844,24.2648438 276.451094,24.8234375 276.457344,25.3851563 C276.465156,25.9484375 276.471406,26.4734375 276.478437,26.9601563 C276.484687,27.4476563 276.487812,27.8710938 276.487812,28.23125 L276.487812,28.9726563 L276.17375,28.9726563 C274.450312,26.9789063 272.613594,24.9351563 270.666719,22.84375" id="Fill-49" fill="#010201"></path>
            <path d="M295.320781,15.1649219 C294.983281,14.8946094 294.608281,14.6571094 294.193437,14.4555469 C293.780937,14.2524219 293.323906,14.0875781 292.820781,13.9602344 C292.318437,13.8328906 291.780937,13.7688281 291.209844,13.7688281 C290.279375,13.7688281 289.412187,13.9117969 288.609062,14.1969531 C287.805937,14.4821094 287.108281,14.9203906 286.515312,15.5141406 C285.922344,16.1047656 285.456719,16.8555469 285.119219,17.7625781 C284.781719,18.6703906 284.612969,19.7477344 284.612969,20.9914844 C284.612969,22.0875781 284.762969,23.0766406 285.062969,23.9625781 C285.36375,24.8469531 285.802031,25.5938281 286.380156,26.2008594 C286.9575,26.8078906 287.662187,27.2766406 288.495781,27.6063281 C289.327812,27.9367969 290.271562,28.1016406 291.322344,28.1016406 C291.636406,28.1016406 291.966094,28.0875781 292.312187,28.0563281 C292.6575,28.0266406 292.990312,27.9821094 293.312969,27.9219531 C293.636406,27.8617969 293.937187,27.7875781 294.214531,27.6969531 C294.491094,27.6063281 294.727812,27.5024219 294.923906,27.3813281 C294.939531,26.9313281 294.952031,26.4813281 294.961406,26.0313281 C294.969219,25.5797656 294.973906,25.1219531 294.973906,24.6571094 C294.973906,24.1321094 294.961406,23.6063281 294.939531,23.0813281 C294.916094,22.5555469 294.891094,22.0524219 294.861406,21.5735156 C295.235625,21.6477344 295.595,21.6852344 295.93875,21.6852344 C296.102031,21.6852344 296.266875,21.6774219 296.431719,21.6625781 C296.597344,21.6477344 296.752812,21.6188281 296.904375,21.5735156 C296.873906,21.9172656 296.852812,22.4617969 296.83875,23.2032031 C296.823125,23.9453906 296.816875,24.9242969 296.816875,26.1383594 C296.816875,26.4391406 296.82,26.7430469 296.829375,27.0508594 C296.836406,27.3578906 296.841875,27.6610156 296.841875,27.9610156 C296.525469,28.0813281 296.131719,28.2063281 295.658281,28.3321094 C295.185625,28.4594531 294.6825,28.5657031 294.150469,28.6485156 C293.617656,28.7305469 293.084062,28.8047656 292.552031,28.8719531 C292.019219,28.9407031 291.534844,28.9727344 291.098906,28.9727344 C289.76375,28.9727344 288.559062,28.8125781 287.484844,28.4907031 C286.412969,28.1688281 285.500469,27.6688281 284.750469,26.9946094 C283.999687,26.3196094 283.420781,25.4789844 283.016094,24.4742969 C282.611406,23.4688281 282.409062,22.3086719 282.409062,20.9875781 C282.409062,19.7133594 282.619219,18.5774219 283.039531,17.5805469 C283.459844,16.5828906 284.05125,15.7391406 284.816875,15.0500781 C285.583281,14.3602344 286.509062,13.8344531 287.598906,13.4750781 C288.687187,13.1149219 289.891094,12.9344531 291.211406,12.9344531 C291.977031,12.9344531 292.655937,12.9766406 293.248906,13.0594531 C293.842656,13.1414844 294.368437,13.2500781 294.825469,13.3860156 C295.283281,13.5211719 295.684844,13.6641406 296.029375,13.8141406 C296.374687,13.9649219 296.683281,14.1063281 296.953594,14.2422656 C296.8325,14.4524219 296.723125,14.7211719 296.627031,15.0516406 C296.528594,15.3813281 296.464531,15.6899219 296.435625,15.9742969 L296.164531,15.9742969 C295.93875,15.7055469 295.658281,15.4336719 295.320781,15.1649219" id="Fill-53" fill="#010201"></path>
            <path d="M62.8007813,36.1853125 L297.36875,36.1853125 L297.36875,31.7235937 L62.8007813,31.7235937 L62.8007813,36.1853125 Z" id="Fill-57" fill="#E41C3B"></path>
            <path id="Fill-59" fill="#010201" d="M14.6379688,4.88239063 C14.6270313,4.88839063 14.6121875,4.89539063 14.6004688,4.90139063 C14.8153125,4.80339063 15.0090625,4.72239063 15.17,4.66039063 C14.9723438,4.73139063 14.78875,4.80439063 14.6379688,4.88239063"></path>
            <path d="M15.2566406,4.7340625 C13.3496094,5.47390625 14.8699219,6.29734375 15.3144531,6.5059375 C15.2980469,6.48796875 15.2761719,6.47 15.2628906,6.45125 C14.9347656,5.9746875 18.4972656,5.3575 21.0285156,5.20125 C23.5675781,5.045 30.7394531,5.0371875 36.8566406,5.8653125 C36.1160156,6.0621875 35.3535156,6.2496875 34.5917969,6.42625 C36.3480469,6.08875 38.2667969,5.6590625 39.8261719,4.96453125 C39.7339844,4.9965625 39.6464844,5.02859375 39.5519531,5.060625 C39.0128906,4.9434375 38.5597656,4.8496875 38.2550781,4.7871875 C35.7472656,4.26375 27.5207031,3.685625 25.1925781,3.685625 C23.0785156,3.685625 18.0292969,3.96921875 15.5199219,4.56765625 C15.6964844,4.5325 15.6582031,4.57859375 15.2566406,4.7340625" id="Fill-60" fill="#010201"></path>
            <path id="Fill-61" fill="#010201" d="M14.9054062,48.167625 C14.7654062,48.082625 14.6344062,47.995625 14.5114062,47.905625 C14.6214062,47.991625 14.7534062,48.079625 14.9054062,48.167625"></path>
            <path d="M43.9114062,47.536875 C45.3645312,47.9665625 44.2160937,49.318125 42.9739062,49.9821875 L43.5207812,49.9821875 C44.2082812,49.83375 45.0832812,49.615 45.5598437,49.39625 C46.3176562,49.0525 47.3645312,48.380625 46.7629687,47.755625 C46.2825,47.2525 45.5676562,46.8884375 44.7629687,46.6040625 C44.2254687,46.8564062 43.6614062,47.09 43.07625,47.3079688 C43.36375,47.3821875 43.645,47.455625 43.9114062,47.536875" id="Fill-62" fill="#010201"></path>
            <path d="M7.44023437,13.75125 C4.52304687,14.8645312 6.95429687,16.1371875 7.56289062,16.42 C7.53476562,16.38875 7.49648437,16.3582812 7.47382812,16.32625 C6.98164062,15.6075 12.3175781,14.685625 16.0988281,14.45125 C20.1003906,14.2020312 32.0597656,13.8848437 41.6660156,15.2957812 C42.6511719,14.9973437 43.5957031,14.6520312 44.4621094,14.248125 C43.5339844,14.060625 42.7433594,13.9121875 42.2082031,13.8028125 C37.8957031,12.9121875 25.3175781,12.3496875 22.1066406,12.38875 C19.3777344,12.4223437 11.8675781,12.5278125 8.03242187,13.4778125 C8.07460937,13.4879687 7.90898437,13.5723437 7.44023437,13.75125" id="Fill-63" fill="#010201"></path>
            <path d="M43.0089063,5.93914063 C42.6229688,6.24851563 42.17375,6.53289063 41.6690625,6.79304688 C41.889375,6.85242188 42.1120313,6.91023438 42.3253125,6.97429688 C44.03625,7.48992188 45.3565625,7.99773438 46.34875,8.48992188 C46.364375,8.48992188 46.3721875,8.49773438 46.38,8.50554688 C46.770625,8.73210938 47.1065625,8.95867188 47.364375,9.17742188 C47.5026563,9.29070313 47.6221875,9.40164063 47.73625,9.51179688 C47.4815625,8.45867188 46.9354688,7.58835938 46.79875,7.38289063 C45.8167188,6.83679688 44.414375,6.34773438 43.0089063,5.93914063" id="Fill-64" fill="#010201"></path>
            <path id="Fill-65" fill="#010201" d="M23.305,9.54678125 C21.5659375,9.52778125 20.0073437,9.41378125 18.6276562,9.22078125 C21.28625,9.64778125 24.2378125,9.69478125 27.1510937,9.47878125 C25.7534375,9.54278125 24.4440625,9.55978125 23.305,9.54678125"></path>
            <path d="M9.16140625,36.9040625 C9.0059375,36.9610937 8.78015625,37.0392187 8.516875,37.1345313 C9.2496875,36.8790625 9.91375,36.6860937 10.3215625,36.586875 C9.87625,36.6860937 9.47546875,36.79 9.16140625,36.9040625" id="Fill-66" fill="#010201"></path>
            <path d="M46.4114063,41.02125 C46.7629688,41.4040625 47.0090625,41.79 47.1184375,42.165 C47.460625,41.6689062 47.685625,41.1329687 47.7582813,40.5415625 C47.7598438,40.5298437 47.77,40.530625 47.7746875,40.5235937 C47.77,40.5173437 47.7676563,40.511875 47.7629688,40.505625 L47.7629688,40.505625 C47.2910938,40.6501562 46.8059375,40.7892187 46.3067188,40.92125 C46.3395313,40.9548437 46.3809375,40.9876562 46.4114063,41.02125" id="Fill-67" fill="#010201"></path>
            <path d="M17.4167969,45.4723437 C15.5558594,46.1535937 17.0355469,46.9114062 17.4707031,47.1051562 C17.4550781,47.0871875 17.4324219,47.0707812 17.4191406,47.0528125 C17.0988281,46.6153125 20.5910156,46.045 23.0675781,45.904375 C25.5191406,45.7614062 32.3964844,45.7145312 38.3292969,46.4567187 C39.2285156,46.2239062 40.0824219,45.9840625 40.8777344,45.7325 C40.6441406,45.691875 40.4199219,45.6535937 40.2238281,45.6153125 C37.7628906,45.1309375 29.2160156,44.57625 27.1457031,44.560625 C25.2378906,44.5403125 20.3222656,44.71375 17.7949219,45.2785937 C17.9113281,45.2653125 17.8253906,45.323125 17.4167969,45.4723437" id="Fill-68" fill="#010201"></path>
            <path id="Fill-69" fill="#010201" d="M22.5796094,49.7689688 C25.0053906,49.9719688 27.5936719,49.9319688 30.1171094,49.7079688 C28.3999219,49.8439688 26.7608594,49.8919688 25.2960156,49.8759688 C24.3311719,49.8659688 23.4296094,49.8289688 22.5796094,49.7689688"></path>
            <path id="Fill-70" fill="#010201" d="M18.4169531,32.9103438 C15.8474219,32.8453438 13.4982031,32.6913438 11.3966406,32.4423438 C13.6411719,32.7433438 16.0067969,32.8923438 18.4169531,32.9103438"></path>
            <path d="M12.1933594,6.06148437 C12.6433594,5.68257812 13.3855469,5.32320312 14.0652344,5.05054687 C13.4652344,5.28023437 12.6410156,5.62867187 12.1933594,6.06148437" id="Fill-71" fill="#010201"></path>
            <path d="M4.44476563,18.5204688 C3.77914063,18.2064063 3.22210938,17.8665625 2.77835938,17.5040625 C3.09007813,17.8290625 3.62835938,18.1689063 4.44476563,18.5204688" id="Fill-72" fill="#010201"></path>
            <path d="M1.60070312,30.1445313 C1.05929687,29.8390625 0.610078125,29.5070313 0.271015625,29.1445313 C0.489765625,29.4671875 0.915546875,29.8015625 1.60070312,30.1445313" id="Fill-73" fill="#010201"></path>
            <path id="Fill-74" fill="#010201" d="M19.4785156,20.9224063 C17.3105469,20.8984063 15.3316406,20.7724063 13.5394531,20.5614063 C16.7800781,20.9844062 20.2777344,21.0614063 23.7683594,20.8804063 C22.2261719,20.9264062 20.7761719,20.9364063 19.4785156,20.9224063"></path>
            <path d="M49.1082031,15.4339063 C48.6621094,15.8182813 48.1582031,16.1792188 47.5902344,16.5120313 C47.8957031,16.59875 48.2035156,16.683125 48.4972656,16.7792188 C48.7082031,16.8495313 48.9113281,16.9120313 49.1144531,16.9823438 C51.7449219,17.8729688 53.3824219,18.8378125 54.1128906,19.86125 C53.9636719,18.489375 53.2707031,17.370625 53.1019531,17.1167188 C51.9136719,16.433125 50.5199219,15.88 49.1082031,15.4339063" id="Fill-75" fill="#010201"></path>
            <path d="M6.076875,25.2973438 C3.37140625,26.123125 4.53546875,27.2348438 5.49875,27.8371875 C6.21125,27.1426563 10.9839063,26.366875 14.489375,26.1465625 C18.7682813,25.8848438 32.63625,25.6934375 43.095625,27.2239063 C44.339375,26.9075 45.5690625,26.5653125 46.7159375,26.2082813 C44.9854688,25.8496875 43.42375,25.6325 42.4659375,25.4825 C37.395625,24.70125 28.1221875,24.154375 23.6534375,24.07625 C20.6948438,24.023125 11.2026563,24.173125 6.4878125,25.0903125 C6.7315625,25.0582813 6.655,25.1207813 6.076875,25.2973438" id="Fill-76" fill="#010201"></path>
            <path d="M54.4036719,29.2578125 C53.7357031,28.6875 52.8989844,28.203125 51.9747656,27.7921875 C51.3349219,28.1023438 50.6489844,28.3953125 49.9271094,28.671875 C52.3732031,29.4226563 53.8130469,30.2914063 54.4544531,31.2085938 C54.6669531,30.2242188 54.4817969,29.496875 54.4036719,29.2578125" id="Fill-77" fill="#010201"></path>
            <path id="Fill-78" fill="#010201" d="M18.316875,40.701 C17.3989062,40.667 16.52625,40.612 15.7145312,40.535 C16.4098437,40.625 17.295,40.679 18.316875,40.701"></path>
            <path d="M10.1347656,36.766875 C7.21679687,37.7559375 9.46289062,38.8910938 10.1894531,39.2051563 C10.1714844,39.1848438 10.1457031,39.166875 10.1300781,39.1465625 C9.62226562,38.4825 15.1222656,37.6309375 19.0207031,37.4121875 C23.6363281,37.1575 35.9566406,36.4239063 42.4535156,38.6215625 C43.1113281,38.4778125 43.7558594,38.3239063 44.3902344,38.1621875 C39.7261719,35.8325 29.4746094,35.4434375 25.2394531,35.4434375 C22.1863281,35.4434375 14.3089844,35.7371875 10.4558594,36.5559375 C10.8683594,36.4653125 10.8761719,36.5153125 10.1347656,36.766875" id="Fill-79" fill="#010201"></path>
            <path d="M38.8560156,28.4935938 C38.8560156,28.7123437 38.8638281,28.8685937 38.7544531,28.9154687 C38.6450781,28.9623438 38.5122656,28.8529688 38.3950781,28.5404687 C38.2700781,28.2279687 38.1997656,28.2514062 38.0982031,28.1498437 C37.9966406,28.0482812 37.7935156,28.0014062 37.7935156,28.0014062 L37.8403906,28.0482812 C37.8403906,28.0482812 38.0044531,28.5951562 38.0982031,28.7592187 C38.1919531,28.9232812 38.3560156,29.4545312 38.4028906,29.5795312 C38.4497656,29.7045313 38.6138281,30.2670313 38.5044531,30.3373437 C38.3091406,30.4545312 38.0747656,30.0014062 37.9575781,29.6654687 C37.8403906,29.3373437 37.5278906,28.8295312 37.4888281,28.8139062 C37.4497656,28.7982812 37.5747656,29.5404687 37.5982031,29.6654687 C37.6216406,29.7982813 37.7466406,30.5717188 37.6919531,30.6420312 C37.6372656,30.7045312 37.6607031,30.9076562 37.4966406,30.9232812 C37.3325781,30.9232812 37.1138281,29.5639062 37.1138281,29.5639062 C37.1138281,29.5639062 37.0513281,28.9857813 36.9575781,28.9154687 C36.8638281,28.8451562 36.9341406,30.1185937 36.8325781,30.3920312 C36.7232031,30.6576563 36.8872656,30.8451562 36.6294531,30.8373437 C36.4732031,30.8373437 36.4028906,30.5014063 36.3872656,30.3529687 C36.3794531,30.2045313 36.3872656,29.2279688 36.3716406,29.1185938 C36.3560156,29.0092188 36.1763281,29.9154688 36.1216406,30.0326562 C36.0747656,30.1420312 36.0357031,30.3842188 35.9185156,30.3373437 C35.7935156,30.2826562 35.7388281,30.0717188 35.7622656,29.8529687 C35.7857031,29.6342187 35.8091406,29.0717187 35.8169531,29.0170312 C35.8169531,28.9623438 35.8169531,28.8529688 35.8091406,28.7826562 C35.8013281,28.7279688 35.7778906,28.6185938 35.7622656,28.5560937 C35.7466406,28.4935938 35.6216406,27.4389062 35.6607031,27.1889062 C35.6997656,26.9389062 35.7388281,26.7670312 35.7153906,26.6732812 C35.6919531,26.5795312 35.2935156,25.2670312 34.9497656,24.8529687 C34.6138281,24.4389062 34.1372656,23.1967187 34.0044531,22.8451563 C33.8794531,22.4935937 33.5669531,21.5404687 33.5825781,21.0482812 C33.5982031,20.5560937 33.6294531,20.3060937 33.5513281,20.1732812 C33.4810156,20.0326563 33.0903906,19.0951562 33.0122656,19.0326562 C32.9263281,18.9779687 32.7778906,20.3451562 32.7466406,20.5482812 C32.7232031,20.7435937 32.6372656,21.2435937 32.6997656,21.3217187 C32.7700781,21.4076562 32.8403906,22.2045312 32.8169531,22.4701562 C32.8013281,22.7357812 32.7935156,23.2748437 32.6841406,23.3842187 C32.5669531,23.4857812 32.8091406,23.8607812 32.9028906,24.1810937 C32.9966406,24.5092187 33.4575781,25.5404687 33.4810156,25.9232812 C33.5044531,26.2982812 33.8560156,27.5404688 33.7700781,28.4467188 C33.6919531,29.3529687 33.6216406,32.1576563 33.3091406,33.1029687 C32.9966406,34.0404688 33.1685156,33.9076563 33.0982031,34.0717188 C33.0747656,34.1420312 32.9263281,34.5873438 32.8950781,34.7045312 C32.8560156,34.8217188 32.7232031,36.4310938 32.7232031,36.6107813 L32.7232031,37.1342187 C32.7153906,37.1967188 32.5122656,37.8139062 32.5669531,37.9467187 C32.6216406,38.0717187 32.9497656,39.4467188 33.0357031,39.7826563 C33.1138281,40.1185938 33.0903906,41.5639062 32.8247656,42.0404687 C32.5513281,42.5092188 32.0435156,44.3529688 31.9028906,44.6967188 C31.7622656,45.0482813 31.6216406,45.4701562 31.5903906,45.9232812 C31.5513281,46.3685938 31.6060156,46.6185938 31.6060156,46.7201563 C31.6060156,46.8217188 31.5825781,47.2982813 31.6060156,47.3842188 C31.6216406,47.4623438 31.8169531,48.1420312 31.9107031,48.2435938 C31.9966406,48.3451563 32.0591406,48.5014062 32.0591406,48.5014062 L32.0591406,48.6029688 C32.0591406,48.6029688 32.2622656,48.8998438 32.1138281,49.0560938 C31.9575781,49.2123438 31.6763281,49.2357813 31.6763281,49.2357813 C31.6763281,49.2357813 31.6372656,49.2670312 31.4497656,49.3607813 C31.2622656,49.4545313 31.1450781,49.3607813 31.1216406,49.3373437 C31.0982031,49.3060938 30.8638281,49.5326563 30.7388281,49.5170313 C30.6138281,49.5014063 30.5825781,49.3373437 30.5825781,49.3373437 C30.5825781,49.3373437 30.4888281,49.5170313 30.3325781,49.5170313 C30.1841406,49.5092188 30.0278906,49.4154688 30.0278906,49.4154688 C30.0278906,49.4154688 29.9028906,49.6732812 29.6607031,49.5951562 C29.4185156,49.5170313 29.2466406,49.4154688 29.2075781,49.1342188 C29.1997656,49.0326563 29.4185156,48.5482813 29.4185156,48.5482813 C29.4185156,48.5482813 29.4185156,48.2982813 29.4732031,48.1420312 C29.5200781,47.9935938 29.6841406,47.7435938 29.6841406,47.6889062 C29.6763281,47.6342188 29.6138281,47.2435938 29.6607031,47.1420312 C29.7075781,47.0326562 29.7075781,46.7904688 29.7700781,46.6654688 C29.8247656,46.5404688 29.8872656,46.3451563 29.8794531,46.3060938 C29.8794531,46.2670312 29.8716406,46.1498437 29.9028906,45.9232812 C29.9419531,45.6889063 30.0357031,45.2670312 30.0825781,45.1967188 C30.1216406,45.1342188 30.1294531,44.3451562 30.1294531,44.2357812 C30.1372656,44.1264062 30.2075781,42.9389062 30.1841406,42.8139063 C30.1607031,42.6967187 30.0200781,41.8529688 30.0591406,41.7514062 C30.0903906,41.6420313 29.9419531,40.7826562 29.9732031,40.5951563 C30.0044531,40.4154687 30.2388281,39.2435937 30.2388281,39.0873438 C30.2388281,38.9232813 30.1685156,37.4857812 30.0591406,37.2514062 C29.9419531,37.0170313 29.7310156,35.6420312 29.7544531,35.1732813 C29.7778906,34.6967188 29.5122656,33.1264063 29.4888281,32.8295313 C29.4653906,32.5404688 29.1372656,30.6576563 29.1138281,30.5404687 C29.0903906,30.4310937 29.0278906,29.7826562 29.0200781,29.7045313 C29.0122656,29.6264062 29.0122656,29.1185938 29.0122656,29.1185938 L28.9107031,29.1185938 C28.9107031,29.1185938 28.8482031,30.7123437 28.7857031,30.9467187 C28.7310156,31.1810938 28.5669531,32.5170312 28.5122656,32.8451563 C28.4497656,33.1654687 28.1685156,34.3685938 28.1919531,35.1264063 C28.2153906,35.8764063 28.0669531,36.7826562 28.0747656,36.9779687 C28.0903906,37.1810937 27.9888281,37.2904687 27.9497656,37.4389063 C27.9185156,37.5873437 27.7388281,39.0482813 27.7232031,39.1107812 C27.6997656,39.1654688 27.9732031,40.2045312 27.9888281,40.4389062 C28.0044531,40.6810937 27.9419531,42.0482813 27.8794531,42.3295312 C27.8247656,42.6029687 27.7622656,43.2826562 27.7778906,43.3842187 C27.7857031,43.4935938 27.9028906,44.1264062 27.9028906,44.1889062 C27.8950781,44.2435938 27.8716406,45.0560938 27.9028906,45.1029688 C27.9263281,45.1420312 28.0903906,45.5560937 28.0669531,45.6654687 C28.0435156,45.7670312 28.0669531,46.0795312 28.1060156,46.1732813 C28.1372656,46.2670312 28.2310156,46.6498438 28.2544531,46.7748438 C28.2778906,46.8920313 28.2544531,47.2982813 28.2544531,47.3373437 C28.2544531,47.3842188 28.2857031,47.6185937 28.3403906,47.6967188 C28.3794531,47.7826563 28.5122656,47.9389063 28.5357031,47.9935938 C28.5591406,48.0404688 28.5591406,48.4467188 28.5591406,48.4467188 C28.5591406,48.4467188 28.7075781,48.8295313 28.8091406,48.9545313 C28.8091406,48.9545313 28.9028906,49.2826563 28.5591406,49.4154688 C28.2153906,49.5404688 28.0669531,49.4389063 27.9732031,49.3373437 C27.8794531,49.2279687 27.8169531,49.4467187 27.7075781,49.4310938 C27.5903906,49.4154688 27.4419531,49.2592188 27.4419531,49.2592188 C27.4419531,49.2592188 27.3325781,49.4154688 27.1919531,49.4154688 C27.0435156,49.4076563 26.8872656,49.2123438 26.8872656,49.2123438 C26.8872656,49.2123438 26.7700781,49.3139062 26.6450781,49.3139062 C26.5278906,49.3060938 26.3247656,49.1107812 26.3247656,49.1107812 C26.3247656,49.1107812 26.1763281,49.2123438 26.0747656,49.1576562 C25.9732031,49.1107812 25.8560156,49.1576562 25.9107031,48.8451563 C25.9341406,48.7045312 25.8716406,48.6029688 25.9185156,48.5014062 C25.9732031,48.3920312 25.9888281,48.3217188 25.9888281,48.3217188 C25.9888281,48.3217188 26.3794531,47.3373437 26.3794531,47.2826563 L26.3794531,47.2670313 L26.3794531,47.1264063 C26.3794531,47.1264063 26.4107031,46.2201563 26.4185156,46.1185937 C26.4263281,46.0092188 26.2153906,44.1810938 25.6841406,43.5404687 C25.6294531,43.4701563 25.1372656,42.1342188 25.0669531,41.8139063 C24.9966406,41.5014062 24.7388281,40.3920312 25.1607031,39.6810938 C25.1997656,39.6185937 25.3560156,38.7592187 25.3716406,38.7045313 C25.3794531,38.6420313 25.3247656,35.3217188 25.2075781,35.2045312 C25.0903906,35.0873437 24.8403906,34.3920313 24.6997656,33.7826563 C24.5669531,33.1810938 24.2935156,30.3451562 24.2700781,29.9935937 C24.2466406,29.6498437 24.2075781,27.0326562 24.3403906,26.7904687 C24.4653906,26.5404687 24.4497656,26.4779687 24.4497656,26.4779687 C24.4497656,26.4779687 24.4263281,25.8998437 24.4966406,25.6810937 C24.5669531,25.4623437 24.8169531,24.7357812 24.8638281,24.6967187 C24.9028906,24.6498437 25.1607031,23.6264062 25.2075781,23.5639062 C25.2544531,23.5092187 25.0903906,23.2904687 25.1060156,22.9545313 C25.1138281,22.6185937 25.1294531,21.7826563 25.2075781,21.6576562 C25.2075781,21.6576562 25.2232031,20.6654687 25.2075781,20.5951562 C25.1997656,20.5248437 24.9653906,18.7670312 24.9653906,18.7670312 C24.9653906,18.7670312 24.3950781,20.1342187 24.3716406,20.1810937 C24.3482031,20.2357812 24.3560156,21.6498437 24.3013281,21.7514062 C24.2466406,21.8607812 24.1919531,22.0639063 24.1919531,22.0639063 C24.1919531,22.0639063 24.2466406,22.1654687 24.1919531,22.2670312 C24.1450781,22.3685938 23.8560156,22.9232812 23.7857031,23.0795312 C23.7153906,23.2279687 23.5669531,23.7514062 23.4966406,23.8451562 C23.4341406,23.9389062 22.8247656,25.0326562 22.7310156,25.1732812 C22.6372656,25.3139062 22.5513281,25.6264062 22.5200781,25.6654687 C22.4888281,25.7045312 22.4107031,25.8295312 22.3716406,25.9232812 C22.3247656,26.0092187 22.1763281,26.4154687 22.1763281,26.4154687 L22.1138281,26.5248437 C22.1138281,26.5248437 22.1997656,27.2826562 22.2778906,27.5560937 C22.2857031,27.5951562 22.2310156,28.1967188 22.1763281,28.2514062 C22.1138281,28.3139062 22.1685156,30.1264062 22.1685156,30.1264062 C22.1685156,30.1264062 22.0825781,30.2357812 22.0122656,30.2357812 C21.9419531,30.2279687 21.8247656,30.1264062 21.7778906,29.9935937 C21.7310156,29.8685937 21.5982031,28.7357812 21.5591406,28.7123437 C21.5122656,28.7123437 21.5513281,30.2670313 21.4810156,30.3998438 C21.4028906,30.5326562 21.4341406,30.6732812 21.3013281,30.6889062 C21.1763281,30.7045312 21.1060156,30.4623437 21.0982031,30.3842188 C21.0903906,30.3060937 20.9966406,28.7592187 20.9966406,28.7592187 L20.5903906,30.5795312 C20.5903906,30.5795312 20.5591406,30.7982812 20.4341406,30.7982812 C20.3013281,30.7982812 20.2388281,30.5404687 20.2388281,30.5404687 L20.4419531,28.7123437 L19.7935156,30.0873437 C19.7935156,30.0873437 19.6607031,30.2592187 19.5122656,30.2045313 C19.3638281,30.1420312 19.5278906,29.4545312 19.6528906,29.1342187 C19.7778906,28.8139062 19.8794531,28.5951562 19.8872656,28.5560937 L19.8872656,28.4076562 L20.0825781,27.8529687 C20.0825781,27.8529687 20.0591406,27.7514062 19.9810156,27.7982812 C19.9107031,27.8451562 19.5513281,28.3373437 19.5122656,28.4935938 C19.4810156,28.6576562 19.2388281,28.7904687 19.1685156,28.7592187 C18.9575781,28.6498437 19.1216406,28.2514062 19.1216406,28.2514062 C19.1216406,28.2514062 19.4263281,27.5404688 19.5044531,27.4154687 C19.5747656,27.2904687 19.9341406,26.5795312 20.0825781,26.4779687 C20.2388281,26.3764062 20.4575781,26.2123437 20.4888281,26.1185937 C20.5200781,26.0326562 20.5903906,25.8217187 20.6450781,25.7670312 C20.6919531,25.7201562 20.8482031,25.2279687 20.8716406,25.1342187 C20.8950781,25.0482812 21.2310156,23.6107812 21.2388281,23.5014062 C21.2544531,23.3842187 21.2544531,22.6732812 21.2544531,22.6732812 C21.2544531,22.6732812 21.7700781,20.6107812 21.9966406,20.3842187 C22.2310156,20.1654687 22.1685156,20.1342187 22.1685156,20.1342187 C22.1685156,20.1342187 22.3716406,19.1107813 22.4107031,19.0170312 C22.4419531,18.9310937 22.6997656,16.8060937 22.8247656,16.6342187 C22.9497656,16.4623437 22.9653906,16.1107812 22.9185156,15.9701563 C22.8794531,15.8217188 22.7857031,15.2514063 22.7778906,14.8529687 C22.7778906,14.4545313 22.8091406,12.9857812 23.3325781,12.4232813 C23.8638281,11.8607813 24.1372656,11.5404687 24.4966406,11.4623437 C24.8638281,11.3764062 25.5747656,11.3060937 25.9653906,11.1967187 C26.3482031,11.0951562 26.8091406,10.9389063 26.9732031,10.7670312 C27.1372656,10.5951562 27.5122656,10.0951562 27.4419531,9.11859375 C27.4263281,8.91546875 27.4263281,8.78265625 27.4341406,8.69671875 C27.4419531,8.68890625 27.4341406,8.68890625 27.4341406,8.68890625 C27.3638281,8.44671875 27.2388281,8.25140625 27.2388281,8.21234375 C27.0591406,8.27484375 26.9419531,7.93109375 26.9263281,7.87640625 C26.9107031,7.82953125 26.7622656,7.20453125 26.7544531,7.12640625 C26.7466406,7.04828125 26.7153906,6.96234375 26.7857031,6.79046875 C26.7857031,6.78265625 26.7935156,6.77484375 26.7935156,6.77484375 C26.7700781,6.75140625 26.7700781,6.71234375 26.7700781,6.71234375 C26.7700781,6.71234375 26.6138281,6.20453125 26.6528906,5.51703125 C26.6841406,4.82953125 27.0357031,4.35296875 27.5982031,3.95453125 C28.1528906,3.54828125 28.8013281,3.55609375 29.1685156,3.49359375 C29.5357031,3.42328125 30.2310156,3.95453125 30.3872656,3.95453125 C30.5357031,3.95453125 30.7388281,4.10296875 30.8403906,4.14984375 C30.9419531,4.20453125 31.2466406,4.97015625 31.3169531,5.18109375 C31.3872656,5.39203125 31.2857031,5.79828125 31.2700781,5.88421875 C31.2466406,5.97015625 31.3013281,6.28265625 31.3013281,6.39203125 C31.3013281,6.44671875 31.2232031,6.55609375 31.1450781,6.65765625 C31.1528906,6.64984375 31.1685156,6.64984375 31.1763281,6.64984375 C31.2466406,6.66546875 31.4028906,6.74359375 31.4263281,6.83734375 C31.4497656,6.93890625 31.4810156,6.94671875 31.4497656,7.07171875 C31.4185156,7.19671875 31.2466406,7.90765625 31.2466406,7.90765625 C31.2466406,7.90765625 31.1216406,8.18890625 30.9810156,8.19671875 C30.8950781,8.20453125 30.8794531,8.18890625 30.8794531,8.16546875 C30.8560156,8.29828125 30.8013281,8.55609375 30.7700781,8.62640625 C30.7153906,8.75140625 30.6138281,9.17328125 30.4966406,9.34515625 C30.4497656,9.40765625 30.4185156,9.45453125 30.3950781,9.49359375 C30.4107031,9.60296875 30.4575781,9.80609375 30.5122656,9.98578125 C30.5903906,10.2592188 30.5903906,10.7514062 31.2466406,10.9545313 C31.9107031,11.1576562 33.3169531,11.4545313 33.8403906,11.6576562 C34.3716406,11.8529687 34.7544531,12.4935938 34.9263281,12.9232812 C35.0903906,13.3451562 35.3247656,14.3764062 35.2778906,14.9779687 C35.2310156,15.5795312 35.0357031,16.3217187 35.0435156,16.4779687 C35.0591406,16.6264062 35.1919531,16.8998438 35.2310156,17.0795312 C35.2622656,17.2670313 35.4732031,19.0092187 35.5200781,19.2201563 C35.5669531,19.4310937 35.9653906,20.7435937 36.1216406,21.0482812 C36.2700781,21.3529687 36.5669531,22.3295312 36.5903906,22.5092187 C36.6138281,22.6810937 36.6372656,23.9154687 36.6919531,23.9857812 C36.7466406,24.0560937 37.0825781,25.7670312 37.3403906,26.0248437 C37.5903906,26.2748437 38.2388281,26.9467187 38.3013281,27.1889062 C38.3638281,27.4310938 38.8482031,28.2826562 38.8560156,28.4935938" id="Fill-80" fill="#898B8E"></path>
            <path d="M49.875,14.6875781 C49.6484375,14.9453906 49.3828125,15.1953906 49.109375,15.4375781 C48.6640625,15.8203906 48.15625,16.1797656 47.59375,16.5157031 C42.1953125,19.6719531 31.7265625,20.6250781 23.765625,20.8125781 C22.2265625,20.8438281 20.7734375,20.8516406 19.4765625,20.8438281 C17.3125,20.8282031 15.328125,20.7266406 13.5390625,20.5625781 C9.53125,20.1953906 6.4765625,19.4766406 4.4453125,18.5235156 C3.78125,18.2032031 3.21875,17.8672656 2.78125,17.5000781 C2.6796875,17.4219531 2.578125,17.3438281 2.484375,17.2578906 C1.203125,16.0469531 5.3125,14.3360156 7.1796875,13.7188281 L7.1875,13.7188281 C7.6328125,13.5625781 7.9453125,13.4766406 8.0234375,13.4766406 L8.03125,13.4766406 C8.078125,13.4844531 7.90625,13.5703906 7.4375,13.7500781 C4.5234375,14.8672656 6.953125,16.1407031 7.5625,16.4219531 C7.640625,16.4610156 7.6953125,16.4766406 7.6953125,16.4766406 C7.6953125,16.4766406 9.4765625,17.4063281 12.6484375,17.8047656 C17,18.3516406 30.3125,17.6719531 33.75,17.0157031 C36.09375,16.5703906 39.015625,16.0938281 41.6640625,15.2969531 C42.6484375,15.0000781 43.59375,14.6485156 44.4609375,14.2500781 C45.34375,13.8360156 46.140625,13.3672656 46.8046875,12.8203906 C47.953125,11.8750781 48,10.5938281 47.734375,9.51570313 C47.484375,8.46101563 46.9375,7.58601563 46.796875,7.38289063 C46.7890625,7.36726563 46.78125,7.35945313 46.7734375,7.34382813 C46.8671875,7.38289063 48.4921875,8.11726563 49.8203125,9.41414063 C51.0703125,10.6250781 51.453125,12.8594531 49.875,14.6875781" id="Fill-81" fill="#E41C3B"></path>
            <path d="M43.6328125,5.35945312 C43.4453125,5.56257812 43.2421875,5.75789062 43.0078125,5.93757812 C42.625,6.25007812 42.171875,6.53132812 41.671875,6.78914062 C38.1796875,8.59382812 32.109375,9.24226562 27.1484375,9.42195312 C25.75,9.46882812 24.4453125,9.48445312 23.3046875,9.47664062 C21.5625,9.46101562 20.0078125,9.37507812 18.625,9.21882812 C15.9257813,8.92507812 13.9453125,8.38367187 12.7273438,7.65632812 C12.6640625,7.62039062 12.609375,7.58523437 12.5539063,7.55007812 C12.3234375,7.39929687 12.1117188,7.24382812 11.9453125,7.07820312 C11.6171875,6.75789062 11.7890625,6.39851562 12.1953125,6.06257812 C12.640625,5.67976562 13.3828125,5.32039062 14.0625,5.05476562 C14.28125,4.96882812 14.46875,4.89851562 14.6015625,4.85164062 C14.8125,4.77351562 15.0078125,4.71101562 15.171875,4.66414062 C15.28125,4.62507812 15.3984375,4.59382812 15.5234375,4.57039062 C15.6953125,4.53132812 15.65625,4.57820312 15.2578125,4.73445312 C13.3515625,5.47664062 14.8671875,6.29695312 15.3125,6.50789062 C15.3828125,6.53914062 15.4296875,6.55476562 15.4296875,6.55476562 C15.4296875,6.55476562 16.6171875,7.17976562 18.7421875,7.44539062 C21.6484375,7.80476562 30.484375,7.20320312 32.78125,6.76570312 C33.34375,6.66414062 33.9609375,6.54695312 34.59375,6.42976562 C36.3515625,6.08601562 38.265625,5.65632812 39.828125,4.96101562 C40.4453125,4.68757812 41.015625,4.37507812 41.484375,4.00007812 C43.59375,2.32039062 42.1015625,0.164140625 41.984375,7.8125e-05 C42.09375,0.039140625 43.09375,0.445390625 44.03125,1.55476562 C44.7734375,2.43757812 44.8828125,3.95320312 43.6328125,5.35945312" id="Fill-82" fill="#E41C3B"></path>
            <path d="M55.0625,25.8750781 C54.2109375,26.5782031 53.171875,27.2110156 51.9765625,27.7891406 C51.3359375,28.1016406 50.6484375,28.3985156 49.9296875,28.6719531 C41.7265625,31.8203906 28.65625,32.8985156 20.109375,32.8360156 C19.53125,32.8282031 18.96875,32.8203906 18.4140625,32.8047656 C15.8515625,32.7578906 13.5,32.6407031 11.3984375,32.4453906 C6.9375,32.0313281 3.6015625,31.2735156 1.6015625,30.1407031 C1.0625,29.8360156 0.609375,29.5078906 0.2734375,29.1407031 C0.25,29.1250781 0.2265625,29.1016406 0.2109375,29.0860156 C0.1171875,28.9844531 0.046875,28.8750781 0,28.7735156 L0,28.0860156 C0.5234375,26.8594531 3.65625,25.7891406 5.421875,25.3282031 C5.484375,25.3125781 5.5546875,25.2969531 5.625,25.2735156 C5.7890625,25.2344531 5.9296875,25.2032031 6.0625,25.1719531 C6.0625,25.1719531 6.0703125,25.1797656 6.0703125,25.1719531 C6.171875,25.1563281 6.28125,25.1328906 6.390625,25.1094531 C6.421875,25.1094531 6.453125,25.1016406 6.484375,25.0938281 C6.734375,25.0547656 6.65625,25.1172656 6.078125,25.2969531 C3.375,26.1250781 4.5390625,27.2344531 5.5,27.8360156 C5.921875,28.1016406 6.3046875,28.2657031 6.3046875,28.2657031 C6.3046875,28.2657031 8.390625,29.2422656 12.109375,29.6563281 C17.2109375,30.2266406 32.671875,29.2813281 36.703125,28.5938281 C38.609375,28.2735156 40.875,27.7891406 43.09375,27.2266406 C44.3359375,26.9063281 45.5703125,26.5625781 46.71875,26.2110156 C48.6953125,25.5938281 50.421875,24.9375781 51.5390625,24.3125781 C53.828125,23.0235156 54.2734375,21.3047656 54.109375,19.8594531 C53.9609375,18.4922656 53.2734375,17.3672656 53.1015625,17.1172656 C53.078125,17.0782031 53.0625,17.0625781 53.0625,17.0625781 C53.0625,17.0625781 54.71875,17.6485156 56.0078125,19.3672656 C57.1328125,20.8750781 57.5390625,23.8282031 55.0625,25.8750781" id="Fill-83" fill="#E41C3B"></path>
            <path d="M54.0938281,37.2500781 C52.7578906,38.5860156 50.5157031,39.6563281 47.7969531,40.5000781 C47.7891406,40.5000781 47.7891406,40.5000781 47.7813281,40.5078906 L47.7657031,40.5078906 C47.2891406,40.6485156 46.8047656,40.7891406 46.3047656,40.9219531 C39.0547656,42.8360156 29.1094531,43.3828906 22.6407031,43.3360156 C13.3282031,43.2657031 7.23445312,42.0313281 4.98445312,40.0157031 C4.03132812,39.1563281 5.90632812,38.1250781 7.75789062,37.4219531 C7.85164062,37.3907031 7.93757812,37.3516406 8.01570312,37.3203906 C8.10164062,37.2891406 8.17976562,37.2578906 8.26570312,37.2266406 C8.35164062,37.1953906 8.43757812,37.1641406 8.51570312,37.1328906 C9.25007812,36.8828906 9.91414062,36.6875781 10.3203906,36.5860156 C10.3672656,36.5782031 10.4063281,36.5625781 10.4532031,36.5547656 C10.8672656,36.4610156 10.8750781,36.5157031 10.1328906,36.7657031 C7.21882812,37.7578906 9.46101562,38.8907031 10.1875781,39.2032031 C10.3125781,39.2578906 10.3985156,39.2891406 10.3985156,39.2891406 C10.3985156,39.2891406 12.2500781,40.1485156 15.5469531,40.5157031 L15.7110156,40.5391406 C16.4063281,40.6016406 17.2969531,40.6485156 18.3203906,40.6641406 C24.1719531,40.7657031 34.3594531,40.0938281 37.3672656,39.5782031 C39.0313281,39.2969531 40.7657031,38.9844531 42.4532031,38.6172656 C43.1094531,38.4766406 43.7578906,38.3203906 44.3907031,38.1641406 C46.2891406,37.6797656 48.0625781,37.1016406 49.4766406,36.3828906 C53.0078906,34.5938281 54.1485156,32.6328906 54.4532031,31.2110156 C54.6641406,30.2266406 54.4844531,29.5000781 54.4063281,29.2578906 C54.3828906,29.2032031 54.3750781,29.1719531 54.3750781,29.1719531 C54.3750781,29.1719531 55.7657031,30.1172656 56.1797656,32.2266406 C56.4375781,33.5625781 56.0469531,35.2969531 54.0938281,37.2500781" id="Fill-84" fill="#E41C3B"></path>
            <path d="M45.609375,46.1875781 C45.3359375,46.3360156 45.0546875,46.4688281 44.765625,46.6016406 C44.2265625,46.8594531 43.6640625,47.0938281 43.078125,47.3047656 C42.2890625,47.6016406 41.4609375,47.8594531 40.6015625,48.0938281 C40.0914062,48.2313281 39.53125,48.3641406 38.9453125,48.4930469 C36.340625,49.0844531 33.5882812,49.4555469 30.96875,49.6485156 C30.6875,49.6719531 30.3984375,49.6875781 30.1171875,49.7110156 C28.3984375,49.8125781 26.7578125,49.8516406 25.296875,49.8360156 C24.328125,49.8282031 23.4296875,49.8047656 22.578125,49.7578906 C19.03125,49.5625781 16.484375,49.0391406 15,48.2110156 C14.9375,48.1797656 14.875,48.1407031 14.8203125,48.1094531 C14.7109375,48.0469531 14.609375,47.9766406 14.5078125,47.9063281 C14.390625,47.8203906 14.2734375,47.7266406 14.171875,47.6328906 C13.328125,46.8438281 15.875,45.8360156 17.15625,45.4453906 C17.34375,45.3907031 17.5625,45.3360156 17.796875,45.2813281 C17.9140625,45.2657031 17.828125,45.3203906 17.4140625,45.4688281 C15.5546875,46.1563281 17.0390625,46.9141406 17.46875,47.1016406 C17.5390625,47.1328906 17.5859375,47.1563281 17.5859375,47.1563281 C17.5859375,47.1563281 18.75,47.7266406 20.828125,47.9688281 C23.671875,48.3047656 32.3359375,47.8360156 34.5703125,47.3438281 C35.8984375,47.0547656 37.15625,46.7578906 38.328125,46.4532031 C39.2265625,46.2266406 40.0859375,45.9844531 40.875,45.7344531 C43.8828125,44.7813281 46.078125,43.6719531 47.1171875,42.1641406 C47.4609375,41.6719531 47.6875,41.1328906 47.7578125,40.5391406 C47.7578125,40.5313281 47.7734375,40.5313281 47.7734375,40.5235156 C47.7734375,40.5157031 47.78125,40.5157031 47.78125,40.5078906 C47.7890625,40.5000781 47.7890625,40.5000781 47.796875,40.5000781 C48.1328125,40.5000781 50.28125,43.6875781 45.609375,46.1875781" id="Fill-85" fill="#E41C3B"></path>
        </g>
    </g>
</svg>