<?xml version="1.0" encoding="UTF-8" standalone="no"?>
<svg width="260px" height="41px" viewBox="0 0 260 41" version="1.1" xmlns="http://www.w3.org/2000/svg" xmlns:xlink="http://www.w3.org/1999/xlink">
    <!-- Generator: Sketch 3.6.1 (26313) - http://www.bohemiancoding.com/sketch -->
    <title>c-healthcare-d</title>
    <desc>Created with Sketch.</desc>
    <defs></defs>
    <g id="Page-1" stroke="none" stroke-width="1" fill="none" fill-rule="evenodd">
        <g id="c-healthcare-d" transform="translate(0.333333, 0.000000)">
            <path d="M50.3370298,22.294383 L50.3370298,22.2356596 C50.3370298,17.8382128 54.0602969,14.1973617 59.0864522,14.1973617 C64.1126075,14.1973617 67.802707,17.7794894 67.802707,22.1769362 L67.802707,22.2356596 C67.802707,26.6041702 64.0802904,30.2424681 59.021818,30.2424681 C54.0288302,30.2424681 50.3370298,26.6611915 50.3370298,22.294383 L50.3370298,22.294383 Z M64.0496743,22.294383 L64.0496743,22.2356596 C64.0496743,19.5284255 61.9686248,17.2867234 59.021818,17.2867234 C56.0154798,17.2867234 54.0926139,19.4969362 54.0926139,22.1769362 L54.0926139,22.2356596 C54.0926139,24.9139574 56.1694111,27.1828936 59.0864522,27.1828936 C62.1268084,27.1828936 64.0496743,24.9428936 64.0496743,22.294383 L64.0496743,22.294383 Z" id="Fill-1" fill="#1E4166"></path>
            <path d="M69.5111746,14.5184681 L73.2650578,14.5184681 L73.2650578,17.0818723 C74.4760976,15.4784681 76.1812484,14.1984681 78.821043,14.1984681 C82.6973909,14.1984681 86.4504236,17.0818723 86.4504236,22.1780426 L86.4504236,22.2342128 C86.4504236,27.331234 82.7280071,30.2137872 78.821043,30.2137872 C76.1191656,30.2137872 74.4148652,28.9320851 73.2650578,27.5057021 L73.2650578,34.5533617 L69.5111746,34.5533617 L69.5111746,14.5184681 Z M82.6336072,22.2342128 L82.6336072,22.1780426 C82.6336072,19.2061277 80.4938768,17.2571915 77.9518838,17.2571915 C75.4064891,17.2571915 73.1715083,19.236766 73.1715083,22.1780426 L73.1715083,22.2342128 C73.1715083,25.2069787 75.4064891,27.1559149 77.9518838,27.1559149 C80.5270443,27.1559149 82.6336072,25.264 82.6336072,22.2342128 L82.6336072,22.2342128 Z" id="Fill-3" fill="#1E4166"></path>
            <path d="M88.9801701,25.6429787 L88.9801701,17.5468085 L86.9008216,17.5468085 L86.9008216,14.5187234 L88.9801701,14.5187234 L88.9801701,10.2965957 L92.7340533,10.2965957 L92.7340533,14.5187234 L97.1410815,14.5187234 L97.1410815,17.5468085 L92.7340533,17.5468085 L92.7340533,25.0889362 C92.7340533,26.4565957 93.4798973,27.0123404 94.751319,27.0123404 C95.5864602,27.0123404 96.3331547,26.833617 97.0772978,26.487234 L97.0772978,29.3697872 C96.1477567,29.8642553 95.0923492,30.1553191 93.6976123,30.1553191 C90.9345026,30.1553191 88.9801701,29.02 88.9801701,25.6429787" id="Fill-5" fill="#1E4166"></path>
            <path d="M99.5900353,29.8924255 L103.343918,29.8924255 L103.343918,14.5179574 L99.5900353,14.5179574 L99.5900353,29.8924255 Z" id="Fill-7" fill="#1E4166"></path>
            <path d="M106.168601,14.5184681 L109.922484,14.5184681 L109.922484,16.8486809 C110.976191,15.4784681 112.405796,14.1984681 114.918874,14.1984681 C117.275469,14.1984681 118.918537,15.2750638 119.788546,16.9065532 C121.124602,15.2750638 122.860369,14.1984681 125.34198,14.1984681 C128.909615,14.1984681 131.082513,16.3244255 131.082513,20.0793191 L131.082513,29.8920851 L127.32863,29.8920851 L127.32863,21.156766 C127.32863,18.7125106 126.115889,17.4027234 124.006775,17.4027234 C121.958893,17.4027234 120.501223,18.7414468 120.501223,21.2154894 L120.501223,29.8920851 L116.74904,29.8920851 L116.74904,21.1278298 C116.74904,18.7414468 115.506534,17.4027234 113.427185,17.4027234 C111.349538,17.4027234 109.922484,18.8580426 109.922484,21.2444255 L109.922484,29.8920851 L106.168601,29.8920851 L106.168601,14.5184681 Z" id="Fill-9" fill="#1E4166"></path>
            <path d="M133.913659,9.82348936 L135.37473,9.82348936 L135.37473,17.5622128 C136.387616,15.7707234 138.089365,14.3681702 140.86268,14.3681702 C144.709262,14.3681702 146.945944,16.9928511 146.945944,20.6354043 L146.945944,29.9468936 L145.484872,29.9468936 L145.484872,20.9043404 C145.484872,17.7707234 143.726993,15.712 140.65517,15.712 C137.671794,15.712 135.37473,17.9800851 135.37473,21.1434894 L135.37473,29.9468936 L133.913659,29.9468936 L133.913659,9.82348936 Z" id="Fill-10" fill="#1E4166"></path>
            <path d="M148.17025,22.3658723 L148.17025,22.3071489 C148.17025,17.8901277 151.271839,14.3692766 155.388864,14.3692766 C159.653017,14.3692766 162.36595,17.8305532 162.36595,22.3360851 C162.36595,22.6050213 162.36595,22.695234 162.336184,22.9335319 L149.72232,22.9335319 C149.990212,26.7233191 152.704846,28.9326809 155.685671,28.9326809 C158.042266,28.9326809 159.653017,27.8875745 160.907429,26.5445957 L161.919464,27.440766 C160.368245,29.1114043 158.549134,30.3054468 155.626139,30.3054468 C151.629028,30.3054468 148.17025,27.1114043 148.17025,22.3658723 L148.17025,22.3658723 Z M160.785815,21.6203404 C160.577455,18.5462979 158.818726,15.7122553 155.328482,15.7122553 C152.316191,15.7122553 149.990212,18.2484255 149.72232,21.6203404 L160.785815,21.6203404 Z" id="Fill-11" fill="#1E4166"></path>
            <path d="M162.994177,25.5307234 L162.994177,25.4694468 C162.994177,22.3068936 165.707961,20.5171064 169.645541,20.5171064 C171.763159,20.5171064 173.223381,20.7851915 174.685303,21.1715745 L174.685303,20.5171064 C174.685303,17.4413617 172.80581,15.8600851 169.676157,15.8600851 C167.825579,15.8600851 166.304976,16.3681702 164.903435,17.0839149 L164.365101,15.8013617 C166.036234,15.0243404 167.676751,14.4881702 169.763753,14.4881702 C171.82099,14.4881702 173.463208,15.0558298 174.56624,16.1588085 C175.580826,17.1724255 176.11831,18.5766809 176.11831,20.4558298 L176.11831,29.9451915 L174.685303,29.9451915 L174.685303,27.4090213 C173.642652,28.8728511 171.763159,30.3060426 168.869931,30.3060426 C166.036234,30.3060426 162.994177,28.6932766 162.994177,25.5307234 M174.715069,24.2473191 L174.715069,22.5162553 C173.432591,22.1877447 171.732543,21.8294468 169.555393,21.8294468 C166.336443,21.8294468 164.544546,23.2609362 164.544546,25.3800851 L164.544546,25.4405106 C164.544546,27.6490213 166.633249,28.9324255 168.960079,28.9324255 C172.060817,28.9324255 174.715069,27.0226383 174.715069,24.2473191" id="Fill-12" fill="#1E4166"></path>
            <path d="M178.594223,29.9451915 L180.055295,29.9451915 L180.055295,9.82348936 L178.594223,9.82348936 L178.594223,29.9451915 Z" id="Fill-13" fill="#1E4166"></path>
            <path d="M184.230491,26.0377872 L184.230491,16.0692766 L182.023575,16.0692766 L182.023575,14.7254468 L184.230491,14.7254468 L184.230491,9.86161702 L185.693264,9.86161702 L185.693264,14.7254468 L191.029833,14.7254468 L191.029833,16.0692766 L185.693264,16.0692766 L185.693264,25.888 C185.693264,28.0675745 186.975741,28.8428936 188.73362,28.8428936 C189.479464,28.8428936 190.105395,28.6939574 190.972003,28.3058723 L190.972003,29.6777872 C190.196393,30.0377872 189.450549,30.2148085 188.496345,30.2148085 C186.13975,30.2148085 184.230491,28.9322553 184.230491,26.0377872" id="Fill-14" fill="#1E4166"></path>
            <path d="M192.970899,9.82348936 L194.43112,9.82348936 L194.43112,17.5622128 C195.445706,15.7707234 197.146605,14.3681702 199.91992,14.3681702 C203.765651,14.3681702 206.003184,16.9928511 206.003184,20.6354043 L206.003184,29.9468936 L204.541261,29.9468936 L204.541261,20.9043404 C204.541261,17.7707234 202.782532,15.712 199.710709,15.712 C196.728184,15.712 194.43112,17.9800851 194.43112,21.1434894 L194.43112,29.9468936 L192.970899,29.9468936 L192.970899,9.82348936 Z" id="Fill-15" fill="#1E4166"></path>
            <path d="M207.822975,22.3958298 L207.822975,22.3371064 C207.822975,18.0690213 211.223071,14.3677447 215.578222,14.3677447 C218.440834,14.3677447 220.23018,15.6809362 221.663187,17.1728511 L220.617985,18.2485957 C219.306592,16.9039149 217.813203,15.7413617 215.547606,15.7413617 C212.087978,15.7413617 209.404811,18.6358298 209.404811,22.2766809 L209.404811,22.3371064 C209.404811,26.0068936 212.178126,28.9328511 215.667519,28.9328511 C217.813203,28.9328511 219.484336,27.8290213 220.767664,26.3958298 L221.780549,27.2902979 C220.23018,29.052 218.381303,30.305617 215.578222,30.305617 C211.193306,30.305617 207.822975,26.664766 207.822975,22.3958298" id="Fill-16" fill="#1E4166"></path>
            <path d="M222.259862,25.5307234 L222.259862,25.4694468 C222.259862,22.3068936 224.974496,20.5171064 228.909525,20.5171064 C231.028845,20.5171064 232.489066,20.7851915 233.950988,21.1715745 L233.950988,20.5171064 C233.950988,17.4413617 232.071496,15.8600851 228.941842,15.8600851 C227.092115,15.8600851 225.571512,16.3681702 224.16742,17.0839149 L223.631637,15.8013617 C225.301919,15.0243404 226.942436,14.4881702 229.029438,14.4881702 C231.087526,14.4881702 232.728893,15.0558298 233.831926,16.1588085 C234.844811,17.1724255 235.383996,18.5766809 235.383996,20.4558298 L235.383996,29.9451915 L233.950988,29.9451915 L233.950988,27.4090213 C232.908338,28.8728511 231.028845,30.3060426 228.135616,30.3060426 C225.301919,30.3060426 222.259862,28.6932766 222.259862,25.5307234 M233.980754,24.2473191 L233.980754,22.5162553 C232.698277,22.1877447 230.998228,21.8294468 228.821078,21.8294468 C225.599576,21.8294468 223.811082,23.2609362 223.811082,25.3800851 L223.811082,25.4405106 C223.811082,27.6490213 225.898084,28.9324255 228.225764,28.9324255 C231.326502,28.9324255 233.980754,27.0226383 233.980754,24.2473191" id="Fill-17" fill="#1E4166"></path>
            <path d="M237.651038,14.7254468 L239.11211,14.7254468 L239.11211,19.0539574 C240.30444,16.3382128 242.84048,14.368 245.853622,14.488 L245.853622,16.0990638 L245.703092,16.0990638 C242.183933,16.0990638 239.11211,18.754383 239.11211,23.7101277 L239.11211,29.9467234 L237.651038,29.9467234 L237.651038,14.7254468 Z" id="Fill-18" fill="#1E4166"></path>
            <path d="M244.80927,22.3658723 L244.80927,22.3071489 C244.80927,17.8901277 247.910858,14.3692766 252.025332,14.3692766 C256.291186,14.3692766 259.004119,17.8305532 259.004119,22.3360851 C259.004119,22.6050213 259.004119,22.695234 258.974353,22.9335319 L246.358789,22.9335319 C246.629231,26.7233191 249.341314,28.9326809 252.32469,28.9326809 C254.680435,28.9326809 256.291186,27.8875745 257.543898,26.5445957 L258.559334,27.440766 C257.007264,29.1114043 255.187303,30.3054468 252.265159,30.3054468 C248.268047,30.3054468 244.80927,27.1114043 244.80927,22.3658723 L244.80927,22.3658723 Z M257.424835,21.6203404 C257.216475,18.5462979 255.456895,15.7122553 251.967502,15.7122553 C248.95521,15.7122553 246.629231,18.2484255 246.358789,21.6203404 L257.424835,21.6203404 Z" id="Fill-19" fill="#1E4166"></path>
            <g id="graphic">
                <path d="M23.6372093,0.683333333 C18.8511628,-0.39047619 13.9674419,1.26904762 11.2325581,5.75952381 C11.0372093,6.05238095 11.2325581,6.15 11.427907,5.9547619 C11.6232558,5.75952381 11.9162791,5.46666667 12.5023256,4.88095238 C15.4325581,1.8547619 18.2651163,1.56190476 21.2930233,2.05 C27.3488372,3.12380952 30.9627907,10.9333333 29.3023256,19.1333333 C28.8139535,21.7690476 27.8372093,24.1119048 26.4697674,26.0642857 C29.4,26.1619048 32.0372093,25.4785714 34.2837209,24.4047619 C36.3348837,12.6904762 31.6465116,2.44047619 23.6372093,0.683333333" id="logo-color" fill="#90BEDC"></path>
                <path d="M41.1209302,22.9404762 C42.1953488,18.2547619 40.5348837,13.3738095 35.944186,10.7380952 C35.6511628,10.6404762 35.5534884,10.7380952 35.7488372,10.9333333 C35.944186,11.1285714 36.2372093,11.4214286 36.8232558,12.0071429 C39.8511628,14.9357143 40.144186,17.7666667 39.655814,20.6952381 C38.5813953,26.65 30.6697674,30.2619048 22.4651163,28.602381 C19.827907,28.1142857 17.4837209,27.1380952 15.4325581,25.8690476 C15.3348837,28.7 16.0186047,31.4333333 17.1906977,33.5809524 C29.0093023,35.5333333 39.3627907,30.847619 41.1209302,22.9404762" id="logo-color" fill="#508FBB"></path>
                <path d="M18.2651163,40.0238095 C23.0511628,41.097619 27.9348837,39.4380952 30.6697674,34.947619 C30.7674419,34.6547619 30.6697674,34.5571429 30.4744186,34.752381 C30.2790698,34.947619 29.9860465,35.2404762 29.4,35.8261905 C26.4697674,38.852381 23.6372093,39.1452381 20.6093023,38.6571429 C14.5534884,37.5833333 11.0372093,29.7738095 12.6,21.5738095 C13.0883721,18.9380952 14.0651163,16.5952381 15.3348837,14.6428571 C12.4046512,14.5452381 9.76744186,15.2285714 7.52093023,16.302381 C5.56744186,27.9190476 10.3534884,38.2666667 18.2651163,40.0238095" id="logo-color" fill="#1E4166"></path>
                <path d="M0.781395349,18.0595238 C-0.293023256,22.7452381 1.36744186,27.6261905 5.95813953,30.2619048 C6.25116279,30.3595238 6.34883721,30.2619048 6.15348837,30.0666667 C5.95813953,29.8714286 5.66511628,29.5785714 5.07906977,28.9928571 C2.05116279,26.0642857 1.75813953,23.2333333 2.24651163,20.3047619 C3.32093023,14.35 11.2325581,10.7380952 19.4372093,12.397619 C22.0744186,12.8857143 24.4186047,13.8619048 26.4697674,15.1309524 C26.5674419,12.202381 25.8837209,9.56666667 24.7116279,7.41904762 C12.9906977,5.46666667 2.53953488,10.152381 0.781395349,18.0595238" id="logo-color" fill="#508FBB"></path>
            </g>
        </g>
    </g>
</svg>