<?xml version="1.0" encoding="UTF-8" standalone="no"?>
<svg width="188px" height="29px" viewBox="0 0 188 29" version="1.1" xmlns="http://www.w3.org/2000/svg" xmlns:xlink="http://www.w3.org/1999/xlink">
    <!-- Generator: Sketch 3.6.1 (26313) - http://www.bohemiancoding.com/sketch -->
    <title>c-healthcare-m</title>
    <desc>Created with Sketch.</desc>
    <defs></defs>
    <g id="Page-1" stroke="none" stroke-width="1" fill="none" fill-rule="evenodd">
        <g id="c-healthcare-m" transform="translate(0.333333, 0.000000)">
            <path d="M35.8763987,15.4384277 L35.8763987,15.3958532 C35.8763987,12.2077043 38.5838461,9.56808723 42.2387145,9.56808723 C45.8935829,9.56808723 48.5769118,12.1651298 48.5769118,15.3532787 L48.5769118,15.3958532 C48.5769118,18.5630234 45.8700829,21.2007894 42.1917145,21.2007894 C38.5609645,21.2007894 35.8763987,18.6043638 35.8763987,15.4384277 L35.8763987,15.4384277 Z M45.8478197,15.4384277 L45.8478197,15.3958532 C45.8478197,13.4331085 44.3345434,11.8078745 42.1917145,11.8078745 C40.0055961,11.8078745 38.6073461,13.4102787 38.6073461,15.3532787 L38.6073461,15.3958532 C38.6073461,17.3376191 40.1175303,18.9825979 42.2387145,18.9825979 C44.4495697,18.9825979 45.8478197,17.3585979 45.8478197,15.4384277 L45.8478197,15.4384277 Z" id="Fill-1" fill="#1E4166"></path>
            <path d="M49.8192579,9.80088936 L52.5489684,9.80088936 L52.5489684,11.6593574 C53.4296,10.4968894 54.6695342,9.56888936 56.5891132,9.56888936 C59.4078763,9.56888936 62.1369684,11.6593574 62.1369684,15.3540809 L62.1369684,15.3948043 C62.1369684,19.0901447 59.4301395,21.1799957 56.5891132,21.1799957 C54.6243895,21.1799957 53.3850737,20.2507617 52.5489684,19.216634 L52.5489684,24.3261872 L49.8192579,24.3261872 L49.8192579,9.80088936 Z M59.3614947,15.3948043 L59.3614947,15.3540809 C59.3614947,13.1994426 57.8055474,11.7864638 55.9570868,11.7864638 C54.1061526,11.7864638 52.4809421,13.2216553 52.4809421,15.3540809 L52.4809421,15.3948043 C52.4809421,17.5500596 54.1061526,18.9630383 55.9570868,18.9630383 C57.8296658,18.9630383 59.3614947,17.5914 59.3614947,15.3948043 L59.3614947,15.3948043 Z" id="Fill-3" fill="#1E4166"></path>
            <path d="M63.9765237,17.8661596 L63.9765237,11.9964362 L62.4644842,11.9964362 L62.4644842,9.80107447 L63.9765237,9.80107447 L63.9765237,6.74003191 L66.7062342,6.74003191 L66.7062342,9.80107447 L69.9108921,9.80107447 L69.9108921,11.9964362 L66.7062342,11.9964362 L66.7062342,17.4644787 C66.7062342,18.4560319 67.2485895,18.8589468 68.1731289,18.8589468 C68.7804184,18.8589468 69.3233921,18.7293723 69.8645105,18.4782447 L69.8645105,20.5680957 C69.1885763,20.9265851 68.4211158,21.1376064 67.4069053,21.1376064 C65.3976553,21.1376064 63.9765237,20.3145 63.9765237,17.8661596" id="Fill-5" fill="#1E4166"></path>
            <path d="M71.6916974,20.9470085 L74.4214079,20.9470085 L74.4214079,9.80051915 L71.6916974,9.80051915 L71.6916974,20.9470085 Z" id="Fill-7" fill="#1E4166"></path>
            <path d="M76.4754316,9.80088936 L79.2051421,9.80088936 L79.2051421,11.4902936 C79.9713658,10.4968894 81.0109316,9.56888936 82.8383658,9.56888936 C84.5520105,9.56888936 85.7468,10.3494213 86.3794447,11.5322511 C87.3509842,10.3494213 88.6131816,9.56888936 90.4177342,9.56888936 C93.0120105,9.56888936 94.5920763,11.1102085 94.5920763,13.8325064 L94.5920763,20.9467617 L91.8623658,20.9467617 L91.8623658,14.6136553 C91.8623658,12.8415702 90.9804974,11.8919745 89.4468132,11.8919745 C87.9576553,11.8919745 86.8976816,12.8625489 86.8976816,14.6562298 L86.8976816,20.9467617 L84.1692079,20.9467617 L84.1692079,14.5926766 C84.1692079,12.8625489 83.2656947,11.8919745 81.7536553,11.8919745 C80.2428526,11.8919745 79.2051421,12.9470809 79.2051421,14.6772085 L79.2051421,20.9467617 L76.4754316,20.9467617 L76.4754316,9.80088936 Z" id="Fill-9" fill="#1E4166"></path>
            <path d="M96.6508,6.39702979 L97.7132474,6.39702979 L97.7132474,12.0076043 C98.4497868,10.7087745 99.6872474,9.6919234 101.703918,9.6919234 C104.501037,9.6919234 106.127484,11.594817 106.127484,14.2356681 L106.127484,20.9864979 L105.065037,20.9864979 L105.065037,14.4306468 C105.065037,12.1587745 103.786761,10.6662 101.553024,10.6662 C99.3836026,10.6662 97.7132474,12.3105617 97.7132474,14.6040298 L97.7132474,20.9864979 L96.6508,20.9864979 L96.6508,6.39702979 Z" id="Fill-10" fill="#1E4166"></path>
            <path d="M107.017763,15.4902574 L107.017763,15.447683 C107.017763,12.2453426 109.273145,9.69272553 112.266921,9.69272553 C115.367684,9.69272553 117.340447,12.2021511 117.340447,15.4686617 C117.340447,15.6636404 117.340447,15.7290447 117.318803,15.9018106 L108.146382,15.9018106 C108.341184,18.6494064 110.315184,20.2511936 112.48275,20.2511936 C114.196395,20.2511936 115.367684,19.4934915 116.279855,18.5198319 L117.015776,19.1695553 C115.887776,20.3807681 114.564974,21.2464489 112.439461,21.2464489 C109.532882,21.2464489 107.017763,18.9307681 107.017763,15.4902574 L107.017763,15.4902574 Z M116.191421,14.9497468 C116.039908,12.721066 114.761013,10.6663851 112.223013,10.6663851 C110.032566,10.6663851 108.341184,12.5051085 108.146382,14.9497468 L116.191421,14.9497468 Z" id="Fill-11" fill="#1E4166"></path>
            <path d="M117.797275,17.7847745 L117.797275,17.7403489 C117.797275,15.4474979 119.770657,14.1499021 122.633946,14.1499021 C124.173814,14.1499021 125.235643,14.3442638 126.298709,14.6243915 L126.298709,14.1499021 C126.298709,11.9199872 124.931999,10.7735617 122.656209,10.7735617 C121.310525,10.7735617 120.204788,11.1419234 119.18563,11.6608383 L118.79417,10.7309872 C120.009367,10.1676468 121.202301,9.7789234 122.719907,9.7789234 C124.215867,9.7789234 125.410038,10.1904766 126.21213,10.9901362 C126.949907,11.7250085 127.340749,12.7430936 127.340749,14.1054766 L127.340749,20.9852638 L126.298709,20.9852638 L126.298709,19.1465404 C125.540525,20.207817 124.173814,21.2468809 122.069946,21.2468809 C120.009367,21.2468809 117.797275,20.0776255 117.797275,17.7847745 M126.320354,16.8543064 L126.320354,15.5992851 C125.387775,15.3611149 124.151551,15.1013489 122.568393,15.1013489 C120.22767,15.1013489 118.924657,16.1391787 118.924657,17.6755617 L118.924657,17.7193702 C118.924657,19.3205404 120.443499,20.2510085 122.135499,20.2510085 C124.390262,20.2510085 126.320354,18.8664128 126.320354,16.8543064" id="Fill-12" fill="#1E4166"></path>
            <path d="M129.141158,20.9852638 L130.203605,20.9852638 L130.203605,6.39702979 L129.141158,6.39702979 L129.141158,20.9852638 Z" id="Fill-13" fill="#1E4166"></path>
            <path d="M133.239682,18.1523957 L133.239682,10.9252255 L131.634879,10.9252255 L131.634879,9.95094894 L133.239682,9.95094894 L133.239682,6.42467234 L134.303366,6.42467234 L134.303366,9.95094894 L138.183958,9.95094894 L138.183958,10.9252255 L134.303366,10.9252255 L134.303366,18.0438 C134.303366,19.6239915 135.235945,20.1860979 136.514221,20.1860979 C137.056576,20.1860979 137.511734,20.0781191 138.141905,19.7967574 L138.141905,20.7913957 C137.577905,21.0523957 137.03555,21.1807362 136.341682,21.1807362 C134.628037,21.1807362 133.239682,20.2508851 133.239682,18.1523957" id="Fill-14" fill="#1E4166"></path>
            <path d="M139.595442,6.39702979 L140.657271,6.39702979 L140.657271,12.0076043 C141.395047,10.7087745 142.631889,9.6919234 144.648561,9.6919234 C147.445061,9.6919234 149.072126,11.594817 149.072126,14.2356681 L149.072126,20.9864979 L148.009061,20.9864979 L148.009061,14.4306468 C148.009061,12.1587745 146.730166,10.6662 144.496429,10.6662 C142.327626,10.6662 140.657271,12.3105617 140.657271,14.6040298 L140.657271,20.9864979 L139.595442,20.9864979 L139.595442,6.39702979 Z" id="Fill-15" fill="#1E4166"></path>
            <path d="M150.395424,15.5119766 L150.395424,15.4694021 C150.395424,12.3750404 152.867871,9.69161489 156.034805,9.69161489 C158.116411,9.69161489 159.417568,10.6436787 160.459608,11.725317 L159.699568,12.5052319 C158.745963,11.5303383 157.660016,10.6874872 156.012542,10.6874872 C153.496805,10.6874872 151.545687,12.7859766 151.545687,15.4255936 L151.545687,15.4694021 C151.545687,18.1299979 153.562358,20.251317 156.099739,20.251317 C157.660016,20.251317 158.875213,19.4510404 159.808411,18.4119766 L160.54495,19.060466 C159.417568,20.3377 158.073121,21.2465723 156.034805,21.2465723 C152.846226,21.2465723 150.395424,18.6069553 150.395424,15.5119766" id="Fill-16" fill="#1E4166"></path>
            <path d="M160.893492,17.7847745 L160.893492,17.7403489 C160.893492,15.4474979 162.867492,14.1499021 165.728926,14.1499021 C167.270032,14.1499021 168.331861,14.3442638 169.394926,14.6243915 L169.394926,14.1499021 C169.394926,11.9199872 168.028216,10.7735617 165.752426,10.7735617 C164.407361,10.7735617 163.301624,11.1419234 162.280611,11.6608383 L161.891005,10.7309872 C163.105584,10.1676468 164.298518,9.7789234 165.816124,9.7789234 C167.312703,9.7789234 168.506255,10.1904766 169.308347,10.9901362 C170.044887,11.7250085 170.436966,12.7430936 170.436966,14.1054766 L170.436966,20.9852638 L169.394926,20.9852638 L169.394926,19.1465404 C168.636742,20.207817 167.270032,21.2468809 165.166163,21.2468809 C163.105584,21.2468809 160.893492,20.0776255 160.893492,17.7847745 M169.416571,16.8543064 L169.416571,15.5992851 C168.483992,15.3611149 167.247768,15.1013489 165.664611,15.1013489 C163.322032,15.1013489 162.021492,16.1391787 162.021492,17.6755617 L162.021492,17.7193702 C162.021492,19.3205404 163.539097,20.2510085 165.231716,20.2510085 C167.486479,20.2510085 169.416571,18.8664128 169.416571,16.8543064" id="Fill-17" fill="#1E4166"></path>
            <path d="M172.085491,9.95094894 L173.147938,9.95094894 L173.147938,13.0891191 C174.014964,11.1202043 175.859096,9.6918 178.050162,9.7788 L178.050162,10.9468213 L177.940701,10.9468213 C175.381675,10.9468213 173.147938,12.8719277 173.147938,16.4648426 L173.147938,20.9863745 L172.085491,20.9863745 L172.085491,9.95094894 Z" id="Fill-18" fill="#1E4166"></path>
            <path d="M177.290741,15.4902574 L177.290741,15.447683 C177.290741,12.2453426 179.546122,9.69272553 182.538043,9.69272553 C185.640043,9.69272553 187.612807,12.2021511 187.612807,15.4686617 C187.612807,15.6636404 187.612807,15.7290447 187.591162,15.9018106 L178.417504,15.9018106 C178.614162,18.6494064 180.586307,20.2511936 182.755728,20.2511936 C184.468754,20.2511936 185.640043,19.4934915 186.550978,18.5198319 L187.289372,19.1695553 C186.160754,20.3807681 184.837333,21.2464489 182.712438,21.2464489 C179.805859,21.2464489 177.290741,18.9307681 177.290741,15.4902574 L177.290741,15.4902574 Z M186.464399,14.9497468 C186.312886,12.721066 185.033372,10.6663851 182.495991,10.6663851 C180.305543,10.6663851 178.614162,12.5051085 178.417504,14.9497468 L186.464399,14.9497468 Z" id="Fill-19" fill="#1E4166"></path>
            <g id="graphic">
                <path d="M16.8837209,0.483333333 C13.4651163,-0.276190476 9.97674419,0.897619048 8.02325581,4.07380952 C7.88372093,4.28095238 8.02325581,4.35 8.1627907,4.21190476 C8.30232558,4.07380952 8.51162791,3.86666667 8.93023256,3.45238095 C11.0232558,1.31190476 13.0465116,1.1047619 15.2093023,1.45 C19.5348837,2.20952381 22.1162791,7.73333333 20.9302326,13.5333333 C20.5813953,15.397619 19.8837209,17.0547619 18.9069767,18.4357143 C21,18.5047619 22.8837209,18.0214286 24.4883721,17.2619048 C25.9534884,8.97619048 22.6046512,1.72619048 16.8837209,0.483333333" id="logo-color" fill="#90BEDC"></path>
                <path d="M29.372093,16.2261905 C30.1395349,12.9119048 28.9534884,9.45952381 25.6744186,7.5952381 C25.4651163,7.52619048 25.3953488,7.5952381 25.5348837,7.73333333 C25.6744186,7.87142857 25.8837209,8.07857143 26.3023256,8.49285714 C28.4651163,10.5642857 28.6744186,12.5666667 28.3255814,14.6380952 C27.5581395,18.85 21.9069767,21.4047619 16.0465116,20.2309524 C14.1627907,19.8857143 12.4883721,19.1952381 11.0232558,18.297619 C10.9534884,20.3 11.4418605,22.2333333 12.2790698,23.752381 C20.7209302,25.1333333 28.1162791,21.8190476 29.372093,16.2261905" id="logo-color" fill="#508FBB"></path>
                <path d="M13.0465116,28.3095238 C16.4651163,29.0690476 19.9534884,27.8952381 21.9069767,24.7190476 C21.9767442,24.5119048 21.9069767,24.4428571 21.7674419,24.5809524 C21.627907,24.7190476 21.4186047,24.9261905 21,25.3404762 C18.9069767,27.4809524 16.8837209,27.6880952 14.7209302,27.3428571 C10.3953488,26.5833333 7.88372093,21.0595238 9,15.2595238 C9.34883721,13.3952381 10.0465116,11.7380952 10.9534884,10.3571429 C8.86046512,10.2880952 6.97674419,10.7714286 5.37209302,11.5309524 C3.97674419,19.747619 7.39534884,27.0666667 13.0465116,28.3095238" id="logo-color" fill="#1E4166"></path>
                <path d="M0.558139535,12.7738095 C-0.209302326,16.0880952 0.976744186,19.5404762 4.25581395,21.4047619 C4.46511628,21.4738095 4.53488372,21.4047619 4.39534884,21.2666667 C4.25581395,21.1285714 4.04651163,20.9214286 3.62790698,20.5071429 C1.46511628,18.4357143 1.25581395,16.4333333 1.60465116,14.3619048 C2.37209302,10.15 8.02325581,7.5952381 13.8837209,8.76904762 C15.7674419,9.11428571 17.4418605,9.8047619 18.9069767,10.702381 C18.9767442,8.63095238 18.4883721,6.76666667 17.6511628,5.24761905 C9.27906977,3.86666667 1.81395349,7.18095238 0.558139535,12.7738095" id="logo-color" fill="#508FBB"></path>
            </g>
        </g>
    </g>
</svg>