<?xml version="1.0" encoding="UTF-8" standalone="no"?>
<svg width="162px" height="27px" viewBox="0 0 162 27" version="1.1" xmlns="http://www.w3.org/2000/svg" xmlns:xlink="http://www.w3.org/1999/xlink">
    <!-- Generator: Sketch 3.6.1 (26313) - http://www.bohemiancoding.com/sketch -->
    <title>c-imaging-m</title>
    <desc>Created with Sketch.</desc>
    <defs></defs>
    <g id="Page-1" stroke="none" stroke-width="1" fill="none" fill-rule="evenodd">
        <g id="c-imaging-m">
            <path d="M33.0960447,13.3766471 L33.0960447,13.338 C33.0960447,10.278 35.5089595,7.74794118 38.7697552,7.74794118 C42.0273754,7.74794118 44.4196489,10.2382941 44.4196489,13.2977647 L44.4196489,13.338 C44.4196489,16.3736471 42.0062048,18.9031765 38.7290019,18.9031765 C35.489906,18.9031765 33.0960447,16.4138824 33.0960447,13.3766471 L33.0960447,13.3766471 Z M41.9855635,13.3766471 L41.9855635,13.338 C41.9855635,11.4554118 40.6369988,9.89576471 38.7290019,9.89576471 C36.7765469,9.89576471 35.5306593,11.4326471 35.5306593,13.2977647 L35.5306593,13.338 C35.5306593,15.1988824 36.8776363,16.7775882 38.7697552,16.7775882 C40.739676,16.7775882 41.9855635,15.219 41.9855635,13.3766471 L41.9855635,13.3766471 Z" id="Fill-1" fill="#1E4166"></path>
            <path d="M45.5451288,7.99618235 L48.0416673,7.99618235 L48.0416673,9.70088824 C48.8477364,8.63412353 49.9824785,7.78124118 51.7369888,7.78124118 C54.317151,7.78124118 56.8152773,9.70088824 56.8152773,13.0875353 L56.8152773,13.1261824 C56.8152773,16.5160059 54.3372631,18.6273 51.7369888,18.6273 C49.9396082,18.6273 48.8059246,17.7760059 48.0416673,16.8288882 L48.0416673,20.7804176 L45.5451288,20.7804176 L45.5451288,7.99618235 Z M54.2753392,13.1261824 L54.2753392,13.0875353 C54.2753392,11.1144176 52.8521482,9.81524118 51.1590325,9.81524118 C49.4659168,9.81524118 47.9792142,11.1334765 47.9792142,13.0875353 L47.9792142,13.1261824 C47.9792142,15.1014176 49.4659168,16.3990059 51.1590325,16.3990059 C52.873848,16.3990059 54.2753392,15.1395353 54.2753392,13.1261824 L54.2753392,13.1261824 Z" id="Fill-3" fill="#1E4166"></path>
            <path d="M58.4965904,15.9016765 L58.4965904,10.0093235 L57.1141527,10.0093235 L57.1141527,7.9965 L58.4965904,7.9965 L58.4965904,5.47332353 L60.9936581,5.47332353 L60.9936581,7.9965 L63.9252516,7.9965 L63.9252516,10.0093235 L60.9936581,10.0093235 L60.9936581,15.5332059 C60.9936581,16.4422059 61.4895785,16.8112059 62.3358717,16.8112059 C62.8915989,16.8112059 63.3885779,16.6936765 63.8844983,16.4644412 L63.8844983,18.3798529 C63.2652594,18.7086176 62.562926,18.9034412 61.6351261,18.9034412 C59.7975214,18.9034412 58.4965904,18.1469118 58.4965904,15.9016765" id="Fill-5" fill="#1E4166"></path>
            <path d="M65.5546439,18.7974 L68.0522409,18.7974 L68.0522409,7.97198824 L65.5546439,7.97198824 L65.5546439,18.7974 Z" id="Fill-7" fill="#1E4166"></path>
            <path d="M69.9326102,7.97188235 L72.4296779,7.97188235 L72.4296779,9.63794118 C73.1304235,8.72788235 74.0799232,7.87447059 75.7534561,7.87447059 C77.3206069,7.87447059 78.4161834,8.59023529 78.9936105,9.67605882 C79.8827741,8.59023529 81.0355112,7.87447059 82.6873442,7.87447059 C85.0600349,7.87447059 86.5059843,9.28958824 86.5059843,11.7884118 L86.5059843,18.8375294 L84.0099751,18.8375294 L84.0099751,12.5041765 C84.0099751,10.8762353 83.2033767,10.0069412 81.800827,10.0069412 C80.4390306,10.0069412 79.4673018,10.8968824 79.4673018,12.5417647 L79.4673018,18.8375294 L76.9707633,18.8375294 L76.9707633,12.4845882 C76.9707633,10.8968824 76.1440529,10.0069412 74.7605567,10.0069412 C73.3781191,10.0069412 72.4296779,10.9741765 72.4296779,12.5624118 L72.4296779,18.8375294 L69.9326102,18.8375294 L69.9326102,7.97188235 Z" id="Fill-9" fill="#1E4166"></path>
            <g id="graphic">
                <path d="M15.5849732,0.45 C12.4293381,-0.257142857 9.20930233,0.835714286 7.40608229,3.79285714 C7.27728086,3.98571429 7.40608229,4.05 7.53488372,3.92142857 C7.66368515,3.79285714 7.8568873,3.6 8.24329159,3.21428571 C10.1753131,1.22142857 12.0429338,1.02857143 14.039356,1.35 C18.0322004,2.05714286 20.4150268,7.2 19.3202147,12.6 C18.9982111,14.3357143 18.3542039,15.8785714 17.4525939,17.1642857 C19.3846154,17.2285714 21.1234347,16.7785714 22.6046512,16.0714286 C23.9570662,8.35714286 20.8658318,1.60714286 15.5849732,0.45" id="logo-color" fill="#90BEDC"></path>
                <path d="M27.1127013,15.1071429 C27.8211091,12.0214286 26.726297,8.80714286 23.6994633,7.07142857 C23.5062612,7.00714286 23.4418605,7.07142857 23.5706619,7.2 C23.6994633,7.32857143 23.8926655,7.52142857 24.2790698,7.90714286 C26.2754919,9.83571429 26.4686941,11.7 26.1466905,13.6285714 C25.4382826,17.55 20.2218247,19.9285714 14.8121646,18.8357143 C13.0733453,18.5142857 11.5277281,17.8714286 10.1753131,17.0357143 C10.1109123,18.9 10.5617174,20.7 11.3345259,22.1142857 C19.1270125,23.4 25.9534884,20.3142857 27.1127013,15.1071429" id="logo-color" fill="#508FBB"></path>
                <path d="M12.0429338,26.3571429 C15.1985689,27.0642857 18.4186047,25.9714286 20.2218247,23.0142857 C20.2862254,22.8214286 20.2218247,22.7571429 20.0930233,22.8857143 C19.9642218,23.0142857 19.7710197,23.2071429 19.3846154,23.5928571 C17.4525939,25.5857143 15.5849732,25.7785714 13.588551,25.4571429 C9.59570662,24.75 7.27728086,19.6071429 8.30769231,14.2071429 C8.62969589,12.4714286 9.27370304,10.9285714 10.1109123,9.64285714 C8.17889088,9.57857143 6.44007156,10.0285714 4.9588551,10.7357143 C3.67084079,18.3857143 6.82647585,25.2 12.0429338,26.3571429" id="logo-color" fill="#1E4166"></path>
                <path d="M0.515205725,11.8928571 C-0.193202147,14.9785714 0.901610018,18.1928571 3.92844365,19.9285714 C4.1216458,19.9928571 4.18604651,19.9285714 4.05724508,19.8 C3.92844365,19.6714286 3.7352415,19.4785714 3.34883721,19.0928571 C1.35241503,17.1642857 1.15921288,15.3 1.48121646,13.3714286 C2.18962433,9.45 7.40608229,7.07142857 12.8157424,8.16428571 C14.5545617,8.48571429 16.1001789,9.12857143 17.4525939,9.96428571 C17.5169946,8.03571429 17.0661896,6.3 16.293381,4.88571429 C8.56529517,3.6 1.6744186,6.68571429 0.515205725,11.8928571" id="logo-color" fill="#508FBB"></path>
            </g>
            <path d="M92.8408514,18.5379882 L93.8252825,18.5379882 L93.8252825,8.29122353 L92.8408514,8.29122353 L92.8408514,18.5379882 Z" id="Fill-15" fill="#1E4166"></path>
            <path d="M92.7551106,18.6258706 L93.9115526,18.6258706 L93.9115526,8.20492941 L92.7551106,8.20492941 L92.7551106,18.6258706 Z M92.9271215,18.4527529 L93.7384832,18.4527529 L93.7384832,8.37857647 L92.9271215,8.37857647 L92.9271215,18.4527529 Z" id="Fill-16" fill="#1E4166"></path>
            <path d="M96.4971132,8.29191176 L97.4815444,8.29191176 L97.4815444,10.1205 C98.1441829,9.05532353 99.0677487,8.0505 100.895827,8.0505 C102.683151,8.0505 103.787725,9.07491176 104.350333,10.2613235 C105.013501,9.11514706 106.118604,8.0505 108.046184,8.0505 C110.476564,8.0505 111.983908,9.75838235 111.983908,12.3302647 L111.983908,18.5386765 L110.999477,18.5386765 L110.999477,12.4515 C110.999477,10.2406765 109.85415,8.95473529 107.965736,8.95473529 C106.238218,8.95473529 104.732991,10.2803824 104.732991,12.5716765 L104.732991,18.5386765 L103.748031,18.5386765 L103.748031,12.3906176 C103.748031,10.2613235 102.582591,8.95473529 100.755042,8.95473529 C98.9269645,8.95473529 97.4815444,10.5620294 97.4815444,12.6320294 L97.4815444,18.5386765 L96.4971132,18.5386765 L96.4971132,8.29191176 Z" id="Fill-17" fill="#1E4166"></path>
            <path d="M112.069596,18.6252882 L110.913154,18.6252882 L110.913154,12.4507588 C110.913154,10.3156412 109.811756,9.04028824 107.965683,9.04028824 C106.450929,9.04028824 104.818679,10.1457 104.818679,12.5709353 L104.818679,18.6252882 L103.660649,18.6252882 L103.660649,12.3904059 C103.660649,10.3241118 102.548665,9.04028824 100.75499,9.04028824 C98.9676649,9.04028824 97.5682907,10.6184647 97.5682907,12.6318176 L97.5682907,18.6252882 L96.410261,18.6252882 L96.410261,8.20487647 L97.5682907,8.20487647 L97.5682907,9.82805294 C98.1832955,8.9127 99.1285611,7.96346471 100.895774,7.96346471 C102.91915,7.96346471 103.916284,9.22928824 104.35769,10.0800529 C105.219861,8.67605294 106.459397,7.96346471 108.046131,7.96346471 C110.490802,7.96346471 112.069596,9.6777 112.069596,12.3300529 L112.069596,18.6252882 Z M111.085694,18.4527 L111.897585,18.4527 L111.897585,12.3300529 C111.897585,9.78305294 110.386007,8.13658235 108.046131,8.13658235 C106.475275,8.13658235 105.257968,8.86558235 104.424906,10.3034647 L104.34287,10.4458765 L104.272478,10.2976412 C103.89035,9.49028824 102.941909,8.13658235 100.895774,8.13658235 C99.0645202,8.13658235 98.1785322,9.16258235 97.5534713,10.1658176 L97.3946921,10.4215235 L97.3946921,8.37746471 L96.5833304,8.37746471 L96.5833304,18.4527 L97.3946921,18.4527 L97.3946921,12.6318176 C97.3946921,10.5210529 98.8713388,8.8677 100.75499,8.8677 C102.653989,8.8677 103.833718,10.2182294 103.833718,12.3904059 L103.833718,18.4527 L104.646139,18.4527 L104.646139,12.5709353 C104.646139,10.7312294 105.786703,8.8677 107.965683,8.8677 C109.919726,8.8677 111.085694,10.2076412 111.085694,12.4507588 L111.085694,18.4527 Z" id="Fill-18" fill="#1E4166"></path>
            <path d="M113.550371,15.5651294 L113.550371,15.5248941 C113.550371,13.3945412 115.378449,12.1896 118.029533,12.1896 C119.455899,12.1896 120.44033,12.3706588 121.424761,12.6316588 L121.424761,12.1896 C121.424761,10.1206588 120.159291,9.05548235 118.050174,9.05548235 C116.803228,9.05548235 115.78016,9.39695294 114.836483,9.87924706 L114.474466,9.01418824 C115.599152,8.49271765 116.702668,8.1306 118.109452,8.1306 C119.496123,8.1306 120.600697,8.51283529 121.344313,9.25507059 C122.027593,9.93907059 122.388551,10.8835412 122.388551,12.1493647 L122.388551,18.5388353 L121.424761,18.5388353 L121.424761,16.8314824 C120.72084,17.8151294 119.455899,18.7802471 117.507678,18.7802471 C115.599152,18.7802471 113.550371,17.6944235 113.550371,15.5651294 M121.444344,14.7011294 L121.444344,13.5358941 C120.581115,13.3146 119.435787,13.0742471 117.969726,13.0742471 C115.799743,13.0742471 114.594609,14.0383059 114.594609,15.4645412 L114.594609,15.5042471 C114.594609,16.9924235 116.000864,17.8553647 117.568544,17.8553647 C119.655961,17.8553647 121.444344,16.5699529 121.444344,14.7011294" id="Fill-19" fill="#1E4166"></path>
            <path d="M117.507467,18.8672294 C114.853207,18.8672294 113.46336,17.2059353 113.46336,15.5652882 L113.46336,15.5255824 C113.46336,13.4142882 115.213636,12.1039941 118.029321,12.1039941 C119.49697,12.1039941 120.491987,12.2998765 121.33828,12.5201118 L121.33828,12.1897588 C121.33828,10.2240529 120.170194,9.14140588 118.049962,9.14140588 C116.971851,9.14140588 115.963074,9.40028824 114.874907,9.95617059 L114.792342,9.99799412 L114.36258,8.97252353 L114.437206,8.93652353 C115.388293,8.49605294 116.568023,8.04446471 118.109769,8.04446471 C119.532431,8.04446471 120.641768,8.43146471 121.404438,9.19434706 C122.124766,9.91487647 122.47461,10.8805235 122.47461,12.1495235 L122.47461,18.6258176 L121.33828,18.6258176 L121.33828,17.0878765 C120.741799,17.8322294 119.546192,18.8672294 117.507467,18.8672294 M118.029321,12.2760529 C115.31896,12.2760529 113.636429,13.5212294 113.636429,15.5255824 L113.636429,15.5652882 C113.636429,17.1201706 114.965941,18.6941118 117.507467,18.6941118 C119.665276,18.6941118 120.843947,17.4955235 121.354158,16.7813471 L121.51082,16.5616412 L121.51082,18.4527 L122.303128,18.4527 L122.303128,12.1495235 C122.303128,10.9292294 121.969692,10.0022294 121.282707,9.31611176 C120.553381,8.58711176 119.484797,8.21705294 118.109769,8.21705294 C116.644237,8.21705294 115.54866,8.61675882 114.5854,9.05828824 L114.879141,9.76028824 C115.960957,9.22081765 116.971322,8.96934706 118.049962,8.96934706 C120.281869,8.96934706 121.51082,10.1128765 121.51082,12.1897588 L121.51082,12.7435235 L121.402321,12.7144059 C120.542796,12.4867588 119.53984,12.2760529 118.029321,12.2760529 M117.568332,17.9423471 C116.047756,17.9423471 114.508127,17.1053471 114.508127,15.5044059 L114.508127,15.4641706 C114.508127,13.9368176 115.834463,12.9881118 117.969514,12.9881118 C119.459922,12.9881118 120.620598,13.2364059 121.466362,13.4518765 L121.531461,13.4693471 L121.531461,14.7012882 C121.531461,16.5489353 119.827231,17.9423471 117.568332,17.9423471 M117.969514,13.1601706 C115.940845,13.1601706 114.681197,14.0432294 114.681197,15.4641706 L114.681197,15.5044059 C114.681197,16.9920529 116.132968,17.7697588 117.568332,17.7697588 C119.728788,17.7697588 121.357862,16.4504647 121.357862,14.7012882 L121.357862,13.6027588 C120.528506,13.3925824 119.402761,13.1601706 117.969514,13.1601706" id="Fill-20" fill="#1E4166"></path>
            <path d="M124.51868,20.2269706 L125.100341,19.4227941 C126.325588,20.3677941 127.732371,20.8702059 129.238657,20.8702059 C131.588589,20.8702059 133.255771,19.5239118 133.255771,16.8916765 L133.255771,15.4045588 C132.372429,16.6703824 131.00587,17.7752647 128.977201,17.7752647 C126.506596,17.7752647 124.056633,15.8868529 124.056633,12.9539118 L124.056633,12.9126176 C124.056633,9.95902941 126.506596,8.0505 128.977201,8.0505 C131.026511,8.0505 132.412653,9.13579412 133.255771,10.3412647 L133.255771,8.29191176 L134.240731,8.29191176 L134.240731,16.9515 C134.240731,18.4391471 133.758572,19.6038529 132.933978,20.4281471 C132.051166,21.3122647 130.726418,21.7945588 129.219074,21.7945588 C127.511668,21.7945588 125.923876,21.2720294 124.51868,20.2269706 M133.315578,12.9332647 L133.315578,12.8919706 C133.315578,10.5223235 131.207519,8.99444118 129.077761,8.99444118 C126.928949,8.99444118 125.120983,10.4820882 125.120983,12.8723824 L125.120983,12.9126176 C125.120983,15.2240294 126.968643,16.8307941 129.077761,16.8307941 C131.207519,16.8307941 133.315578,15.2637353 133.315578,12.9332647" id="Fill-21" fill="#1E4166"></path>
            <path d="M129.218968,21.8803235 C127.480336,21.8803235 125.880371,21.3466765 124.466707,20.2963235 L124.398961,20.2455 L125.083299,19.3010294 L125.152103,19.3550294 C126.383172,20.3026765 127.75767,20.7839118 129.237493,20.7839118 C131.700687,20.7839118 133.170454,19.3285588 133.170454,16.8916765 L133.170454,15.6703235 C132.085992,17.1045 130.642159,17.8615588 128.977095,17.8615588 C127.718505,17.8615588 126.462561,17.3755588 125.531586,16.5279706 C124.524926,15.6105 123.969198,14.3415 123.969198,12.9539118 L123.969198,12.9126176 C123.969198,9.85632353 126.569473,7.96367647 128.977095,7.96367647 C131.077214,7.96367647 132.398787,9.06697059 133.170454,10.0776176 L133.170454,8.20561765 L134.327425,8.20561765 L134.327425,16.9515 C134.327425,18.3952059 133.866436,19.6181471 132.995267,20.4890294 C132.099223,21.3853235 130.757539,21.8803235 129.218968,21.8803235 L129.218968,21.8803235 Z M124.638717,20.2079118 C126.005806,21.2032059 127.547023,21.7077353 129.218968,21.7077353 C130.711493,21.7077353 132.009778,21.2317941 132.873537,20.3672647 C133.710832,19.5297353 134.154355,18.3486176 134.154355,16.9515 L134.154355,8.37767647 L133.342994,8.37767647 L133.342994,10.6149706 L133.186332,10.3910294 C132.466532,9.36238235 131.151311,8.13679412 128.977095,8.13679412 C126.652038,8.13679412 124.142268,9.96326471 124.142268,12.9126176 L124.142268,12.9539118 C124.142268,15.2812059 125.950234,17.6889706 128.977095,17.6889706 C130.687676,17.6889706 132.103457,16.9043824 133.186332,15.3547941 L133.342994,15.1308529 L133.342994,16.8916765 C133.342994,19.4370882 131.808657,20.9559706 129.237493,20.9559706 C127.746556,20.9559706 126.361472,20.4810882 125.118231,19.5450882 L124.638717,20.2079118 Z M129.077655,16.9176176 C126.810817,16.9176176 125.034607,15.1589118 125.034607,12.9126176 L125.034607,12.8723824 C125.034607,10.5757941 126.736191,8.90867647 129.077655,8.90867647 C131.78484,8.90867647 133.401742,10.9336765 133.401742,12.8925 L133.401742,12.9332647 C133.401742,15.3939706 131.157662,16.9176176 129.077655,16.9176176 L129.077655,16.9176176 Z M129.077655,9.08073529 C126.834105,9.08073529 125.207147,10.6758529 125.207147,12.8723824 L125.207147,12.9126176 C125.207147,15.0615 126.907672,16.7450294 129.077655,16.7450294 C131.075097,16.7450294 133.229731,15.2875588 133.229731,12.9332647 L133.229731,12.8925 C133.229731,10.5069706 131.119026,9.08073529 129.077655,9.08073529 L129.077655,9.08073529 Z" id="Fill-22" fill="#1E4166"></path>
            <path d="M136.911609,18.5379882 L137.895511,18.5379882 L137.895511,8.29122353 L136.911609,8.29122353 L136.911609,18.5379882 Z" id="Fill-23" fill="#1E4166"></path>
            <path d="M136.824281,18.6258706 L137.982311,18.6258706 L137.982311,8.20492941 L136.824281,8.20492941 L136.824281,18.6258706 Z M136.997879,18.4527529 L137.80977,18.4527529 L137.80977,8.37857647 L136.997879,8.37857647 L136.997879,18.4527529 Z" id="Fill-24" fill="#1E4166"></path>
            <path d="M140.56713,8.29191176 L141.551561,8.29191176 L141.551561,10.2004412 C142.233783,8.99444118 143.379639,8.0505 145.247941,8.0505 C147.838689,8.0505 149.344974,9.81873529 149.344974,12.2709706 L149.344974,18.5386765 L148.361602,18.5386765 L148.361602,12.4515 C148.361602,10.3412647 147.175521,8.95473529 145.107157,8.95473529 C143.098071,8.95473529 141.551561,10.4820882 141.551561,12.6113824 L141.551561,18.5386765 L140.56713,18.5386765 L140.56713,8.29191176 Z" id="Fill-25" fill="#1E4166"></path>
            <path d="M149.43135,18.6252882 L148.274379,18.6252882 L148.274379,12.4507588 C148.274379,10.3463471 147.060247,9.04028824 145.107792,9.04028824 C143.129403,9.04028824 141.637408,10.5761118 141.637408,12.6117 L141.637408,18.6252882 L140.481495,18.6252882 L140.481495,8.20487647 L141.637408,8.20487647 L141.637408,9.89105294 C142.462531,8.61252353 143.674545,7.96346471 145.248047,7.96346471 C147.789573,7.96346471 149.43135,9.65440588 149.43135,12.2702294 L149.43135,18.6252882 Z M148.447448,18.4527 L149.259339,18.4527 L149.259339,12.2702294 C149.259339,9.75817059 147.68425,8.13658235 145.248047,8.13658235 C143.636438,8.13658235 142.417543,8.84440588 141.626823,10.2425824 L141.465397,10.5268765 L141.465397,8.37746471 L140.653506,8.37746471 L140.653506,18.4527 L141.465397,18.4527 L141.465397,12.6117 C141.465397,10.4771118 143.03149,8.8677 145.107792,8.8677 C147.167159,8.8677 148.447448,10.2409941 148.447448,12.4507588 L148.447448,18.4527 Z" id="Fill-26" fill="#1E4166"></path>
            <path d="M151.474945,20.2269706 L152.057135,19.4227941 C153.282381,20.3677941 154.689165,20.8702059 156.195451,20.8702059 C158.544854,20.8702059 160.213623,19.5239118 160.213623,16.8916765 L160.213623,15.4045588 C159.328694,16.6703824 157.963192,17.7752647 155.933994,17.7752647 C153.463919,17.7752647 151.012368,15.8868529 151.012368,12.9539118 L151.012368,12.9126176 C151.012368,9.95902941 153.463919,8.0505 155.933994,8.0505 C157.982246,8.0505 159.369447,9.13579412 160.213623,10.3412647 L160.213623,8.29191176 L161.196466,8.29191176 L161.196466,16.9515 C161.196466,18.4391471 160.715365,19.6038529 159.891301,20.4281471 C159.00743,21.3122647 157.682153,21.7945588 156.174809,21.7945588 C154.467403,21.7945588 152.88067,21.2720294 151.474945,20.2269706 M160.272371,12.9332647 L160.272371,12.8919706 C160.272371,10.5223235 158.164313,8.99444118 156.034554,8.99444118 C153.884684,8.99444118 152.077776,10.4820882 152.077776,12.8723824 L152.077776,12.9126176 C152.077776,15.2240294 153.925437,16.8307941 156.034554,16.8307941 C158.164313,16.8307941 160.272371,15.2637353 160.272371,12.9332647" id="Fill-27" fill="#1E4166"></path>
            <path d="M156.174756,21.8803235 C154.436653,21.8803235 152.836688,21.3466765 151.423024,20.2963235 L151.354749,20.2449706 L152.040146,19.3010294 L152.110008,19.3550294 C153.339489,20.3026765 154.713988,20.7839118 156.195398,20.7839118 C158.656475,20.7839118 160.126771,19.3285588 160.126771,16.8916765 L160.126771,15.6703235 C159.042309,17.1045 157.597947,17.8615588 155.933941,17.8615588 C154.675351,17.8615588 153.419408,17.3755588 152.488962,16.5279706 C151.481243,15.6105 150.926574,14.3415 150.926574,12.9539118 L150.926574,12.9126176 C150.926574,9.85632353 153.526319,7.96367647 155.933941,7.96367647 C158.033002,7.96367647 159.355633,9.06697059 160.126771,10.0776176 L160.126771,8.20561765 L161.283213,8.20561765 L161.283213,16.9515 C161.283213,18.3952059 160.822753,19.6181471 159.952114,20.4890294 C159.055011,21.3853235 157.713856,21.8803235 156.174756,21.8803235 L156.174756,21.8803235 Z M151.595035,20.2079118 C152.961065,21.2032059 154.502811,21.7077353 156.174756,21.7077353 C157.668339,21.7077353 158.966624,21.2317941 159.829854,20.3672647 C160.667149,19.5297353 161.110673,18.3486176 161.110673,16.9515 L161.110673,8.37767647 L160.298782,8.37767647 L160.298782,10.6149706 L160.143178,10.3910294 C159.42285,9.36238235 158.107629,8.13679412 155.933941,8.13679412 C153.608355,8.13679412 151.099114,9.96326471 151.099114,12.9126176 L151.099114,12.9539118 C151.099114,15.2812059 152.90708,17.6889706 155.933941,17.6889706 C157.644523,17.6889706 159.059775,16.9043824 160.143178,15.3547941 L160.298782,15.1308529 L160.298782,16.8916765 C160.298782,19.4370882 158.764445,20.9559706 156.195398,20.9559706 C154.703402,20.9559706 153.31726,20.4810882 152.075077,19.5450882 L151.595035,20.2079118 Z M156.034501,16.9176176 C153.767134,16.9176176 151.990395,15.1589118 151.990395,12.9126176 L151.990395,12.8723824 C151.990395,10.5757941 153.691449,8.90867647 156.034501,8.90867647 C158.741158,8.90867647 160.359118,10.9336765 160.359118,12.8925 L160.359118,12.9332647 C160.359118,15.3939706 158.114509,16.9176176 156.034501,16.9176176 L156.034501,16.9176176 Z M156.034501,9.08073529 C153.790422,9.08073529 152.163464,10.6758529 152.163464,12.8723824 L152.163464,12.9126176 C152.163464,15.0615 153.86346,16.7450294 156.034501,16.7450294 C158.031944,16.7450294 160.186578,15.2875588 160.186578,12.9332647 L160.186578,12.8925 C160.186578,10.5069706 158.075873,9.08073529 156.034501,9.08073529 L156.034501,9.08073529 Z" id="Fill-28" fill="#1E4166"></path>
        </g>
    </g>
</svg>