<?xml version="1.0" encoding="UTF-8" standalone="no"?>
<svg width="251px" height="42px" viewBox="0 0 251 42" version="1.1" xmlns="http://www.w3.org/2000/svg" xmlns:xlink="http://www.w3.org/1999/xlink">
    <!-- Generator: Sketch 3.6.1 (26313) - http://www.bohemiancoding.com/sketch -->
    <title>c-imaging-d</title>
    <desc>Created with Sketch.</desc>
    <defs></defs>
    <g id="Page-1" stroke="none" stroke-width="1" fill="none" fill-rule="evenodd">
        <g id="c-imaging-d">
            <path d="M51.4827363,20.8081176 L51.4827363,20.748 C51.4827363,15.988 55.2361592,12.0523529 60.3085082,12.0523529 C65.3759173,12.0523529 69.0972316,15.9262353 69.0972316,20.6854118 L69.0972316,20.748 C69.0972316,25.4701176 65.3429853,29.4049412 60.2451141,29.4049412 C55.2065204,29.4049412 51.4827363,25.5327059 51.4827363,20.8081176 L51.4827363,20.8081176 Z M65.3108766,20.8081176 L65.3108766,20.748 C65.3108766,17.8195294 63.2131092,15.3934118 60.2451141,15.3934118 C57.2079618,15.3934118 55.2699145,17.7841176 55.2699145,20.6854118 L55.2699145,20.748 C55.2699145,23.6427059 57.365212,26.0984706 60.3085082,26.0984706 C63.3728293,26.0984706 65.3108766,23.674 65.3108766,20.8081176 L65.3108766,20.8081176 Z" id="Fill-1" fill="#1E4166"></path>
            <path d="M70.8479782,12.4385059 L74.7314825,12.4385059 L74.7314825,15.0902706 C75.9853678,13.4308588 77.7505222,12.1041529 80.4797604,12.1041529 C84.493346,12.1041529 88.3793202,15.0902706 88.3793202,20.3583882 L88.3793202,20.4185059 C88.3793202,25.6915647 84.5246314,28.9758 80.4797604,28.9758 C77.6838349,28.9758 75.9203271,27.6515647 74.7314825,26.1782706 L74.7314825,32.3250941 L70.8479782,32.3250941 L70.8479782,12.4385059 Z M84.4283054,20.4185059 L84.4283054,20.3583882 C84.4283054,17.2890941 82.2144527,15.2681529 79.5807172,15.2681529 C76.9469818,15.2681529 74.6343331,17.3187412 74.6343331,20.3583882 L74.6343331,20.4185059 C74.6343331,23.4910941 76.9469818,25.5095647 79.5807172,25.5095647 C82.248208,25.5095647 84.4283054,23.5503882 84.4283054,20.4185059 L84.4283054,20.4185059 Z" id="Fill-3" fill="#1E4166"></path>
            <path d="M90.9946961,24.7359412 L90.9946961,15.5700588 L88.8442375,15.5700588 L88.8442375,12.439 L90.9946961,12.439 L90.9946961,8.51405882 L94.8790237,8.51405882 L94.8790237,12.439 L99.4392803,12.439 L99.4392803,15.5700588 L94.8790237,15.5700588 L94.8790237,24.1627647 C94.8790237,25.5767647 95.6504554,26.1507647 96.9669115,26.1507647 C97.8313761,26.1507647 98.6044545,25.9679412 99.3758862,25.6113529 L99.3758862,28.5908824 C98.4126257,29.1022941 97.3201071,29.4053529 95.8768628,29.4053529 C93.0183666,29.4053529 90.9946961,28.2285294 90.9946961,24.7359412" id="Fill-5" fill="#1E4166"></path>
            <path d="M101.97389,29.2404 L105.859041,29.2404 L105.859041,12.4008706 L101.97389,12.4008706 L101.97389,29.2404 Z" id="Fill-7" fill="#1E4166"></path>
            <path d="M108.78406,12.4007059 L112.668388,12.4007059 L112.668388,14.9923529 C113.758437,13.5767059 115.235436,12.2491765 117.838709,12.2491765 C120.2765,12.2491765 121.98073,13.3625882 122.87895,15.0516471 C124.262093,13.3625882 126.05524,12.2491765 128.624758,12.2491765 C132.31561,12.2491765 134.564864,14.4504706 134.564864,18.3375294 L134.564864,29.3028235 L130.682183,29.3028235 L130.682183,19.4509412 C130.682183,16.9185882 129.427475,15.5663529 127.245731,15.5663529 C125.127381,15.5663529 123.615803,16.9507059 123.615803,19.5094118 L123.615803,29.3028235 L119.732299,29.3028235 L119.732299,19.4204706 C119.732299,16.9507059 118.446305,15.5663529 116.294199,15.5663529 C114.143741,15.5663529 112.668388,17.0709412 112.668388,19.5415294 L112.668388,29.3028235 L108.78406,29.3028235 L108.78406,12.4007059 Z" id="Fill-9" fill="#1E4166"></path>
            <g id="graphic">
                <path d="M24.2432916,0.7 C19.3345259,-0.4 14.3255814,1.3 11.5205725,5.9 C11.3202147,6.2 11.5205725,6.3 11.7209302,6.1 C11.921288,5.9 12.2218247,5.6 12.822898,5 C15.8282648,1.9 18.7334526,1.6 21.8389982,2.1 C28.0500894,3.2 31.7567084,11.2 30.0536673,19.6 C29.5527728,22.3 28.5509839,24.7 27.1484794,26.7 C30.1538462,26.8 32.8586762,26.1 35.1627907,25 C37.2665474,13 32.4579606,2.5 24.2432916,0.7" id="logo-color" fill="#90BEDC"></path>
                <path d="M42.1753131,23.5 C43.2772809,18.7 41.5742397,13.7 36.8658318,11 C36.5652952,10.9 36.4651163,11 36.6654741,11.2 C36.8658318,11.4 37.1663685,11.7 37.7674419,12.3 C40.8729875,15.3 41.1735242,18.2 40.6726297,21.2 C39.5706619,27.3 31.4561717,31 23.0411449,29.3 C20.3363148,28.8 17.9320215,27.8 15.8282648,26.5 C15.7280859,29.4 16.4293381,32.2 17.6314848,34.4 C29.7531306,36.4 40.372093,31.6 42.1753131,23.5" id="logo-color" fill="#508FBB"></path>
                <path d="M18.7334526,41 C23.6422182,42.1 28.6511628,40.4 31.4561717,35.8 C31.5563506,35.5 31.4561717,35.4 31.255814,35.6 C31.0554562,35.8 30.7549195,36.1 30.1538462,36.7 C27.1484794,39.8 24.2432916,40.1 21.137746,39.6 C14.9266547,38.5 11.3202147,30.5 12.9230769,22.1 C13.4239714,19.4 14.4257603,17 15.7280859,15 C12.7227191,14.9 10.0178891,15.6 7.7137746,16.7 C5.71019678,28.6 10.6189624,39.2 18.7334526,41" id="logo-color" fill="#1E4166"></path>
                <path d="M0.801431127,18.5 C-0.300536673,23.3 1.40250447,28.3 6.11091234,31 C6.41144902,31.1 6.51162791,31 6.31127013,30.8 C6.11091234,30.6 5.81037567,30.3 5.20930233,29.7 C2.10375671,26.7 1.80322004,23.8 2.30411449,20.8 C3.40608229,14.7 11.5205725,11 19.9355993,12.7 C22.6404293,13.2 25.0447227,14.2 27.1484794,15.5 C27.2486583,12.5 26.5474061,9.8 25.3452594,7.6 C13.3237925,5.6 2.60465116,10.4 0.801431127,18.5" id="logo-color" fill="#508FBB"></path>
            </g>
            <path d="M144.419102,28.8368706 L145.950439,28.8368706 L145.950439,12.8974588 L144.419102,12.8974588 L144.419102,28.8368706 Z" id="Fill-15" fill="#1E4166"></path>
            <path d="M144.285728,28.9735765 L146.084637,28.9735765 L146.084637,12.7632235 L144.285728,12.7632235 L144.285728,28.9735765 Z M144.5533,28.7042824 L145.815418,28.7042824 L145.815418,13.0333412 L144.5533,13.0333412 L144.5533,28.7042824 Z" id="Fill-16" fill="#1E4166"></path>
            <path d="M150.106621,12.8985294 L151.637958,12.8985294 L151.637958,15.743 C152.668729,14.0860588 154.105387,12.523 156.949064,12.523 C159.729347,12.523 161.447573,14.1165294 162.32274,15.9620588 C163.354335,14.1791176 165.073384,12.523 168.071842,12.523 C171.852433,12.523 174.197191,15.1797059 174.197191,19.1804118 L174.197191,28.8379412 L172.665853,28.8379412 L172.665853,19.369 C172.665853,15.9299412 170.884233,13.9295882 167.9467,13.9295882 C165.25945,13.9295882 162.917986,15.9917059 162.917986,19.5559412 L162.917986,28.8379412 L161.385825,28.8379412 L161.385825,19.2742941 C161.385825,15.9620588 159.57292,13.9295882 156.730066,13.9295882 C153.886389,13.9295882 151.637958,16.4298235 151.637958,19.6498235 L151.637958,28.8379412 L150.106621,28.8379412 L150.106621,12.8985294 Z" id="Fill-17" fill="#1E4166"></path>
            <path d="M174.330483,28.9726706 L172.531573,28.9726706 L172.531573,19.3678471 C172.531573,16.0465529 170.818287,14.0626706 167.946618,14.0626706 C165.590334,14.0626706 163.051278,15.7822 163.051278,19.5547882 L163.051278,28.9726706 L161.249899,28.9726706 L161.249899,19.2739647 C161.249899,16.0597294 159.520146,14.0626706 156.729984,14.0626706 C153.949701,14.0626706 151.772897,16.5176118 151.772897,19.6494941 L151.772897,28.9726706 L149.971517,28.9726706 L149.971517,12.7631412 L151.772897,12.7631412 L151.772897,15.2880824 C152.729571,13.8642 154.199984,12.3876118 156.948981,12.3876118 C160.096456,12.3876118 161.647552,14.3566706 162.334184,15.6800824 C163.675339,13.4960824 165.603507,12.3876118 168.071759,12.3876118 C171.87458,12.3876118 174.330483,15.0542 174.330483,19.1800824 L174.330483,28.9726706 Z M172.799969,28.7042 L174.062911,28.7042 L174.062911,19.1800824 C174.062911,15.2180824 171.711567,12.6569059 168.071759,12.6569059 C165.628206,12.6569059 163.734617,13.7909059 162.438743,16.0276118 L162.311132,16.2491412 L162.201633,16.0185529 C161.607211,14.7626706 160.131858,12.6569059 156.948981,12.6569059 C154.100365,12.6569059 152.722161,14.2529059 151.749844,15.8134941 L151.502854,16.2112588 L151.502854,13.0316118 L150.240736,13.0316118 L150.240736,28.7042 L151.502854,28.7042 L151.502854,19.6494941 C151.502854,16.3660824 153.79986,13.7942 156.729984,13.7942 C159.683983,13.7942 161.519118,15.8950235 161.519118,19.2739647 L161.519118,28.7042 L162.782882,28.7042 L162.782882,19.5547882 C162.782882,16.6930235 164.557093,13.7942 167.946618,13.7942 C170.98624,13.7942 172.799969,15.8785529 172.799969,19.3678471 L172.799969,28.7042 Z" id="Fill-18" fill="#1E4166"></path>
            <path d="M176.633911,24.2124235 L176.633911,24.1498353 C176.633911,20.8359529 179.477587,18.9616 183.601495,18.9616 C185.820288,18.9616 187.351625,19.2432471 188.882962,19.6492471 L188.882962,18.9616 C188.882962,15.7432471 186.914453,14.0863059 183.633604,14.0863059 C181.69391,14.0863059 180.102472,14.6174824 178.634529,15.3677176 L178.071392,14.0220706 C179.820903,13.2108941 181.537483,12.6476 183.725813,12.6476 C185.882858,12.6476 187.601085,13.2421882 188.757821,14.3967765 C189.820701,15.4607765 190.382191,16.9299529 190.382191,18.8990118 L190.382191,28.8381882 L188.882962,28.8381882 L188.882962,26.1823059 C187.787974,27.7124235 185.820288,29.2137176 182.789722,29.2137176 C179.820903,29.2137176 176.633911,27.5246588 176.633911,24.2124235 M188.913424,22.8684235 L188.913424,21.0558353 C187.570623,20.7116 185.789002,20.3377176 183.508462,20.3377176 C180.132934,20.3377176 178.258281,21.8373647 178.258281,24.0559529 L178.258281,24.1177176 C178.258281,26.4326588 180.445788,27.7750118 182.884401,27.7750118 C186.131495,27.7750118 188.913424,25.7754824 188.913424,22.8684235" id="Fill-19" fill="#1E4166"></path>
            <path d="M182.789392,29.3490235 C178.660545,29.3490235 176.49856,26.7647882 176.49856,24.2126706 L176.49856,24.1509059 C176.49856,20.8666706 179.221212,18.8284353 183.601166,18.8284353 C185.884176,18.8284353 187.431979,19.1331412 188.748435,19.4757294 L188.748435,18.9618471 C188.748435,15.9040824 186.931413,14.2199647 183.633275,14.2199647 C181.956213,14.2199647 180.387004,14.6226706 178.6943,15.4873765 L178.565865,15.5524353 L177.897346,13.9572588 L178.013431,13.9012588 C179.492901,13.2160824 181.328036,12.5136118 183.726307,12.5136118 C185.939337,12.5136118 187.664973,13.1156118 188.851348,14.3023176 C189.971858,15.4231412 190.516059,16.9252588 190.516059,18.8992588 L190.516059,28.9734941 L188.748435,28.9734941 L188.748435,26.5811412 C187.820576,27.7390235 185.960743,29.3490235 182.789392,29.3490235 M183.601166,19.0960824 C179.385049,19.0960824 176.767779,21.0330235 176.767779,24.1509059 L176.767779,24.2126706 C176.767779,26.6313765 178.835908,29.0797294 182.789392,29.0797294 C186.145985,29.0797294 187.979473,27.2152588 188.773134,26.1043176 L189.016831,25.7625529 L189.016831,28.7042 L190.24931,28.7042 L190.24931,18.8992588 C190.24931,17.0010235 189.730632,15.5590235 188.661989,14.4917294 C187.527482,13.3577294 185.86524,12.7820824 183.726307,12.7820824 C181.446591,12.7820824 179.742361,13.4038471 178.243955,14.0906706 L178.700887,15.1826706 C180.383711,14.3434941 181.95539,13.9523176 183.633275,13.9523176 C187.105129,13.9523176 189.016831,15.7311412 189.016831,18.9618471 L189.016831,19.8232588 L188.848054,19.7779647 C187.511016,19.4238471 185.950863,19.0960824 183.601166,19.0960824 M182.884072,27.9103176 C180.518732,27.9103176 178.123754,26.6083176 178.123754,24.1179647 L178.123754,24.0553765 C178.123754,21.6794941 180.186942,20.2037294 183.508133,20.2037294 C185.826545,20.2037294 187.632041,20.5899647 188.947674,20.9251412 L189.048939,20.9523176 L189.048939,22.8686706 C189.048939,25.7427882 186.397915,27.9103176 182.884072,27.9103176 M183.508133,20.4713765 C180.352426,20.4713765 178.392973,21.8450235 178.392973,24.0553765 L178.392973,24.1179647 C178.392973,26.4320824 180.651283,27.6418471 182.884072,27.6418471 C186.244781,27.6418471 188.778897,25.5896118 188.778897,22.8686706 L188.778897,21.1598471 C187.488787,20.8329059 185.737628,20.4713765 183.508133,20.4713765" id="Fill-20" fill="#1E4166"></path>
            <path d="M193.695725,31.4641765 L194.600531,30.2132353 C196.50647,31.6832353 198.6948,32.4647647 201.037911,32.4647647 C204.693361,32.4647647 207.286755,30.3705294 207.286755,26.2759412 L207.286755,23.9626471 C205.912668,25.9317059 203.786908,27.6504118 200.631201,27.6504118 C196.788038,27.6504118 192.976984,24.7128824 192.976984,20.1505294 L192.976984,20.0862941 C192.976984,15.4918235 196.788038,12.523 200.631201,12.523 C203.819017,12.523 205.975239,14.2112353 207.286755,16.0864118 L207.286755,12.8985294 L208.818915,12.8985294 L208.818915,26.369 C208.818915,28.6831176 208.06889,30.4948824 206.786189,31.7771176 C205.412925,33.1524118 203.352206,33.9026471 201.007449,33.9026471 C198.351484,33.9026471 195.881585,33.0898235 193.695725,31.4641765 M207.379788,20.1184118 L207.379788,20.0541765 C207.379788,16.3680588 204.100585,13.9913529 200.787628,13.9913529 C197.445031,13.9913529 194.63264,16.3054706 194.63264,20.0237059 L194.63264,20.0862941 C194.63264,23.6818235 197.506779,26.1812353 200.787628,26.1812353 C204.100585,26.1812353 207.379788,23.7435882 207.379788,20.1184118" id="Fill-21" fill="#1E4166"></path>
            <path d="M201.007284,34.0360588 C198.302745,34.0360588 195.81391,33.2059412 193.614877,31.5720588 L193.509494,31.493 L194.574021,30.0238235 L194.68105,30.1078235 C196.596045,31.5819412 198.734154,32.3305294 201.0361,32.3305294 C204.867736,32.3305294 207.154039,30.0666471 207.154039,26.2759412 L207.154039,24.3760588 C205.467098,26.607 203.221137,27.7846471 200.631036,27.7846471 C198.67323,27.7846471 196.71954,27.0286471 195.271356,25.7101765 C193.70544,24.283 192.840975,22.309 192.840975,20.1505294 L192.840975,20.0862941 C192.840975,15.3320588 196.885846,12.3879412 200.631036,12.3879412 C203.897889,12.3879412 205.953668,14.1041765 207.154039,15.6762941 L207.154039,12.7642941 L208.953772,12.7642941 L208.953772,26.369 C208.953772,28.6147647 208.236678,30.5171176 206.881527,31.8718235 C205.487681,33.2660588 203.400616,34.0360588 201.007284,34.0360588 L201.007284,34.0360588 Z M193.882449,31.4345294 C196.009032,32.9827647 198.406481,33.7675882 201.007284,33.7675882 C203.328989,33.7675882 205.348543,33.0272353 206.692168,31.6824118 C207.994628,30.3795882 208.684553,28.5422941 208.684553,26.369 L208.684553,13.0319412 L207.422435,13.0319412 L207.422435,16.5121765 L207.178738,16.1638235 C206.05905,14.5637059 204.013151,12.6572353 200.631036,12.6572353 C197.014281,12.6572353 193.110194,15.4984118 193.110194,20.0862941 L193.110194,20.1505294 C193.110194,23.7707647 195.922586,27.5161765 200.631036,27.5161765 C203.29194,27.5161765 205.494267,26.2957059 207.178738,23.8852353 L207.422435,23.5368824 L207.422435,26.2759412 C207.422435,30.2354706 205.035689,32.5981765 201.0361,32.5981765 C198.716865,32.5981765 196.562289,31.8594706 194.628359,30.4034706 L193.882449,31.4345294 Z M200.787463,26.3162941 C197.261271,26.3162941 194.498277,23.5805294 194.498277,20.0862941 L194.498277,20.0237059 C194.498277,16.4512353 197.145186,13.8579412 200.787463,13.8579412 C204.998641,13.8579412 207.513821,17.0079412 207.513821,20.055 L207.513821,20.1184118 C207.513821,23.9461765 204.023031,26.3162941 200.787463,26.3162941 L200.787463,26.3162941 Z M200.787463,14.1255882 C197.297496,14.1255882 194.766673,16.6068824 194.766673,20.0237059 L194.766673,20.0862941 C194.766673,23.429 197.411935,26.0478235 200.787463,26.0478235 C203.894596,26.0478235 207.246249,23.7806471 207.246249,20.1184118 L207.246249,20.055 C207.246249,16.3441765 203.96293,14.1255882 200.787463,14.1255882 L200.787463,14.1255882 Z" id="Fill-22" fill="#1E4166"></path>
            <path d="M212.973615,28.8368706 L214.504129,28.8368706 L214.504129,12.8974588 L212.973615,12.8974588 L212.973615,28.8368706 Z" id="Fill-23" fill="#1E4166"></path>
            <path d="M212.83777,28.9735765 L214.63915,28.9735765 L214.63915,12.7632235 L212.83777,12.7632235 L212.83777,28.9735765 Z M213.107812,28.7042824 L214.370754,28.7042824 L214.370754,13.0333412 L213.107812,13.0333412 L213.107812,28.7042824 Z" id="Fill-24" fill="#1E4166"></path>
            <path d="M218.65998,12.8985294 L220.191318,12.8985294 L220.191318,15.8673529 C221.252551,13.9913529 223.034995,12.523 225.941242,12.523 C229.971294,12.523 232.314405,15.2735882 232.314405,19.0881765 L232.314405,28.8379412 L230.784714,28.8379412 L230.784714,19.369 C230.784714,16.0864118 228.939699,13.9295882 225.722245,13.9295882 C222.596999,13.9295882 220.191318,16.3054706 220.191318,19.6177059 L220.191318,28.8379412 L218.65998,28.8379412 L218.65998,12.8985294 Z" id="Fill-25" fill="#1E4166"></path>
            <path d="M232.448767,28.9726706 L230.649034,28.9726706 L230.649034,19.3678471 C230.649034,16.0943176 228.760385,14.0626706 225.723233,14.0626706 C222.645739,14.0626706 220.324857,16.4517294 220.324857,19.6182 L220.324857,28.9726706 L218.526771,28.9726706 L218.526771,12.7631412 L220.324857,12.7631412 L220.324857,15.3860824 C221.608381,13.3972588 223.493737,12.3876118 225.941407,12.3876118 C229.894892,12.3876118 232.448767,15.0179647 232.448767,19.0870235 L232.448767,28.9726706 Z M230.918253,28.7042 L232.181195,28.7042 L232.181195,19.0870235 C232.181195,15.1793765 229.731055,12.6569059 225.941407,12.6569059 C223.43446,12.6569059 221.538401,13.7579647 220.308391,15.9329059 L220.057285,16.3751412 L220.057285,13.0316118 L218.794343,13.0316118 L218.794343,28.7042 L220.057285,28.7042 L220.057285,19.6182 C220.057285,16.2977294 222.493428,13.7942 225.723233,13.7942 C228.926691,13.7942 230.918253,15.9304353 230.918253,19.3678471 L230.918253,28.7042 Z" id="Fill-26" fill="#1E4166"></path>
            <path d="M235.627692,31.4641765 L236.533321,30.2132353 C238.43926,31.6832353 240.62759,32.4647647 242.970701,32.4647647 C246.625328,32.4647647 249.221192,30.3705294 249.221192,26.2759412 L249.221192,23.9626471 C247.844635,25.9317059 245.720522,27.6504118 242.563991,27.6504118 C238.721652,27.6504118 234.908128,24.7128824 234.908128,20.1505294 L234.908128,20.0862941 C234.908128,15.4918235 238.721652,12.523 242.563991,12.523 C245.75016,12.523 247.908029,14.2112353 249.221192,16.0864118 L249.221192,12.8985294 L250.750059,12.8985294 L250.750059,26.369 C250.750059,28.6831176 250.00168,30.4948824 248.719802,31.7771176 C247.344892,33.1524118 245.283349,33.9026471 242.938592,33.9026471 C240.282628,33.9026471 237.814375,33.0898235 235.627692,31.4641765 M249.312578,20.1184118 L249.312578,20.0541765 C249.312578,16.3680588 246.033375,13.9913529 242.720418,13.9913529 C239.376175,13.9913529 236.56543,16.3054706 236.56543,20.0237059 L236.56543,20.0862941 C236.56543,23.6818235 239.439569,26.1812353 242.720418,26.1812353 C246.033375,26.1812353 249.312578,23.7435882 249.312578,20.1184118" id="Fill-27" fill="#1E4166"></path>
            <path d="M242.93851,34.0360588 C240.234794,34.0360588 237.745959,33.2059412 235.546926,31.5720588 L235.44072,31.4921765 L236.506893,30.0238235 L236.615569,30.1078235 C238.528094,31.5819412 240.666203,32.3305294 242.970619,32.3305294 C246.798962,32.3305294 249.086088,30.0666471 249.086088,26.2759412 L249.086088,24.3760588 C247.399147,26.607 245.152362,27.7846471 242.563908,27.7846471 C240.606102,27.7846471 238.652412,27.0286471 237.205051,25.7101765 C235.637489,24.283 234.774671,22.309 234.774671,20.1505294 L234.774671,20.0862941 C234.774671,15.3320588 238.818719,12.3879412 242.563908,12.3879412 C245.829115,12.3879412 247.886541,14.1041765 249.086088,15.6762941 L249.086088,12.7642941 L250.884998,12.7642941 L250.884998,26.369 C250.884998,28.6147647 250.168727,30.5171176 248.814399,31.8718235 C247.418906,33.2660588 245.332665,34.0360588 242.93851,34.0360588 L242.93851,34.0360588 Z M235.814498,31.4345294 C237.939435,32.9827647 240.337706,33.7675882 242.93851,33.7675882 C245.261861,33.7675882 247.281415,33.0272353 248.624217,31.6824118 C249.926677,30.3795882 250.616602,28.5422941 250.616602,26.369 L250.616602,13.0319412 L249.35366,13.0319412 L249.35366,16.5121765 L249.11161,16.1638235 C247.9911,14.5637059 245.9452,12.6572353 242.563908,12.6572353 C238.94633,12.6572353 235.043066,15.4984118 235.043066,20.0862941 L235.043066,20.1505294 C235.043066,23.7707647 237.855458,27.5161765 242.563908,27.5161765 C245.224813,27.5161765 247.426316,26.2957059 249.11161,23.8852353 L249.35366,23.5368824 L249.35366,26.2759412 C249.35366,30.2354706 246.966915,32.5981765 242.970619,32.5981765 C240.649737,32.5981765 238.493515,31.8594706 236.561231,30.4034706 L235.814498,31.4345294 Z M242.720335,26.3162941 C239.19332,26.3162941 236.429503,23.5805294 236.429503,20.0862941 L236.429503,20.0237059 C236.429503,16.4512353 239.075588,13.8579412 242.720335,13.8579412 C246.93069,13.8579412 249.447517,17.0079412 249.447517,20.055 L249.447517,20.1184118 C249.447517,23.9461765 245.955903,26.3162941 242.720335,26.3162941 L242.720335,26.3162941 Z M242.720335,14.1255882 C239.229545,14.1255882 236.698722,16.6068824 236.698722,20.0237059 L236.698722,20.0862941 C236.698722,23.429 239.34316,26.0478235 242.720335,26.0478235 C245.827468,26.0478235 249.179121,23.7806471 249.179121,20.1184118 L249.179121,20.055 C249.179121,16.3441765 245.895802,14.1255882 242.720335,14.1255882 L242.720335,14.1255882 Z" id="Fill-28" fill="#1E4166"></path>
        </g>
    </g>
</svg>