<?xml version="1.0" encoding="UTF-8" standalone="no"?>
<svg width="433px" height="39px" viewBox="0 0 433 39" version="1.1" xmlns="http://www.w3.org/2000/svg" xmlns:xlink="http://www.w3.org/1999/xlink">
    <!-- Generator: Sketch 3.6.1 (26313) - http://www.bohemiancoding.com/sketch -->
    <title>c-jenkins-d</title>
    <desc>Created with Sketch.</desc>
    <defs></defs>
    <g id="Page-1" stroke="none" stroke-width="1" fill="none" fill-rule="evenodd">
        <g id="c-jenkins-d">
            <g id="Page-1-Copy" transform="translate(48.000000, 0.000000)" fill="#1E4166">
                <path d="M288.28921,25.5288724 L289.250266,24.9009071 C290.211322,26.5979192 291.260055,27.4800821 293.089381,27.4800821 C295.011492,27.4800821 296.484146,25.9699538 296.484146,23.1339242 L296.484146,12.0785457 L297.646095,12.0785457 L297.646095,23.0435822 C297.646095,24.9248211 297.086827,26.3649786 296.216003,27.2710555 C295.389445,28.1319615 294.274314,28.5739286 293.023835,28.5739286 C290.700787,28.5739286 289.250266,27.3179979 288.28921,25.5288724 L288.28921,25.5288724 Z" id="Fill-1"></path>
                <path d="M302.041243,12.0771286 L313.161056,12.0771286 L313.161056,13.1940035 L303.204043,13.1940035 L303.204043,19.5825987 L312.155735,19.5825987 L312.155735,20.6968164 L303.204043,20.6968164 L303.204043,27.2253531 L313.274271,27.2253531 L313.274271,28.342228 L302.041243,28.342228 L302.041243,12.0771286 Z" id="Fill-3"></path>
                <path d="M316.997702,12.0771286 L318.092403,12.0771286 L328.877676,26.2262771 L328.877676,12.0771286 L329.994509,12.0771286 L329.994509,28.342228 L329.121132,28.342228 L318.114535,13.8892824 L318.114535,28.342228 L316.997702,28.342228 L316.997702,12.0771286 Z" id="Fill-5"></path>
                <path d="M334.633284,12.0771286 L335.793531,12.0771286 L335.793531,22.7649392 L345.753096,12.0771286 L347.340668,12.0771286 L340.50432,19.2548875 L347.628389,28.342228 L346.109768,28.342228 L339.679464,20.1149078 L335.793531,24.2059824 L335.793531,28.342228 L334.633284,28.342228 L334.633284,12.0771286 Z" id="Fill-7"></path>
                <path d="M350.75016,28.343468 L351.911258,28.343468 L351.911258,12.0783686 L350.75016,12.0783686 L350.75016,28.343468 Z" id="Fill-9"></path>
                <path d="M356.711173,12.0771286 L357.805874,12.0771286 L368.589445,26.2262771 L368.589445,12.0771286 L369.70798,12.0771286 L369.70798,28.342228 L368.835454,28.342228 L357.825452,13.8892824 L357.825452,28.342228 L356.711173,28.342228 L356.711173,12.0771286 Z" id="Fill-11"></path>
                <path d="M373.342371,25.9703081 L374.10083,25.0660026 C375.819494,26.7125295 377.407917,27.4795506 379.705427,27.4795506 C382.050607,27.4795506 383.657757,26.1093639 383.657757,24.2511534 L383.657757,24.204211 C383.657757,22.4850562 382.787785,21.4868659 379.237242,20.7446445 C375.487508,19.9528236 373.967185,18.6286936 373.967185,16.1655461 L373.967185,16.117718 C373.967185,13.7032842 376.089338,11.844188 378.991232,11.844188 C381.269164,11.844188 382.767355,12.4951817 384.348968,13.818426 L383.615195,14.7714453 C382.139987,13.4464296 380.663928,12.9353774 378.946116,12.9353774 C376.648606,12.9353774 375.128283,14.3082212 375.128283,16.0016905 L375.128283,16.0495186 C375.128283,17.7686734 375.976974,18.8155775 379.684997,19.6029699 C383.301085,20.3708767 384.818855,21.7180351 384.818855,24.0890692 L384.818855,24.1351259 C384.818855,26.7594719 382.653288,28.5733972 379.638178,28.5733972 C377.137221,28.5733972 375.217663,27.7124912 373.342371,25.9703081" id="Fill-12"></path>
                <path d="M87.5559481,12.553904 L88.9885933,12.553904 L88.9885933,15.3235057 C89.9547563,13.7088642 91.2997233,12.1845647 93.9598638,12.1845647 C96.5646733,12.1845647 98.1743775,13.7363211 98.9958289,15.5334179 C99.9577357,13.8000919 101.565737,12.1845647 104.375697,12.1845647 C107.915173,12.1845647 110.10798,14.7770253 110.10798,18.6723589 L110.10798,28.0750106 L108.677038,28.0750106 L108.677038,18.8503858 C108.677038,15.505961 107.007746,13.5582942 104.260779,13.5582942 C101.742796,13.5582942 99.5482869,15.5688462 99.5482869,19.0372697 L99.5482869,28.0750106 L98.1147904,28.0750106 L98.1147904,18.7644723 C98.1147904,15.5334179 96.417408,13.5582942 93.755565,13.5582942 C91.0928708,13.5582942 88.9885933,15.9939849 88.9885933,19.1258402 L88.9885933,28.0750106 L87.5559481,28.0750106 L87.5559481,12.553904 Z" id="Fill-13"></path>
                <path d="M112.301213,20.3464312 L112.301213,20.2853176 C112.301213,15.778847 115.345265,12.1864247 119.379315,12.1864247 C123.563184,12.1864247 126.222473,15.7168476 126.222473,20.3163173 C126.222473,20.5873432 126.222473,20.6785709 126.194382,20.9256828 L113.819834,20.9256828 C114.084571,24.7873596 116.748968,27.0397092 119.670441,27.0397092 C121.983273,27.0397092 123.563184,25.9742052 124.790679,24.6066756 L125.787487,25.5180668 C124.262907,27.2248217 122.478698,28.4391242 119.610853,28.4391242 C115.695978,28.4391242 112.301213,25.1859272 112.301213,20.3464312 L112.301213,20.3464312 Z M124.675761,19.5864958 C124.46976,16.4502119 122.744286,13.5566114 119.323133,13.5566114 C116.366759,13.5566114 114.084571,16.1446434 113.819834,19.5864958 L124.675761,19.5864958 Z" id="Fill-14"></path>
                <path d="M127.689764,20.3764567 L127.689764,20.3162287 C127.689764,15.262392 131.344158,12.1863361 134.943222,12.1863361 C137.925133,12.1863361 139.859162,13.9542047 141.088359,15.8983287 L141.088359,7.40529675 L142.519302,7.40529675 L142.519302,28.0750106 L141.088359,28.0750106 L141.088359,24.6065871 C139.799574,26.647253 137.896191,28.4390356 134.943222,28.4390356 C131.344158,28.4390356 127.689764,25.4249791 127.689764,20.3764567 M141.174335,20.3463427 L141.174335,20.285229 C141.174335,16.2951248 138.190721,13.622065 135.088785,13.622065 C131.840434,13.622065 129.241583,16.0852126 129.241583,20.2524579 L129.241583,20.3162287 C129.241583,24.3913606 131.959608,27.011278 135.088785,27.011278 C138.190721,27.011278 141.174335,24.3010186 141.174335,20.3463427" id="Fill-15"></path>
                <path d="M145.967014,28.0750991 L147.397957,28.0750991 L147.397957,12.5539925 L145.967014,12.5539925 L145.967014,28.0750991 Z" id="Fill-16"></path>
                <path d="M149.965652,20.3764567 L149.965652,20.3162287 C149.965652,15.9620995 153.301681,12.1863361 157.571526,12.1863361 C160.379783,12.1863361 162.134199,13.5264088 163.542158,15.0498226 L162.517259,16.1454406 C161.230177,14.7787967 159.770292,13.5901796 157.544286,13.5901796 C154.150372,13.5901796 151.517472,16.5386939 151.517472,20.2524579 L151.517472,20.3162287 C151.517472,24.0565638 154.238902,27.0396206 157.66346,27.0396206 C159.770292,27.0396206 161.405533,25.9156601 162.661971,24.4515886 L163.656225,25.368294 C162.134199,27.1636194 160.321047,28.4390356 157.571526,28.4390356 C153.274441,28.4390356 149.965652,24.7261573 149.965652,20.3764567" id="Fill-17"></path>
                <path d="M164.711343,23.5698686 L164.711343,23.511412 C164.711343,20.2856718 167.374888,18.458461 171.234433,18.458461 C173.311471,18.458461 174.744967,18.7294869 176.177612,19.1245117 L176.177612,18.458461 C176.177612,15.3239485 174.334667,13.7075356 171.265929,13.7075356 C169.450223,13.7075356 167.958842,14.2283306 166.582379,14.9599235 L166.057161,13.6535076 C167.696659,12.8590296 169.304661,12.309892 171.353607,12.309892 C173.370206,12.309892 174.979059,12.884715 176.060992,14.0157612 C177.056948,15.0493798 177.582166,16.4789088 177.582166,18.398233 L177.582166,28.0754534 L176.177612,28.0754534 L176.177612,25.4909642 C175.151862,26.9780641 173.311471,28.4385928 170.47342,28.4385928 C167.696659,28.4385928 164.711343,26.7956087 164.711343,23.5698686 M176.207406,22.2616812 L176.207406,20.4946984 C174.949266,20.1625587 173.283379,19.7958766 171.149308,19.7958766 C167.986933,19.7958766 166.232518,21.2537482 166.232518,23.4201843 L166.232518,23.4786409 C166.232518,25.7318762 168.280613,27.0400635 170.561098,27.0400635 C173.602596,27.0400635 176.207406,25.0932824 176.207406,22.2616812" id="Fill-18"></path>
                <path d="M180.288359,28.0750991 L181.723558,28.0750991 L181.723558,7.40538532 L180.288359,7.40538532 L180.288359,28.0750991 Z" id="Fill-19"></path>
                <path d="M189.93305,20.3764567 L189.93305,20.3162287 C189.93305,15.9620995 193.268227,12.1863361 197.538072,12.1863361 C200.34718,12.1863361 202.100745,13.5264088 203.500192,15.0498226 L202.4804,16.1454406 C201.19502,14.7787967 199.730879,13.5901796 197.509981,13.5901796 C194.113514,13.5901796 191.483167,16.5386939 191.483167,20.2524579 L191.483167,20.3162287 C191.483167,24.0565638 194.202894,27.0396206 197.626601,27.0396206 C199.730879,27.0396206 201.371228,25.9156601 202.625963,24.4515886 L203.62192,25.368294 C202.100745,27.1636194 200.290147,28.4390356 197.538072,28.4390356 C193.240136,28.4390356 189.93305,24.7261573 189.93305,20.3764567" id="Fill-20"></path>
                <path d="M204.444563,20.3464312 L204.444563,20.2853176 C204.444563,15.778847 207.488615,12.1864247 211.524367,12.1864247 C215.706533,12.1864247 218.368376,15.7168476 218.368376,20.3163173 C218.368376,20.5873432 218.368376,20.6785709 218.33688,20.9256828 L205.968291,20.9256828 C206.228772,24.7873596 208.89402,27.0397092 211.816344,27.0397092 C214.130879,27.0397092 215.706533,25.9742052 216.938285,24.6066756 L217.93339,25.5180668 C216.412215,27.2248217 214.624601,28.4391242 211.757608,28.4391242 C207.839328,28.4391242 204.444563,25.1859272 204.444563,20.3464312 L204.444563,20.3464312 Z M216.819962,19.5864958 C216.613109,16.4502119 214.889338,13.5566114 211.469036,13.5566114 C208.51096,13.5566114 206.228772,16.1446434 205.968291,19.5864958 L216.819962,19.5864958 Z" id="Fill-21"></path>
                <path d="M220.502107,12.553904 L221.935603,12.553904 L221.935603,15.4457331 C222.929857,13.6202936 224.594893,12.1845647 227.317174,12.1845647 C231.08904,12.1845647 233.28355,14.8655958 233.28355,18.5793598 L233.28355,28.0750106 L231.851756,28.0750106 L231.851756,18.8503858 C231.851756,15.6583024 230.122877,13.5582942 227.110321,13.5582942 C224.187997,13.5582942 221.935603,15.8699861 221.935603,19.0948405 L221.935603,28.0750106 L220.502107,28.0750106 L220.502107,12.553904 Z" id="Fill-22"></path>
                <path d="M236.724878,24.0902207 L236.724878,13.9214336 L234.55931,13.9214336 L234.55931,12.553904 L236.724878,12.553904 L236.724878,7.28041225 L238.154969,7.28041225 L238.154969,12.553904 L243.394382,12.553904 L243.394382,13.9214336 L238.154969,13.9214336 L238.154969,23.9361079 C238.154969,26.1583434 239.416514,26.9475072 241.140285,26.9475072 C241.87491,26.9475072 242.488657,26.7960516 243.333092,26.3992554 L243.333092,27.7995561 C242.573782,28.1662383 241.841711,28.3478079 240.907895,28.3478079 C238.597617,28.3478079 236.724878,27.0396206 236.724878,24.0902207" id="Fill-23"></path>
                <path d="M243.674782,20.3464312 L243.674782,20.2853176 C243.674782,15.778847 246.718834,12.1864247 250.754586,12.1864247 C254.939306,12.1864247 257.596893,15.7168476 257.596893,20.3163173 C257.596893,20.5873432 257.596893,20.6785709 257.567951,20.9256828 L245.197659,20.9256828 C245.460694,24.7873596 248.121685,27.0397092 251.049968,27.0397092 C253.357693,27.0397092 254.939306,25.9742052 256.168504,24.6066756 L257.161907,25.5180668 C255.642435,27.2248217 253.856523,28.4391242 250.988678,28.4391242 C247.070398,28.4391242 243.674782,25.1859272 243.674782,20.3464312 L243.674782,20.3464312 Z M256.051883,19.5864958 C255.845031,16.4502119 254.117855,13.5566114 250.699255,13.5566114 C247.741179,13.5566114 245.460694,16.1446434 245.197659,19.5864958 L256.051883,19.5864958 Z" id="Fill-24"></path>
                <path d="M259.733943,12.553904 L261.164886,12.553904 L261.164886,16.9691469 C262.334497,14.1951166 264.823537,12.1845647 267.774803,12.3085635 L267.774803,13.953319 L267.633496,13.953319 C264.179144,13.953319 261.164886,16.6600356 261.164886,21.7165294 L261.164886,28.0750106 L259.733943,28.0750106 L259.733943,12.553904 Z" id="Fill-25"></path>
                <path d="M0.75075548,20.1775272 L0.75075548,20.1146421 C0.75075548,15.6993992 4.34641413,12.0458632 9.20106406,12.0458632 C14.052309,12.0458632 17.6164716,15.6418283 17.6164716,20.0552998 L17.6164716,20.1146421 C17.6164716,24.5015424 14.0225154,28.1568498 9.13722069,28.1568498 C4.31491807,28.1568498 0.75075548,24.5591132 0.75075548,20.1775272 M13.9910194,20.1775272 L13.9910194,20.1146421 C13.9910194,17.3981827 11.9837838,15.1476045 9.13722069,15.1476045 C6.23277293,15.1476045 4.37791019,17.3654116 4.37791019,20.0552998 L4.37791019,20.1146421 C4.37791019,22.8080731 6.38259204,25.0816796 9.20106406,25.0816796 C12.1353054,25.0816796 13.9910194,22.8337585 13.9910194,20.1775272" id="Fill-26"></path>
                <path d="M19.2674612,12.3658686 L22.8929134,12.3658686 L22.8929134,14.9423865 C24.0633752,13.3330593 25.7079804,12.0461289 28.2557565,12.0461289 C32.0020856,12.0461289 35.6275378,14.9423865 35.6275378,20.0546798 L35.6275378,20.1149078 C35.6275378,25.2342867 32.0318791,28.1278872 28.2557565,28.1278872 C25.6492445,28.1278872 24.0029368,26.8391854 22.8929134,25.4052279 L22.8929134,32.4837878 L19.2674612,32.4837878 L19.2674612,12.3658686 Z M31.9390934,20.1149078 L31.9390934,20.0546798 C31.9390934,17.0751658 29.8731219,15.1177562 27.419834,15.1177562 C24.9588849,15.1177562 22.8026814,17.1070512 22.8026814,20.0546798 L22.8026814,20.1149078 C22.8026814,23.099736 24.9588849,25.0562599 27.419834,25.0562599 C29.904618,25.0562599 31.9390934,23.1581925 31.9390934,20.1149078 L31.9390934,20.1149078 Z" id="Fill-27"></path>
                <path d="M38.0695041,23.538426 L38.0695041,15.4103048 L36.0614173,15.4103048 L36.0614173,12.3661344 L38.0695041,12.3661344 L38.0695041,8.13068972 L41.6941051,8.13068972 L41.6941051,12.3661344 L45.9477761,12.3661344 L45.9477761,15.4103048 L41.6941051,15.4103048 L41.6941051,22.9822028 C41.6941051,24.3559324 42.4125559,24.9130412 43.6417536,24.9130412 C44.449585,24.9130412 45.168887,24.7341287 45.8864865,24.3860464 L45.8864865,27.2778754 C44.9892743,27.7756421 43.9703341,28.0652678 42.6219621,28.0652678 C39.9550117,28.0652678 38.0695041,26.9280217 38.0695041,23.538426" id="Fill-28"></path>
                <path d="M48.3147478,27.8058446 L51.9402,27.8058446 L51.9402,12.3662229 L48.3147478,12.3662229 L48.3147478,27.8058446 Z" id="Fill-29"></path>
                <path d="M54.6693765,12.3658686 L58.2939774,12.3658686 L58.2939774,14.7076745 C59.3112152,13.3330593 60.6893807,12.0461289 63.1171313,12.0461289 C65.3942115,12.0461289 66.9800809,13.1275755 67.8194084,14.7661311 C69.1090445,13.1275755 70.7876995,12.0461289 73.1822515,12.0461289 C76.6306448,12.0461289 78.7272611,14.1815653 78.7272611,17.9529002 L78.7272611,27.8054903 L75.1026601,27.8054903 L75.1026601,19.0316897 C75.1026601,16.5791706 73.9313471,15.2621263 71.8934667,15.2621263 C69.9168759,15.2621263 68.5080655,16.6057418 68.5080655,19.0928034 L68.5080655,27.8054903 L64.8834646,27.8054903 L64.8834646,19.0042328 C64.8834646,16.6057418 63.6857629,15.2621263 61.6768249,15.2621263 C59.672143,15.2621263 58.2939774,16.722655 58.2939774,19.1202603 L58.2939774,27.8054903 L54.6693765,27.8054903 L54.6693765,12.3658686 Z" id="Fill-30"></path>
                <path d="M277.501383,36.1970204 L278.842094,36.1970204 L278.842094,0 L277.501383,0 L277.501383,36.1970204 Z" id="Fill-37"></path>
            </g>
            <g id="graphic">
                <path d="M22.5116279,0.65 C17.9534884,-0.371428571 13.3023256,1.20714286 10.6976744,5.47857143 C10.5116279,5.75714286 10.6976744,5.85 10.8837209,5.66428571 C11.0697674,5.47857143 11.3488372,5.2 11.9069767,4.64285714 C14.6976744,1.76428571 17.3953488,1.48571429 20.2790698,1.95 C26.0465116,2.97142857 29.4883721,10.4 27.9069767,18.2 C27.4418605,20.7071429 26.5116279,22.9357143 25.2093023,24.7928571 C28,24.8857143 30.5116279,24.2357143 32.6511628,23.2142857 C34.6046512,12.0714286 30.1395349,2.32142857 22.5116279,0.65" id="logo-color" fill="#90BEDC"></path>
                <path d="M39.1627907,21.8214286 C40.1860465,17.3642857 38.6046512,12.7214286 34.2325581,10.2142857 C33.9534884,10.1214286 33.8604651,10.2142857 34.0465116,10.4 C34.2325581,10.5857143 34.5116279,10.8642857 35.0697674,11.4214286 C37.9534884,14.2071429 38.2325581,16.9 37.7674419,19.6857143 C36.744186,25.35 29.2093023,28.7857143 21.3953488,27.2071429 C18.8837209,26.7428571 16.6511628,25.8142857 14.6976744,24.6071429 C14.6046512,27.3 15.255814,29.9 16.372093,31.9428571 C27.627907,33.8 37.4883721,29.3428571 39.1627907,21.8214286" id="logo-color" fill="#508FBB"></path>
                <path d="M17.3953488,38.0714286 C21.9534884,39.0928571 26.6046512,37.5142857 29.2093023,33.2428571 C29.3023256,32.9642857 29.2093023,32.8714286 29.0232558,33.0571429 C28.8372093,33.2428571 28.5581395,33.5214286 28,34.0785714 C25.2093023,36.9571429 22.5116279,37.2357143 19.627907,36.7714286 C13.8604651,35.75 10.5116279,28.3214286 12,20.5214286 C12.4651163,18.0142857 13.3953488,15.7857143 14.6046512,13.9285714 C11.8139535,13.8357143 9.30232558,14.4857143 7.1627907,15.5071429 C5.30232558,26.5571429 9.86046512,36.4 17.3953488,38.0714286" id="logo-color" fill="#1E4166"></path>
                <path d="M0.744186047,17.1785714 C-0.279069767,21.6357143 1.30232558,26.2785714 5.6744186,28.7857143 C5.95348837,28.8785714 6.04651163,28.7857143 5.86046512,28.6 C5.6744186,28.4142857 5.39534884,28.1357143 4.8372093,27.5785714 C1.95348837,24.7928571 1.6744186,22.1 2.13953488,19.3142857 C3.1627907,13.65 10.6976744,10.2142857 18.5116279,11.7928571 C21.0232558,12.2571429 23.255814,13.1857143 25.2093023,14.3928571 C25.3023256,11.6071429 24.6511628,9.1 23.5348837,7.05714286 C12.372093,5.2 2.41860465,9.65714286 0.744186047,17.1785714" id="logo-color" fill="#508FBB"></path>
            </g>
        </g>
    </g>
</svg>