<?xml version="1.0" encoding="UTF-8" standalone="no"?>
<svg width="310px" height="41px" viewBox="0 0 310 41" version="1.1" xmlns="http://www.w3.org/2000/svg" xmlns:xlink="http://www.w3.org/1999/xlink">
    <!-- Generator: Sketch 3.6.1 (26313) - http://www.bohemiancoding.com/sketch -->
    <title>c-orthopedics-d</title>
    <desc>Created with Sketch.</desc>
    <defs></defs>
    <g id="Page-1" stroke="none" stroke-width="1" fill="none" fill-rule="evenodd">
        <g id="c-orthopedics-d" transform="translate(0.333333, 0.000000)">
            <path d="M52.3037667,22.08395 L52.3037667,22.01745 C52.3037667,17.2481167 56.3509333,13.2931167 61.8144333,13.2931167 C67.2767667,13.2931167 71.2889333,17.1851167 71.2889333,21.95795 L71.2889333,22.01745 C71.2889333,26.76695 67.2429333,30.7161167 61.7444333,30.7161167 C56.3159333,30.7161167 52.3037667,26.8276167 52.3037667,22.08395 L52.3037667,22.08395 Z M67.2079333,22.08395 L67.2079333,22.01745 C67.2079333,19.07745 64.9481,16.6496167 61.7444333,16.6496167 C58.4766,16.6496167 56.3847667,19.0447833 56.3847667,21.95795 L56.3847667,22.01745 C56.3847667,24.92945 58.6434333,27.39345 61.8144333,27.39345 C65.1196,27.39345 67.2079333,24.96095 67.2079333,22.08395 L67.2079333,22.08395 Z" id="Fill-1" fill="#1E4166"></path>
            <path d="M73.14545,13.6404333 L77.22645,13.6404333 L77.22645,16.4264333 C78.5436167,14.6846 80.39745,13.2916 83.26745,13.2916 C87.4791167,13.2916 91.5601167,16.4264333 91.5601167,21.9576 L91.5601167,22.0182667 C91.5601167,27.5552667 87.51295,30.6854333 83.26745,30.6854333 C80.3286167,30.6854333 78.47595,29.2947667 77.22645,27.7442667 L77.22645,35.3987667 L73.14545,35.3987667 L73.14545,13.6404333 Z M87.4102833,22.0182667 L87.4102833,21.9576 C87.4102833,18.7282667 85.08395,16.6177667 82.3201167,16.6177667 C79.55395,16.6177667 77.12495,18.7621 77.12495,21.9576 L77.12495,22.0182667 C77.12495,25.2464333 79.55395,27.3639333 82.3201167,27.3639333 C85.1212833,27.3639333 87.4102833,25.3106 87.4102833,22.0182667 L87.4102833,22.0182667 Z" id="Fill-3" fill="#1E4166"></path>
            <path d="M94.3083167,25.7206833 L94.3083167,16.9321833 L92.0484833,16.9321833 L92.0484833,13.6410167 L94.3083167,13.6410167 L94.3083167,9.05485 L98.39165,9.05485 L98.39165,13.6410167 L103.17965,13.6410167 L103.17965,16.9321833 L98.39165,16.9321833 L98.39165,25.11985 C98.39165,26.6050167 99.20015,27.2081833 100.583817,27.2081833 C101.490317,27.2081833 102.302317,27.0156833 103.11315,26.6376833 L103.11315,29.7701833 C102.10165,30.3056833 100.952483,30.62185 99.4369833,30.62185 C96.4339833,30.62185 94.3083167,29.3910167 94.3083167,25.7206833" id="Fill-5" fill="#1E4166"></path>
            <path d="M105.842333,30.3375333 L109.923333,30.3375333 L109.923333,13.6413667 L105.842333,13.6413667 L105.842333,30.3375333 Z" id="Fill-7" fill="#1E4166"></path>
            <path d="M112.99435,13.6404333 L117.074183,13.6404333 L117.074183,16.1732667 C118.21985,14.6846 119.77385,13.2916 122.506183,13.2916 C125.068183,13.2916 126.855517,14.4617667 127.79935,16.2362667 C129.253017,14.4617667 131.13835,13.2916 133.835683,13.2916 C137.713683,13.2916 140.075017,15.6027667 140.075017,19.6802667 L140.075017,30.3366 L135.995183,30.3366 L135.995183,20.8481 C135.995183,18.1916 134.67685,16.7741 132.38435,16.7741 C130.159517,16.7741 128.574017,18.2242667 128.574017,20.9111 L128.574017,30.3366 L124.49535,30.3366 L124.49535,20.8154333 C124.49535,18.2242667 123.14435,16.7741 120.885683,16.7741 C118.62585,16.7741 117.074183,18.3502667 117.074183,20.9437667 L117.074183,30.3366 L112.99435,30.3366 L112.99435,13.6404333 Z" id="Fill-9" fill="#1E4166"></path>
            <path d="M143.702533,22.2434333 L143.702533,22.1781 C143.702533,17.5137667 147.328533,13.4654333 152.2892,13.4654333 C157.221867,13.4654333 160.810533,17.4484333 160.810533,22.1139333 L160.810533,22.1781 C160.810533,26.8471 157.188033,30.8977667 152.223867,30.8977667 C147.295867,30.8977667 143.702533,26.9124333 143.702533,22.2434333 M159.083867,22.2434333 L159.083867,22.1781 C159.083867,18.1647667 156.0762,14.9669333 152.223867,14.9669333 C148.273533,14.9669333 145.435033,18.1951 145.435033,22.1139333 L145.435033,22.1781 C145.435033,26.1949333 148.4392,29.3927667 152.2892,29.3927667 C156.239533,29.3927667 159.083867,26.1634333 159.083867,22.2434333" id="Fill-10" fill="#1E4166"></path>
            <path d="M163.130217,13.8580167 L164.730883,13.8580167 L164.730883,18.58885 C166.035217,15.6196833 168.810717,13.4660167 172.107717,13.5955167 L172.107717,15.3571833 L171.943217,15.3571833 C168.09205,15.3571833 164.730883,18.25985 164.730883,23.68135 L164.730883,30.5051833 L163.130217,30.5051833 L163.130217,13.8580167 Z" id="Fill-11" fill="#1E4166"></path>
            <path d="M176.420417,26.2277167 L176.420417,15.3252167 L174.005417,15.3252167 L174.005417,13.85755 L176.420417,13.85755 L176.420417,8.92838333 L178.01875,8.92838333 L178.01875,13.85755 L183.864917,13.85755 L183.864917,15.3252167 L178.01875,15.3252167 L178.01875,26.0643833 C178.01875,28.44555 179.424583,29.2972167 181.349583,29.2972167 C182.16625,29.2972167 182.85225,29.1303833 183.799583,28.7068833 L183.799583,30.20955 C182.95025,30.6027167 182.132417,30.7963833 181.08825,30.7963833 C178.50875,30.7963833 176.420417,29.3928833 176.420417,26.2277167" id="Fill-12" fill="#1E4166"></path>
            <path d="M185.9851,8.869 L187.5846,8.869 L187.5846,16.9621667 C188.695267,15.0021667 190.5561,13.4645 193.592933,13.4645 C197.806933,13.4645 200.252267,16.3391667 200.252267,20.3163333 L200.252267,30.5048333 L198.653933,30.5048333 L198.653933,20.6126667 C198.653933,17.1896667 196.7266,14.9356667 193.365433,14.9356667 C190.098767,14.9356667 187.5846,17.4171667 187.5846,20.874 L187.5846,30.5048333 L185.9851,30.5048333 L185.9851,8.869 Z" id="Fill-13" fill="#1E4166"></path>
            <path d="M202.013117,22.2434333 L202.013117,22.1781 C202.013117,17.5137667 205.63795,13.4654333 210.596283,13.4654333 C215.530117,13.4654333 219.11995,17.4484333 219.11995,22.1139333 L219.11995,22.1781 C219.11995,26.8471 215.49395,30.8977667 210.533283,30.8977667 C205.601783,30.8977667 202.013117,26.9124333 202.013117,22.2434333 M217.39095,22.2434333 L217.39095,22.1781 C217.39095,18.1647667 214.385617,14.9669333 210.533283,14.9669333 C206.584117,14.9669333 203.742117,18.1951 203.742117,22.1139333 L203.742117,22.1781 C203.742117,26.1949333 206.745117,29.3927667 210.596283,29.3927667 C214.546617,29.3927667 217.39095,26.1634333 217.39095,22.2434333" id="Fill-14" fill="#1E4166"></path>
            <path d="M220.813017,13.8580167 L222.413683,13.8580167 L222.413683,17.57735 C223.851017,15.3910167 225.972017,13.4660167 229.269017,13.4660167 C233.28585,13.4660167 237.36685,16.7000167 237.36685,22.11335 L237.36685,22.1786833 C237.36685,27.5966833 233.28585,30.8971833 229.269017,30.8971833 C225.940517,30.8971833 223.784517,29.0036833 222.413683,26.91185 L222.413683,35.7260167 L220.813017,35.7260167 L220.813017,13.8580167 Z M235.635517,22.24285 L235.635517,22.1786833 C235.635517,17.8071833 232.601017,15.0036833 229.105683,15.0036833 C225.646517,15.0036833 222.314517,17.9005167 222.314517,22.1460167 L222.314517,22.2101833 C222.314517,26.4895167 225.646517,29.36185 229.105683,29.36185 C232.731683,29.36185 235.635517,26.7181833 235.635517,22.24285 L235.635517,22.24285 Z" id="Fill-15" fill="#1E4166"></path>
            <path d="M239.02515,22.2115833 L239.02515,22.14625 C239.02515,17.3185833 242.42015,13.4650833 246.930483,13.4650833 C251.59715,13.4650833 254.567483,17.25325 254.567483,22.1789167 C254.567483,22.4729167 254.567483,22.5709167 254.535983,22.83225 L240.724983,22.83225 C241.017817,26.97975 243.990483,29.3924167 247.25365,29.3924167 C249.83315,29.3924167 251.59715,28.25025 252.967983,26.7814167 L254.07515,27.76025 C252.379983,29.5884167 250.388483,30.89625 247.189483,30.89625 C242.81215,30.89625 239.02515,27.4020833 239.02515,22.2115833 L239.02515,22.2115833 Z M252.834983,21.39375 C252.60865,18.0325833 250.682483,14.9374167 246.860483,14.9374167 C243.565817,14.9374167 241.017817,17.70825 240.724983,21.39375 L252.834983,21.39375 Z" id="Fill-16" fill="#1E4166"></path>
            <path d="M256.51255,22.2434333 L256.51255,22.1781 C256.51255,16.7647667 260.594717,13.4654333 264.61155,13.4654333 C267.938883,13.4654333 270.09605,15.3577667 271.465717,17.4484333 L271.465717,8.87226667 L273.065217,8.87226667 L273.065217,30.5057667 L271.465717,30.5057667 L271.465717,26.7806 C270.030717,28.9669333 267.909717,30.8977667 264.61155,30.8977667 C260.594717,30.8977667 256.51255,27.6637667 256.51255,22.2434333 M271.56255,22.2107667 L271.56255,22.1466 C271.56255,17.8731 268.23405,15.0031 264.771383,15.0031 C261.15005,15.0031 258.243883,17.6432667 258.243883,22.1139333 L258.243883,22.1781 C258.243883,26.5566 261.27955,29.3612667 264.771383,29.3612667 C268.23405,29.3612667 271.56255,26.4562667 271.56255,22.2107667" id="Fill-17" fill="#1E4166"></path>
            <path d="M276.285333,30.5055333 L277.888333,30.5055333 L277.888333,13.8572 L276.285333,13.8572 L276.285333,30.5055333 Z" id="Fill-18" fill="#1E4166"></path>
            <path d="M280.277667,22.2434333 L280.277667,22.1781 C280.277667,17.5137667 284.0005,13.4654333 288.7675,13.4654333 C291.897667,13.4654333 293.861167,14.9027667 295.428,16.5326 L294.284667,17.7074333 C292.847333,16.2409333 291.2175,14.9669333 288.737167,14.9669333 C284.946667,14.9669333 282.010167,18.1321 282.010167,22.1139333 L282.010167,22.1781 C282.010167,26.1949333 285.045833,29.3927667 288.866667,29.3927667 C291.2175,29.3927667 293.045667,28.1864333 294.446833,26.6184333 L295.561,27.5972667 C293.861167,29.5234333 291.837,30.8977667 288.7675,30.8977667 C283.969,30.8977667 280.277667,26.9124333 280.277667,22.2434333" id="Fill-19" fill="#1E4166"></path>
            <path d="M297.08735,28.4128833 L298.033517,27.14005 C299.86285,28.5447167 301.888183,29.32755 304.009183,29.32755 C306.259683,29.32755 308.02835,28.0873833 308.02835,26.16355 L308.02835,26.0958833 C308.02835,24.1393833 305.933017,23.4207167 303.61835,22.7662167 C300.90585,21.9822167 297.905183,21.16555 297.905183,18.1952167 L297.905183,18.13105 C297.905183,15.45705 300.155683,13.5332167 303.38735,13.5332167 C305.37885,13.5332167 307.63285,14.2483833 309.296517,15.3578833 L308.447183,16.69955 C306.917683,15.6857167 305.083683,15.03355 303.32435,15.03355 C301.037683,15.03355 299.536183,16.2737167 299.536183,17.9338833 L299.536183,18.0003833 C299.536183,19.8588833 301.785517,20.54605 304.172517,21.2308833 C306.850017,21.9822167 309.657017,22.96455 309.657017,25.90105 L309.657017,25.96405 C309.657017,28.9367167 307.110183,30.8302167 303.913517,30.8302167 C301.492683,30.8302167 298.85135,29.8502167 297.08735,28.4128833" id="Fill-20" fill="#1E4166"></path>
            <g id="graphic">
                <path d="M23.6372093,0.683333333 C18.8511628,-0.39047619 13.9674419,1.26904762 11.2325581,5.75952381 C11.0372093,6.05238095 11.2325581,6.15 11.427907,5.9547619 C11.6232558,5.75952381 11.9162791,5.46666667 12.5023256,4.88095238 C15.4325581,1.8547619 18.2651163,1.56190476 21.2930233,2.05 C27.3488372,3.12380952 30.9627907,10.9333333 29.3023256,19.1333333 C28.8139535,21.7690476 27.8372093,24.1119048 26.4697674,26.0642857 C29.4,26.1619048 32.0372093,25.4785714 34.2837209,24.4047619 C36.3348837,12.6904762 31.6465116,2.44047619 23.6372093,0.683333333" id="logo-color" fill="#90BEDC"></path>
                <path d="M41.1209302,22.9404762 C42.1953488,18.2547619 40.5348837,13.3738095 35.944186,10.7380952 C35.6511628,10.6404762 35.5534884,10.7380952 35.7488372,10.9333333 C35.944186,11.1285714 36.2372093,11.4214286 36.8232558,12.0071429 C39.8511628,14.9357143 40.144186,17.7666667 39.655814,20.6952381 C38.5813953,26.65 30.6697674,30.2619048 22.4651163,28.602381 C19.827907,28.1142857 17.4837209,27.1380952 15.4325581,25.8690476 C15.3348837,28.7 16.0186047,31.4333333 17.1906977,33.5809524 C29.0093023,35.5333333 39.3627907,30.847619 41.1209302,22.9404762" id="logo-color" fill="#508FBB"></path>
                <path d="M18.2651163,40.0238095 C23.0511628,41.097619 27.9348837,39.4380952 30.6697674,34.947619 C30.7674419,34.6547619 30.6697674,34.5571429 30.4744186,34.752381 C30.2790698,34.947619 29.9860465,35.2404762 29.4,35.8261905 C26.4697674,38.852381 23.6372093,39.1452381 20.6093023,38.6571429 C14.5534884,37.5833333 11.0372093,29.7738095 12.6,21.5738095 C13.0883721,18.9380952 14.0651163,16.5952381 15.3348837,14.6428571 C12.4046512,14.5452381 9.76744186,15.2285714 7.52093023,16.302381 C5.56744186,27.9190476 10.3534884,38.2666667 18.2651163,40.0238095" id="logo-color" fill="#1E4166"></path>
                <path d="M0.781395349,18.0595238 C-0.293023256,22.7452381 1.36744186,27.6261905 5.95813953,30.2619048 C6.25116279,30.3595238 6.34883721,30.2619048 6.15348837,30.0666667 C5.95813953,29.8714286 5.66511628,29.5785714 5.07906977,28.9928571 C2.05116279,26.0642857 1.75813953,23.2333333 2.24651163,20.3047619 C3.32093023,14.35 11.2325581,10.7380952 19.4372093,12.397619 C22.0744186,12.8857143 24.4186047,13.8619048 26.4697674,15.1309524 C26.5674419,12.202381 25.8837209,9.56666667 24.7116279,7.41904762 C12.9906977,5.46666667 2.53953488,10.152381 0.781395349,18.0595238" id="logo-color" fill="#508FBB"></path>
            </g>
        </g>
    </g>
</svg>