<?xml version="1.0" encoding="UTF-8" standalone="no"?>
<svg width="200px" height="26px" viewBox="0 0 200 26" version="1.1" xmlns="http://www.w3.org/2000/svg" xmlns:xlink="http://www.w3.org/1999/xlink">
    <!-- Generator: Sketch 3.6.1 (26313) - http://www.bohemiancoding.com/sketch -->
    <title>c-orthopedics-m</title>
    <desc>Created with Sketch.</desc>
    <defs></defs>
    <g id="Page-1" stroke="none" stroke-width="1" fill="none" fill-rule="evenodd">
        <g id="c-orthopedics-m" transform="translate(0.333333, 0.000000)">
            <path d="M33.62385,14.196825 L33.62385,14.154075 C33.62385,11.088075 36.2256,8.545575 39.73785,8.545575 C43.24935,8.545575 45.8286,11.047575 45.8286,14.115825 L45.8286,14.154075 C45.8286,17.207325 43.2276,19.746075 39.69285,19.746075 C36.2031,19.746075 33.62385,17.246325 33.62385,14.196825 L33.62385,14.196825 Z M43.2051,14.196825 L43.2051,14.154075 C43.2051,12.264075 41.75235,10.703325 39.69285,10.703325 C37.5921,10.703325 36.24735,12.243075 36.24735,14.115825 L36.24735,14.154075 C36.24735,16.026075 37.69935,17.610075 39.73785,17.610075 C41.8626,17.610075 43.2051,16.046325 43.2051,14.196825 L43.2051,14.196825 Z" id="Fill-1" fill="#1E4166"></path>
            <path d="M47.022075,8.76885 L49.645575,8.76885 L49.645575,10.55985 C50.492325,9.4401 51.684075,8.5446 53.529075,8.5446 C56.236575,8.5446 58.860075,10.55985 58.860075,14.1156 L58.860075,14.1546 C58.860075,17.7141 56.258325,19.72635 53.529075,19.72635 C51.639825,19.72635 50.448825,18.83235 49.645575,17.8356 L49.645575,22.75635 L47.022075,22.75635 L47.022075,8.76885 Z M56.192325,14.1546 L56.192325,14.1156 C56.192325,12.0396 54.696825,10.68285 52.920075,10.68285 C51.141825,10.68285 49.580325,12.06135 49.580325,14.1156 L49.580325,14.1546 C49.580325,16.22985 51.141825,17.5911 52.920075,17.5911 C54.720825,17.5911 56.192325,16.2711 56.192325,14.1546 L56.192325,14.1546 Z" id="Fill-3" fill="#1E4166"></path>
            <path d="M60.626775,16.534725 L60.626775,10.884975 L59.174025,10.884975 L59.174025,8.769225 L60.626775,8.769225 L60.626775,5.820975 L63.251775,5.820975 L63.251775,8.769225 L66.329775,8.769225 L66.329775,10.884975 L63.251775,10.884975 L63.251775,16.148475 C63.251775,17.103225 63.771525,17.490975 64.661025,17.490975 C65.243775,17.490975 65.765775,17.367225 66.287025,17.124225 L66.287025,19.137975 C65.636775,19.482225 64.898025,19.685475 63.923775,19.685475 C61.993275,19.685475 60.626775,18.894225 60.626775,16.534725" id="Fill-5" fill="#1E4166"></path>
            <path d="M68.0415,19.5027 L70.665,19.5027 L70.665,8.76945 L68.0415,8.76945 L68.0415,19.5027 Z" id="Fill-7" fill="#1E4166"></path>
            <path d="M72.639225,8.76885 L75.261975,8.76885 L75.261975,10.3971 C75.998475,9.4401 76.997475,8.5446 78.753975,8.5446 C80.400975,8.5446 81.549975,9.29685 82.156725,10.4376 C83.091225,9.29685 84.303225,8.5446 86.037225,8.5446 C88.530225,8.5446 90.048225,10.03035 90.048225,12.6516 L90.048225,19.5021 L87.425475,19.5021 L87.425475,13.40235 C87.425475,11.6946 86.577975,10.78335 85.104225,10.78335 C83.673975,10.78335 82.654725,11.7156 82.654725,13.44285 L82.654725,19.5021 L80.032725,19.5021 L80.032725,13.38135 C80.032725,11.7156 79.164225,10.78335 77.712225,10.78335 C76.259475,10.78335 75.261975,11.7966 75.261975,13.46385 L75.261975,19.5021 L72.639225,19.5021 L72.639225,8.76885 Z" id="Fill-9" fill="#1E4166"></path>
            <path d="M92.3802,14.29935 L92.3802,14.25735 C92.3802,11.25885 94.7112,8.65635 97.9002,8.65635 C101.0712,8.65635 103.3782,11.21685 103.3782,14.2161 L103.3782,14.25735 C103.3782,17.25885 101.04945,19.86285 97.8582,19.86285 C94.6902,19.86285 92.3802,17.30085 92.3802,14.29935 M102.2682,14.29935 L102.2682,14.25735 C102.2682,11.67735 100.3347,9.6216 97.8582,9.6216 C95.3187,9.6216 93.49395,11.69685 93.49395,14.2161 L93.49395,14.25735 C93.49395,16.8396 95.4252,18.89535 97.9002,18.89535 C100.4397,18.89535 102.2682,16.81935 102.2682,14.29935" id="Fill-10" fill="#1E4166"></path>
            <path d="M104.869425,8.908725 L105.898425,8.908725 L105.898425,11.949975 C106.736925,10.041225 108.521175,8.656725 110.640675,8.739975 L110.640675,9.872475 L110.534925,9.872475 C108.059175,9.872475 105.898425,11.738475 105.898425,15.223725 L105.898425,19.610475 L104.869425,19.610475 L104.869425,8.908725 Z" id="Fill-11" fill="#1E4166"></path>
            <path d="M113.413125,16.860675 L113.413125,9.851925 L111.860625,9.851925 L111.860625,8.908425 L113.413125,8.908425 L113.413125,5.739675 L114.440625,5.739675 L114.440625,8.908425 L118.198875,8.908425 L118.198875,9.851925 L114.440625,9.851925 L114.440625,16.755675 C114.440625,18.286425 115.344375,18.833925 116.581875,18.833925 C117.106875,18.833925 117.547875,18.726675 118.156875,18.454425 L118.156875,19.420425 C117.610875,19.673175 117.085125,19.797675 116.413875,19.797675 C114.755625,19.797675 113.413125,18.895425 113.413125,16.860675" id="Fill-12" fill="#1E4166"></path>
            <path d="M119.56185,5.7015 L120.5901,5.7015 L120.5901,10.90425 C121.3041,9.64425 122.50035,8.65575 124.4526,8.65575 C127.1616,8.65575 128.7336,10.50375 128.7336,13.0605 L128.7336,19.61025 L127.7061,19.61025 L127.7061,13.251 C127.7061,11.0505 126.4671,9.6015 124.30635,9.6015 C122.20635,9.6015 120.5901,11.19675 120.5901,13.419 L120.5901,19.61025 L119.56185,19.61025 L119.56185,5.7015 Z" id="Fill-13" fill="#1E4166"></path>
            <path d="M129.865575,14.29935 L129.865575,14.25735 C129.865575,11.25885 132.195825,8.65635 135.383325,8.65635 C138.555075,8.65635 140.862825,11.21685 140.862825,14.2161 L140.862825,14.25735 C140.862825,17.25885 138.531825,19.86285 135.342825,19.86285 C132.172575,19.86285 129.865575,17.30085 129.865575,14.29935 M139.751325,14.29935 L139.751325,14.25735 C139.751325,11.67735 137.819325,9.6216 135.342825,9.6216 C132.804075,9.6216 130.977075,11.69685 130.977075,14.2161 L130.977075,14.25735 C130.977075,16.8396 132.907575,18.89535 135.383325,18.89535 C137.922825,18.89535 139.751325,16.81935 139.751325,14.29935" id="Fill-14" fill="#1E4166"></path>
            <path d="M141.951225,8.908725 L142.980225,8.908725 L142.980225,11.299725 C143.904225,9.894225 145.267725,8.656725 147.387225,8.656725 C149.969475,8.656725 152.592975,10.735725 152.592975,14.215725 L152.592975,14.257725 C152.592975,17.740725 149.969475,19.862475 147.387225,19.862475 C145.247475,19.862475 143.861475,18.645225 142.980225,17.300475 L142.980225,22.966725 L141.951225,22.966725 L141.951225,8.908725 Z M151.479975,14.298975 L151.479975,14.257725 C151.479975,11.447475 149.529225,9.645225 147.282225,9.645225 C145.058475,9.645225 142.916475,11.507475 142.916475,14.236725 L142.916475,14.277975 C142.916475,17.028975 145.058475,18.875475 147.282225,18.875475 C149.613225,18.875475 151.479975,17.175975 151.479975,14.298975 L151.479975,14.298975 Z" id="Fill-15" fill="#1E4166"></path>
            <path d="M153.659025,14.278875 L153.659025,14.236875 C153.659025,11.133375 155.841525,8.656125 158.741025,8.656125 C161.741025,8.656125 163.650525,11.091375 163.650525,14.257875 C163.650525,14.446875 163.650525,14.509875 163.630275,14.677875 L154.751775,14.677875 C154.940025,17.344125 156.851025,18.895125 158.948775,18.895125 C160.607025,18.895125 161.741025,18.160875 162.622275,17.216625 L163.334025,17.845875 C162.244275,19.021125 160.964025,19.861875 158.907525,19.861875 C156.093525,19.861875 153.659025,17.615625 153.659025,14.278875 L153.659025,14.278875 Z M162.536775,13.753125 C162.391275,11.592375 161.153025,9.602625 158.696025,9.602625 C156.578025,9.602625 154.940025,11.383875 154.751775,13.753125 L162.536775,13.753125 Z" id="Fill-16" fill="#1E4166"></path>
            <path d="M164.900925,14.29935 L164.900925,14.25735 C164.900925,10.77735 167.525175,8.65635 170.107425,8.65635 C172.246425,8.65635 173.633175,9.87285 174.513675,11.21685 L174.513675,5.7036 L175.541925,5.7036 L175.541925,19.61085 L174.513675,19.61085 L174.513675,17.2161 C173.591175,18.6216 172.227675,19.86285 170.107425,19.86285 C167.525175,19.86285 164.900925,17.78385 164.900925,14.29935 M174.575925,14.27835 L174.575925,14.2371 C174.575925,11.48985 172.436175,9.64485 170.210175,9.64485 C167.882175,9.64485 166.013925,11.3421 166.013925,14.2161 L166.013925,14.25735 C166.013925,17.0721 167.965425,18.8751 170.210175,18.8751 C172.436175,18.8751 174.575925,17.0076 174.575925,14.27835" id="Fill-17" fill="#1E4166"></path>
            <path d="M177.612,19.6107 L178.6425,19.6107 L178.6425,8.9082 L177.612,8.9082 L177.612,19.6107 Z" id="Fill-18" fill="#1E4166"></path>
            <path d="M180.1785,14.29935 L180.1785,14.25735 C180.1785,11.25885 182.57175,8.65635 185.63625,8.65635 C187.6485,8.65635 188.91075,9.58035 189.918,10.6281 L189.183,11.38335 C188.259,10.4406 187.21125,9.6216 185.61675,9.6216 C183.18,9.6216 181.29225,11.65635 181.29225,14.2161 L181.29225,14.25735 C181.29225,16.8396 183.24375,18.89535 185.7,18.89535 C187.21125,18.89535 188.3865,18.11985 189.28725,17.11185 L190.0035,17.7411 C188.91075,18.97935 187.6095,19.86285 185.63625,19.86285 C182.5515,19.86285 180.1785,17.30085 180.1785,14.29935" id="Fill-19" fill="#1E4166"></path>
            <path d="M190.984725,18.265425 L191.592975,17.447175 C192.768975,18.350175 194.070975,18.853425 195.434475,18.853425 C196.881225,18.853425 198.018225,18.056175 198.018225,16.819425 L198.018225,16.775925 C198.018225,15.518175 196.671225,15.056175 195.183225,14.635425 C193.439475,14.131425 191.510475,13.606425 191.510475,11.696925 L191.510475,11.655675 C191.510475,9.936675 192.957225,8.699925 195.034725,8.699925 C196.314975,8.699925 197.763975,9.159675 198.833475,9.872925 L198.287475,10.735425 C197.304225,10.083675 196.125225,9.664425 194.994225,9.664425 C193.524225,9.664425 192.558975,10.461675 192.558975,11.528925 L192.558975,11.571675 C192.558975,12.766425 194.004975,13.208175 195.539475,13.648425 C197.260725,14.131425 199.065225,14.762925 199.065225,16.650675 L199.065225,16.691175 C199.065225,18.602175 197.427975,19.819425 195.372975,19.819425 C193.816725,19.819425 192.118725,19.189425 190.984725,18.265425" id="Fill-20" fill="#1E4166"></path>
            <g id="graphic">
                <path d="M15.1953488,0.433333333 C12.1186047,-0.247619048 8.97906977,0.804761905 7.22093023,3.65238095 C7.09534884,3.83809524 7.22093023,3.9 7.34651163,3.77619048 C7.47209302,3.65238095 7.66046512,3.46666667 8.0372093,3.0952381 C9.92093023,1.17619048 11.7418605,0.99047619 13.6883721,1.3 C17.5813953,1.98095238 19.9046512,6.93333333 18.8372093,12.1333333 C18.5232558,13.8047619 17.8953488,15.2904762 17.0162791,16.5285714 C18.9,16.5904762 20.5953488,16.1571429 22.0395349,15.4761905 C23.3581395,8.04761905 20.344186,1.54761905 15.1953488,0.433333333" id="logo-color" fill="#90BEDC"></path>
                <path d="M26.4348837,14.547619 C27.1255814,11.5761905 26.0581395,8.48095238 23.1069767,6.80952381 C22.9186047,6.74761905 22.855814,6.80952381 22.9813953,6.93333333 C23.1069767,7.05714286 23.2953488,7.24285714 23.672093,7.61428571 C25.6186047,9.47142857 25.8069767,11.2666667 25.4930233,13.1238095 C24.8023256,16.9 19.7162791,19.1904762 14.4418605,18.1380952 C12.7465116,17.8285714 11.2395349,17.2095238 9.92093023,16.4047619 C9.85813953,18.2 10.2976744,19.9333333 11.0511628,21.2952381 C18.6488372,22.5333333 25.3046512,19.5619048 26.4348837,14.547619" id="logo-color" fill="#508FBB"></path>
                <path d="M11.7418605,25.3809524 C14.8186047,26.0619048 17.9581395,25.0095238 19.7162791,22.1619048 C19.7790698,21.9761905 19.7162791,21.9142857 19.5906977,22.0380952 C19.4651163,22.1619048 19.2767442,22.347619 18.9,22.7190476 C17.0162791,24.6380952 15.1953488,24.8238095 13.2488372,24.5142857 C9.35581395,23.8333333 7.09534884,18.8809524 8.1,13.6809524 C8.41395349,12.0095238 9.04186047,10.5238095 9.85813953,9.28571429 C7.9744186,9.22380952 6.27906977,9.65714286 4.83488372,10.3380952 C3.57906977,17.7047619 6.65581395,24.2666667 11.7418605,25.3809524" id="logo-color" fill="#1E4166"></path>
                <path d="M0.502325581,11.452381 C-0.188372093,14.4238095 0.879069767,17.5190476 3.83023256,19.1904762 C4.01860465,19.252381 4.08139535,19.1904762 3.95581395,19.0666667 C3.83023256,18.9428571 3.64186047,18.7571429 3.26511628,18.3857143 C1.31860465,16.5285714 1.13023256,14.7333333 1.44418605,12.8761905 C2.13488372,9.1 7.22093023,6.80952381 12.4953488,7.86190476 C14.1906977,8.17142857 15.6976744,8.79047619 17.0162791,9.5952381 C17.0790698,7.73809524 16.6395349,6.06666667 15.8860465,4.7047619 C8.35116279,3.46666667 1.63255814,6.43809524 0.502325581,11.452381" id="logo-color" fill="#508FBB"></path>
            </g>
        </g>
    </g>
</svg>