<?xml version="1.0" encoding="UTF-8" standalone="no"?>
<svg width="298px" height="38px" viewBox="0 0 298 38" version="1.1" xmlns="http://www.w3.org/2000/svg" xmlns:xlink="http://www.w3.org/1999/xlink">
    <!-- Generator: Sketch 3.6.1 (26313) - http://www.bohemiancoding.com/sketch -->
    <title>c-surgeryC-d</title>
    <desc>Created with Sketch.</desc>
    <defs></defs>
    <g id="Page-1" stroke="none" stroke-width="1" fill="none" fill-rule="evenodd">
        <g id="c-surgeryC-d" transform="translate(0.333333, 0.000000)">
            <g id="graphic">
                <path d="M21.9488372,0.633333333 C17.5046512,-0.361904762 12.9697674,1.17619048 10.4302326,5.33809524 C10.2488372,5.60952381 10.4302326,5.7 10.6116279,5.51904762 C10.7930233,5.33809524 11.0651163,5.06666667 11.6093023,4.52380952 C14.3302326,1.71904762 16.9604651,1.44761905 19.772093,1.9 C25.3953488,2.8952381 28.7511628,10.1333333 27.2093023,17.7333333 C26.755814,20.1761905 25.8488372,22.347619 24.5790698,24.1571429 C27.3,24.247619 29.7488372,23.6142857 31.8348837,22.6190476 C33.7395349,11.7619048 29.3860465,2.26190476 21.9488372,0.633333333" id="logo-color" fill="#90BEDC"></path>
                <path d="M38.1837209,21.2619048 C39.1813953,16.9190476 37.6395349,12.3952381 33.3767442,9.95238095 C33.1046512,9.86190476 33.0139535,9.95238095 33.1953488,10.1333333 C33.3767442,10.3142857 33.6488372,10.5857143 34.1930233,11.1285714 C37.0046512,13.8428571 37.2767442,16.4666667 36.8232558,19.1809524 C35.8255814,24.7 28.4790698,28.047619 20.8604651,26.5095238 C18.4116279,26.0571429 16.2348837,25.152381 14.3302326,23.9761905 C14.2395349,26.6 14.8744186,29.1333333 15.9627907,31.1238095 C26.9372093,32.9333333 36.5511628,28.5904762 38.1837209,21.2619048" id="logo-color" fill="#508FBB"></path>
                <path d="M16.9604651,37.0952381 C21.4046512,38.0904762 25.9395349,36.552381 28.4790698,32.3904762 C28.5697674,32.1190476 28.4790698,32.0285714 28.2976744,32.2095238 C28.1162791,32.3904762 27.844186,32.6619048 27.3,33.2047619 C24.5790698,36.0095238 21.9488372,36.2809524 19.1372093,35.8285714 C13.5139535,34.8333333 10.2488372,27.5952381 11.7,19.9952381 C12.1534884,17.552381 13.0604651,15.3809524 14.2395349,13.5714286 C11.5186047,13.4809524 9.06976744,14.1142857 6.98372093,15.1095238 C5.16976744,25.8761905 9.61395349,35.4666667 16.9604651,37.0952381" id="logo-color" fill="#1E4166"></path>
                <path d="M0.725581395,16.7380952 C-0.272093023,21.0809524 1.26976744,25.6047619 5.53255814,28.047619 C5.80465116,28.1380952 5.89534884,28.047619 5.71395349,27.8666667 C5.53255814,27.6857143 5.26046512,27.4142857 4.71627907,26.8714286 C1.90465116,24.1571429 1.63255814,21.5333333 2.08604651,18.8190476 C3.08372093,13.3 10.4302326,9.95238095 18.0488372,11.4904762 C20.4976744,11.9428571 22.6744186,12.847619 24.5790698,14.0238095 C24.6697674,11.3095238 24.0348837,8.86666667 22.9465116,6.87619048 C12.0627907,5.06666667 2.35813953,9.40952381 0.725581395,16.7380952" id="logo-color" fill="#508FBB"></path>
            </g>
            <path d="M47.0673333,19.0432195 L47.0673333,18.9876098 C47.0673333,14.6266341 50.4254286,11.0207805 54.9635238,11.0207805 C59.5006667,11.0207805 62.8292381,14.5700488 62.8292381,18.9300488 L62.8292381,18.9876098 C62.8292381,23.3154146 59.4701905,26.9212683 54.906381,26.9212683 C50.3978095,26.9212683 47.0673333,23.3729756 47.0673333,19.0432195 M59.441619,19.0432195 L59.441619,18.9876098 C59.441619,16.3046829 57.5635238,14.0812683 54.906381,14.0812683 C52.1911429,14.0812683 50.4559048,16.2724878 50.4559048,18.9300488 L50.4559048,18.9876098 C50.4559048,21.6412683 52.3292381,23.8910244 54.9635238,23.8910244 C57.706381,23.8910244 59.441619,21.669561 59.441619,19.0432195" id="Fill-12" fill="#1E4166"></path>
            <path d="M64.3952381,11.3736585 L67.8704762,11.3736585 L67.8704762,13.8029268 C68.9933333,12.2829268 70.5733333,11.0673171 73.0152381,11.0673171 C76.6066667,11.0673171 80.0828571,13.8029268 80.0828571,18.6302439 L80.0828571,18.6868293 C80.0828571,23.5180488 76.6352381,26.5278049 73.0152381,26.5278049 C70.5133333,26.5278049 68.9361905,25.315122 67.8704762,23.9639024 L67.8704762,29.5990244 L64.3952381,29.5990244 L64.3952381,11.3736585 Z M76.5485714,18.6868293 L76.5485714,18.6302439 C76.5485714,15.8185366 74.5666667,13.9668293 72.2104762,13.9668293 C69.8542857,13.9668293 67.7838095,15.8458537 67.7838095,18.6302439 L67.7838095,18.6868293 C67.7838095,21.5014634 69.8542857,23.3512195 72.2104762,23.3512195 C74.5980952,23.3512195 76.5485714,21.5570732 76.5485714,18.6868293 L76.5485714,18.6868293 Z" id="Fill-14" fill="#1E4166"></path>
            <path d="M82.4244762,22.6427317 L82.4244762,14.2446829 L80.4997143,14.2446829 L80.4997143,11.3734634 L82.4244762,11.3734634 L82.4244762,7.77834146 L85.8997143,7.77834146 L85.8997143,11.3734634 L89.9787619,11.3734634 L89.9787619,14.2446829 L85.8997143,14.2446829 L85.8997143,22.116878 C85.8997143,23.4134634 86.5892381,23.9383415 87.7673333,23.9383415 C88.541619,23.9383415 89.2320952,23.7724878 89.921619,23.4446829 L89.921619,26.1754146 C89.0597143,26.6446829 88.0835238,26.9217561 86.7930476,26.9217561 C84.234,26.9217561 82.4244762,25.8427317 82.4244762,22.6427317" id="Fill-16" fill="#1E4166"></path>
            <path d="M92.247619,26.7712195 L95.7228571,26.7712195 L95.7228571,11.3380488 L92.247619,11.3380488 L92.247619,26.7712195 Z" id="Fill-18" fill="#1E4166"></path>
            <path d="M98.3405714,11.3383415 L101.817714,11.3383415 L101.817714,13.7139512 C102.792,12.4163902 104.112952,11.2007805 106.442476,11.2007805 C108.623429,11.2007805 110.14819,12.2202927 110.952952,13.7676098 C112.189143,12.2202927 113.794857,11.2007805 116.093905,11.2007805 C119.396762,11.2007805 121.409143,13.2183415 121.409143,16.7793171 L121.409143,26.8261463 L117.933905,26.8261463 L117.933905,17.7988293 C117.933905,15.4788293 116.812,14.2398049 114.860571,14.2398049 C112.964381,14.2398049 111.612,15.5090732 111.612,17.8534634 L111.612,26.8261463 L108.136762,26.8261463 L108.136762,17.7724878 C108.136762,15.5090732 106.987238,14.2398049 105.060571,14.2398049 C103.136762,14.2398049 101.817714,15.6173659 101.817714,17.8837073 L101.817714,26.8261463 L98.3405714,26.8261463 L98.3405714,11.3383415 Z" id="Fill-20" fill="#1E4166"></path>
            <path d="M129.311524,24.492878 L130.087714,23.4226341 C131.590571,24.6021463 133.251524,25.2616585 134.993429,25.2616585 C136.842952,25.2616585 138.289619,24.2187317 138.289619,22.5992195 L138.289619,22.5445854 C138.289619,20.8967805 136.574381,20.2919024 134.670571,19.7445854 C132.446762,19.0850732 129.982,18.3982439 129.982,15.8997073 L129.982,15.8450732 C129.982,13.5943415 131.831524,11.9738537 134.483905,11.9738537 C136.11819,11.9738537 137.967714,12.5787317 139.334381,13.5123902 L138.637238,14.6362927 C137.379143,13.785561 135.87819,13.2372683 134.429619,13.2372683 C132.554381,13.2372683 131.321048,14.2801951 131.321048,15.6801951 L131.321048,15.7348293 C131.321048,17.2997073 133.170571,17.8772683 135.127714,18.4538537 C137.324857,19.0850732 139.628667,19.9094634 139.628667,22.3787317 L139.628667,22.4343415 C139.628667,24.9319024 137.539143,26.5250732 134.912476,26.5250732 C132.929619,26.5250732 130.760095,25.7006829 129.311524,24.492878" id="Fill-21" fill="#1E4166"></path>
            <path d="M134.912286,26.6423415 C132.962762,26.6423415 130.735143,25.833561 129.238952,24.5847805 L129.153238,24.5116098 L130.065619,23.256 L130.159905,23.3301463 C131.690381,24.5340488 133.316095,25.1438049 134.993238,25.1438049 C136.866571,25.1438049 138.175143,24.0979512 138.175143,22.598439 L138.175143,22.5438049 C138.175143,21.0033171 136.57419,20.4140488 134.640857,19.8569756 L134.528476,19.8228293 C132.343714,19.1779512 129.865619,18.4452683 129.865619,15.8999024 L129.865619,15.8452683 C129.865619,13.496 131.765619,11.8569756 134.484667,11.8569756 C136.108476,11.8569756 137.990381,12.4530732 139.398952,13.4140488 L139.492286,13.4774634 L138.672286,14.8013659 L138.57419,14.736 C137.257048,13.8452683 135.784667,13.3555122 134.429429,13.3555122 C132.667524,13.3555122 131.437048,14.3106341 131.437048,15.6813659 L131.437048,15.7350244 C131.437048,17.2433171 133.329429,17.8003902 135.159905,18.3399024 C137.478,19.0072195 139.743714,19.8696585 139.743714,22.3789268 L139.743714,22.433561 C139.743714,24.873561 137.711333,26.6423415 134.912286,26.6423415 L134.912286,26.6423415 Z M129.470381,24.4716098 C130.927524,25.6491707 133.049429,26.4072195 134.912286,26.4072195 C137.62181,26.4072195 139.513238,24.7740488 139.513238,22.433561 L139.513238,22.3789268 C139.513238,20.0325854 137.330381,19.2101463 135.095143,18.5672195 C133.184667,18.0033171 131.205619,17.4199024 131.205619,15.7350244 L131.205619,15.6813659 C131.205619,14.1740488 132.531333,13.1194146 134.429429,13.1194146 C135.796095,13.1194146 137.273238,13.5994146 138.602762,14.4745366 L139.177048,13.5477073 C137.817048,12.6472195 136.028476,12.0930732 134.484667,12.0930732 C131.900857,12.0930732 130.097048,13.6364878 130.097048,15.8452683 L130.097048,15.8999024 C130.097048,18.2677073 132.382762,18.9438049 134.591333,19.5974634 L134.703714,19.6306341 C136.728476,20.2140488 138.403714,20.8374634 138.403714,22.5438049 L138.403714,22.598439 C138.403714,24.2101463 136.968476,25.3799024 134.993238,25.3799024 C133.298952,25.3799024 131.656095,24.7769756 130.111333,23.5877073 L129.470381,24.4716098 Z" id="Fill-22" fill="#1E4166"></path>
            <path d="M141.934286,20.8134634 L141.934286,12.249561 L143.246667,12.249561 L143.246667,20.5676098 C143.246667,23.449561 144.827619,25.3432195 147.587619,25.3432195 C150.268571,25.3432195 152.331429,23.2583415 152.331429,20.347122 L152.331429,12.249561 L153.645714,12.249561 L153.645714,26.249561 L152.331429,26.249561 L152.331429,23.6417561 C151.420952,25.2905366 149.892381,26.5802927 147.401905,26.5802927 C143.942857,26.5802927 141.934286,24.1637073 141.934286,20.8134634" id="Fill-23" fill="#1E4166"></path>
            <path d="M147.402095,26.697561 C144.008762,26.697561 141.819238,24.3882927 141.819238,20.8136585 L141.819238,12.1307317 L143.362095,12.1307317 L143.362095,20.5678049 C143.362095,23.4409756 144.981143,25.2263415 147.58781,25.2263415 C150.225905,25.2263415 152.217333,23.1307317 152.217333,20.3473171 L152.217333,12.1307317 L153.759238,12.1307317 L153.759238,26.3687805 L152.217333,26.3687805 L152.217333,24.0643902 C151.116381,25.8117073 149.497333,26.697561 147.402095,26.697561 L147.402095,26.697561 Z M142.048762,12.3668293 L142.048762,20.8136585 C142.048762,24.244878 144.149714,26.462439 147.402095,26.462439 C149.549714,26.462439 151.175429,25.4926829 152.231619,23.5843902 L152.446857,23.195122 L152.446857,26.1326829 L153.529714,26.1326829 L153.529714,12.3668293 L152.446857,12.3668293 L152.446857,20.3473171 C152.446857,23.2634146 150.359238,25.4604878 147.58781,25.4604878 C144.839238,25.4604878 143.131619,23.5863415 143.131619,20.5678049 L143.131619,12.3668293 L142.048762,12.3668293 Z" id="Fill-24" fill="#1E4166"></path>
            <path d="M157.021714,12.2491707 L158.334095,12.2491707 L158.334095,16.2296585 C159.406476,13.731122 161.684571,11.9194146 164.391238,12.0286829 L164.391238,13.5125854 L164.256952,13.5125854 C161.094095,13.5125854 158.334095,15.9555122 158.334095,20.5125854 L158.334095,26.2501463 L157.021714,26.2501463 L157.021714,12.2491707 Z" id="Fill-25" fill="#1E4166"></path>
            <path d="M158.450286,26.3679024 L156.906476,26.3679024 L156.906476,12.1308293 L158.450286,12.1308293 L158.450286,15.7093659 C159.63981,13.3513171 161.786476,11.906439 164.158857,11.906439 C164.236952,11.906439 164.316,11.9074146 164.396,11.9122927 L164.505524,11.9161951 L164.505524,13.6293659 L164.256952,13.6293659 C161.366476,13.6293659 158.450286,15.759122 158.450286,20.5122927 L158.450286,26.3679024 Z M157.136952,26.1327805 L158.21981,26.1327805 L158.21981,20.5122927 C158.21981,18.3376585 158.844571,16.5083902 160.025524,15.2225366 C161.110286,14.044 162.613143,13.3942439 164.256952,13.3942439 L164.276952,13.3942439 L164.276952,12.1435122 C161.802667,12.0927805 159.550286,13.6849756 158.43981,16.2761951 L158.21981,16.7903415 L158.21981,12.3669268 L157.136952,12.3669268 L157.136952,26.1327805 Z" id="Fill-26" fill="#1E4166"></path>
            <path d="M165.196,28.5563902 L165.97219,27.4588293 C167.606476,28.7476098 169.482667,29.434439 171.49219,29.434439 C174.628381,29.434439 176.85219,27.5963902 176.85219,23.9993171 L176.85219,21.967122 C175.674095,23.6978537 173.850286,25.2051707 171.144571,25.2051707 C167.847429,25.2051707 164.57981,22.6256585 164.57981,18.6188293 L164.57981,18.5641951 C164.57981,14.5280976 167.847429,11.9193171 171.144571,11.9193171 C173.877905,11.9193171 175.726476,13.4022439 176.85219,15.0490732 L176.85219,12.2490732 L178.166476,12.2490732 L178.166476,24.0822439 C178.166476,26.1134634 177.523619,27.7056585 176.423619,28.8305366 C175.245524,30.0393171 173.476952,30.696878 171.467429,30.696878 C169.188381,30.696878 167.071238,29.9846829 165.196,28.5563902 M176.933143,18.5905366 L176.933143,18.5359024 C176.933143,15.296878 174.118857,13.2100488 171.278857,13.2100488 C168.411238,13.2100488 165.99981,15.2422439 165.99981,18.5085854 L165.99981,18.5641951 C165.99981,21.7202927 168.465524,23.9163902 171.278857,23.9163902 C174.118857,23.9163902 176.933143,21.7759024 176.933143,18.5905366" id="Fill-27" fill="#1E4166"></path>
            <path d="M171.467333,30.8143415 C169.147333,30.8143415 167.013048,30.0865366 165.126381,28.650439 L165.035905,28.5801951 L165.95019,27.2914146 L166.041619,27.365561 C167.683524,28.6601951 169.516857,29.3158049 171.492095,29.3158049 C174.77781,29.3158049 176.73781,27.3294634 176.73781,23.9987317 L176.73781,22.330439 C175.291143,24.290439 173.364476,25.3245854 171.144476,25.3245854 C169.465429,25.3245854 167.791143,24.6601951 166.549238,23.5021463 C165.204476,22.2494634 164.465429,20.5148293 164.465429,18.6182439 L164.465429,18.5636098 C164.465429,14.3860488 167.932095,11.8016585 171.144476,11.8016585 C173.945429,11.8016585 175.709238,13.308 176.73781,14.690439 L176.73781,12.130439 L178.281619,12.130439 L178.281619,24.0816585 C178.281619,26.0533659 177.667333,27.7236098 176.504476,28.9148293 C175.308286,30.1401951 173.518762,30.8143415 171.467333,30.8143415 L171.467333,30.8143415 Z M165.354952,28.530439 C167.178762,29.8914146 169.234952,30.5801951 171.467333,30.5801951 C173.458762,30.5801951 175.19019,29.9294634 176.342571,28.748 C177.459714,27.6036098 178.051143,25.9899512 178.051143,24.0816585 L178.051143,12.3675122 L176.967333,12.3675122 L176.967333,15.423122 L176.759714,15.1177561 C175.798762,13.712878 174.044476,12.0367805 171.144476,12.0367805 C168.042571,12.0367805 164.694952,14.5323902 164.694952,18.5636098 L164.694952,18.6182439 C164.694952,21.8006829 167.107333,25.0894634 171.144476,25.0894634 C173.427333,25.0894634 175.314952,24.0153171 176.759714,21.8982439 L176.967333,21.5938537 L176.967333,23.9987317 C176.967333,27.4767805 174.921619,29.5519024 171.492095,29.5519024 C169.502571,29.5519024 167.654952,28.903122 165.99781,27.6240976 L165.354952,28.530439 Z M171.278762,24.0348293 C168.254,24.0348293 165.884476,21.6309268 165.884476,18.5636098 L165.884476,18.5089756 C165.884476,15.3694634 168.153048,13.0923902 171.278762,13.0923902 C174.89019,13.0923902 177.048286,15.8601951 177.048286,18.5353171 L177.048286,18.5909268 C177.048286,21.952878 174.053048,24.0348293 171.278762,24.0348293 L171.278762,24.0348293 Z M171.278762,13.3275122 C168.285429,13.3275122 166.114952,15.5060488 166.114952,18.5089756 L166.114952,18.5636098 C166.114952,21.4982439 168.381619,23.7997073 171.278762,23.7997073 C173.942571,23.7997073 176.81781,21.8075122 176.81781,18.5909268 L176.81781,18.5353171 C176.81781,15.2758049 174.000667,13.3275122 171.278762,13.3275122 L171.278762,13.3275122 Z" id="Fill-28" fill="#1E4166"></path>
            <path d="M180.603333,19.277561 L180.603333,19.2219512 C180.603333,15.1585366 183.390952,11.9195122 187.090952,11.9195122 C190.922381,11.9195122 193.361429,15.104878 193.361429,19.2492683 C193.361429,19.4970732 193.361429,19.58 193.332857,19.7985366 L181.998571,19.7985366 C182.238571,23.2843902 184.675714,25.3165854 187.356667,25.3165854 C189.47381,25.3165854 190.922381,24.3556098 192.047143,23.1195122 L192.957619,23.9439024 C191.565238,25.4814634 189.93,26.5790244 187.303333,26.5790244 C183.71381,26.5790244 180.603333,23.642439 180.603333,19.277561 L180.603333,19.277561 Z M191.939524,18.5907317 C191.751905,15.762439 190.171905,13.1546341 187.036667,13.1546341 C184.33,13.1546341 182.238571,15.4882927 181.998571,18.5907317 L191.939524,18.5907317 Z" id="Fill-29" fill="#1E4166"></path>
            <path d="M187.303524,26.697561 C183.418762,26.697561 180.489238,23.5063415 180.489238,19.2780488 L180.489238,19.222439 C180.489238,15.0604878 183.388286,11.8009756 187.09019,11.8009756 C190.849238,11.8009756 193.474952,14.8634146 193.474952,19.2487805 C193.474952,19.5014634 193.474952,19.5863415 193.448286,19.8136585 L193.434952,19.9160976 L182.121619,19.9160976 C182.389238,23.0331707 184.527333,25.1990244 187.356857,25.1990244 C189.15781,25.1990244 190.621619,24.5131707 191.963524,23.04 L192.039714,22.9570732 L193.121619,23.9356098 L193.040667,24.0243902 C191.343524,25.8985366 189.628286,26.697561 187.303524,26.697561 L187.303524,26.697561 Z M187.09019,12.0370732 C183.51781,12.0370732 180.718762,15.1931707 180.718762,19.222439 L180.718762,19.2780488 C180.718762,23.3736585 183.55019,26.462439 187.303524,26.462439 C189.520667,26.462439 191.168286,25.7102439 192.794,23.9521951 L192.054,23.284878 C190.687333,24.7492683 189.191143,25.4341463 187.356857,25.4341463 C184.363524,25.4341463 182.113048,23.12 181.883524,19.8058537 L181.874,19.6809756 L193.232095,19.6809756 C193.243524,19.5395122 193.243524,19.4517073 193.243524,19.2487805 C193.243524,15.0019512 190.714,12.0370732 187.09019,12.0370732 L187.09019,12.0370732 Z M192.062571,18.7082927 L181.873048,18.7082927 L181.883524,18.5804878 C182.133048,15.3697561 184.299714,13.0360976 187.036857,13.0360976 C190.469238,13.0360976 191.885429,16.0253659 192.054,18.5834146 L192.062571,18.7082927 Z M182.123524,18.4721951 L191.815905,18.4721951 C191.614952,16.044878 190.255905,13.2721951 187.036857,13.2721951 C184.458762,13.2721951 182.409238,15.4526829 182.123524,18.4721951 L182.123524,18.4721951 Z" id="Fill-30" fill="#1E4166"></path>
            <path d="M195.586571,12.2491707 L196.898,12.2491707 L196.898,16.2296585 C197.969429,13.731122 200.248476,11.9194146 202.956095,12.0286829 L202.956095,13.5125854 L202.820857,13.5125854 C199.658952,13.5125854 196.898,15.9555122 196.898,20.5125854 L196.898,26.2501463 L195.586571,26.2501463 L195.586571,12.2491707 Z" id="Fill-31" fill="#1E4166"></path>
            <path d="M197.012381,26.3679024 L195.471429,26.3679024 L195.471429,12.1308293 L197.012381,12.1308293 L197.012381,15.7093659 C198.202857,13.3513171 200.351429,11.906439 202.721905,11.906439 C202.8,11.906439 202.879048,11.9074146 202.959048,11.9122927 L203.069524,11.9161951 L203.069524,13.6293659 L202.820952,13.6293659 C199.929524,13.6293659 197.012381,15.759122 197.012381,20.5122927 L197.012381,26.3679024 Z M195.7,26.1327805 L196.782857,26.1327805 L196.782857,20.5122927 C196.782857,18.3376585 197.408571,16.5083902 198.589524,15.2225366 C199.674286,14.044 201.17619,13.3942439 202.820952,13.3942439 L202.840952,13.3942439 L202.840952,12.1435122 C200.355238,12.0927805 198.11619,13.6849756 197.002857,16.2761951 L196.782857,16.7903415 L196.782857,12.3669268 L195.7,12.3669268 L195.7,26.1327805 Z" id="Fill-32" fill="#1E4166"></path>
            <path d="M216.998476,12.2491707 L218.445143,12.2491707 L212.521333,26.7428293 C211.314667,29.6813659 209.923238,30.7242927 207.967048,30.7242927 C206.920381,30.7242927 206.169905,30.5330732 205.259429,30.1203902 L205.714667,28.940878 C206.438476,29.2979512 207.027048,29.4628293 208.046095,29.4628293 C209.467048,29.4628293 210.40419,28.6101463 211.422286,26.1691707 L204.856571,12.2491707 L206.38419,12.2491707 L212.065143,24.7681951 L216.998476,12.2491707 Z" id="Fill-33" fill="#1E4166"></path>
            <path d="M207.966571,30.8420488 C206.960857,30.8420488 206.189429,30.6703415 205.213238,30.2283902 L205.111333,30.1825366 L205.653238,28.7796098 L205.765619,28.8332683 C206.435143,29.1649756 206.998,29.3435122 208.045619,29.3435122 C209.440857,29.3435122 210.325619,28.484 211.298,26.1708293 L204.672286,12.1298537 L206.458952,12.1298537 L212.058,24.4722927 L216.918952,12.1298537 L218.618,12.1298537 L212.628476,26.7893659 C211.46181,29.6303415 210.068476,30.8420488 207.966571,30.8420488 L207.966571,30.8420488 Z M205.406571,30.0566829 C206.303714,30.4527805 207.030381,30.6069268 207.966571,30.6069268 C209.986571,30.6069268 211.276095,29.4742439 212.416095,26.6976585 L218.271333,12.3669268 L217.075143,12.3669268 L212.073238,25.0635122 L206.312286,12.3669268 L205.040857,12.3669268 L211.549429,26.1649756 L211.529429,26.2147317 C210.519905,28.6361951 209.54181,29.5796098 208.045619,29.5796098 C207.018,29.5796098 206.418,29.404 205.775143,29.1005854 L205.406571,30.0566829 Z" id="Fill-34" fill="#1E4166"></path>
            <path d="M224.327333,19.3042927 L224.327333,19.2486829 C224.327333,15.3238049 227.384476,11.9199024 231.295905,11.9199024 C233.868286,11.9199024 235.476857,13.1286829 236.763524,14.5003902 L235.824476,15.4886829 C234.646381,14.2525854 233.305429,13.1833171 231.27019,13.1833171 C228.159714,13.1833171 225.748286,15.8457561 225.748286,19.1950244 L225.748286,19.2486829 C225.748286,22.6252683 228.240667,25.3169756 231.374952,25.3169756 C233.305429,25.3169756 234.806381,24.3013659 235.959714,22.9833171 L236.871143,23.8057561 C235.476857,25.4262439 233.815905,26.5803902 231.295905,26.5803902 C227.356857,26.5803902 224.327333,23.2291707 224.327333,19.3042927" id="Fill-35" fill="#1E4166"></path>
            <path d="M231.296286,26.697561 C227.389619,26.697561 224.212476,23.3814634 224.212476,19.3043902 L224.212476,19.2487805 C224.212476,15.142439 227.389619,11.8009756 231.296286,11.8009756 C234.041048,11.8009756 235.703905,13.2 236.84581,14.4195122 L236.922952,14.5004878 L235.824857,15.657561 L235.742,15.5707317 C234.617238,14.3921951 233.297238,13.3014634 231.270571,13.3014634 C228.237238,13.3014634 225.863905,15.8897561 225.863905,19.1960976 L225.863905,19.2487805 C225.863905,22.5853659 228.28581,25.1990244 231.375333,25.1990244 C233.028667,25.1990244 234.542,24.4263415 235.873429,22.9043902 L235.950571,22.8165854 L237.032476,23.7970732 L236.957238,23.884878 C235.282952,25.8282927 233.537238,26.697561 231.296286,26.697561 M231.296286,12.0370732 C227.517238,12.0370732 224.442952,15.2731707 224.442952,19.2487805 L224.442952,19.3043902 C224.442952,23.2507317 227.517238,26.462439 231.296286,26.462439 C233.430571,26.462439 235.103905,25.644878 236.708667,23.8156098 L235.968667,23.1473171 C234.609619,24.6653659 233.064857,25.4341463 231.375333,25.4341463 C228.155333,25.4341463 225.633429,22.7180488 225.633429,19.2487805 L225.633429,19.1960976 C225.633429,15.7570732 228.108667,13.0634146 231.270571,13.0634146 C233.332476,13.0634146 234.682952,14.137561 235.823905,15.3209756 L236.602,14.5004878 C235.433429,13.2682927 233.881048,12.0370732 231.296286,12.0370732" id="Fill-36" fill="#1E4166"></path>
            <path d="M237.620667,19.277561 L237.620667,19.2219512 C237.620667,15.1585366 240.407333,11.9195122 244.107333,11.9195122 C247.93781,11.9195122 250.376857,15.104878 250.376857,19.2492683 C250.376857,19.4970732 250.376857,19.58 250.35019,19.7985366 L239.013048,19.7985366 C239.255905,23.2843902 241.693048,25.3165854 244.374,25.3165854 C246.49019,25.3165854 247.93781,24.3556098 249.063524,23.1195122 L249.975905,23.9439024 C248.580667,25.4814634 246.946381,26.5790244 244.318762,26.5790244 C240.73019,26.5790244 237.620667,23.642439 237.620667,19.277561 L237.620667,19.277561 Z M248.954952,18.5907317 C248.769238,15.762439 247.188286,13.1546341 244.053048,13.1546341 C241.344476,13.1546341 239.255905,15.4882927 239.013048,18.5907317 L248.954952,18.5907317 Z" id="Fill-37" fill="#1E4166"></path>
            <path d="M244.318952,26.697561 C240.435143,26.697561 237.505619,23.5063415 237.505619,19.2780488 L237.505619,19.222439 C237.505619,15.0604878 240.403714,11.8009756 244.106571,11.8009756 C247.865619,11.8009756 250.491333,14.8634146 250.491333,19.2487805 C250.491333,19.5014634 250.491333,19.5863415 250.464667,19.8136585 L250.452286,19.9160976 L239.138952,19.9160976 C239.406571,23.0331707 241.543714,25.1990244 244.37419,25.1990244 C246.175143,25.1990244 247.638,24.5131707 248.978952,23.04 L249.055143,22.9570732 L250.138952,23.9356098 L250.058,24.0243902 C248.359905,25.8985366 246.643714,26.697561 244.318952,26.697561 L244.318952,26.697561 Z M244.106571,12.0370732 C240.533238,12.0370732 237.735143,15.1931707 237.735143,19.222439 L237.735143,19.2780488 C237.735143,23.3736585 240.566571,26.462439 244.318952,26.462439 C246.537048,26.462439 248.184667,25.7102439 249.810381,23.9521951 L249.070381,23.284878 C247.703714,24.7492683 246.207524,25.4341463 244.37419,25.4341463 C241.378952,25.4341463 239.128476,23.12 238.899905,19.8058537 L238.890381,19.6809756 L250.247524,19.6809756 C250.26181,19.5395122 250.26181,19.4517073 250.26181,19.2487805 C250.26181,15.0019512 247.731333,12.0370732 244.106571,12.0370732 L244.106571,12.0370732 Z M249.079905,18.7082927 L238.890381,18.7082927 L238.899905,18.5804878 C239.149429,15.3697561 241.317048,13.0360976 244.053238,13.0360976 C247.484667,13.0360976 248.90181,16.0253659 249.070381,18.5834146 L249.079905,18.7082927 Z M239.138952,18.4721951 L248.832286,18.4721951 C248.631333,16.044878 247.271333,13.2721951 244.053238,13.2721951 C241.475143,13.2721951 239.424667,15.4526829 239.138952,18.4721951 L239.138952,18.4721951 Z" id="Fill-38" fill="#1E4166"></path>
            <path d="M252.601143,12.2491707 L253.914476,12.2491707 L253.914476,14.8569756 C254.826857,13.2091707 256.352571,11.9194146 258.845905,11.9194146 C262.302095,11.9194146 264.311619,14.336 264.311619,17.6852683 L264.311619,26.2501463 L262.998286,26.2501463 L262.998286,17.9320976 C262.998286,15.0501463 261.419238,13.1545366 258.658286,13.1545366 C255.978286,13.1545366 253.914476,15.2413659 253.914476,18.1516098 L253.914476,26.2501463 L252.601143,26.2501463 L252.601143,12.2491707 Z" id="Fill-39" fill="#1E4166"></path>
            <path d="M264.42781,26.3679024 L262.884952,26.3679024 L262.884952,17.9327805 C262.884952,15.0576585 261.265905,13.2722927 258.657333,13.2722927 C256.02019,13.2722927 254.030667,15.3698537 254.030667,18.1522927 L254.030667,26.3679024 L252.485905,26.3679024 L252.485905,12.1308293 L254.030667,12.1308293 L254.030667,14.4342439 C255.129714,12.6879024 256.748762,11.8020488 258.846857,11.8020488 C262.235429,11.8020488 264.42781,14.1113171 264.42781,17.6859512 L264.42781,26.3679024 Z M263.113524,26.1327805 L264.196381,26.1327805 L264.196381,17.6859512 C264.196381,14.2547317 262.097333,12.0371707 258.846857,12.0371707 C256.696381,12.0371707 255.071619,13.0049756 254.015429,14.9152195 L253.799238,15.3025366 L253.799238,12.3669268 L252.716381,12.3669268 L252.716381,26.1327805 L253.799238,26.1327805 L253.799238,18.1522927 C253.799238,15.2361951 255.888762,13.0371707 258.657333,13.0371707 C261.405905,13.0371707 263.113524,14.9132683 263.113524,17.9327805 L263.113524,26.1327805 Z" id="Fill-40" fill="#1E4166"></path>
            <path d="M268.144381,22.6531707 L268.144381,13.4853659 L266.160571,13.4853659 L266.160571,12.2492683 L268.144381,12.2492683 L268.144381,7.77512195 L269.457714,7.77512195 L269.457714,12.2492683 L274.253905,12.2492683 L274.253905,13.4853659 L269.457714,13.4853659 L269.457714,22.5156098 C269.457714,24.5195122 270.609143,25.2346341 272.191048,25.2346341 C272.860571,25.2346341 273.424381,25.0970732 274.199619,24.7409756 L274.199619,26.0034146 C273.504381,26.3321951 272.833905,26.4970732 271.974857,26.4970732 C269.859619,26.4970732 268.144381,25.3165854 268.144381,22.6531707" id="Fill-41" fill="#1E4166"></path>
            <path d="M271.975238,26.6146341 C269.50381,26.6146341 268.028571,25.1346341 268.028571,22.6546341 L268.028571,13.6019512 L266.045714,13.6019512 L266.045714,12.1297561 L268.028571,12.1297561 L268.028571,7.65658537 L269.572381,7.65658537 L269.572381,12.1297561 L274.369524,12.1297561 L274.369524,13.6019512 L269.572381,13.6019512 L269.572381,22.5160976 C269.572381,24.2419512 270.452381,25.1170732 272.191429,25.1170732 C272.84381,25.1170732 273.394286,24.9804878 274.153333,24.6321951 L274.315238,24.5580488 L274.315238,26.0790244 L274.248571,26.1092683 C273.499048,26.4634146 272.819048,26.6146341 271.975238,26.6146341 L271.975238,26.6146341 Z M266.277143,13.3658537 L268.259048,13.3658537 L268.259048,22.6546341 C268.259048,24.9863415 269.648571,26.3785366 271.975238,26.3785366 C272.758095,26.3785366 273.394286,26.2439024 274.085714,25.9278049 L274.085714,24.92 C273.375238,25.2292683 272.830476,25.3521951 272.191429,25.3521951 C270.327619,25.3521951 269.340952,24.3707317 269.340952,22.5160976 L269.340952,13.3658537 L274.138095,13.3658537 L274.138095,12.3668293 L269.340952,12.3668293 L269.340952,7.89268293 L268.259048,7.89268293 L268.259048,12.3668293 L266.277143,12.3668293 L266.277143,13.3658537 Z" id="Fill-42" fill="#1E4166"></path>
            <path d="M275.192286,19.277561 L275.192286,19.2219512 C275.192286,15.1585366 277.979905,11.9195122 281.678,11.9195122 C285.508476,11.9195122 287.947524,15.104878 287.947524,19.2492683 C287.947524,19.4970732 287.947524,19.58 287.920857,19.7985366 L276.585619,19.7985366 C276.826571,23.2843902 279.264667,25.3165854 281.945619,25.3165854 C284.06181,25.3165854 285.508476,24.3556098 286.636095,23.1195122 L287.545619,23.9439024 C286.152286,25.4814634 284.517048,26.5790244 281.891333,26.5790244 C278.302762,26.5790244 275.192286,23.642439 275.192286,19.277561 L275.192286,19.277561 Z M286.527524,18.5907317 C286.340857,15.762439 284.758952,13.1546341 281.624667,13.1546341 C278.916095,13.1546341 276.826571,15.4882927 276.585619,18.5907317 L286.527524,18.5907317 Z" id="Fill-43" fill="#1E4166"></path>
            <path d="M281.891429,26.697561 C278.007619,26.697561 275.078095,23.5063415 275.078095,19.2780488 L275.078095,19.222439 C275.078095,15.0604878 277.97619,11.8009756 281.677143,11.8009756 C285.438095,11.8009756 288.061905,14.8634146 288.061905,19.2487805 C288.061905,19.5014634 288.061905,19.5863415 288.035238,19.8136585 L288.02381,19.9160976 L276.709524,19.9160976 C276.978095,23.0331707 279.11619,25.1990244 281.945714,25.1990244 C283.746667,25.1990244 285.209524,24.5131707 286.551429,23.04 L286.627619,22.9570732 L287.709524,23.9356098 L287.629524,24.0243902 C285.932381,25.8985366 284.21619,26.697561 281.891429,26.697561 L281.891429,26.697561 Z M281.677143,12.0370732 C278.10381,12.0370732 275.306667,15.1931707 275.306667,19.222439 L275.306667,19.2780488 C275.306667,23.3736585 278.138095,26.462439 281.891429,26.462439 C284.109524,26.462439 285.757143,25.7102439 287.381905,23.9521951 L286.640952,23.284878 C285.275238,24.7492683 283.78,25.4341463 281.945714,25.4341463 C278.951429,25.4341463 276.700952,23.12 276.472381,19.8058537 L276.461905,19.6809756 L287.819048,19.6809756 C287.832381,19.5395122 287.832381,19.4517073 287.832381,19.2487805 C287.832381,15.0019512 285.302857,12.0370732 281.677143,12.0370732 L281.677143,12.0370732 Z M286.650476,18.7082927 L276.461905,18.7082927 L276.472381,18.5804878 C276.721905,15.3697561 278.887619,13.0360976 281.625714,13.0360976 C285.05619,13.0360976 286.473333,16.0253659 286.640952,18.5834146 L286.650476,18.7082927 Z M276.711429,18.4721951 L286.40381,18.4721951 C286.202857,16.044878 284.842857,13.2721951 281.625714,13.2721951 C279.046667,13.2721951 276.99619,15.4526829 276.711429,18.4721951 L276.711429,18.4721951 Z" id="Fill-44" fill="#1E4166"></path>
            <path d="M290.172667,12.2491707 L291.486952,12.2491707 L291.486952,16.2296585 C292.558381,13.731122 294.835524,11.9194146 297.54219,12.0286829 L297.54219,13.5125854 L297.40981,13.5125854 C294.246952,13.5125854 291.486952,15.9555122 291.486952,20.5125854 L291.486952,26.2501463 L290.172667,26.2501463 L290.172667,12.2491707 Z" id="Fill-45" fill="#1E4166"></path>
            <path d="M291.602286,26.3679024 L290.057524,26.3679024 L290.057524,12.1308293 L291.602286,12.1308293 L291.602286,15.7093659 C292.790857,13.3513171 294.938476,11.906439 297.308952,11.906439 C297.388952,11.906439 297.468,11.9074146 297.548,11.9122927 L297.658476,11.9161951 L297.658476,13.6293659 L297.409905,13.6293659 C294.517524,13.6293659 291.602286,15.759122 291.602286,20.5122927 L291.602286,26.3679024 Z M290.288952,26.1327805 L291.37181,26.1327805 L291.37181,20.5122927 C291.37181,18.3376585 291.996571,16.5083902 293.178476,15.2225366 C294.262286,14.044 295.765143,13.3942439 297.409905,13.3942439 L297.427048,13.3942439 L297.427048,12.1435122 C294.948,12.0927805 292.703238,13.6849756 291.59181,16.2761951 L291.37181,16.7903415 L291.37181,12.3669268 L290.288952,12.3669268 L290.288952,26.1327805 Z" id="Fill-46" fill="#1E4166"></path>
        </g>
    </g>
</svg>