<?xml version="1.0" encoding="UTF-8" standalone="no"?>
<svg width="450px" height="40px" viewBox="0 0 450 40" version="1.1" xmlns="http://www.w3.org/2000/svg" xmlns:xlink="http://www.w3.org/1999/xlink">
    <!-- Generator: Sketch 3.6.1 (26313) - http://www.bohemiancoding.com/sketch -->
    <title>c-tattnall-d</title>
    <desc>Created with Sketch.</desc>
    <defs>
        <path id="path-1" d="M11.1913348,17.07 L11.1913348,0.76 L0.40913776,0.76 L0.40913776,17.07 L11.1913348,17.07 L11.1913348,17.07 Z"></path>
    </defs>
    <g id="Page-1" stroke="none" stroke-width="1" fill="none" fill-rule="evenodd">
        <g id="c-tattnall-d">
            <g id="Page-1" transform="translate(325.000000, 0.000000)">
                <path d="M20.2317646,13.7776364 L14.5479836,13.7776364 L14.5479836,12.6585455 L27.1246095,12.6585455 L27.1246095,13.7776364 L21.4399201,13.7776364 L21.4399201,28.9703636 L20.2317646,28.9703636 L20.2317646,13.7776364 Z" id="Fill-3" fill="#1E4166"></path>
                <path d="M32.1026642,12.5414545 L33.2681254,12.5414545 L40.8604287,28.9687273 L39.5305493,28.9687273 L37.4567005,24.4023636 L27.8414181,24.4023636 L25.7702945,28.9687273 L24.5130861,28.9687273 L32.1026642,12.5414545 Z M36.9470951,23.3069091 L32.6631393,13.8714545 L28.3528403,23.3069091 L36.9470951,23.3069091 Z" id="Fill-5" fill="#1E4166"></path>
                <path d="M43.9288711,13.7776364 L38.2459985,13.7776364 L38.2459985,12.6585455 L50.8217159,12.6585455 L50.8217159,13.7776364 L45.1388433,13.7776364 L45.1388433,28.9703636 L43.9288711,28.9703636 L43.9288711,13.7776364 Z" id="Fill-7" fill="#1E4166"></path>
                <path d="M58.5479155,13.7776364 L52.8659513,13.7776364 L52.8659513,12.6585455 L65.4407604,12.6585455 L65.4407604,13.7776364 L59.7578878,13.7776364 L59.7578878,28.9703636 L58.5479155,28.9703636 L58.5479155,13.7776364 Z" id="Fill-9" fill="#1E4166"></path>
                <path d="M67.7179972,12.6589091 L68.8598403,12.6589091 L80.1074952,26.8507273 L80.1074952,12.6589091 L81.2711397,12.6589091 L81.2711397,28.9689091 L80.3618437,28.9689091 L68.8816417,14.4752727 L68.8816417,28.9689091 L67.7179972,28.9689091 L67.7179972,12.6589091 Z" id="Fill-11" fill="#1E4166"></path>
                <path d="M90.4413122,12.5414545 L91.6049566,12.5414545 L99.1972599,28.9687273 L97.8673805,28.9687273 L95.7953485,24.4023636 L86.1782493,24.4023636 L84.1071257,28.9687273 L82.851734,28.9687273 L90.4413122,12.5414545 Z M95.285743,23.3069091 L90.9999705,13.8714545 L86.6923967,23.3069091 L95.285743,23.3069091 Z" id="Fill-13" fill="#1E4166"></path>
                <path d="M101.240405,12.6589091 L102.450377,12.6589091 L102.450377,27.8534545 L112.022966,27.8534545 L112.022966,28.9689091 L101.240405,28.9689091 L101.240405,12.6589091 Z" id="Fill-15" fill="#1E4166"></path>
                <g id="Group-19" transform="translate(113.377008, 11.898909)">
                    <mask id="mask-2" fill="white">
                        <use xlink:href="#path-1"></use>
                    </mask>
                    <g id="Clip-18"></g>
                    <path d="M0.40913776,0.76 L1.62092677,0.76 L1.62092677,15.9545455 L11.1916982,15.9545455 L11.1916982,17.07 L0.40913776,17.07 L0.40913776,0.76 Z" id="Fill-17" fill="#1E4166" mask="url(#mask-2)"></path>
                </g>
                <path d="M0.6633705,37.178 L2.09408092,37.178 L2.09408092,0.0243636364 L0.6633705,0.0243636364 L0.6633705,37.178 Z" id="Fill-46" fill="#1E4166"></path>
            </g>
            <path d="M135.555948,13.553904 L136.988593,13.553904 L136.988593,16.3235057 C137.954756,14.7088642 139.299723,13.1845647 141.959864,13.1845647 C144.564673,13.1845647 146.174378,14.7363211 146.995829,16.5334179 C147.957736,14.8000919 149.565737,13.1845647 152.375697,13.1845647 C155.915173,13.1845647 158.10798,15.7770253 158.10798,19.6723589 L158.10798,29.0750106 L156.677038,29.0750106 L156.677038,19.8503858 C156.677038,16.505961 155.007746,14.5582942 152.260779,14.5582942 C149.742796,14.5582942 147.548287,16.5688462 147.548287,20.0372697 L147.548287,29.0750106 L146.11479,29.0750106 L146.11479,19.7644723 C146.11479,16.5334179 144.417408,14.5582942 141.755565,14.5582942 C139.092871,14.5582942 136.988593,16.9939849 136.988593,20.1258402 L136.988593,29.0750106 L135.555948,29.0750106 L135.555948,13.553904 Z" id="Fill-13" fill="#1E4166"></path>
            <path d="M160.301213,21.3464312 L160.301213,21.2853176 C160.301213,16.778847 163.345265,13.1864247 167.379315,13.1864247 C171.563184,13.1864247 174.222473,16.7168476 174.222473,21.3163173 C174.222473,21.5873432 174.222473,21.6785709 174.194382,21.9256828 L161.819834,21.9256828 C162.084571,25.7873596 164.748968,28.0397092 167.670441,28.0397092 C169.983273,28.0397092 171.563184,26.9742052 172.790679,25.6066756 L173.787487,26.5180668 C172.262907,28.2248217 170.478698,29.4391242 167.610853,29.4391242 C163.695978,29.4391242 160.301213,26.1859272 160.301213,21.3464312 L160.301213,21.3464312 Z M172.675761,20.5864958 C172.46976,17.4502119 170.744286,14.5566114 167.323133,14.5566114 C164.366759,14.5566114 162.084571,17.1446434 161.819834,20.5864958 L172.675761,20.5864958 Z" id="Fill-14" fill="#1E4166"></path>
            <path d="M175.689764,21.3764567 L175.689764,21.3162287 C175.689764,16.262392 179.344158,13.1863361 182.943222,13.1863361 C185.925133,13.1863361 187.859162,14.9542047 189.088359,16.8983287 L189.088359,8.40529675 L190.519302,8.40529675 L190.519302,29.0750106 L189.088359,29.0750106 L189.088359,25.6065871 C187.799574,27.647253 185.896191,29.4390356 182.943222,29.4390356 C179.344158,29.4390356 175.689764,26.4249791 175.689764,21.3764567 M189.174335,21.3463427 L189.174335,21.285229 C189.174335,17.2951248 186.190721,14.622065 183.088785,14.622065 C179.840434,14.622065 177.241583,17.0852126 177.241583,21.2524579 L177.241583,21.3162287 C177.241583,25.3913606 179.959608,28.011278 183.088785,28.011278 C186.190721,28.011278 189.174335,25.3010186 189.174335,21.3463427" id="Fill-15" fill="#1E4166"></path>
            <path d="M193.967014,29.0750991 L195.397957,29.0750991 L195.397957,13.5539925 L193.967014,13.5539925 L193.967014,29.0750991 Z" id="Fill-16" fill="#1E4166"></path>
            <path d="M197.965652,21.3764567 L197.965652,21.3162287 C197.965652,16.9620995 201.301681,13.1863361 205.571526,13.1863361 C208.379783,13.1863361 210.134199,14.5264088 211.542158,16.0498226 L210.517259,17.1454406 C209.230177,15.7787967 207.770292,14.5901796 205.544286,14.5901796 C202.150372,14.5901796 199.517472,17.5386939 199.517472,21.2524579 L199.517472,21.3162287 C199.517472,25.0565638 202.238902,28.0396206 205.66346,28.0396206 C207.770292,28.0396206 209.405533,26.9156601 210.661971,25.4515886 L211.656225,26.368294 C210.134199,28.1636194 208.321047,29.4390356 205.571526,29.4390356 C201.274441,29.4390356 197.965652,25.7261573 197.965652,21.3764567" id="Fill-17" fill="#1E4166"></path>
            <path d="M212.711343,24.5698686 L212.711343,24.511412 C212.711343,21.2856718 215.374888,19.458461 219.234433,19.458461 C221.311471,19.458461 222.744967,19.7294869 224.177612,20.1245117 L224.177612,19.458461 C224.177612,16.3239485 222.334667,14.7075356 219.265929,14.7075356 C217.450223,14.7075356 215.958842,15.2283306 214.582379,15.9599235 L214.057161,14.6535076 C215.696659,13.8590296 217.304661,13.309892 219.353607,13.309892 C221.370206,13.309892 222.979059,13.884715 224.060992,15.0157612 C225.056948,16.0493798 225.582166,17.4789088 225.582166,19.398233 L225.582166,29.0754534 L224.177612,29.0754534 L224.177612,26.4909642 C223.151862,27.9780641 221.311471,29.4385928 218.47342,29.4385928 C215.696659,29.4385928 212.711343,27.7956087 212.711343,24.5698686 M224.207406,23.2616812 L224.207406,21.4946984 C222.949266,21.1625587 221.283379,20.7958766 219.149308,20.7958766 C215.986933,20.7958766 214.232518,22.2537482 214.232518,24.4201843 L214.232518,24.4786409 C214.232518,26.7318762 216.280613,28.0400635 218.561098,28.0400635 C221.602596,28.0400635 224.207406,26.0932824 224.207406,23.2616812" id="Fill-18" fill="#1E4166"></path>
            <path d="M228.288359,29.0750991 L229.723558,29.0750991 L229.723558,8.40538532 L228.288359,8.40538532 L228.288359,29.0750991 Z" id="Fill-19" fill="#1E4166"></path>
            <path d="M237.93305,21.3764567 L237.93305,21.3162287 C237.93305,16.9620995 241.268227,13.1863361 245.538072,13.1863361 C248.34718,13.1863361 250.100745,14.5264088 251.500192,16.0498226 L250.4804,17.1454406 C249.19502,15.7787967 247.730879,14.5901796 245.509981,14.5901796 C242.113514,14.5901796 239.483167,17.5386939 239.483167,21.2524579 L239.483167,21.3162287 C239.483167,25.0565638 242.202894,28.0396206 245.626601,28.0396206 C247.730879,28.0396206 249.371228,26.9156601 250.625963,25.4515886 L251.62192,26.368294 C250.100745,28.1636194 248.290147,29.4390356 245.538072,29.4390356 C241.240136,29.4390356 237.93305,25.7261573 237.93305,21.3764567" id="Fill-20" fill="#1E4166"></path>
            <path d="M252.444563,21.3464312 L252.444563,21.2853176 C252.444563,16.778847 255.488615,13.1864247 259.524367,13.1864247 C263.706533,13.1864247 266.368376,16.7168476 266.368376,21.3163173 C266.368376,21.5873432 266.368376,21.6785709 266.33688,21.9256828 L253.968291,21.9256828 C254.228772,25.7873596 256.89402,28.0397092 259.816344,28.0397092 C262.130879,28.0397092 263.706533,26.9742052 264.938285,25.6066756 L265.93339,26.5180668 C264.412215,28.2248217 262.624601,29.4391242 259.757608,29.4391242 C255.839328,29.4391242 252.444563,26.1859272 252.444563,21.3464312 L252.444563,21.3464312 Z M264.819962,20.5864958 C264.613109,17.4502119 262.889338,14.5566114 259.469036,14.5566114 C256.51096,14.5566114 254.228772,17.1446434 253.968291,20.5864958 L264.819962,20.5864958 Z" id="Fill-21" fill="#1E4166"></path>
            <path d="M268.502107,13.553904 L269.935603,13.553904 L269.935603,16.4457331 C270.929857,14.6202936 272.594893,13.1845647 275.317174,13.1845647 C279.08904,13.1845647 281.28355,15.8655958 281.28355,19.5793598 L281.28355,29.0750106 L279.851756,29.0750106 L279.851756,19.8503858 C279.851756,16.6583024 278.122877,14.5582942 275.110321,14.5582942 C272.187997,14.5582942 269.935603,16.8699861 269.935603,20.0948405 L269.935603,29.0750106 L268.502107,29.0750106 L268.502107,13.553904 Z" id="Fill-22" fill="#1E4166"></path>
            <path d="M284.724878,25.0902207 L284.724878,14.9214336 L282.55931,14.9214336 L282.55931,13.553904 L284.724878,13.553904 L284.724878,8.28041225 L286.154969,8.28041225 L286.154969,13.553904 L291.394382,13.553904 L291.394382,14.9214336 L286.154969,14.9214336 L286.154969,24.9361079 C286.154969,27.1583434 287.416514,27.9475072 289.140285,27.9475072 C289.87491,27.9475072 290.488657,27.7960516 291.333092,27.3992554 L291.333092,28.7995561 C290.573782,29.1662383 289.841711,29.3478079 288.907895,29.3478079 C286.597617,29.3478079 284.724878,28.0396206 284.724878,25.0902207" id="Fill-23" fill="#1E4166"></path>
            <path d="M291.674782,21.3464312 L291.674782,21.2853176 C291.674782,16.778847 294.718834,13.1864247 298.754586,13.1864247 C302.939306,13.1864247 305.596893,16.7168476 305.596893,21.3163173 C305.596893,21.5873432 305.596893,21.6785709 305.567951,21.9256828 L293.197659,21.9256828 C293.460694,25.7873596 296.121685,28.0397092 299.049968,28.0397092 C301.357693,28.0397092 302.939306,26.9742052 304.168504,25.6066756 L305.161907,26.5180668 C303.642435,28.2248217 301.856523,29.4391242 298.988678,29.4391242 C295.070398,29.4391242 291.674782,26.1859272 291.674782,21.3464312 L291.674782,21.3464312 Z M304.051883,20.5864958 C303.845031,17.4502119 302.117855,14.5566114 298.699255,14.5566114 C295.741179,14.5566114 293.460694,17.1446434 293.197659,20.5864958 L304.051883,20.5864958 Z" id="Fill-24" fill="#1E4166"></path>
            <path d="M307.733943,13.553904 L309.164886,13.553904 L309.164886,17.9691469 C310.334497,15.1951166 312.823537,13.1845647 315.774803,13.3085635 L315.774803,14.953319 L315.633496,14.953319 C312.179144,14.953319 309.164886,17.6600356 309.164886,22.7165294 L309.164886,29.0750106 L307.733943,29.0750106 L307.733943,13.553904 Z" id="Fill-25" fill="#1E4166"></path>
            <path d="M48.7507555,21.1775272 L48.7507555,21.1146421 C48.7507555,16.6993992 52.3464141,13.0458632 57.2010641,13.0458632 C62.052309,13.0458632 65.6164716,16.6418283 65.6164716,21.0552998 L65.6164716,21.1146421 C65.6164716,25.5015424 62.0225154,29.1568498 57.1372207,29.1568498 C52.3149181,29.1568498 48.7507555,25.5591132 48.7507555,21.1775272 M61.9910194,21.1775272 L61.9910194,21.1146421 C61.9910194,18.3981827 59.9837838,16.1476045 57.1372207,16.1476045 C54.2327729,16.1476045 52.3779102,18.3654116 52.3779102,21.0552998 L52.3779102,21.1146421 C52.3779102,23.8080731 54.382592,26.0816796 57.2010641,26.0816796 C60.1353054,26.0816796 61.9910194,23.8337585 61.9910194,21.1775272" id="Fill-26" fill="#1E4166"></path>
            <path d="M67.2674612,13.3658686 L70.8929134,13.3658686 L70.8929134,15.9423865 C72.0633752,14.3330593 73.7079804,13.0461289 76.2557565,13.0461289 C80.0020856,13.0461289 83.6275378,15.9423865 83.6275378,21.0546798 L83.6275378,21.1149078 C83.6275378,26.2342867 80.0318791,29.1278872 76.2557565,29.1278872 C73.6492445,29.1278872 72.0029368,27.8391854 70.8929134,26.4052279 L70.8929134,33.4837878 L67.2674612,33.4837878 L67.2674612,13.3658686 Z M79.9390934,21.1149078 L79.9390934,21.0546798 C79.9390934,18.0751658 77.8731219,16.1177562 75.419834,16.1177562 C72.9588849,16.1177562 70.8026814,18.1070512 70.8026814,21.0546798 L70.8026814,21.1149078 C70.8026814,24.099736 72.9588849,26.0562599 75.419834,26.0562599 C77.904618,26.0562599 79.9390934,24.1581925 79.9390934,21.1149078 L79.9390934,21.1149078 Z" id="Fill-27" fill="#1E4166"></path>
            <path d="M86.0695041,24.538426 L86.0695041,16.4103048 L84.0614173,16.4103048 L84.0614173,13.3661344 L86.0695041,13.3661344 L86.0695041,9.13068972 L89.6941051,9.13068972 L89.6941051,13.3661344 L93.9477761,13.3661344 L93.9477761,16.4103048 L89.6941051,16.4103048 L89.6941051,23.9822028 C89.6941051,25.3559324 90.4125559,25.9130412 91.6417536,25.9130412 C92.449585,25.9130412 93.168887,25.7341287 93.8864865,25.3860464 L93.8864865,28.2778754 C92.9892743,28.7756421 91.9703341,29.0652678 90.6219621,29.0652678 C87.9550117,29.0652678 86.0695041,27.9280217 86.0695041,24.538426" id="Fill-28" fill="#1E4166"></path>
            <path d="M96.3147478,28.8058446 L99.9402,28.8058446 L99.9402,13.3662229 L96.3147478,13.3662229 L96.3147478,28.8058446 Z" id="Fill-29" fill="#1E4166"></path>
            <path d="M102.669376,13.3658686 L106.293977,13.3658686 L106.293977,15.7076745 C107.311215,14.3330593 108.689381,13.0461289 111.117131,13.0461289 C113.394212,13.0461289 114.980081,14.1275755 115.819408,15.7661311 C117.109044,14.1275755 118.7877,13.0461289 121.182252,13.0461289 C124.630645,13.0461289 126.727261,15.1815653 126.727261,18.9529002 L126.727261,28.8054903 L123.10266,28.8054903 L123.10266,20.0316897 C123.10266,17.5791706 121.931347,16.2621263 119.893467,16.2621263 C117.916876,16.2621263 116.508066,17.6057418 116.508066,20.0928034 L116.508066,28.8054903 L112.883465,28.8054903 L112.883465,20.0042328 C112.883465,17.6057418 111.685763,16.2621263 109.676825,16.2621263 C107.672143,16.2621263 106.293977,17.722655 106.293977,20.1202603 L106.293977,28.8054903 L102.669376,28.8054903 L102.669376,13.3658686 Z" id="Fill-30" fill="#1E4166"></path>
            <g id="graphic" transform="translate(0.000000, 1.000000)">
                <path d="M22.5116279,0.65 C17.9534884,-0.371428571 13.3023256,1.20714286 10.6976744,5.47857143 C10.5116279,5.75714286 10.6976744,5.85 10.8837209,5.66428571 C11.0697674,5.47857143 11.3488372,5.2 11.9069767,4.64285714 C14.6976744,1.76428571 17.3953488,1.48571429 20.2790698,1.95 C26.0465116,2.97142857 29.4883721,10.4 27.9069767,18.2 C27.4418605,20.7071429 26.5116279,22.9357143 25.2093023,24.7928571 C28,24.8857143 30.5116279,24.2357143 32.6511628,23.2142857 C34.6046512,12.0714286 30.1395349,2.32142857 22.5116279,0.65" id="logo-color" fill="#90BEDC"></path>
                <path d="M39.1627907,21.8214286 C40.1860465,17.3642857 38.6046512,12.7214286 34.2325581,10.2142857 C33.9534884,10.1214286 33.8604651,10.2142857 34.0465116,10.4 C34.2325581,10.5857143 34.5116279,10.8642857 35.0697674,11.4214286 C37.9534884,14.2071429 38.2325581,16.9 37.7674419,19.6857143 C36.744186,25.35 29.2093023,28.7857143 21.3953488,27.2071429 C18.8837209,26.7428571 16.6511628,25.8142857 14.6976744,24.6071429 C14.6046512,27.3 15.255814,29.9 16.372093,31.9428571 C27.627907,33.8 37.4883721,29.3428571 39.1627907,21.8214286" id="logo-color" fill="#508FBB"></path>
                <path d="M17.3953488,38.0714286 C21.9534884,39.0928571 26.6046512,37.5142857 29.2093023,33.2428571 C29.3023256,32.9642857 29.2093023,32.8714286 29.0232558,33.0571429 C28.8372093,33.2428571 28.5581395,33.5214286 28,34.0785714 C25.2093023,36.9571429 22.5116279,37.2357143 19.627907,36.7714286 C13.8604651,35.75 10.5116279,28.3214286 12,20.5214286 C12.4651163,18.0142857 13.3953488,15.7857143 14.6046512,13.9285714 C11.8139535,13.8357143 9.30232558,14.4857143 7.1627907,15.5071429 C5.30232558,26.5571429 9.86046512,36.4 17.3953488,38.0714286" id="logo-color" fill="#1E4166"></path>
                <path d="M0.744186047,17.1785714 C-0.279069767,21.6357143 1.30232558,26.2785714 5.6744186,28.7857143 C5.95348837,28.8785714 6.04651163,28.7857143 5.86046512,28.6 C5.6744186,28.4142857 5.39534884,28.1357143 4.8372093,27.5785714 C1.95348837,24.7928571 1.6744186,22.1 2.13953488,19.3142857 C3.1627907,13.65 10.6976744,10.2142857 18.5116279,11.7928571 C21.0232558,12.2571429 23.255814,13.1857143 25.2093023,14.3928571 C25.3023256,11.6071429 24.6511628,9.1 23.5348837,7.05714286 C12.372093,5.2 2.41860465,9.65714286 0.744186047,17.1785714" id="logo-color" fill="#508FBB"></path>
            </g>
        </g>
    </g>
</svg>