<?xml version="1.0" encoding="UTF-8" standalone="no"?>
<svg width="156px" height="27px" viewBox="0 0 156 27" version="1.1" xmlns="http://www.w3.org/2000/svg" xmlns:xlink="http://www.w3.org/1999/xlink">
    <!-- Generator: Sketch 3.6.1 (26313) - http://www.bohemiancoding.com/sketch -->
    <title>c-therapy-m</title>
    <desc>Created with Sketch.</desc>
    <defs></defs>
    <g id="Page-1" stroke="none" stroke-width="1" fill="none" fill-rule="evenodd">
        <g id="c-therapy-m">
            <path d="M91.8214767,15.916814 L91.8214767,9.15739535 L90.3502672,9.15739535 L90.3502672,8.24630233 L91.8214767,8.24630233 L91.8214767,5.07411628 L92.7963225,5.07411628 L92.7963225,8.24630233 L96.3534925,8.24630233 L96.3534925,9.15739535 L92.7963225,9.15739535 L92.7963225,15.8163488 C92.7963225,17.293186 93.6503146,17.8187442 94.8237059,17.8187442 C95.3200696,17.8187442 95.7362751,17.7182791 96.3146466,17.455186 L96.3146466,18.3863721 C95.7954688,18.63 95.3003383,18.751186 94.6640063,18.751186 C93.0941407,18.751186 91.8214767,17.8802791 91.8214767,15.916814 L91.8214767,15.916814 Z" id="Fill-1" fill="#1E4166"></path>
            <path d="M98.0410672,4.93214651 L99.0134466,4.93214651 L99.0134466,10.1688907 C99.6904743,8.9545186 100.822553,8.00449535 102.671739,8.00449535 C105.234949,8.00449535 106.727739,9.78586744 106.727739,12.2541698 L106.727739,18.5684023 L105.752893,18.5684023 L105.752893,12.4356349 C105.752893,10.3107977 104.579502,8.91433256 102.532387,8.91433256 C100.5457,8.91433256 99.0134466,10.4520767 99.0134466,12.5982628 L99.0134466,18.5684023 L98.0410672,18.5684023 L98.0410672,4.93214651 Z" id="Fill-3" fill="#1E4166"></path>
            <path d="M107.936215,13.4278535 L107.936215,13.3870395 C107.936215,10.3919233 110.003061,8.00399302 112.745701,8.00399302 C115.587614,8.00399302 117.396104,10.3523651 117.396104,13.4077605 C117.396104,13.5898535 117.396104,13.6501326 117.376373,13.8121326 L108.969638,13.8121326 C109.148452,16.3834116 110.956942,17.8803419 112.944863,17.8803419 C114.515962,17.8803419 115.587614,17.1726907 116.424342,16.2615977 L117.09767,16.8681558 C116.064863,18.0009 114.851393,18.8121558 112.905401,18.8121558 C110.242919,18.8121558 107.936215,16.6452488 107.936215,13.4278535 L107.936215,13.4278535 Z M116.342334,12.9205047 C116.202365,10.8377372 115.03144,8.91445814 112.706855,8.91445814 C110.698587,8.91445814 109.148452,10.6355512 108.969638,12.9205047 L116.342334,12.9205047 Z" id="Fill-5" fill="#1E4166"></path>
            <path d="M119.04582,8.24642791 L120.018816,8.24642791 L120.018816,11.1812651 C120.813614,9.33835814 122.503717,8.00405581 124.509519,8.08442791 L124.509519,9.17761395 L124.412096,9.17761395 C122.06593,9.17761395 120.018816,10.9790791 120.018816,14.3377535 L120.018816,18.5685907 L119.04582,18.5685907 L119.04582,8.24642791 Z" id="Fill-7" fill="#1E4166"></path>
            <path d="M124.865668,15.5728465 L124.865668,15.5332884 C124.865668,13.3871023 126.674775,12.1733581 129.297794,12.1733581 C130.709194,12.1733581 131.68404,12.3548233 132.657652,12.6191721 L132.657652,12.1733581 C132.657652,10.088707 131.405336,9.01686977 129.319375,9.01686977 C128.086791,9.01686977 127.072482,9.36033488 126.139565,9.84570698 L125.78132,8.97354419 C126.894285,8.44924186 127.986285,8.08442791 129.379186,8.08442791 C130.748656,8.08442791 131.843739,8.46933488 132.577494,9.21842791 C133.252672,9.90661395 133.611534,10.857893 133.611534,12.1325442 L133.611534,18.5685907 L132.657652,18.5685907 L132.657652,16.8481256 C131.96151,17.8402186 130.709194,18.8115907 128.7817,18.8115907 C126.894285,18.8115907 124.865668,17.7184047 124.865668,15.5728465 M132.677383,14.7031953 L132.677383,13.5283814 C131.822158,13.3061023 130.690079,13.0637302 129.239834,13.0637302 C127.092213,13.0637302 125.900941,14.0351023 125.900941,15.4723814 L125.900941,15.5119395 C125.900941,17.0101256 127.290759,17.8804047 128.840893,17.8804047 C130.907739,17.8804047 132.677383,16.5850326 132.677383,14.7031953" id="Fill-9" fill="#1E4166"></path>
            <path d="M135.518865,8.24642791 L136.490628,8.24642791 L136.490628,10.5533581 C137.364351,9.19770698 138.657979,8.00405581 140.665632,8.00405581 C143.109221,8.00405581 145.594122,10.0070791 145.594122,13.3663814 L145.594122,13.4084512 C145.594122,16.7664977 143.109221,18.8115907 140.665632,18.8115907 C138.638248,18.8115907 137.327355,17.6380326 136.490628,16.3426605 L136.490628,21.806707 L135.518865,21.806707 L135.518865,8.24642791 Z M144.540351,13.4480093 L144.540351,13.4084512 C144.540351,10.6946372 142.692398,8.95533488 140.565126,8.95533488 C138.459434,8.95533488 136.430817,10.7555442 136.430817,13.3871023 L136.430817,13.4279163 C136.430817,16.0795674 138.459434,17.8609395 140.565126,17.8609395 C142.77194,17.8609395 144.540351,16.2208465 144.540351,13.4480093 L144.540351,13.4480093 Z" id="Fill-11" fill="#1E4166"></path>
            <path d="M145.771703,21.4220512 L146.108367,20.5517721 C146.646043,20.8142372 147.081979,20.9366791 147.838549,20.9366791 C148.891086,20.9366791 149.585995,20.3087721 150.341948,18.507307 L145.473268,8.24667907 L146.605347,8.24667907 L150.819197,17.4756558 L154.475023,8.24667907 L155.547908,8.24667907 L151.155861,18.9336558 C150.262406,21.0980512 149.22775,21.8672372 147.778122,21.8672372 C147.001821,21.8672372 146.445647,21.7253302 145.771703,21.4220512" id="Fill-13" fill="#1E4166"></path>
            <path d="M32.5712585,13.4021093 L32.5712585,13.3631791 C32.5712585,10.2977372 34.9457881,7.76350465 38.1545787,7.76350465 C41.3615194,7.76350465 43.7150846,10.258807 43.7150846,13.3223651 L43.7150846,13.3631791 C43.7150846,16.4047605 41.3405549,18.9396209 38.1144996,18.9396209 C34.9266735,18.9396209 32.5712585,16.4462023 32.5712585,13.4021093 M41.3195905,13.4021093 L41.3195905,13.3631791 C41.3195905,11.4775744 39.9932822,9.91408605 38.1144996,9.91408605 C36.1937881,9.91408605 34.9673692,11.4543419 34.9673692,13.3223651 L34.9673692,13.3631791 C34.9673692,15.2280628 36.2930609,16.8097605 38.1545787,16.8097605 C40.0944047,16.8097605 41.3195905,15.2481558 41.3195905,13.4021093" id="Fill-15" fill="#1E4166"></path>
            <path d="M44.8231779,8.0115907 L47.2797154,8.0115907 L47.2797154,9.71949767 C48.0732806,8.6508 49.1905613,7.7955907 50.9170435,7.7955907 C53.4562055,7.7955907 55.9152095,9.71949767 55.9152095,13.112707 L55.9152095,13.1516372 C55.9152095,16.547986 53.4759368,18.6634047 50.9170435,18.6634047 C49.1480158,18.6634047 48.032585,17.8100791 47.2797154,16.8606837 L47.2797154,20.8202651 L44.8231779,20.8202651 L44.8231779,8.0115907 Z M53.4148933,13.1516372 L53.4148933,13.112707 C53.4148933,11.1354279 52.0133597,9.83440465 50.3485375,9.83440465 C48.6830988,9.83440465 47.2174387,11.154893 47.2174387,13.112707 L47.2174387,13.1516372 C47.2174387,15.1301721 48.6830988,16.4299395 50.3485375,16.4299395 C52.0355573,16.4299395 53.4148933,15.1684744 53.4148933,13.1516372 L53.4148933,13.1516372 Z" id="Fill-17" fill="#1E4166"></path>
            <path d="M57.5694877,15.9321349 L57.5694877,10.0285535 L56.2092664,10.0285535 L56.2092664,8.01171628 L57.5694877,8.01171628 L57.5694877,5.4843907 L60.0266419,5.4843907 L60.0266419,8.01171628 L62.911717,8.01171628 L62.911717,10.0285535 L60.0266419,10.0285535 L60.0266419,15.5622977 C60.0266419,16.4733907 60.5149897,16.8426 61.3480174,16.8426 C61.8949423,16.8426 62.3832901,16.7264372 62.8716379,16.4953674 L62.8716379,18.415507 C62.2624364,18.7445302 61.5712269,18.9391814 60.6580411,18.9391814 C58.8501676,18.9391814 57.5694877,18.1812977 57.5694877,15.9321349" id="Fill-19" fill="#1E4166"></path>
            <path d="M64.5149407,18.8333163 L66.9727115,18.8333163 L66.9727115,7.98685116 L64.5149407,7.98685116 L64.5149407,18.8333163 Z" id="Fill-21" fill="#1E4166"></path>
            <path d="M68.8236237,7.98703953 L71.2820111,7.98703953 L71.2820111,9.65601628 C71.9713708,8.74366744 72.9049043,7.88971395 74.5524617,7.88971395 C76.0945802,7.88971395 77.173015,8.60615581 77.7415209,9.69494651 C78.6158609,8.60615581 79.7510229,7.88971395 81.375766,7.88971395 C83.7120664,7.88971395 85.1345644,9.3069 85.1345644,11.810993 L85.1345644,18.8730628 L82.6786435,18.8730628 L82.6786435,12.5280628 C82.6786435,10.8973884 81.8844617,10.0258535 80.5038925,10.0258535 C79.1646356,10.0258535 78.2082877,10.9181093 78.2082877,12.5651093 L78.2082877,18.8730628 L75.7499004,18.8730628 L75.7499004,12.5085977 C75.7499004,10.9181093 74.9372206,10.0258535 73.575766,10.0258535 C72.2143115,10.0258535 71.2820111,10.994714 71.2820111,12.5864581 L71.2820111,18.8730628 L68.8236237,18.8730628 L68.8236237,7.98703953 Z" id="Fill-23" fill="#1E4166"></path>
            <g id="graphic">
                <path d="M15.1953488,0.455625 C12.1186047,-0.260357143 8.97906977,0.846160714 7.22093023,3.84026786 C7.09534884,4.03553571 7.22093023,4.100625 7.34651163,3.97044643 L8.0372093,3.25446429 C9.92093023,1.23669643 11.7418605,1.04142857 13.6883721,1.366875 C17.5813953,2.08285714 19.9046512,7.29 18.8372093,12.7575 C18.5232558,14.5149107 17.8953488,16.0770536 17.0162791,17.3788393 C18.9,17.4439286 20.5953488,16.9883036 22.0395349,16.2723214 C23.3581395,8.46160714 20.344186,1.62723214 15.1953488,0.455625" id="logo-color" fill="#90BEDC"></path>
                <path d="M26.4348837,15.2959821 C27.1255814,12.1716964 26.0581395,8.91723214 23.1069767,7.15982143 C22.9186047,7.09473214 22.855814,7.15982143 22.9813953,7.29 C23.1069767,7.42017857 23.2953488,7.61544643 23.672093,8.00598214 C25.6186047,9.95866071 25.8069767,11.84625 25.4930233,13.7989286 C24.8023256,17.769375 19.7162791,20.1776786 14.4418605,19.0711607 C12.7465116,18.7457143 11.2395349,18.0948214 9.92093023,17.2486607 C9.85813953,19.13625 10.2976744,20.95875 11.0511628,22.3907143 C18.6488372,23.6925 25.3046512,20.5682143 26.4348837,15.2959821" id="logo-color" fill="#508FBB"></path>
                <path d="M11.7418605,26.6866071 C14.8186047,27.4025893 17.9581395,26.2960714 19.7162791,23.3019643 C19.7790698,23.1066964 19.7162791,23.0416071 19.5906977,23.1717857 C19.4651163,23.3019643 19.2767442,23.4972321 18.9,23.8877679 C17.0162791,25.9055357 15.1953488,26.1008036 13.2488372,25.7753571 C9.35581395,25.059375 7.09534884,19.8522321 8.1,14.3847321 C8.41395349,12.6273214 9.04186047,11.0651786 9.85813953,9.76339286 C7.9744186,9.69830357 6.27906977,10.1539286 4.83488372,10.8699107 C3.57906977,18.6155357 6.65581395,25.515 11.7418605,26.6866071" id="logo-color" fill="#1E4166"></path>
                <path d="M0.502325581,12.0415179 C-0.188372093,15.1658036 0.879069767,18.4202679 3.83023256,20.1776786 C4.01860465,20.2427679 4.08139535,20.1776786 3.95581395,20.0475 C3.83023256,19.9173214 3.64186047,19.7220536 3.26511628,19.3315179 C1.31860465,17.3788393 1.13023256,15.49125 1.44418605,13.5385714 C2.13488372,9.568125 7.22093023,7.15982143 12.4953488,8.26633929 C14.1906977,8.59178571 15.6976744,9.24267857 17.0162791,10.0888393 C17.0790698,8.13616071 16.6395349,6.37875 15.8860465,4.94678571 C8.35116279,3.645 1.63255814,6.76928571 0.502325581,12.0415179" id="logo-color" fill="#508FBB"></path>
            </g>
        </g>
    </g>
</svg>