<?xml version="1.0" encoding="UTF-8" standalone="no"?>
<svg width="228px" height="39px" viewBox="0 0 228 39" version="1.1" xmlns="http://www.w3.org/2000/svg" xmlns:xlink="http://www.w3.org/1999/xlink">
    <!-- Generator: Sketch 3.6.1 (26313) - http://www.bohemiancoding.com/sketch -->
    <title>c-therapy-d</title>
    <desc>Created with Sketch.</desc>
    <defs></defs>
    <g id="Page-1" stroke="none" stroke-width="1" fill="none" fill-rule="evenodd">
        <g id="c-therapy-d">
            <path d="M134.20062,22.9909535 L134.20062,13.2273488 L132.050391,13.2273488 L132.050391,11.9113256 L134.20062,11.9113256 L134.20062,7.32927907 L135.625394,7.32927907 L135.625394,11.9113256 L140.824335,11.9113256 L140.824335,13.2273488 L135.625394,13.2273488 L135.625394,22.8458372 C135.625394,24.9790465 136.873537,25.738186 138.588493,25.738186 C139.313948,25.738186 139.922248,25.5930698 140.76756,25.2130465 L140.76756,26.558093 C140.008762,26.91 139.28511,27.0850465 138.355086,27.0850465 C136.060667,27.0850465 134.20062,25.8270698 134.20062,22.9909535 L134.20062,22.9909535 Z" id="Fill-1" fill="#1E4166"></path>
            <path d="M143.290791,7.12421163 L144.71196,7.12421163 L144.71196,14.6883977 C145.701462,12.9343047 147.35604,11.5620488 150.058696,11.5620488 C153.804925,11.5620488 155.986696,14.1351419 155.986696,17.7004674 L155.986696,26.8210256 L154.561921,26.8210256 L154.561921,17.9625837 C154.561921,14.8933744 152.846964,12.8762581 149.855028,12.8762581 C146.951407,12.8762581 144.71196,15.0974442 144.71196,18.1974907 L144.71196,26.8210256 L143.290791,26.8210256 L143.290791,7.12421163 Z" id="Fill-3" fill="#1E4166"></path>
            <path d="M157.75293,19.3957884 L157.75293,19.3368349 C157.75293,15.0105558 160.773704,11.5613233 164.782179,11.5613233 C168.935744,11.5613233 171.578922,14.9534163 171.578922,19.3667651 C171.578922,19.6297884 171.578922,19.7168581 171.550084,19.9508581 L159.263317,19.9508581 C159.524661,23.6649279 162.167839,25.8271605 165.073262,25.8271605 C167.369483,25.8271605 168.935744,24.8049977 170.158653,23.4889744 L171.142748,24.365114 C169.633262,26.0013 167.859728,27.173114 165.015586,27.173114 C161.124266,27.173114 157.75293,24.0431372 157.75293,19.3957884 L157.75293,19.3957884 Z M170.038795,18.6629512 C169.834226,15.6545093 168.122874,12.8764395 164.725404,12.8764395 C161.790242,12.8764395 159.524661,15.3624628 159.263317,18.6629512 L170.038795,18.6629512 Z" id="Fill-5" fill="#1E4166"></path>
            <path d="M173.990044,11.911507 L175.412115,11.911507 L175.412115,16.1507163 C176.573744,13.4887395 179.043894,11.561414 181.975451,11.677507 L181.975451,13.2565535 L181.833064,13.2565535 C178.404052,13.2565535 175.412115,15.8586698 175.412115,20.7100884 L175.412115,26.8212977 L173.990044,26.8212977 L173.990044,11.911507 Z" id="Fill-7" fill="#1E4166"></path>
            <path d="M182.495976,22.4941116 L182.495976,22.4369721 C182.495976,19.3369256 185.140055,17.5837395 188.9737,17.5837395 C191.036514,17.5837395 192.461289,17.8458558 193.884261,18.227693 L193.884261,17.5837395 C193.884261,14.5725767 192.053953,13.0243674 189.005241,13.0243674 C187.203771,13.0243674 185.72132,13.5204837 184.357826,14.2215767 L183.834237,12.961786 C185.460877,12.2044605 187.056877,11.677507 189.092656,11.677507 C191.09419,11.677507 192.694696,12.2334837 193.767107,13.315507 C194.753905,14.3095535 195.278395,15.6836233 195.278395,17.524786 L195.278395,26.8212977 L193.884261,26.8212977 L193.884261,24.3361814 C192.866822,25.7692047 191.036514,27.1722977 188.219407,27.1722977 C185.460877,27.1722977 182.495976,25.5932512 182.495976,22.4941116 M193.913099,21.2379488 L193.913099,19.5409953 C192.663154,19.2199256 191.008577,18.8698326 188.888988,18.8698326 C185.750158,18.8698326 184.009067,20.2729256 184.009067,22.3489953 L184.009067,22.4061349 C184.009067,24.5701814 186.04034,25.8272512 188.305921,25.8272512 C191.326696,25.8272512 193.913099,23.9561581 193.913099,21.2379488" id="Fill-9" fill="#1E4166"></path>
            <path d="M198.066033,11.911507 L199.486302,11.911507 L199.486302,15.2437395 C200.763282,13.2855767 202.65397,11.561414 205.588231,11.561414 C209.15963,11.561414 212.791409,14.4546698 212.791409,19.3069953 L212.791409,19.3677628 C212.791409,24.2182744 209.15963,27.1722977 205.588231,27.1722977 C202.625132,27.1722977 200.709211,25.4771581 199.486302,23.6060651 L199.486302,31.4985767 L198.066033,31.4985767 L198.066033,11.911507 Z M211.251282,19.4249023 L211.251282,19.3677628 C211.251282,15.4478093 208.550428,12.9354837 205.441338,12.9354837 C202.363788,12.9354837 199.398887,15.535786 199.398887,19.3369256 L199.398887,19.3958791 C199.398887,23.2260419 202.363788,25.7991349 205.441338,25.7991349 C208.666681,25.7991349 211.251282,23.4301116 211.251282,19.4249023 L211.251282,19.4249023 Z" id="Fill-11" fill="#1E4166"></path>
            <path d="M213.05095,30.9429628 L213.542998,29.685893 C214.328832,30.0650093 214.96597,30.2418698 216.071725,30.2418698 C217.610049,30.2418698 218.625685,29.334893 219.730539,26.7327767 L212.614776,11.9118698 L214.269353,11.9118698 L220.428057,25.242614 L225.771187,11.9118698 L227.339251,11.9118698 L220.920104,27.348614 C219.614286,30.4749628 218.102096,31.5860093 215.983409,31.5860093 C214.848816,31.5860093 214.035946,31.3810326 213.05095,30.9429628" id="Fill-13" fill="#1E4166"></path>
            <path d="M47.604147,19.3586023 L47.604147,19.3023698 C47.604147,14.8745093 51.0746134,11.2139512 55.7643842,11.2139512 C60.4514514,11.2139512 63.8912775,14.8182767 63.8912775,19.2434163 L63.8912775,19.3023698 C63.8912775,23.6957651 60.4208111,27.3572302 55.7058071,27.3572302 C51.0466767,27.3572302 47.604147,23.7556256 47.604147,19.3586023 M60.3901708,19.3586023 L60.3901708,19.3023698 C60.3901708,16.5787186 58.4517202,14.3203465 55.7058071,14.3203465 C52.8986134,14.3203465 51.1061549,16.5451605 51.1061549,19.2434163 L51.1061549,19.3023698 C51.1061549,21.9960907 53.0437043,24.2807651 55.7643842,24.2807651 C58.5995146,24.2807651 60.3901708,22.025114 60.3901708,19.3586023" id="Fill-15" fill="#1E4166"></path>
            <path d="M65.5107984,11.5722977 L69.1011225,11.5722977 L69.1011225,14.0392744 C70.2609486,12.4956 71.8938972,11.2602977 74.4172174,11.2602977 C78.1283004,11.2602977 81.7222292,14.0392744 81.7222292,18.9405767 L81.7222292,18.9968093 C81.7222292,23.9026465 78.1571383,26.9582512 74.4172174,26.9582512 C71.8317154,26.9582512 70.2014704,25.7256698 69.1011225,24.3543209 L69.1011225,30.0737163 L65.5107984,30.0737163 L65.5107984,11.5722977 Z M78.0679209,18.9968093 L78.0679209,18.9405767 C78.0679209,16.084507 76.0195257,14.2052512 73.5863241,14.2052512 C71.1522213,14.2052512 69.0101028,16.1126233 69.0101028,18.9405767 L69.0101028,18.9968093 C69.0101028,21.854693 71.1522213,23.7321349 73.5863241,23.7321349 C76.0519684,23.7321349 78.0679209,21.9100186 78.0679209,18.9968093 L78.0679209,18.9968093 Z" id="Fill-17" fill="#1E4166"></path>
            <path d="M84.1400206,23.0130837 L84.1400206,14.4856884 L82.1520047,14.4856884 L82.1520047,11.5724791 L84.1400206,11.5724791 L84.1400206,7.92189767 L87.7312458,7.92189767 L87.7312458,11.5724791 L91.9478941,11.5724791 L91.9478941,14.4856884 L87.7312458,14.4856884 L87.7312458,22.4788744 C87.7312458,23.7948977 88.444985,24.3282 89.662487,24.3282 C90.4618387,24.3282 91.1755779,24.1604093 91.889317,23.8266419 L91.889317,26.6001767 C90.9989455,27.0754326 89.9887162,27.3565953 88.6540601,27.3565953 C86.0117834,27.3565953 84.1400206,26.2618744 84.1400206,23.0130837" id="Fill-19" fill="#1E4166"></path>
            <path d="M94.2910672,27.2036791 L97.8831937,27.2036791 L97.8831937,11.5365628 L94.2910672,11.5365628 L94.2910672,27.2036791 Z" id="Fill-21" fill="#1E4166"></path>
            <path d="M100.588373,11.5368349 L104.181401,11.5368349 L104.181401,13.9475791 C105.188926,12.6297419 106.553322,11.3962535 108.96129,11.3962535 C111.215156,11.3962535 112.79133,12.431114 113.622223,14.0038116 C114.900104,12.431114 116.559187,11.3962535 118.933812,11.3962535 C122.348405,11.3962535 124.42744,13.4433 124.42744,17.0603233 L124.42744,27.2610907 L120.838017,27.2610907 L120.838017,18.0960907 C120.838017,15.7406721 119.67729,14.4817884 117.659535,14.4817884 C115.70216,14.4817884 114.304421,15.7706023 114.304421,18.1496023 L114.304421,27.2610907 L110.711393,27.2610907 L110.711393,18.0679744 C110.711393,15.7706023 109.52363,14.4817884 107.533812,14.4817884 C105.543994,14.4817884 104.181401,15.8812535 104.181401,18.1804395 L104.181401,27.2610907 L100.588373,27.2610907 L100.588373,11.5368349 Z" id="Fill-23" fill="#1E4166"></path>
            <g id="graphic">
                <path d="M22.5116279,0.65 C17.9534884,-0.371428571 13.3023256,1.20714286 10.6976744,5.47857143 C10.5116279,5.75714286 10.6976744,5.85 10.8837209,5.66428571 C11.0697674,5.47857143 11.3488372,5.2 11.9069767,4.64285714 C14.6976744,1.76428571 17.3953488,1.48571429 20.2790698,1.95 C26.0465116,2.97142857 29.4883721,10.4 27.9069767,18.2 C27.4418605,20.7071429 26.5116279,22.9357143 25.2093023,24.7928571 C28,24.8857143 30.5116279,24.2357143 32.6511628,23.2142857 C34.6046512,12.0714286 30.1395349,2.32142857 22.5116279,0.65" id="logo-color" fill="#90BEDC"></path>
                <path d="M39.1627907,21.8214286 C40.1860465,17.3642857 38.6046512,12.7214286 34.2325581,10.2142857 C33.9534884,10.1214286 33.8604651,10.2142857 34.0465116,10.4 C34.2325581,10.5857143 34.5116279,10.8642857 35.0697674,11.4214286 C37.9534884,14.2071429 38.2325581,16.9 37.7674419,19.6857143 C36.744186,25.35 29.2093023,28.7857143 21.3953488,27.2071429 C18.8837209,26.7428571 16.6511628,25.8142857 14.6976744,24.6071429 C14.6046512,27.3 15.255814,29.9 16.372093,31.9428571 C27.627907,33.8 37.4883721,29.3428571 39.1627907,21.8214286" id="logo-color" fill="#508FBB"></path>
                <path d="M17.3953488,38.0714286 C21.9534884,39.0928571 26.6046512,37.5142857 29.2093023,33.2428571 C29.3023256,32.9642857 29.2093023,32.8714286 29.0232558,33.0571429 C28.8372093,33.2428571 28.5581395,33.5214286 28,34.0785714 C25.2093023,36.9571429 22.5116279,37.2357143 19.627907,36.7714286 C13.8604651,35.75 10.5116279,28.3214286 12,20.5214286 C12.4651163,18.0142857 13.3953488,15.7857143 14.6046512,13.9285714 C11.8139535,13.8357143 9.30232558,14.4857143 7.1627907,15.5071429 C5.30232558,26.5571429 9.86046512,36.4 17.3953488,38.0714286" id="logo-color" fill="#1E4166"></path>
                <path d="M0.744186047,17.1785714 C-0.279069767,21.6357143 1.30232558,26.2785714 5.6744186,28.7857143 C5.95348837,28.8785714 6.04651163,28.7857143 5.86046512,28.6 C5.6744186,28.4142857 5.39534884,28.1357143 4.8372093,27.5785714 C1.95348837,24.7928571 1.6744186,22.1 2.13953488,19.3142857 C3.1627907,13.65 10.6976744,10.2142857 18.5116279,11.7928571 C21.0232558,12.2571429 23.255814,13.1857143 25.2093023,14.3928571 C25.3023256,11.6071429 24.6511628,9.1 23.5348837,7.05714286 C12.372093,5.2 2.41860465,9.65714286 0.744186047,17.1785714" id="logo-color" fill="#508FBB"></path>
            </g>
        </g>
    </g>
</svg>