<?xml version="1.0" encoding="UTF-8" standalone="no"?>
<svg width="238px" height="40px" viewBox="0 0 238 40" version="1.1" xmlns="http://www.w3.org/2000/svg" xmlns:xlink="http://www.w3.org/1999/xlink">
    <!-- Generator: Sketch 3.6.1 (26313) - http://www.bohemiancoding.com/sketch -->
    <title>w-coastal-m</title>
    <desc>Created with Sketch.</desc>
    <defs></defs>
    <g id="Page-1" stroke="none" stroke-width="1" fill="none" fill-rule="evenodd">
        <g id="w-coastal-m" fill="#FFFFFF">
            <path d="M62.03725,22.237125 C61.764125,22.37025 61.435375,22.488375 61.050375,22.594625 C60.66475,22.699625 60.23475,22.794 59.7585,22.878375 C59.28225,22.962125 58.78475,23.004 58.267875,23.004 C57.161625,23.004 56.13975,22.845875 55.201,22.530875 C54.2635,22.215875 53.455375,21.7365 52.777875,21.0915 C52.09975,20.44775 51.5685,19.659 51.18475,18.72775 C50.801,17.7965 50.609125,16.735875 50.609125,15.544 C50.609125,14.353375 50.801,13.292125 51.18475,12.360875 C51.5685,11.429625 52.106625,10.6415 52.797875,9.9965 C53.490375,9.35275 54.31975,8.862125 55.285375,8.525875 C56.251,8.189625 57.316,8.0215 58.477875,8.0215 C59.401625,8.0215 60.24475,8.115875 61.007875,8.30525 C61.771,8.493375 62.446625,8.7215 63.03475,8.98775 C62.92225,9.183375 62.831,9.449625 62.761625,9.784625 C62.691625,10.120875 62.635375,10.4015 62.594125,10.62525 L62.46725,10.66775 C62.327875,10.499625 62.131,10.31025 61.87975,10.099625 C61.62725,9.89025 61.3335,9.68775 60.9985,9.490875 C60.661625,9.29525 60.282875,9.130875 59.8635,8.99775 C59.444125,8.864625 58.981625,8.798375 58.477875,8.798375 C57.651625,8.798375 56.88475,8.932125 56.177875,9.19775 C55.471,9.463375 54.855375,9.873375 54.32975,10.427125 C53.805375,10.98025 53.396,11.68025 53.101625,12.52775 C52.807875,13.374625 52.661,14.379625 52.661,15.54275 C52.661,16.705875 52.807875,17.71025 53.101625,18.557125 C53.396,19.40525 53.805375,20.10525 54.32975,20.658375 C54.855375,21.212125 55.471,21.622125 56.177875,21.887125 C56.88475,22.153375 57.651625,22.287125 58.477875,22.287125 C58.981625,22.287125 59.44725,22.223375 59.874125,22.09775 C60.301,21.9715 60.692875,21.82275 61.050375,21.647125 C61.40725,21.47275 61.729125,21.283375 62.016,21.08025 C62.302875,20.877125 62.54475,20.699 62.741,20.544625 L62.82475,20.629625 L62.635375,21.869625 C62.50975,21.9815 62.30975,22.104 62.03725,22.237125 L62.03725,22.237125 Z" id="Fill-1"></path>
            <path d="M67.090625,13.839125 C67.420625,13.041 67.881875,12.36725 68.475625,11.814125 C69.07,11.262875 69.780625,10.842875 70.60875,10.555375 C71.43625,10.266625 72.3425,10.1235 73.32625,10.1235 C74.32125,10.1235 75.23375,10.266625 76.06125,10.555375 C76.88875,10.842875 77.599375,11.262875 78.193125,11.814125 C78.7875,12.36725 79.24875,13.041 79.579375,13.839125 C79.90875,14.63725 80.07375,15.546625 80.07375,16.56475 C80.07375,17.58475 79.90875,18.4935 79.579375,19.29225 C79.24875,20.090375 78.7875,20.765375 78.193125,21.316625 C77.599375,21.8685 76.88875,22.279125 76.06125,22.54975 C75.23375,22.8185 74.32125,22.95475 73.32625,22.95475 C72.3425,22.95475 71.43625,22.8185 70.60875,22.54975 C69.780625,22.279125 69.07,21.8685 68.475625,21.316625 C67.881875,20.765375 67.420625,20.090375 67.090625,19.29225 C66.76,18.4935 66.595625,17.58475 66.595625,16.56475 C66.595625,15.546625 66.76,14.63725 67.090625,13.839125 M77.9325,13.986 C77.680625,13.25975 77.329375,12.660375 76.88,12.185375 C76.43,11.711 75.9025,11.361 75.295625,11.13225 C74.690625,10.904125 74.033125,10.790375 73.32625,10.790375 C72.63,10.790375 71.97875,10.904125 71.373125,11.13225 C70.766875,11.361 70.239375,11.711 69.789375,12.185375 C69.34,12.660375 68.98875,13.25975 68.73625,13.986 C68.484375,14.71225 68.35875,15.572875 68.35875,16.569125 C68.35875,17.565375 68.484375,18.425375 68.73625,19.151625 C68.98875,19.87725 69.34,20.47725 69.789375,20.95225 C70.239375,21.42475 70.766875,21.776625 71.373125,22.004125 C71.97875,22.23225 72.63,22.346625 73.32625,22.346625 C74.033125,22.346625 74.690625,22.23225 75.295625,22.004125 C75.9025,21.776625 76.43,21.42475 76.88,20.95225 C77.329375,20.47725 77.680625,19.87725 77.9325,19.151625 C78.185,18.425375 78.310625,17.565375 78.310625,16.569125 C78.310625,15.572875 78.185,14.71225 77.9325,13.986" id="Fill-5"></path>
            <path d="M93.6668125,22.7255 C93.4986875,22.698 93.3393125,22.6855 93.1899375,22.6855 L92.7124375,22.6855 L92.2355625,22.6855 C92.0855625,22.6855 91.9261875,22.698 91.7586875,22.7255 C91.6743125,22.448625 91.5599375,22.116125 91.4168125,21.7255 C91.2724375,21.3355 91.1130625,20.927375 90.9393125,20.501125 C90.7655625,20.0755 90.5886875,19.643 90.4080625,19.204875 C90.2280625,18.76675 90.0605625,18.349875 89.9043125,17.953625 C89.5205625,17.939875 89.1305625,17.929875 88.7343125,17.923625 C88.3386875,17.917375 87.9424375,17.913625 87.5461875,17.913625 C87.1743125,17.913625 86.8080625,17.917375 86.4480625,17.923625 C86.0880625,17.929875 85.7224375,17.939875 85.3499375,17.953625 C84.9655625,18.889875 84.6180625,19.78175 84.3055625,20.627375 C83.9936875,21.473625 83.7599375,22.172375 83.6043125,22.7255 C83.3999375,22.698 83.1780625,22.6855 82.9380625,22.6855 C82.6974375,22.6855 82.4761875,22.698 82.2718125,22.7255 C83.2443125,20.62425 84.1918125,18.53675 85.1155625,16.4605 C86.0399375,14.383 86.9699375,12.27175 87.9061875,10.123625 L88.2480625,10.123625 C88.5368125,10.81925 88.8474375,11.573 89.1843125,12.382375 C89.5205625,13.193 89.8630625,14.012375 90.2105625,14.8405 C90.5586875,15.668625 90.9061875,16.4905 91.2543125,17.306125 C91.6024375,18.123 91.9299375,18.881125 92.2355625,19.583625 C92.5411875,20.286125 92.8174375,20.913625 93.0643125,21.464875 C93.3093125,22.01675 93.5111875,22.438 93.6668125,22.7255 L93.6668125,22.7255 Z M85.6924375,17.12675 C86.0036875,17.12675 86.3280625,17.133 86.6636875,17.14675 C86.9993125,17.1605 87.3230625,17.166125 87.6361875,17.166125 C87.9724375,17.166125 88.3074375,17.163 88.6443125,17.156125 C88.9799375,17.1505 89.3161875,17.1405 89.6518125,17.12675 L87.6543125,12.55425 L85.6924375,17.12675 Z" id="Fill-9"></path>
            <path d="M97.5309375,21.041625 C97.6928125,21.2635 97.8909375,21.46475 98.1246875,21.644125 C98.3590625,21.82475 98.6328125,21.971625 98.9446875,22.086625 C99.2565625,22.19975 99.6053125,22.25725 99.9890625,22.25725 C100.386563,22.25725 100.743438,22.18725 101.060938,22.050375 C101.379688,21.91225 101.649688,21.725375 101.871563,21.491 C102.094688,21.25725 102.265313,20.98225 102.385313,20.6635 C102.505938,20.345375 102.565313,20.006625 102.565313,19.64725 C102.565313,19.094125 102.424688,18.655375 102.142188,18.33225 C101.859688,18.007875 101.508438,17.7385 101.087188,17.522875 C100.666563,17.306 100.213438,17.107875 99.7265625,16.929125 C99.2390625,16.747875 98.7859375,16.522875 98.3653125,16.25225 C97.9440625,15.9835 97.5934375,15.6385 97.3103125,15.217875 C97.0290625,14.797875 96.8871875,14.234125 96.8871875,13.525375 C96.8871875,13.021 96.9765625,12.562875 97.1571875,12.147875 C97.3378125,11.73475 97.5984375,11.37725 97.9409375,11.07725 C98.2828125,10.77725 98.6934375,10.542875 99.1734375,10.37475 C99.6540625,10.20725 100.194688,10.1235 100.794688,10.1235 C101.369688,10.1235 101.868438,10.19225 102.287813,10.32975 C102.709063,10.46975 103.098438,10.682875 103.458438,10.970375 C103.349688,11.17475 103.260313,11.391625 103.187813,11.619125 C103.115938,11.84725 103.043438,12.13475 102.972813,12.4835 L102.755938,12.4835 C102.695938,12.31475 102.615313,12.13225 102.513438,11.934125 C102.411563,11.736 102.272813,11.552875 102.099688,11.38475 C101.925313,11.216625 101.718438,11.076 101.478438,10.961625 C101.237813,10.8485 100.950313,10.791 100.614063,10.791 C100.277813,10.791 99.9690625,10.84475 99.6865625,10.952875 C99.4053125,11.061 99.1584375,11.212875 98.9490625,11.411 C98.7390625,11.609125 98.5765625,11.84725 98.4621875,12.12225 C98.3490625,12.3985 98.2915625,12.6985 98.2915625,13.02225 C98.2915625,13.585375 98.4334375,14.02975 98.7153125,14.3535 C98.9978125,14.67725 99.3490625,14.950375 99.7696875,15.171625 C100.190938,15.39475 100.644063,15.592875 101.130938,15.765375 C101.617813,15.940375 102.071563,16.152875 102.492188,16.404125 C102.912813,16.656 103.264063,16.981 103.546563,17.375375 C103.829688,17.771625 103.970313,18.29975 103.970313,18.95975 C103.970313,19.511 103.871563,20.032875 103.672188,20.52475 C103.474688,21.016625 103.186563,21.446625 102.807813,21.811 C102.429688,22.17725 101.967188,22.4585 101.420938,22.65725 C100.875313,22.85475 100.252813,22.95475 99.5571875,22.95475 C98.8121875,22.95475 98.2096875,22.856 97.7459375,22.659125 C97.2846875,22.46225 96.8971875,22.2385 96.5859375,21.986625 C96.6928125,21.710375 96.7690625,21.461 96.8096875,21.23975 C96.8521875,21.0185 96.8909375,20.732875 96.9271875,20.384125 L97.1434375,20.384125 C97.2396875,20.601 97.3690625,20.820375 97.5309375,21.041625" id="Fill-13"></path>
            <path d="M110.785313,11.289 C110.472813,11.289 110.145938,11.2915 109.804063,11.29775 C109.461563,11.304 109.120313,11.3165 108.777813,11.333375 C108.435313,11.35275 108.105313,11.37275 107.787813,11.397125 C107.470313,11.420875 107.185313,11.450875 106.932188,11.487125 C106.992188,11.27025 107.023438,11.078375 107.023438,10.910875 C107.023438,10.778375 106.992188,10.59275 106.932188,10.352125 C107.724688,10.375875 108.499063,10.397125 109.254688,10.414625 C110.010938,10.433375 110.785313,10.442125 111.577188,10.442125 C112.369063,10.442125 113.142188,10.433375 113.899688,10.414625 C114.655313,10.397125 115.429063,10.375875 116.220938,10.352125 C116.160938,10.59275 116.130938,10.784625 116.130938,10.929 C116.130938,11.084625 116.160938,11.27025 116.220938,11.487125 C115.969688,11.450875 115.684063,11.420875 115.366563,11.397125 C115.047813,11.37275 114.717188,11.35275 114.376563,11.333375 C114.034063,11.3165 113.691563,11.304 113.350313,11.29775 C113.007813,11.2915 112.680313,11.289 112.369063,11.289 C112.332813,12.525875 112.315938,13.768375 112.315938,15.017125 L112.315938,18.114 C112.315938,18.907125 112.330313,19.687125 112.360313,20.45525 C112.390313,21.224625 112.422813,21.980875 112.458438,22.72525 C112.182188,22.69775 111.888438,22.68525 111.577188,22.68525 C111.264688,22.68525 110.970938,22.69775 110.695313,22.72525 C110.730313,21.980875 110.762813,21.224625 110.791563,20.45525 C110.819688,19.687125 110.835313,18.907125 110.835313,18.114 L110.835313,15.017125 C110.835313,13.768375 110.818438,12.525875 110.785313,11.289" id="Fill-17"></path>
            <path d="M128.746313,22.7255 C128.578813,22.698 128.420063,22.6855 128.269438,22.6855 L127.792563,22.6855 L127.315688,22.6855 C127.166313,22.6855 127.006938,22.698 126.838813,22.7255 C126.755063,22.448625 126.640688,22.116125 126.496313,21.7255 C126.353188,21.3355 126.193813,20.927375 126.019438,20.501125 C125.845063,20.0755 125.668813,19.643 125.488813,19.204875 C125.308813,18.76675 125.140063,18.349875 124.985063,17.953625 C124.601313,17.939875 124.210063,17.929875 123.815063,17.923625 C123.419438,17.917375 123.023188,17.913625 122.627563,17.913625 C122.255063,17.913625 121.888813,17.917375 121.529438,17.923625 C121.169438,17.929875 120.803188,17.939875 120.430688,17.953625 C120.047563,18.889875 119.698813,19.78175 119.386938,20.627375 C119.075063,21.473625 118.840688,22.172375 118.685063,22.7255 C118.480688,22.698 118.258813,22.6855 118.018813,22.6855 C117.778188,22.6855 117.556938,22.698 117.352563,22.7255 C118.325063,20.62425 119.272563,18.53675 120.196938,16.4605 C121.120688,14.383 122.051313,12.27175 122.987563,10.123625 L123.330063,10.123625 C123.617563,10.81925 123.930063,11.573 124.265063,12.382375 C124.601313,13.193 124.942563,14.012375 125.290688,14.8405 C125.638813,15.668625 125.986938,16.4905 126.334438,17.306125 C126.683188,18.123 127.009438,18.881125 127.315688,19.583625 C127.621938,20.286125 127.897563,20.913625 128.144438,21.464875 C128.390063,22.01675 128.590688,22.438 128.746313,22.7255 L128.746313,22.7255 Z M120.773188,17.12675 C121.084438,17.12675 121.409438,17.133 121.744438,17.14675 C122.081313,17.1605 122.405063,17.166125 122.716938,17.166125 C123.053188,17.166125 123.389438,17.163 123.725688,17.156125 C124.060688,17.1505 124.396938,17.1405 124.733188,17.12675 L122.735688,12.55425 L120.773188,17.12675 Z" id="Fill-21"></path>
            <path d="M132.568437,12.6848125 C132.537187,11.9229375 132.503437,11.1441875 132.465937,10.3523125 C132.621562,10.3760625 132.770937,10.3973125 132.915937,10.4148125 C133.059062,10.4335625 133.203437,10.4423125 133.347812,10.4423125 C133.490937,10.4423125 133.635312,10.4335625 133.778437,10.4148125 C133.923437,10.3973125 134.072812,10.3760625 134.229687,10.3523125 C134.194062,11.1441875 134.162187,11.9216875 134.133437,12.6835625 C134.103437,13.4460625 134.089687,14.2229375 134.089687,15.0148125 C134.089687,16.5279375 134.095312,17.8391875 134.105937,18.9485625 C134.117187,20.0591875 134.128437,21.0516875 134.139687,21.9285625 C134.991562,21.9285625 135.807187,21.9198125 136.587812,21.9023125 C137.367187,21.8835625 138.207812,21.8166875 139.106562,21.6979375 C139.047187,21.9141875 139.017187,22.0954375 139.017187,22.2385625 C139.017187,22.3704375 139.047187,22.5335625 139.106562,22.7254375 C138.555312,22.6979375 138.003437,22.6854375 137.452187,22.6854375 L135.795937,22.6854375 L134.129687,22.6854375 C133.596562,22.6854375 133.041562,22.6979375 132.465937,22.7254375 C132.503437,21.9804375 132.537187,21.2248125 132.568437,20.4554375 C132.599062,19.6866875 132.615312,18.9073125 132.615312,18.1141875 L132.615312,15.0173125 C132.615312,14.2241875 132.599062,13.4466875 132.568437,12.6848125" id="Fill-25"></path>
            <path d="M149.708937,11.244 C149.675187,10.35525 149.638937,9.449 149.598937,8.524 C149.779562,8.552125 149.955187,8.574625 150.122062,8.594 C150.290187,8.614 150.457062,8.624 150.625187,8.624 C150.792062,8.624 150.960187,8.614 151.127062,8.594 C151.295187,8.574625 151.469562,8.552125 151.651437,8.524 C151.606437,9.449 151.565187,10.35525 151.527687,11.244 C151.490812,12.133375 151.472062,13.039625 151.472062,13.964 L151.472062,17.57525 C151.472062,18.499 151.490812,19.40775 151.527687,20.304625 C151.565187,21.199625 151.606437,22.0815 151.651437,22.949 C151.330187,22.923375 150.987687,22.909625 150.625187,22.909625 C150.261437,22.909625 149.920187,22.923375 149.598937,22.949 C149.638937,22.0815 149.675187,21.199625 149.708937,20.304625 C149.741437,19.40775 149.758312,18.499 149.758312,17.57525 L149.758312,13.964 C149.758312,13.039625 149.741437,12.133375 149.708937,11.244" id="Fill-29"></path>
            <path d="M161.0715,15.316125 C161.917125,16.924875 162.80275,18.574875 163.7265,20.267375 C163.845875,20.03925 164.02025,19.713 164.24775,19.286125 C164.475875,18.8605 164.739625,18.3705 165.04025,17.81925 C165.34025,17.267375 165.660875,16.669875 166.004,16.028 C166.344625,15.3855 166.694,14.73425 167.047125,14.07425 C167.400875,13.414875 167.752125,12.766125 168.100875,12.1305 C168.448375,11.49425 168.772125,10.9005 169.072125,10.348 L169.3065,10.348 C169.438375,11.5005 169.5615,12.61425 169.6765,13.687375 C169.789625,14.76175 169.9065,15.818 170.027125,16.85675 C170.147125,17.893625 170.265875,18.919875 170.387125,19.934875 C170.507125,20.948 170.638375,21.953625 170.78275,22.94925 C170.638375,22.923 170.49775,22.909875 170.36025,22.909875 L169.9365,22.909875 L169.514,22.909875 C169.375875,22.909875 169.23525,22.923 169.090875,22.94925 C168.959,21.35425 168.827125,19.8055 168.69525,18.304875 C168.56275,16.8055 168.400875,15.274875 168.209,13.71425 L168.17275,13.71425 C167.34525,15.22675 166.5315,16.728 165.733375,18.223 C164.93525,19.7155 164.175875,21.278 163.4565,22.909875 L163.294,22.909875 C162.574,21.398 161.8215,19.883625 161.03525,18.3655 C160.249625,16.84925 159.46025,15.298625 158.668375,13.71425 L158.632125,13.71425 C158.548375,14.458 158.45525,15.26675 158.35275,16.1355 C158.250875,17.006125 158.15775,17.86425 158.074,18.7105 C157.989625,19.556125 157.918375,20.35425 157.85775,21.104875 C157.79775,21.854875 157.76775,22.469875 157.76775,22.94925 C157.5765,22.923 157.36525,22.909875 157.13775,22.909875 C156.909625,22.909875 156.699625,22.923 156.50775,22.94925 C156.663375,21.978 156.8265,20.95175 156.994625,19.871125 C157.1615,18.791125 157.324625,17.70425 157.48025,16.612375 C157.635875,15.5205 157.78025,14.443 157.912125,13.381125 C158.044625,12.318625 158.15775,11.307375 158.254,10.348 L158.559625,10.348 C159.38775,12.052375 160.224625,13.708625 161.0715,15.316125" id="Fill-33"></path>
            <path d="M185.145625,22.94925 C184.9775,22.923 184.819375,22.909875 184.66875,22.909875 L184.191875,22.909875 L183.715,22.909875 C183.564375,22.909875 183.40625,22.923 183.238125,22.94925 C183.153125,22.67425 183.04,22.3405 182.895625,21.9505 C182.75125,21.561125 182.593125,21.153 182.41875,20.7255 C182.244375,20.29925 182.0675,19.867375 181.888125,19.42925 C181.7075,18.992375 181.539375,18.574875 181.38375,18.178 C180.99875,18.164875 180.609375,18.154875 180.213125,18.148 C179.8175,18.14175 179.42125,18.138 179.025625,18.138 C178.653125,18.138 178.286875,18.14175 177.926875,18.148 C177.566875,18.154875 177.20125,18.164875 176.83,18.178 C176.445625,19.11425 176.098125,20.0055 175.785,20.852375 C175.4725,21.698 175.239375,22.398 175.0825,22.94925 C174.87875,22.923 174.656875,22.909875 174.416875,22.909875 C174.1775,22.909875 173.954375,22.923 173.75125,22.94925 C174.7225,20.849875 175.671875,18.76175 176.59625,16.684875 C177.52,14.60925 178.450625,12.49675 179.385625,10.348 L179.7275,10.348 C180.015625,11.043625 180.328125,11.79675 180.66375,12.608 C180.99875,13.41675 181.341875,14.236125 181.690625,15.064875 C182.0375,15.892375 182.38625,16.714875 182.73375,17.531125 C183.0825,18.34675 183.40875,19.10675 183.715,19.808625 C184.02125,20.509875 184.296875,21.137375 184.543125,21.68925 C184.788125,22.242375 184.99,22.66175 185.145625,22.94925 L185.145625,22.94925 Z M177.17125,17.3505 C177.48375,17.3505 177.8075,17.358 178.14375,17.3705 C178.48,17.38425 178.80375,17.3905 179.115,17.3905 C179.45125,17.3905 179.7875,17.388 180.12375,17.3805 C180.46,17.37425 180.79625,17.36425 181.1325,17.3505 L179.13375,12.778 L177.17125,17.3505 Z" id="Fill-37"></path>
            <path d="M197.846,12.1319375 C197.575375,11.9156875 197.276,11.7256875 196.944125,11.5644375 C196.614125,11.4019375 196.2485,11.2700625 195.846,11.1681875 C195.444125,11.0663125 195.014125,11.0150625 194.55725,11.0150625 C193.812875,11.0150625 193.119125,11.1294375 192.476625,11.3575625 C191.834125,11.5856875 191.276,11.9363125 190.801625,12.4113125 C190.32725,12.8838125 189.95475,13.4844375 189.68475,14.2100625 C189.41475,14.9363125 189.27975,15.7981875 189.27975,16.7931875 C189.27975,17.6700625 189.39975,18.4613125 189.63975,19.1700625 C189.880375,19.8775625 190.231625,20.4750625 190.692875,20.9606875 C191.155375,21.4463125 191.71975,21.8213125 192.385375,22.0850625 C193.051625,22.3494375 193.806,22.4813125 194.646625,22.4813125 C194.8985,22.4813125 195.16225,22.4700625 195.439125,22.4450625 C195.715375,22.4213125 195.981625,22.3856875 196.23975,22.3375625 C196.4985,22.2894375 196.739125,22.2300625 196.960375,22.1575625 C197.18225,22.0850625 197.371625,22.0019375 197.5285,21.9050625 C197.540375,21.5450625 197.550375,21.1850625 197.5585,20.8250625 C197.56475,20.4638125 197.5685,20.0975625 197.5685,19.7256875 C197.5685,19.3056875 197.5585,18.8850625 197.540375,18.4650625 C197.52225,18.0444375 197.50225,17.6419375 197.4785,17.2588125 C197.77725,17.3181875 198.065375,17.3481875 198.340375,17.3481875 C198.471,17.3481875 198.602875,17.3419375 198.73475,17.3300625 C198.866625,17.3181875 198.991625,17.2950625 199.11225,17.2588125 C199.0885,17.5338125 199.071,17.9694375 199.05975,18.5625625 C199.047875,19.1563125 199.042875,19.9394375 199.042875,20.9106875 C199.042875,21.1513125 199.04475,21.3944375 199.052875,21.6406875 C199.0585,21.8863125 199.062875,22.1288125 199.062875,22.3688125 C198.80975,22.4650625 198.49475,22.5650625 198.116,22.6656875 C197.73725,22.7675625 197.335375,22.8525625 196.90975,22.9188125 C196.4835,22.9844375 196.056625,23.0438125 195.631,23.0975625 C195.20475,23.1525625 194.81725,23.1781875 194.4685,23.1781875 C193.400375,23.1781875 192.436625,23.0500625 191.57725,22.7925625 C190.719125,22.5350625 189.98975,22.1350625 189.38975,21.5956875 C188.789125,21.0556875 188.326,20.3831875 188.00225,19.5794375 C187.6785,18.7750625 187.516625,17.8469375 187.516625,16.7900625 C187.516625,15.7706875 187.68475,14.8619375 188.021,14.0644375 C188.35725,13.2663125 188.830375,12.5913125 189.442875,12.0400625 C190.055375,11.4881875 190.796625,11.0675625 191.6685,10.7800625 C192.539125,10.4919375 193.50225,10.3475625 194.5585,10.3475625 C195.171,10.3475625 195.714125,10.3813125 196.1885,10.4475625 C196.662875,10.5131875 197.084125,10.6000625 197.44975,10.7088125 C197.816,10.8169375 198.13725,10.9313125 198.41225,11.0513125 C198.689125,11.1719375 198.935375,11.2850625 199.15225,11.3938125 C199.05475,11.5619375 198.967875,11.7769375 198.891,12.0413125 C198.81225,12.3050625 198.761,12.5519375 198.737875,12.7794375 L198.521,12.7794375 C198.340375,12.5644375 198.116,12.3469375 197.846,12.1319375" id="Fill-41"></path>
            <path d="M203.963688,12.9089375 C203.933688,12.1470625 203.903063,11.3695625 203.868063,10.5770625 C204.023688,10.6014375 204.173063,10.6214375 204.317438,10.6401875 C204.460563,10.6576875 204.604938,10.6664375 204.749938,10.6664375 C204.892438,10.6664375 205.037438,10.6576875 205.180563,10.6401875 C205.324938,10.6214375 205.474313,10.6014375 205.631188,10.5770625 C205.593688,11.3695625 205.559313,12.1470625 205.528063,12.9089375 C205.496813,13.6720625 205.481813,14.4495625 205.481813,15.2414375 L205.481813,18.3395625 C205.481813,19.1314375 205.496813,19.9120625 205.528063,20.6808125 C205.559313,21.4489375 205.593688,22.2058125 205.631188,22.9489375 C205.354313,22.9233125 205.060563,22.9095625 204.749938,22.9095625 C204.436813,22.9095625 204.143063,22.9233125 203.868063,22.9489375 C203.903063,22.2058125 203.933688,21.4489375 203.963688,20.6808125 C203.992438,19.9120625 204.007438,19.1314375 204.007438,18.3395625 L204.007438,15.2414375 C204.007438,14.4495625 203.992438,13.6720625 203.963688,12.9089375" id="Fill-45"></path>
            <path d="M216.533375,18.275 C214.974,16.60125 213.41525,14.9375 211.855875,13.28125 C211.844625,13.6175 211.834625,14.066875 211.824,14.63125 C211.81275,15.195625 211.8065,15.9625 211.8065,16.935 C211.8065,17.18625 211.809625,17.498125 211.8165,17.87 C211.8215,18.2425 211.82775,18.6325 211.834,19.039375 C211.839625,19.4475 211.849,19.86125 211.860875,20.281875 C211.872125,20.701875 211.884625,21.091875 211.897125,21.45125 C211.908375,21.81125 211.920875,22.12625 211.933375,22.39625 C211.944625,22.665625 211.957125,22.84875 211.969625,22.944375 C211.7765,22.920625 211.565875,22.909375 211.33775,22.909375 C211.09775,22.909375 210.8765,22.920625 210.672125,22.944375 C210.69525,22.824375 210.72275,22.603125 210.75275,22.279375 C210.78275,21.955625 210.81025,21.568125 210.834,21.11875 C210.857125,20.668125 210.884625,20.18 210.914625,19.651875 C210.944625,19.12375 210.968375,18.59625 210.987125,18.068125 C211.004625,17.54 211.019625,17.024375 211.0315,16.52 C211.044625,16.016875 211.049625,15.56625 211.049625,15.170625 C211.049625,14.018125 211.0465,13.03 211.0415,12.201875 C211.03525,11.37375 211.022125,10.75625 210.999625,10.3475 L211.287125,10.3475 C212.01775,11.139375 212.80025,11.98875 213.633375,12.89375 C214.465875,13.800625 215.29275,14.69375 216.11525,15.57625 C216.935875,16.4575 217.714,17.29125 218.450875,18.07625 C219.188375,18.8625 219.833375,19.5325 220.383375,20.084375 L220.383375,17.635625 C220.383375,16.376875 220.374625,15.150625 220.357125,13.95625 C220.34025,12.761875 220.30275,11.6375 220.244,10.58125 C220.484625,10.64125 220.687125,10.67125 220.85525,10.67125 C220.999,10.67125 221.19025,10.64125 221.429625,10.58125 C221.405875,10.845625 221.378375,11.241875 221.349,11.769375 C221.319,12.2975 221.289,12.861875 221.259,13.460625 C221.22775,14.060625 221.202125,14.64875 221.177125,15.225 C221.15275,15.800625 221.140875,16.2625 221.140875,16.61 L221.140875,17.690625 C221.140875,18.098125 221.144625,18.52375 221.149625,18.968125 C221.155875,19.411875 221.160875,19.85875 221.165875,20.308125 C221.172125,20.75875 221.177125,21.17875 221.18275,21.568125 C221.18775,21.958125 221.19025,22.296875 221.19025,22.585 L221.19025,23.178125 L220.939,23.178125 C219.56025,21.583125 218.090875,19.948125 216.533375,18.275" id="Fill-49"></path>
            <path d="M236.256625,12.1319375 C235.986625,11.9156875 235.686625,11.7256875 235.35475,11.5644375 C235.02475,11.4019375 234.659125,11.2700625 234.256625,11.1681875 C233.85475,11.0663125 233.42475,11.0150625 232.967875,11.0150625 C232.2235,11.0150625 231.52975,11.1294375 230.88725,11.3575625 C230.24475,11.5856875 229.686625,11.9363125 229.21225,12.4113125 C228.737875,12.8838125 228.365375,13.4844375 228.095375,14.2100625 C227.825375,14.9363125 227.690375,15.7981875 227.690375,16.7931875 C227.690375,17.6700625 227.810375,18.4613125 228.050375,19.1700625 C228.291,19.8775625 228.641625,20.4750625 229.104125,20.9606875 C229.566,21.4463125 230.12975,21.8213125 230.796625,22.0850625 C231.46225,22.3494375 232.21725,22.4813125 233.057875,22.4813125 C233.309125,22.4813125 233.572875,22.4700625 233.84975,22.4450625 C234.126,22.4213125 234.39225,22.3856875 234.650375,22.3375625 C234.909125,22.2894375 235.14975,22.2300625 235.371625,22.1575625 C235.592875,22.0850625 235.78225,22.0019375 235.939125,21.9050625 C235.951625,21.5450625 235.961625,21.1850625 235.969125,20.8250625 C235.975375,20.4638125 235.979125,20.0975625 235.979125,19.7256875 C235.979125,19.3056875 235.969125,18.8850625 235.951625,18.4650625 C235.932875,18.0444375 235.912875,17.6419375 235.889125,17.2588125 C236.1885,17.3181875 236.476,17.3481875 236.751,17.3481875 C236.881625,17.3481875 237.0135,17.3419375 237.145375,17.3300625 C237.277875,17.3181875 237.40225,17.2950625 237.5235,17.2588125 C237.499125,17.5338125 237.48225,17.9694375 237.471,18.5625625 C237.4585,19.1563125 237.4535,19.9394375 237.4535,20.9106875 C237.4535,21.1513125 237.456,21.3944375 237.4635,21.6406875 C237.469125,21.8863125 237.4735,22.1288125 237.4735,22.3688125 C237.220375,22.4650625 236.905375,22.5650625 236.526625,22.6656875 C236.1485,22.7675625 235.746,22.8525625 235.320375,22.9188125 C234.894125,22.9844375 234.46725,23.0438125 234.041625,23.0975625 C233.615375,23.1525625 233.227875,23.1781875 232.879125,23.1781875 C231.811,23.1781875 230.84725,23.0500625 229.987875,22.7925625 C229.130375,22.5350625 228.400375,22.1350625 227.800375,21.5956875 C227.19975,21.0556875 226.736625,20.3831875 226.412875,19.5794375 C226.089125,18.7750625 225.92725,17.8469375 225.92725,16.7900625 C225.92725,15.7706875 226.095375,14.8619375 226.431625,14.0644375 C226.767875,13.2663125 227.241,12.5913125 227.8535,12.0400625 C228.466625,11.4881875 229.20725,11.0675625 230.079125,10.7800625 C230.94975,10.4919375 231.912875,10.3475625 232.969125,10.3475625 C233.581625,10.3475625 234.12475,10.3813125 234.599125,10.4475625 C235.074125,10.5131875 235.49475,10.6000625 235.860375,10.7088125 C236.226625,10.8169375 236.547875,10.9313125 236.8235,11.0513125 C237.09975,11.1719375 237.346625,11.2850625 237.562875,11.3938125 C237.466,11.5619375 237.3785,11.7769375 237.301625,12.0413125 C237.222875,12.3050625 237.171625,12.5519375 237.1485,12.7794375 L236.931625,12.7794375 C236.751,12.5644375 236.526625,12.3469375 236.256625,12.1319375" id="Fill-53"></path>
            <path d="M50.240625,28.94825 L237.895,28.94825 L237.895,25.378875 L50.240625,25.378875 L50.240625,28.94825 Z" id="Fill-57"></path>
            <path id="Fill-59" d="M11.7132968,3.9503125 C11.7036946,3.9563125 11.6906631,3.9633125 11.680375,3.9693125 C11.8689895,3.8713125 12.0390856,3.7903125 12.180375,3.7283125 C12.0068496,3.7993125 11.8456699,3.8723125 11.7132968,3.9503125"></path>
            <path d="M12.2053125,3.78725 C10.6796875,4.379125 11.8959375,5.037875 12.2515625,5.20475 C12.2384375,5.190375 12.2209375,5.176 12.2103125,5.161 C11.9478125,4.77975 14.7978125,4.286 16.8228125,4.161 C18.8540625,4.036 24.5915625,4.02975 29.4853125,4.69225 C28.8928125,4.84975 28.2828125,4.99975 27.6734375,5.141 C29.0784375,4.871 30.6134375,4.52725 31.8609375,3.971625 C31.7871875,3.99725 31.7171875,4.022875 31.6415625,4.0485 C31.2103125,3.95475 30.8478125,3.87975 30.6040625,3.82975 C28.5978125,3.411 22.0165625,2.9485 20.1540625,2.9485 C18.4628125,2.9485 14.4234375,3.175375 12.4159375,3.654125 C12.5571875,3.626 12.5265625,3.662875 12.2053125,3.78725" id="Fill-60"></path>
            <path id="Fill-61" d="M12.003125,38.5865 C11.863125,38.5015 11.732125,38.4145 11.609125,38.3245 C11.719125,38.4105 11.851125,38.4985 12.003125,38.5865"></path>
            <path d="M35.129125,38.0295 C36.291625,38.37325 35.372875,39.4545 34.379125,39.98575 L34.816625,39.98575 C35.366625,39.867 36.066625,39.692 36.447875,39.517 C37.054125,39.242 37.891625,38.7045 37.410375,38.2045 C37.026,37.802 36.454125,37.51075 35.810375,37.28325 C35.380375,37.485125 34.929125,37.672 34.461,37.846375 C34.691,37.90575 34.916,37.9645 35.129125,38.0295" id="Fill-62"></path>
            <path d="M5.9521875,11.001 C3.6184375,11.891625 5.5634375,12.90975 6.0503125,13.136 C6.0278125,13.111 5.9971875,13.086625 5.9790625,13.061 C5.5853125,12.486 9.8540625,11.7485 12.8790625,11.561 C16.0803125,11.361625 25.6478125,11.107875 33.3328125,12.236625 C34.1209375,11.997875 34.8765625,11.721625 35.5696875,11.3985 C34.8271875,11.2485 34.1946875,11.12975 33.7665625,11.04225 C30.3165625,10.32975 20.2540625,9.87975 17.6853125,9.911 C15.5021875,9.937875 9.4940625,10.02225 6.4259375,10.78225 C6.4596875,10.790375 6.3271875,10.857875 5.9521875,11.001" id="Fill-63"></path>
            <path d="M34.407125,4.7513125 C34.098375,4.9988125 33.739,5.2263125 33.33525,5.4344375 C33.5115,5.4819375 33.689625,5.5281875 33.86025,5.5794375 C35.229,5.9919375 36.28525,6.3981875 37.079,6.7919375 C37.0915,6.7919375 37.09775,6.7981875 37.104,6.8044375 C37.4165,6.9856875 37.68525,7.1669375 37.8915,7.3419375 C38.002125,7.4325625 38.09775,7.5213125 38.189,7.6094375 C37.98525,6.7669375 37.548375,6.0706875 37.439,5.9063125 C36.653375,5.4694375 35.5315,5.0781875 34.407125,4.7513125" id="Fill-64"></path>
            <path id="Fill-65" d="M18.644,7.702625 C17.25275,7.683625 16.005875,7.569625 14.902125,7.376625 C17.029,7.803625 19.39025,7.850625 21.720875,7.634625 C20.60275,7.698625 19.55525,7.715625 18.644,7.702625"></path>
            <path id="Fill-66" d="M7.329125,29.5590863 C7.20475,29.6111548 7.024125,29.6824815 6.8135,29.7695 C7.39975,29.5362618 7.931,29.3600849 8.25725,29.2695 C7.901,29.3600849 7.580375,29.4549494 7.329125,29.5590863"></path>
            <path d="M37.129125,32.817 C37.410375,33.12325 37.60725,33.432 37.69475,33.732 C37.9685,33.335125 38.1485,32.906375 38.206625,32.43325 C38.207875,32.423875 38.216,32.4245 38.21975,32.418875 C38.216,32.413875 38.214125,32.4095 38.210375,32.4045 L38.210375,32.4045 C37.832875,32.520125 37.44475,32.631375 37.045375,32.737 C37.071625,32.763875 37.10475,32.790125 37.129125,32.817" id="Fill-67"></path>
            <path d="M13.9334375,36.377875 C12.4446875,36.922875 13.6284375,37.529125 13.9765625,37.684125 C13.9640625,37.66975 13.9459375,37.656625 13.9353125,37.64225 C13.6790625,37.29225 16.4728125,36.836 18.4540625,36.7235 C20.4153125,36.609125 25.9171875,36.571625 30.6634375,37.165375 C31.3828125,36.979125 32.0659375,36.78725 32.7021875,36.586 C32.5153125,36.5535 32.3359375,36.522875 32.1790625,36.49225 C30.2103125,36.10475 23.3728125,35.661 21.7165625,35.6485 C20.1903125,35.63225 16.2578125,35.771 14.2359375,36.222875 C14.3290625,36.21225 14.2603125,36.2585 13.9334375,36.377875" id="Fill-68"></path>
            <path id="Fill-69" d="M18.0636875,39.827375 C20.0043125,40.030375 22.0749375,39.990375 24.0936875,39.766375 C22.7199375,39.902375 21.4086875,39.950375 20.2368125,39.934375 C19.4649375,39.924375 18.7436875,39.887375 18.0636875,39.827375"></path>
            <path id="Fill-70" d="M14.7335625,26.421875 C12.6779375,26.356875 10.7985625,26.202875 9.1173125,25.953875 C10.9129375,26.254875 12.8054375,26.403875 14.7335625,26.421875"></path>
            <path d="M9.7546875,4.8491875 C10.1146875,4.5460625 10.7084375,4.2585625 11.2521875,4.0404375 C10.7721875,4.2241875 10.1128125,4.5029375 9.7546875,4.8491875" id="Fill-71"></path>
            <path d="M3.5558125,14.816375 C3.0233125,14.565125 2.5776875,14.29325 2.2226875,14.00325 C2.4720625,14.26325 2.9026875,14.535125 3.5558125,14.816375" id="Fill-72"></path>
            <path d="M1.2805625,24.115625 C0.8474375,23.87125 0.4880625,23.605625 0.2168125,23.315625 C0.3918125,23.57375 0.7324375,23.84125 1.2805625,24.115625" id="Fill-73"></path>
            <path id="Fill-74" d="M15.5828125,16.810125 C13.8484375,16.786125 12.2653125,16.660125 10.8315625,16.449125 C13.4240625,16.872125 16.2221875,16.949125 19.0146875,16.768125 C17.7809375,16.814125 16.6209375,16.824125 15.5828125,16.810125"></path>
            <path d="M39.2865625,12.347125 C38.9296875,12.654625 38.5265625,12.943375 38.0721875,13.209625 C38.3165625,13.279 38.5628125,13.3465 38.7978125,13.423375 C38.9665625,13.479625 39.1290625,13.529625 39.2915625,13.585875 C41.3959375,14.298375 42.7059375,15.07025 43.2903125,15.889 C43.1709375,14.7915 42.6165625,13.8965 42.4815625,13.693375 C41.5309375,13.1465 40.4159375,12.704 39.2865625,12.347125" id="Fill-75"></path>
            <path d="M4.8615,20.237875 C2.697125,20.8985 3.628375,21.787875 4.399,22.26975 C4.969,21.714125 8.787125,21.0935 11.5915,20.91725 C15.014625,20.707875 26.109,20.55475 34.4765,21.779125 C35.4715,21.526 36.45525,21.25225 37.37275,20.966625 C35.988375,20.67975 34.739,20.506 33.97275,20.386 C29.9165,19.761 22.49775,19.3235 18.92275,19.261 C16.555875,19.2185 8.962125,19.3385 5.19025,20.07225 C5.38525,20.046625 5.324,20.096625 4.8615,20.237875" id="Fill-76"></path>
            <path d="M43.5229375,23.40625 C42.9885625,22.95 42.3191875,22.5625 41.5798125,22.23375 C41.0679375,22.481875 40.5191875,22.71625 39.9416875,22.9375 C41.8985625,23.538125 43.0504375,24.233125 43.5635625,24.966875 C43.7335625,24.179375 43.5854375,23.5975 43.5229375,23.40625" id="Fill-77"></path>
            <path id="Fill-78" d="M14.6535,32.594 C13.919125,32.56 13.221,32.505 12.571625,32.428 C13.127875,32.518 13.836,32.572 14.6535,32.594"></path>
            <path d="M8.1078125,29.4135 C5.7734375,30.20475 7.5703125,31.112875 8.1515625,31.364125 C8.1371875,31.347875 8.1165625,31.3335 8.1040625,31.31725 C7.6978125,30.786 12.0978125,30.10475 15.2165625,29.92975 C18.9090625,29.726 28.7653125,29.139125 33.9628125,30.89725 C34.4890625,30.78225 35.0046875,30.659125 35.5121875,30.52975 C31.7809375,28.666 23.5796875,28.35475 20.1915625,28.35475 C17.7490625,28.35475 11.4471875,28.58975 8.3646875,29.24475 C8.6946875,29.17225 8.7009375,29.21225 8.1078125,29.4135" id="Fill-79"></path>
            <path d="M31.0848125,22.794875 C31.0848125,22.969875 31.0910625,23.094875 31.0035625,23.132375 C30.9160625,23.169875 30.8098125,23.082375 30.7160625,22.832375 C30.6160625,22.582375 30.5598125,22.601125 30.4785625,22.519875 C30.3973125,22.438625 30.2348125,22.401125 30.2348125,22.401125 L30.2723125,22.438625 C30.2723125,22.438625 30.4035625,22.876125 30.4785625,23.007375 C30.5535625,23.138625 30.6848125,23.563625 30.7223125,23.663625 C30.7598125,23.763625 30.8910625,24.213625 30.8035625,24.269875 C30.6473125,24.363625 30.4598125,24.001125 30.3660625,23.732375 C30.2723125,23.469875 30.0223125,23.063625 29.9910625,23.051125 C29.9598125,23.038625 30.0598125,23.632375 30.0785625,23.732375 C30.0973125,23.838625 30.1973125,24.457375 30.1535625,24.513625 C30.1098125,24.563625 30.1285625,24.726125 29.9973125,24.738625 C29.8660625,24.738625 29.6910625,23.651125 29.6910625,23.651125 C29.6910625,23.651125 29.6410625,23.188625 29.5660625,23.132375 C29.4910625,23.076125 29.5473125,24.094875 29.4660625,24.313625 C29.3785625,24.526125 29.5098125,24.676125 29.3035625,24.669875 C29.1785625,24.669875 29.1223125,24.401125 29.1098125,24.282375 C29.1035625,24.163625 29.1098125,23.382375 29.0973125,23.294875 C29.0848125,23.207375 28.9410625,23.932375 28.8973125,24.026125 C28.8598125,24.113625 28.8285625,24.307375 28.7348125,24.269875 C28.6348125,24.226125 28.5910625,24.057375 28.6098125,23.882375 C28.6285625,23.707375 28.6473125,23.257375 28.6535625,23.213625 C28.6535625,23.169875 28.6535625,23.082375 28.6473125,23.026125 C28.6410625,22.982375 28.6223125,22.894875 28.6098125,22.844875 C28.5973125,22.794875 28.4973125,21.951125 28.5285625,21.751125 C28.5598125,21.551125 28.5910625,21.413625 28.5723125,21.338625 C28.5535625,21.263625 28.2348125,20.213625 27.9598125,19.882375 C27.6910625,19.551125 27.3098125,18.557375 27.2035625,18.276125 C27.1035625,17.994875 26.8535625,17.232375 26.8660625,16.838625 C26.8785625,16.444875 26.9035625,16.244875 26.8410625,16.138625 C26.7848125,16.026125 26.4723125,15.276125 26.4098125,15.226125 C26.3410625,15.182375 26.2223125,16.276125 26.1973125,16.438625 C26.1785625,16.594875 26.1098125,16.994875 26.1598125,17.057375 C26.2160625,17.126125 26.2723125,17.763625 26.2535625,17.976125 C26.2410625,18.188625 26.2348125,18.619875 26.1473125,18.707375 C26.0535625,18.788625 26.2473125,19.088625 26.3223125,19.344875 C26.3973125,19.607375 26.7660625,20.432375 26.7848125,20.738625 C26.8035625,21.038625 27.0848125,22.032375 27.0160625,22.757375 C26.9535625,23.482375 26.8973125,25.726125 26.6473125,26.482375 C26.3973125,27.232375 26.5348125,27.126125 26.4785625,27.257375 C26.4598125,27.313625 26.3410625,27.669875 26.3160625,27.763625 C26.2848125,27.857375 26.1785625,29.144875 26.1785625,29.288625 L26.1785625,29.707375 C26.1723125,29.757375 26.0098125,30.251125 26.0535625,30.357375 C26.0973125,30.457375 26.3598125,31.557375 26.4285625,31.826125 C26.4910625,32.094875 26.4723125,33.251125 26.2598125,33.632375 C26.0410625,34.007375 25.6348125,35.482375 25.5223125,35.757375 C25.4098125,36.038625 25.2973125,36.376125 25.2723125,36.738625 C25.2410625,37.094875 25.2848125,37.294875 25.2848125,37.376125 C25.2848125,37.457375 25.2660625,37.838625 25.2848125,37.907375 C25.2973125,37.969875 25.4535625,38.513625 25.5285625,38.594875 C25.5973125,38.676125 25.6473125,38.801125 25.6473125,38.801125 L25.6473125,38.882375 C25.6473125,38.882375 25.8098125,39.119875 25.6910625,39.244875 C25.5660625,39.369875 25.3410625,39.388625 25.3410625,39.388625 C25.3410625,39.388625 25.3098125,39.413625 25.1598125,39.488625 C25.0098125,39.563625 24.9160625,39.488625 24.8973125,39.469875 C24.8785625,39.444875 24.6910625,39.626125 24.5910625,39.613625 C24.4910625,39.601125 24.4660625,39.469875 24.4660625,39.469875 C24.4660625,39.469875 24.3910625,39.613625 24.2660625,39.613625 C24.1473125,39.607375 24.0223125,39.532375 24.0223125,39.532375 C24.0223125,39.532375 23.9223125,39.738625 23.7285625,39.676125 C23.5348125,39.613625 23.3973125,39.532375 23.3660625,39.307375 C23.3598125,39.226125 23.5348125,38.838625 23.5348125,38.838625 C23.5348125,38.838625 23.5348125,38.638625 23.5785625,38.513625 C23.6160625,38.394875 23.7473125,38.194875 23.7473125,38.151125 C23.7410625,38.107375 23.6910625,37.794875 23.7285625,37.713625 C23.7660625,37.626125 23.7660625,37.432375 23.8160625,37.332375 C23.8598125,37.232375 23.9098125,37.076125 23.9035625,37.044875 C23.9035625,37.013625 23.8973125,36.919875 23.9223125,36.738625 C23.9535625,36.551125 24.0285625,36.213625 24.0660625,36.157375 C24.0973125,36.107375 24.1035625,35.476125 24.1035625,35.388625 C24.1098125,35.301125 24.1660625,34.351125 24.1473125,34.251125 C24.1285625,34.157375 24.0160625,33.482375 24.0473125,33.401125 C24.0723125,33.313625 23.9535625,32.626125 23.9785625,32.476125 C24.0035625,32.332375 24.1910625,31.394875 24.1910625,31.269875 C24.1910625,31.138625 24.1348125,29.988625 24.0473125,29.801125 C23.9535625,29.613625 23.7848125,28.513625 23.8035625,28.138625 C23.8223125,27.757375 23.6098125,26.501125 23.5910625,26.263625 C23.5723125,26.032375 23.3098125,24.526125 23.2910625,24.432375 C23.2723125,24.344875 23.2223125,23.826125 23.2160625,23.763625 C23.2098125,23.701125 23.2098125,23.294875 23.2098125,23.294875 L23.1285625,23.294875 C23.1285625,23.294875 23.0785625,24.569875 23.0285625,24.757375 C22.9848125,24.944875 22.8535625,26.013625 22.8098125,26.276125 C22.7598125,26.532375 22.5348125,27.494875 22.5535625,28.101125 C22.5723125,28.701125 22.4535625,29.426125 22.4598125,29.582375 C22.4723125,29.744875 22.3910625,29.832375 22.3598125,29.951125 C22.3348125,30.069875 22.1910625,31.238625 22.1785625,31.288625 C22.1598125,31.332375 22.3785625,32.163625 22.3910625,32.351125 C22.4035625,32.544875 22.3535625,33.638625 22.3035625,33.863625 C22.2598125,34.082375 22.2098125,34.626125 22.2223125,34.707375 C22.2285625,34.794875 22.3223125,35.301125 22.3223125,35.351125 C22.3160625,35.394875 22.2973125,36.044875 22.3223125,36.082375 C22.3410625,36.113625 22.4723125,36.444875 22.4535625,36.532375 C22.4348125,36.613625 22.4535625,36.863625 22.4848125,36.938625 C22.5098125,37.013625 22.5848125,37.319875 22.6035625,37.419875 C22.6223125,37.513625 22.6035625,37.838625 22.6035625,37.869875 C22.6035625,37.907375 22.6285625,38.094875 22.6723125,38.157375 C22.7035625,38.226125 22.8098125,38.351125 22.8285625,38.394875 C22.8473125,38.432375 22.8473125,38.757375 22.8473125,38.757375 C22.8473125,38.757375 22.9660625,39.063625 23.0473125,39.163625 C23.0473125,39.163625 23.1223125,39.426125 22.8473125,39.532375 C22.5723125,39.632375 22.4535625,39.551125 22.3785625,39.469875 C22.3035625,39.382375 22.2535625,39.557375 22.1660625,39.544875 C22.0723125,39.532375 21.9535625,39.407375 21.9535625,39.407375 C21.9535625,39.407375 21.8660625,39.532375 21.7535625,39.532375 C21.6348125,39.526125 21.5098125,39.369875 21.5098125,39.369875 C21.5098125,39.369875 21.4160625,39.451125 21.3160625,39.451125 C21.2223125,39.444875 21.0598125,39.288625 21.0598125,39.288625 C21.0598125,39.288625 20.9410625,39.369875 20.8598125,39.326125 C20.7785625,39.288625 20.6848125,39.326125 20.7285625,39.076125 C20.7473125,38.963625 20.6973125,38.882375 20.7348125,38.801125 C20.7785625,38.713625 20.7910625,38.657375 20.7910625,38.657375 C20.7910625,38.657375 21.1035625,37.869875 21.1035625,37.826125 L21.1035625,37.813625 L21.1035625,37.701125 C21.1035625,37.701125 21.1285625,36.976125 21.1348125,36.894875 C21.1410625,36.807375 20.9723125,35.344875 20.5473125,34.832375 C20.5035625,34.776125 20.1098125,33.707375 20.0535625,33.451125 C19.9973125,33.201125 19.7910625,32.313625 20.1285625,31.744875 C20.1598125,31.694875 20.2848125,31.007375 20.2973125,30.963625 C20.3035625,30.913625 20.2598125,28.257375 20.1660625,28.163625 C20.0723125,28.069875 19.8723125,27.513625 19.7598125,27.026125 C19.6535625,26.544875 19.4348125,24.276125 19.4160625,23.994875 C19.3973125,23.719875 19.3660625,21.626125 19.4723125,21.432375 C19.5723125,21.232375 19.5598125,21.182375 19.5598125,21.182375 C19.5598125,21.182375 19.5410625,20.719875 19.5973125,20.544875 C19.6535625,20.369875 19.8535625,19.788625 19.8910625,19.757375 C19.9223125,19.719875 20.1285625,18.901125 20.1660625,18.851125 C20.2035625,18.807375 20.0723125,18.632375 20.0848125,18.363625 C20.0910625,18.094875 20.1035625,17.426125 20.1660625,17.326125 C20.1660625,17.326125 20.1785625,16.532375 20.1660625,16.476125 C20.1598125,16.419875 19.9723125,15.013625 19.9723125,15.013625 C19.9723125,15.013625 19.5160625,16.107375 19.4973125,16.144875 C19.4785625,16.188625 19.4848125,17.319875 19.4410625,17.401125 C19.3973125,17.488625 19.3535625,17.651125 19.3535625,17.651125 C19.3535625,17.651125 19.3973125,17.732375 19.3535625,17.813625 C19.3160625,17.894875 19.0848125,18.338625 19.0285625,18.463625 C18.9723125,18.582375 18.8535625,19.001125 18.7973125,19.076125 C18.7473125,19.151125 18.2598125,20.026125 18.1848125,20.138625 C18.1098125,20.251125 18.0410625,20.501125 18.0160625,20.532375 C17.9910625,20.563625 17.9285625,20.663625 17.8973125,20.738625 C17.8598125,20.807375 17.7410625,21.132375 17.7410625,21.132375 L17.6910625,21.219875 C17.6910625,21.219875 17.7598125,21.826125 17.8223125,22.044875 C17.8285625,22.076125 17.7848125,22.557375 17.7410625,22.601125 C17.6910625,22.651125 17.7348125,24.101125 17.7348125,24.101125 C17.7348125,24.101125 17.6660625,24.188625 17.6098125,24.188625 C17.5535625,24.182375 17.4598125,24.101125 17.4223125,23.994875 C17.3848125,23.894875 17.2785625,22.988625 17.2473125,22.969875 C17.2098125,22.969875 17.2410625,24.213625 17.1848125,24.319875 C17.1223125,24.426125 17.1473125,24.538625 17.0410625,24.551125 C16.9410625,24.563625 16.8848125,24.369875 16.8785625,24.307375 C16.8723125,24.244875 16.7973125,23.007375 16.7973125,23.007375 L16.4723125,24.463625 C16.4723125,24.463625 16.4473125,24.638625 16.3473125,24.638625 C16.2410625,24.638625 16.1910625,24.432375 16.1910625,24.432375 L16.3535625,22.969875 L15.8348125,24.069875 C15.8348125,24.069875 15.7285625,24.207375 15.6098125,24.163625 C15.4910625,24.113625 15.6223125,23.563625 15.7223125,23.307375 C15.8223125,23.051125 15.9035625,22.876125 15.9098125,22.844875 L15.9098125,22.726125 L16.0660625,22.282375 C16.0660625,22.282375 16.0473125,22.201125 15.9848125,22.238625 C15.9285625,22.276125 15.6410625,22.669875 15.6098125,22.794875 C15.5848125,22.926125 15.3910625,23.032375 15.3348125,23.007375 C15.1660625,22.919875 15.2973125,22.601125 15.2973125,22.601125 C15.2973125,22.601125 15.5410625,22.032375 15.6035625,21.932375 C15.6598125,21.832375 15.9473125,21.263625 16.0660625,21.182375 C16.1910625,21.101125 16.3660625,20.969875 16.3910625,20.894875 C16.4160625,20.826125 16.4723125,20.657375 16.5160625,20.613625 C16.5535625,20.576125 16.6785625,20.182375 16.6973125,20.107375 C16.7160625,20.038625 16.9848125,18.888625 16.9910625,18.801125 C17.0035625,18.707375 17.0035625,18.138625 17.0035625,18.138625 C17.0035625,18.138625 17.4160625,16.488625 17.5973125,16.307375 C17.7848125,16.132375 17.7348125,16.107375 17.7348125,16.107375 C17.7348125,16.107375 17.8973125,15.288625 17.9285625,15.213625 C17.9535625,15.144875 18.1598125,13.444875 18.2598125,13.307375 C18.3598125,13.169875 18.3723125,12.888625 18.3348125,12.776125 C18.3035625,12.657375 18.2285625,12.201125 18.2223125,11.882375 C18.2223125,11.563625 18.2473125,10.388625 18.6660625,9.938625 C19.0910625,9.488625 19.3098125,9.232375 19.5973125,9.169875 C19.8910625,9.101125 20.4598125,9.044875 20.7723125,8.957375 C21.0785625,8.876125 21.4473125,8.751125 21.5785625,8.613625 C21.7098125,8.476125 22.0098125,8.076125 21.9535625,7.294875 C21.9410625,7.132375 21.9410625,7.026125 21.9473125,6.957375 C21.9535625,6.951125 21.9473125,6.951125 21.9473125,6.951125 C21.8910625,6.757375 21.7910625,6.601125 21.7910625,6.569875 C21.6473125,6.619875 21.5535625,6.344875 21.5410625,6.301125 C21.5285625,6.263625 21.4098125,5.763625 21.4035625,5.701125 C21.3973125,5.638625 21.3723125,5.569875 21.4285625,5.432375 C21.4285625,5.426125 21.4348125,5.419875 21.4348125,5.419875 C21.4160625,5.401125 21.4160625,5.369875 21.4160625,5.369875 C21.4160625,5.369875 21.2910625,4.963625 21.3223125,4.413625 C21.3473125,3.863625 21.6285625,3.482375 22.0785625,3.163625 C22.5223125,2.838625 23.0410625,2.844875 23.3348125,2.794875 C23.6285625,2.738625 24.1848125,3.163625 24.3098125,3.163625 C24.4285625,3.163625 24.5910625,3.282375 24.6723125,3.319875 C24.7535625,3.363625 24.9973125,3.976125 25.0535625,4.144875 C25.1098125,4.313625 25.0285625,4.638625 25.0160625,4.707375 C24.9973125,4.776125 25.0410625,5.026125 25.0410625,5.113625 C25.0410625,5.157375 24.9785625,5.244875 24.9160625,5.326125 C24.9223125,5.319875 24.9348125,5.319875 24.9410625,5.319875 C24.9973125,5.332375 25.1223125,5.394875 25.1410625,5.469875 C25.1598125,5.551125 25.1848125,5.557375 25.1598125,5.657375 C25.1348125,5.757375 24.9973125,6.326125 24.9973125,6.326125 C24.9973125,6.326125 24.8973125,6.551125 24.7848125,6.557375 C24.7160625,6.563625 24.7035625,6.551125 24.7035625,6.532375 C24.6848125,6.638625 24.6410625,6.844875 24.6160625,6.901125 C24.5723125,7.001125 24.4910625,7.338625 24.3973125,7.476125 C24.3598125,7.526125 24.3348125,7.563625 24.3160625,7.594875 C24.3285625,7.682375 24.3660625,7.844875 24.4098125,7.988625 C24.4723125,8.207375 24.4723125,8.601125 24.9973125,8.763625 C25.5285625,8.926125 26.6535625,9.163625 27.0723125,9.326125 C27.4973125,9.482375 27.8035625,9.994875 27.9410625,10.338625 C28.0723125,10.676125 28.2598125,11.501125 28.2223125,11.982375 C28.1848125,12.463625 28.0285625,13.057375 28.0348125,13.182375 C28.0473125,13.301125 28.1535625,13.519875 28.1848125,13.663625 C28.2098125,13.813625 28.3785625,15.207375 28.4160625,15.376125 C28.4535625,15.544875 28.7723125,16.594875 28.8973125,16.838625 C29.0160625,17.082375 29.2535625,17.863625 29.2723125,18.007375 C29.2910625,18.144875 29.3098125,19.132375 29.3535625,19.188625 C29.3973125,19.244875 29.6660625,20.613625 29.8723125,20.819875 C30.0723125,21.019875 30.5910625,21.557375 30.6410625,21.751125 C30.6910625,21.944875 31.0785625,22.626125 31.0848125,22.794875" id="Fill-80"></path>
            <path d="M39.9,11.7500625 C39.71875,11.9563125 39.50625,12.1563125 39.2875,12.3500625 C38.93125,12.6563125 38.525,12.9438125 38.075,13.2125625 C33.75625,15.7375625 25.38125,16.5000625 19.0125,16.6500625 C17.78125,16.6750625 16.61875,16.6813125 15.58125,16.6750625 C13.85,16.6625625 12.2625,16.5813125 10.83125,16.4500625 C7.625,16.1563125 5.18125,15.5813125 3.55625,14.8188125 C3.025,14.5625625 2.575,14.2938125 2.225,14.0000625 C2.14375,13.9375625 2.0625,13.8750625 1.9875,13.8063125 C0.9625,12.8375625 4.25,11.4688125 5.74375,10.9750625 L5.75,10.9750625 C6.10625,10.8500625 6.35625,10.7813125 6.41875,10.7813125 L6.425,10.7813125 C6.4625,10.7875625 6.325,10.8563125 5.95,11.0000625 C3.61875,11.8938125 5.5625,12.9125625 6.05,13.1375625 C6.1125,13.1688125 6.15625,13.1813125 6.15625,13.1813125 C6.15625,13.1813125 7.58125,13.9250625 10.11875,14.2438125 C13.6,14.6813125 24.25,14.1375625 27,13.6125625 C28.875,13.2563125 31.2125,12.8750625 33.33125,12.2375625 C34.11875,12.0000625 34.875,11.7188125 35.56875,11.4000625 C36.275,11.0688125 36.9125,10.6938125 37.44375,10.2563125 C38.3625,9.5000625 38.4,8.4750625 38.1875,7.6125625 C37.9875,6.7688125 37.55,6.0688125 37.4375,5.9063125 C37.43125,5.8938125 37.425,5.8875625 37.41875,5.8750625 C37.49375,5.9063125 38.79375,6.4938125 39.85625,7.5313125 C40.85625,8.5000625 41.1625,10.2875625 39.9,11.7500625" id="Fill-81"></path>
            <path d="M34.90625,4.2875625 C34.75625,4.4500625 34.59375,4.6063125 34.40625,4.7500625 C34.1,5.0000625 33.7375,5.2250625 33.3375,5.4313125 C30.54375,6.8750625 25.6875,7.3938125 21.71875,7.5375625 C20.6,7.5750625 19.55625,7.5875625 18.64375,7.5813125 C17.25,7.5688125 16.00625,7.5000625 14.9,7.3750625 C12.740625,7.1400625 11.15625,6.7069375 10.181875,6.1250625 C10.13125,6.0963125 10.0875,6.0681875 10.043125,6.0400625 C9.85875,5.9194375 9.689375,5.7950625 9.55625,5.6625625 C9.29375,5.4063125 9.43125,5.1188125 9.75625,4.8500625 C10.1125,4.5438125 10.70625,4.2563125 11.25,4.0438125 C11.425,3.9750625 11.575,3.9188125 11.68125,3.8813125 C11.85,3.8188125 12.00625,3.7688125 12.1375,3.7313125 C12.225,3.7000625 12.31875,3.6750625 12.41875,3.6563125 C12.55625,3.6250625 12.525,3.6625625 12.20625,3.7875625 C10.68125,4.3813125 11.89375,5.0375625 12.25,5.2063125 C12.30625,5.2313125 12.34375,5.2438125 12.34375,5.2438125 C12.34375,5.2438125 13.29375,5.7438125 14.99375,5.9563125 C17.31875,6.2438125 24.3875,5.7625625 26.225,5.4125625 C26.675,5.3313125 27.16875,5.2375625 27.675,5.1438125 C29.08125,4.8688125 30.6125,4.5250625 31.8625,3.9688125 C32.35625,3.7500625 32.8125,3.5000625 33.1875,3.2000625 C34.875,1.8563125 33.68125,0.1313125 33.5875,6.25e-05 C33.675,0.0313125 34.475,0.3563125 35.225,1.2438125 C35.81875,1.9500625 35.90625,3.1625625 34.90625,4.2875625" id="Fill-82"></path>
            <path d="M44.05,20.7000625 C43.36875,21.2625625 42.5375,21.7688125 41.58125,22.2313125 C41.06875,22.4813125 40.51875,22.7188125 39.94375,22.9375625 C33.38125,25.4563125 22.925,26.3188125 16.0875,26.2688125 C15.625,26.2625625 15.175,26.2563125 14.73125,26.2438125 C12.68125,26.2063125 10.8,26.1125625 9.11875,25.9563125 C5.55,25.6250625 2.88125,25.0188125 1.28125,24.1125625 C0.85,23.8688125 0.4875,23.6063125 0.21875,23.3125625 C0.2,23.3000625 0.18125,23.2813125 0.16875,23.2688125 C0.09375,23.1875625 0.0375,23.1000625 0,23.0188125 L0,22.4688125 C0.41875,21.4875625 2.925,20.6313125 4.3375,20.2625625 C4.3875,20.2500625 4.44375,20.2375625 4.5,20.2188125 C4.63125,20.1875625 4.74375,20.1625625 4.85,20.1375625 C4.85,20.1375625 4.85625,20.1438125 4.85625,20.1375625 C4.9375,20.1250625 5.025,20.1063125 5.1125,20.0875625 C5.1375,20.0875625 5.1625,20.0813125 5.1875,20.0750625 C5.3875,20.0438125 5.325,20.0938125 4.8625,20.2375625 C2.7,20.9000625 3.63125,21.7875625 4.4,22.2688125 C4.7375,22.4813125 5.04375,22.6125625 5.04375,22.6125625 C5.04375,22.6125625 6.7125,23.3938125 9.6875,23.7250625 C13.76875,24.1813125 26.1375,23.4250625 29.3625,22.8750625 C30.8875,22.6188125 32.7,22.2313125 34.475,21.7813125 C35.46875,21.5250625 36.45625,21.2500625 37.375,20.9688125 C38.95625,20.4750625 40.3375,19.9500625 41.23125,19.4500625 C43.0625,18.4188125 43.41875,17.0438125 43.2875,15.8875625 C43.16875,14.7938125 42.61875,13.8938125 42.48125,13.6938125 C42.4625,13.6625625 42.45,13.6500625 42.45,13.6500625 C42.45,13.6500625 43.775,14.1188125 44.80625,15.4938125 C45.70625,16.7000625 46.03125,19.0625625 44.05,20.7000625" id="Fill-83"></path>
            <path d="M43.2750625,29.8000625 C42.2063125,30.8688125 40.4125625,31.7250625 38.2375625,32.4000625 C38.2313125,32.4000625 38.2313125,32.4000625 38.2250625,32.4063125 L38.2125625,32.4063125 C37.8313125,32.5188125 37.4438125,32.6313125 37.0438125,32.7375625 C31.2438125,34.2688125 23.2875625,34.7063125 18.1125625,34.6688125 C10.6625625,34.6125625 5.7875625,33.6250625 3.9875625,32.0125625 C3.2250625,31.3250625 4.7250625,30.5000625 6.2063125,29.9375625 C6.2813125,29.9125625 6.3500625,29.8813125 6.4125625,29.8563125 C6.4813125,29.8313125 6.5438125,29.8063125 6.6125625,29.7813125 C6.6813125,29.7563125 6.7500625,29.7313125 6.8125625,29.7063125 C7.4000625,29.5063125 7.9313125,29.3500625 8.2563125,29.2688125 C8.2938125,29.2625625 8.3250625,29.2500625 8.3625625,29.2438125 C8.6938125,29.1688125 8.7000625,29.2125625 8.1063125,29.4125625 C5.7750625,30.2063125 7.5688125,31.1125625 8.1500625,31.3625625 C8.2500625,31.4063125 8.3188125,31.4313125 8.3188125,31.4313125 C8.3188125,31.4313125 9.8000625,32.1188125 12.4375625,32.4125625 L12.5688125,32.4313125 C13.1250625,32.4813125 13.8375625,32.5188125 14.6563125,32.5313125 C19.3375625,32.6125625 27.4875625,32.0750625 29.8938125,31.6625625 C31.2250625,31.4375625 32.6125625,31.1875625 33.9625625,30.8938125 C34.4875625,30.7813125 35.0063125,30.6563125 35.5125625,30.5313125 C37.0313125,30.1438125 38.4500625,29.6813125 39.5813125,29.1063125 C42.4063125,27.6750625 43.3188125,26.1063125 43.5625625,24.9688125 C43.7313125,24.1813125 43.5875625,23.6000625 43.5250625,23.4063125 C43.5063125,23.3625625 43.5000625,23.3375625 43.5000625,23.3375625 C43.5000625,23.3375625 44.6125625,24.0938125 44.9438125,25.7813125 C45.1500625,26.8500625 44.8375625,28.2375625 43.2750625,29.8000625" id="Fill-84"></path>
            <path d="M36.4875,36.9500625 C36.26875,37.0688125 36.04375,37.1750625 35.8125,37.2813125 C35.38125,37.4875625 34.93125,37.6750625 34.4625,37.8438125 C33.83125,38.0813125 33.16875,38.2875625 32.48125,38.4750625 C32.073125,38.5850625 31.625,38.6913125 31.15625,38.7944375 C29.0725,39.2675625 26.870625,39.5644375 24.775,39.7188125 C24.55,39.7375625 24.31875,39.7500625 24.09375,39.7688125 C22.71875,39.8500625 21.40625,39.8813125 20.2375,39.8688125 C19.4625,39.8625625 18.74375,39.8438125 18.0625,39.8063125 C15.225,39.6500625 13.1875,39.2313125 12,38.5688125 C11.95,38.5438125 11.9,38.5125625 11.85625,38.4875625 C11.76875,38.4375625 11.6875,38.3813125 11.60625,38.3250625 C11.5125,38.2563125 11.41875,38.1813125 11.3375,38.1063125 C10.6625,37.4750625 12.7,36.6688125 13.725,36.3563125 C13.875,36.3125625 14.05,36.2688125 14.2375,36.2250625 C14.33125,36.2125625 14.2625,36.2563125 13.93125,36.3750625 C12.44375,36.9250625 13.63125,37.5313125 13.975,37.6813125 C14.03125,37.7063125 14.06875,37.7250625 14.06875,37.7250625 C14.06875,37.7250625 15,38.1813125 16.6625,38.3750625 C18.9375,38.6438125 25.86875,38.2688125 27.65625,37.8750625 C28.71875,37.6438125 29.725,37.4063125 30.6625,37.1625625 C31.38125,36.9813125 32.06875,36.7875625 32.7,36.5875625 C35.10625,35.8250625 36.8625,34.9375625 37.69375,33.7313125 C37.96875,33.3375625 38.15,32.9063125 38.20625,32.4313125 C38.20625,32.4250625 38.21875,32.4250625 38.21875,32.4188125 C38.21875,32.4125625 38.225,32.4125625 38.225,32.4063125 C38.23125,32.4000625 38.23125,32.4000625 38.2375,32.4000625 C38.50625,32.4000625 40.225,34.9500625 36.4875,36.9500625" id="Fill-85"></path>
        </g>
    </g>
</svg>