<?xml version="1.0" encoding="UTF-8" standalone="no"?>
<svg width="188px" height="29px" viewBox="0 0 188 29" version="1.1" xmlns="http://www.w3.org/2000/svg" xmlns:xlink="http://www.w3.org/1999/xlink">
    <!-- Generator: Sketch 3.6.1 (26313) - http://www.bohemiancoding.com/sketch -->
    <title>w-healthcare-m</title>
    <desc>Created with Sketch.</desc>
    <defs>
        <path id="path-1" d="M0,28.7640511 L187.612868,28.7640511 L187.612868,-0.000246808511 L0,-0.000246808511 L0,28.7640511 Z"></path>
    </defs>
    <g id="Page-1" stroke="none" stroke-width="1" fill="none" fill-rule="evenodd">
        <g id="w-healthcare-m">
            <path d="M35.8763987,15.4384277 L35.8763987,15.3958532 C35.8763987,12.2077043 38.5838461,9.56808723 42.2387145,9.56808723 C45.8935829,9.56808723 48.5769118,12.1651298 48.5769118,15.3532787 L48.5769118,15.3958532 C48.5769118,18.5630234 45.8700829,21.2007894 42.1917145,21.2007894 C38.5609645,21.2007894 35.8763987,18.6043638 35.8763987,15.4384277 L35.8763987,15.4384277 Z M45.8478197,15.4384277 L45.8478197,15.3958532 C45.8478197,13.4331085 44.3345434,11.8078745 42.1917145,11.8078745 C40.0055961,11.8078745 38.6073461,13.4102787 38.6073461,15.3532787 L38.6073461,15.3958532 C38.6073461,17.3376191 40.1175303,18.9825979 42.2387145,18.9825979 C44.4495697,18.9825979 45.8478197,17.3585979 45.8478197,15.4384277 L45.8478197,15.4384277 Z" id="Fill-1" fill="#FEFEFE"></path>
            <path d="M49.8192579,9.80088936 L52.5489684,9.80088936 L52.5489684,11.6593574 C53.4296,10.4968894 54.6695342,9.56888936 56.5891132,9.56888936 C59.4078763,9.56888936 62.1369684,11.6593574 62.1369684,15.3540809 L62.1369684,15.3948043 C62.1369684,19.0901447 59.4301395,21.1799957 56.5891132,21.1799957 C54.6243895,21.1799957 53.3850737,20.2507617 52.5489684,19.216634 L52.5489684,24.3261872 L49.8192579,24.3261872 L49.8192579,9.80088936 Z M59.3614947,15.3948043 L59.3614947,15.3540809 C59.3614947,13.1994426 57.8055474,11.7864638 55.9570868,11.7864638 C54.1061526,11.7864638 52.4809421,13.2216553 52.4809421,15.3540809 L52.4809421,15.3948043 C52.4809421,17.5500596 54.1061526,18.9630383 55.9570868,18.9630383 C57.8296658,18.9630383 59.3614947,17.5914 59.3614947,15.3948043 L59.3614947,15.3948043 Z" id="Fill-3" fill="#FEFEFE"></path>
            <path d="M63.9765237,17.8661596 L63.9765237,11.9964362 L62.4644842,11.9964362 L62.4644842,9.80107447 L63.9765237,9.80107447 L63.9765237,6.74003191 L66.7062342,6.74003191 L66.7062342,9.80107447 L69.9108921,9.80107447 L69.9108921,11.9964362 L66.7062342,11.9964362 L66.7062342,17.4644787 C66.7062342,18.4560319 67.2485895,18.8589468 68.1731289,18.8589468 C68.7804184,18.8589468 69.3233921,18.7293723 69.8645105,18.4782447 L69.8645105,20.5680957 C69.1885763,20.9265851 68.4211158,21.1376064 67.4069053,21.1376064 C65.3976553,21.1376064 63.9765237,20.3145 63.9765237,17.8661596" id="Fill-5" fill="#FEFEFE"></path>
            <mask id="mask-2" fill="white">
                <use xlink:href="#path-1"></use>
            </mask>
            <g id="Clip-8"></g>
            <path d="M71.6916974,20.9470085 L74.4214079,20.9470085 L74.4214079,9.80051915 L71.6916974,9.80051915 L71.6916974,20.9470085 Z" id="Fill-7" fill="#FEFEFE" mask="url(#mask-2)"></path>
            <path d="M76.4754316,9.80088936 L79.2051421,9.80088936 L79.2051421,11.4902936 C79.9713658,10.4968894 81.0109316,9.56888936 82.8383658,9.56888936 C84.5520105,9.56888936 85.7468,10.3494213 86.3794447,11.5322511 C87.3509842,10.3494213 88.6131816,9.56888936 90.4177342,9.56888936 C93.0120105,9.56888936 94.5920763,11.1102085 94.5920763,13.8325064 L94.5920763,20.9467617 L91.8623658,20.9467617 L91.8623658,14.6136553 C91.8623658,12.8415702 90.9804974,11.8919745 89.4468132,11.8919745 C87.9576553,11.8919745 86.8976816,12.8625489 86.8976816,14.6562298 L86.8976816,20.9467617 L84.1692079,20.9467617 L84.1692079,14.5926766 C84.1692079,12.8625489 83.2656947,11.8919745 81.7536553,11.8919745 C80.2428526,11.8919745 79.2051421,12.9470809 79.2051421,14.6772085 L79.2051421,20.9467617 L76.4754316,20.9467617 L76.4754316,9.80088936 Z" id="Fill-9" fill="#FEFEFE" mask="url(#mask-2)"></path>
            <path d="M96.6508,6.39702979 L97.7132474,6.39702979 L97.7132474,12.0076043 C98.4497868,10.7087745 99.6872474,9.6919234 101.703918,9.6919234 C104.501037,9.6919234 106.127484,11.594817 106.127484,14.2356681 L106.127484,20.9864979 L105.065037,20.9864979 L105.065037,14.4306468 C105.065037,12.1587745 103.786761,10.6662 101.553024,10.6662 C99.3836026,10.6662 97.7132474,12.3105617 97.7132474,14.6040298 L97.7132474,20.9864979 L96.6508,20.9864979 L96.6508,6.39702979 Z" id="Fill-10" fill="#FEFEFE" mask="url(#mask-2)"></path>
            <path d="M107.017763,15.4902574 L107.017763,15.447683 C107.017763,12.2453426 109.273145,9.69272553 112.266921,9.69272553 C115.367684,9.69272553 117.340447,12.2021511 117.340447,15.4686617 C117.340447,15.6636404 117.340447,15.7290447 117.318803,15.9018106 L108.146382,15.9018106 C108.341184,18.6494064 110.315184,20.2511936 112.48275,20.2511936 C114.196395,20.2511936 115.367684,19.4934915 116.279855,18.5198319 L117.015776,19.1695553 C115.887776,20.3807681 114.564974,21.2464489 112.439461,21.2464489 C109.532882,21.2464489 107.017763,18.9307681 107.017763,15.4902574 L107.017763,15.4902574 Z M116.191421,14.9497468 C116.039908,12.721066 114.761013,10.6663851 112.223013,10.6663851 C110.032566,10.6663851 108.341184,12.5051085 108.146382,14.9497468 L116.191421,14.9497468 Z" id="Fill-11" fill="#FEFEFE" mask="url(#mask-2)"></path>
            <path d="M117.797275,17.7847745 L117.797275,17.7403489 C117.797275,15.4474979 119.770657,14.1499021 122.633946,14.1499021 C124.173814,14.1499021 125.235643,14.3442638 126.298709,14.6243915 L126.298709,14.1499021 C126.298709,11.9199872 124.931999,10.7735617 122.656209,10.7735617 C121.310525,10.7735617 120.204788,11.1419234 119.18563,11.6608383 L118.79417,10.7309872 C120.009367,10.1676468 121.202301,9.7789234 122.719907,9.7789234 C124.215867,9.7789234 125.410038,10.1904766 126.21213,10.9901362 C126.949907,11.7250085 127.340749,12.7430936 127.340749,14.1054766 L127.340749,20.9852638 L126.298709,20.9852638 L126.298709,19.1465404 C125.540525,20.207817 124.173814,21.2468809 122.069946,21.2468809 C120.009367,21.2468809 117.797275,20.0776255 117.797275,17.7847745 M126.320354,16.8543064 L126.320354,15.5992851 C125.387775,15.3611149 124.151551,15.1013489 122.568393,15.1013489 C120.22767,15.1013489 118.924657,16.1391787 118.924657,17.6755617 L118.924657,17.7193702 C118.924657,19.3205404 120.443499,20.2510085 122.135499,20.2510085 C124.390262,20.2510085 126.320354,18.8664128 126.320354,16.8543064" id="Fill-12" fill="#FEFEFE" mask="url(#mask-2)"></path>
            <path d="M129.141158,20.9852638 L130.203605,20.9852638 L130.203605,6.39702979 L129.141158,6.39702979 L129.141158,20.9852638 Z" id="Fill-13" fill="#FEFEFE" mask="url(#mask-2)"></path>
            <path d="M133.239682,18.1523957 L133.239682,10.9252255 L131.634879,10.9252255 L131.634879,9.95094894 L133.239682,9.95094894 L133.239682,6.42467234 L134.303366,6.42467234 L134.303366,9.95094894 L138.183958,9.95094894 L138.183958,10.9252255 L134.303366,10.9252255 L134.303366,18.0438 C134.303366,19.6239915 135.235945,20.1860979 136.514221,20.1860979 C137.056576,20.1860979 137.511734,20.0781191 138.141905,19.7967574 L138.141905,20.7913957 C137.577905,21.0523957 137.03555,21.1807362 136.341682,21.1807362 C134.628037,21.1807362 133.239682,20.2508851 133.239682,18.1523957" id="Fill-14" fill="#FEFEFE" mask="url(#mask-2)"></path>
            <path d="M139.595442,6.39702979 L140.657271,6.39702979 L140.657271,12.0076043 C141.395047,10.7087745 142.631889,9.6919234 144.648561,9.6919234 C147.445061,9.6919234 149.072126,11.594817 149.072126,14.2356681 L149.072126,20.9864979 L148.009061,20.9864979 L148.009061,14.4306468 C148.009061,12.1587745 146.730166,10.6662 144.496429,10.6662 C142.327626,10.6662 140.657271,12.3105617 140.657271,14.6040298 L140.657271,20.9864979 L139.595442,20.9864979 L139.595442,6.39702979 Z" id="Fill-15" fill="#FEFEFE" mask="url(#mask-2)"></path>
            <path d="M150.395424,15.5119766 L150.395424,15.4694021 C150.395424,12.3750404 152.867871,9.69161489 156.034805,9.69161489 C158.116411,9.69161489 159.417568,10.6436787 160.459608,11.725317 L159.699568,12.5052319 C158.745963,11.5303383 157.660016,10.6874872 156.012542,10.6874872 C153.496805,10.6874872 151.545687,12.7859766 151.545687,15.4255936 L151.545687,15.4694021 C151.545687,18.1299979 153.562358,20.251317 156.099739,20.251317 C157.660016,20.251317 158.875213,19.4510404 159.808411,18.4119766 L160.54495,19.060466 C159.417568,20.3377 158.073121,21.2465723 156.034805,21.2465723 C152.846226,21.2465723 150.395424,18.6069553 150.395424,15.5119766" id="Fill-16" fill="#FEFEFE" mask="url(#mask-2)"></path>
            <path d="M160.893492,17.7847745 L160.893492,17.7403489 C160.893492,15.4474979 162.867492,14.1499021 165.728926,14.1499021 C167.270032,14.1499021 168.331861,14.3442638 169.394926,14.6243915 L169.394926,14.1499021 C169.394926,11.9199872 168.028216,10.7735617 165.752426,10.7735617 C164.407361,10.7735617 163.301624,11.1419234 162.280611,11.6608383 L161.891005,10.7309872 C163.105584,10.1676468 164.298518,9.7789234 165.816124,9.7789234 C167.312703,9.7789234 168.506255,10.1904766 169.308347,10.9901362 C170.044887,11.7250085 170.436966,12.7430936 170.436966,14.1054766 L170.436966,20.9852638 L169.394926,20.9852638 L169.394926,19.1465404 C168.636742,20.207817 167.270032,21.2468809 165.166163,21.2468809 C163.105584,21.2468809 160.893492,20.0776255 160.893492,17.7847745 M169.416571,16.8543064 L169.416571,15.5992851 C168.483992,15.3611149 167.247768,15.1013489 165.664611,15.1013489 C163.322032,15.1013489 162.021492,16.1391787 162.021492,17.6755617 L162.021492,17.7193702 C162.021492,19.3205404 163.539097,20.2510085 165.231716,20.2510085 C167.486479,20.2510085 169.416571,18.8664128 169.416571,16.8543064" id="Fill-17" fill="#FEFEFE" mask="url(#mask-2)"></path>
            <path d="M172.085491,9.95094894 L173.147938,9.95094894 L173.147938,13.0891191 C174.014964,11.1202043 175.859096,9.6918 178.050162,9.7788 L178.050162,10.9468213 L177.940701,10.9468213 C175.381675,10.9468213 173.147938,12.8719277 173.147938,16.4648426 L173.147938,20.9863745 L172.085491,20.9863745 L172.085491,9.95094894 Z" id="Fill-18" fill="#FEFEFE" mask="url(#mask-2)"></path>
            <path d="M177.290741,15.4902574 L177.290741,15.447683 C177.290741,12.2453426 179.546122,9.69272553 182.538043,9.69272553 C185.640043,9.69272553 187.612807,12.2021511 187.612807,15.4686617 C187.612807,15.6636404 187.612807,15.7290447 187.591162,15.9018106 L178.417504,15.9018106 C178.614162,18.6494064 180.586307,20.2511936 182.755728,20.2511936 C184.468754,20.2511936 185.640043,19.4934915 186.550978,18.5198319 L187.289372,19.1695553 C186.160754,20.3807681 184.837333,21.2464489 182.712438,21.2464489 C179.805859,21.2464489 177.290741,18.9307681 177.290741,15.4902574 L177.290741,15.4902574 Z M186.464399,14.9497468 C186.312886,12.721066 185.033372,10.6663851 182.495991,10.6663851 C180.305543,10.6663851 178.614162,12.5051085 178.417504,14.9497468 L186.464399,14.9497468 Z" id="Fill-19" fill="#FEFEFE" mask="url(#mask-2)"></path>
            <path d="M16.5441237,0.225582979 C13.1613605,-0.534587234 9.64625526,0.612455319 7.72234737,3.89315745 C7.61659737,4.10171064 7.74461053,4.15045532 7.88808421,4.02890213 C8.04083421,3.89685957 8.24305789,3.67226383 8.63884737,3.27181702 C10.7470447,1.13075319 12.7773211,0.87407234 14.9065447,1.25354043 C19.2237421,2.02543404 21.7673079,7.62551915 20.6158079,13.508817 C20.2503211,15.3808596 19.5521237,17.0708809 18.6312947,18.4795404 C20.7073342,18.5202638 22.6343342,18.0827957 24.1816237,17.2553702 C25.5971895,8.89226383 22.2150447,1.49849787 16.5441237,0.225582979" id="Fill-20" fill="#FEFEFE" mask="url(#mask-2)"></path>
            <path d="M29.0152026,16.2651745 C29.7770974,12.8906851 28.6262158,9.38353617 25.3393079,7.46336596 C25.1284263,7.35908936 25.0795711,7.48557872 25.2020184,7.62749362 C25.3349789,7.78113191 25.5594658,7.98289787 25.9626763,8.37779149 C28.1067421,10.481217 28.3652421,12.5056638 27.9836763,14.6306851 C27.21065,18.9387277 21.5978605,21.4765362 15.7012158,20.3264085 C13.8243079,19.962366 12.1304526,19.2657489 10.7198342,18.3482383 C10.6790184,20.4177277 11.1168605,22.340983 11.9461632,23.8847702 C20.3282421,25.298366 27.7387816,21.9238766 29.0152026,16.2651745" id="Fill-21" fill="#FEFEFE" mask="url(#mask-2)"></path>
            <path d="M12.7097895,28.5387149 C16.0925526,29.2982681 19.6088947,28.1518426 21.5340395,24.8723745 C21.6373158,24.6619702 21.5093026,24.6126085 21.3676842,24.7353957 C21.2136974,24.8668213 21.0114737,25.0908 20.6169211,25.4924809 C18.5087237,27.6335447 16.4778289,27.8896085 14.3479868,27.5101404 C10.0307895,26.7382468 7.48784211,21.1387787 8.63872368,15.2560979 C9.00482895,13.3834383 9.70178947,11.6928 10.6232368,10.2853745 C8.54781579,10.2458851 6.62267105,10.6821191 5.07290789,11.5101617 C3.65796053,19.872034 7.03948684,27.2658 12.7097895,28.5387149" id="Fill-22" fill="#FEFEFE" mask="url(#mask-2)"></path>
            <path d="M0.226032895,12.7401936 C-0.535861842,16.116534 0.614401316,19.623066 3.90192763,21.5426191 C4.11157237,21.6487468 4.16104605,21.5185553 4.03921711,21.3778745 C3.90625658,21.2248532 3.68300658,21.0230872 3.27917763,20.6281936 C1.13449342,18.5253851 0.877230263,16.4997043 1.25694079,14.3753 C2.02996711,10.0672574 7.64275658,7.52883191 13.5400197,8.67834255 C15.4156908,9.04361915 17.1095461,9.74023617 18.5220197,10.6583638 C18.5609803,8.58764043 18.1249934,6.66685319 17.2944539,5.12183191 C8.91299342,3.70885319 1.50245395,7.08272553 0.226032895,12.7401936" id="Fill-23" fill="#FEFEFE" mask="url(#mask-2)"></path>
            <path d="M22.3448513,24.700966 L22.3448513,24.6960298 C22.3448513,24.2277106 22.7257987,23.8359021 23.2087855,23.8359021 C23.6930092,23.8359021 24.0690092,24.2233915 24.0690092,24.6917106 L24.0690092,24.6960298 C24.0690092,25.1643489 23.6880618,25.5567745 23.2044566,25.5567745 C22.7208513,25.5567745 22.3448513,25.1692851 22.3448513,24.700966 L22.3448513,24.700966 Z M23.9904697,24.6960298 L23.9904697,24.6917106 C23.9904697,24.2616468 23.6546671,23.9093277 23.2087855,23.9093277 C22.7616671,23.9093277 22.4233908,24.2653489 22.4233908,24.6960298 L22.4233908,24.700966 C22.4233908,25.1310298 22.7591934,25.4827319 23.2044566,25.4827319 C23.6521934,25.4827319 23.9904697,25.1260936 23.9904697,24.6960298 L23.9904697,24.6960298 Z M22.8686539,24.2301787 L23.2644434,24.2301787 C23.3757592,24.2301787 23.4685224,24.2653489 23.5266539,24.3233489 C23.569325,24.3634553 23.5977724,24.4233064 23.5977724,24.4942638 L23.5977724,24.4992 C23.5977724,24.6417319 23.5019171,24.7268809 23.369575,24.7577319 L23.6429171,25.1125191 L23.4808908,25.1125191 L23.2261013,24.7799447 L22.9997592,24.7799447 L22.9997592,25.1125191 L22.8686539,25.1125191 L22.8686539,24.2301787 Z M23.252075,24.6627106 C23.3757592,24.6627106 23.4617197,24.6053277 23.4617197,24.5072213 L23.4617197,24.5016681 C23.4617197,24.4091149 23.3856539,24.3492638 23.2601145,24.3492638 L22.9997592,24.3492638 L22.9997592,24.6627106 L23.252075,24.6627106 Z" id="Fill-24" fill="#FEFEFE" mask="url(#mask-2)"></path>
        </g>
    </g>
</svg>