<?xml version="1.0" encoding="UTF-8" standalone="no"?>
<svg width="258px" height="40px" viewBox="0 0 258 40" version="1.1" xmlns="http://www.w3.org/2000/svg" xmlns:xlink="http://www.w3.org/1999/xlink">
    <!-- Generator: Sketch 3.6.1 (26313) - http://www.bohemiancoding.com/sketch -->
    <title>w-healthcare-d</title>
    <desc>Created with Sketch.</desc>
    <defs></defs>
    <g id="Page-1" stroke="none" stroke-width="1" fill="none" fill-rule="evenodd">
        <g id="w-healthcare-d" fill="#FEFEFE">
            <path d="M49.3370298,21.294383 L49.3370298,21.2356596 C49.3370298,16.8382128 53.0602969,13.1973617 58.0864522,13.1973617 C63.1126075,13.1973617 66.802707,16.7794894 66.802707,21.1769362 L66.802707,21.2356596 C66.802707,25.6041702 63.0802904,29.2424681 58.021818,29.2424681 C53.0288302,29.2424681 49.3370298,25.6611915 49.3370298,21.294383 L49.3370298,21.294383 Z M63.0496743,21.294383 L63.0496743,21.2356596 C63.0496743,18.5284255 60.9686248,16.2867234 58.021818,16.2867234 C55.0154798,16.2867234 53.0926139,18.4969362 53.0926139,21.1769362 L53.0926139,21.2356596 C53.0926139,23.9139574 55.1694111,26.1828936 58.0864522,26.1828936 C61.1268084,26.1828936 63.0496743,23.9428936 63.0496743,21.294383 L63.0496743,21.294383 Z" id="Fill-1"></path>
            <path d="M68.5111746,13.5184681 L72.2650578,13.5184681 L72.2650578,16.0818723 C73.4760976,14.4784681 75.1812484,13.1984681 77.821043,13.1984681 C81.6973909,13.1984681 85.4504236,16.0818723 85.4504236,21.1780426 L85.4504236,21.2342128 C85.4504236,26.331234 81.7280071,29.2137872 77.821043,29.2137872 C75.1191656,29.2137872 73.4148652,27.9320851 72.2650578,26.5057021 L72.2650578,33.5533617 L68.5111746,33.5533617 L68.5111746,13.5184681 Z M81.6336072,21.2342128 L81.6336072,21.1780426 C81.6336072,18.2061277 79.4938768,16.2571915 76.9518838,16.2571915 C74.4064891,16.2571915 72.1715083,18.236766 72.1715083,21.1780426 L72.1715083,21.2342128 C72.1715083,24.2069787 74.4064891,26.1559149 76.9518838,26.1559149 C79.5270443,26.1559149 81.6336072,24.264 81.6336072,21.2342128 L81.6336072,21.2342128 Z" id="Fill-3"></path>
            <path d="M87.9801701,24.6429787 L87.9801701,16.5468085 L85.9008216,16.5468085 L85.9008216,13.5187234 L87.9801701,13.5187234 L87.9801701,9.29659574 L91.7340533,9.29659574 L91.7340533,13.5187234 L96.1410815,13.5187234 L96.1410815,16.5468085 L91.7340533,16.5468085 L91.7340533,24.0889362 C91.7340533,25.4565957 92.4798973,26.0123404 93.751319,26.0123404 C94.5864602,26.0123404 95.3331547,25.833617 96.0772978,25.487234 L96.0772978,28.3697872 C95.1477567,28.8642553 94.0923492,29.1553191 92.6976123,29.1553191 C89.9345026,29.1553191 87.9801701,28.02 87.9801701,24.6429787" id="Fill-5"></path>
            <path d="M98.5900353,28.8924255 L102.343918,28.8924255 L102.343918,13.5179574 L98.5900353,13.5179574 L98.5900353,28.8924255 Z" id="Fill-7"></path>
            <path d="M105.168601,13.5184681 L108.922484,13.5184681 L108.922484,15.8486809 C109.976191,14.4784681 111.405796,13.1984681 113.918874,13.1984681 C116.275469,13.1984681 117.918537,14.2750638 118.788546,15.9065532 C120.124602,14.2750638 121.860369,13.1984681 124.34198,13.1984681 C127.909615,13.1984681 130.082513,15.3244255 130.082513,19.0793191 L130.082513,28.8920851 L126.32863,28.8920851 L126.32863,20.156766 C126.32863,17.7125106 125.115889,16.4027234 123.006775,16.4027234 C120.958893,16.4027234 119.501223,17.7414468 119.501223,20.2154894 L119.501223,28.8920851 L115.74904,28.8920851 L115.74904,20.1278298 C115.74904,17.7414468 114.506534,16.4027234 112.427185,16.4027234 C110.349538,16.4027234 108.922484,17.8580426 108.922484,20.2444255 L108.922484,28.8920851 L105.168601,28.8920851 L105.168601,13.5184681 Z" id="Fill-9"></path>
            <path d="M132.913659,8.82348936 L134.37473,8.82348936 L134.37473,16.5622128 C135.387616,14.7707234 137.089365,13.3681702 139.86268,13.3681702 C143.709262,13.3681702 145.945944,15.9928511 145.945944,19.6354043 L145.945944,28.9468936 L144.484872,28.9468936 L144.484872,19.9043404 C144.484872,16.7707234 142.726993,14.712 139.65517,14.712 C136.671794,14.712 134.37473,16.9800851 134.37473,20.1434894 L134.37473,28.9468936 L132.913659,28.9468936 L132.913659,8.82348936 Z" id="Fill-10"></path>
            <path d="M147.17025,21.3658723 L147.17025,21.3071489 C147.17025,16.8901277 150.271839,13.3692766 154.388864,13.3692766 C158.653017,13.3692766 161.36595,16.8305532 161.36595,21.3360851 C161.36595,21.6050213 161.36595,21.695234 161.336184,21.9335319 L148.72232,21.9335319 C148.990212,25.7233191 151.704846,27.9326809 154.685671,27.9326809 C157.042266,27.9326809 158.653017,26.8875745 159.907429,25.5445957 L160.919464,26.440766 C159.368245,28.1114043 157.549134,29.3054468 154.626139,29.3054468 C150.629028,29.3054468 147.17025,26.1114043 147.17025,21.3658723 L147.17025,21.3658723 Z M159.785815,20.6203404 C159.577455,17.5462979 157.818726,14.7122553 154.328482,14.7122553 C151.316191,14.7122553 148.990212,17.2484255 148.72232,20.6203404 L159.785815,20.6203404 Z" id="Fill-11"></path>
            <path d="M161.994177,24.5307234 L161.994177,24.4694468 C161.994177,21.3068936 164.707961,19.5171064 168.645541,19.5171064 C170.763159,19.5171064 172.223381,19.7851915 173.685303,20.1715745 L173.685303,19.5171064 C173.685303,16.4413617 171.80581,14.8600851 168.676157,14.8600851 C166.825579,14.8600851 165.304976,15.3681702 163.903435,16.0839149 L163.365101,14.8013617 C165.036234,14.0243404 166.676751,13.4881702 168.763753,13.4881702 C170.82099,13.4881702 172.463208,14.0558298 173.56624,15.1588085 C174.580826,16.1724255 175.11831,17.5766809 175.11831,19.4558298 L175.11831,28.9451915 L173.685303,28.9451915 L173.685303,26.4090213 C172.642652,27.8728511 170.763159,29.3060426 167.869931,29.3060426 C165.036234,29.3060426 161.994177,27.6932766 161.994177,24.5307234 M173.715069,23.2473191 L173.715069,21.5162553 C172.432591,21.1877447 170.732543,20.8294468 168.555393,20.8294468 C165.336443,20.8294468 163.544546,22.2609362 163.544546,24.3800851 L163.544546,24.4405106 C163.544546,26.6490213 165.633249,27.9324255 167.960079,27.9324255 C171.060817,27.9324255 173.715069,26.0226383 173.715069,23.2473191" id="Fill-12"></path>
            <path d="M177.594223,28.9451915 L179.055295,28.9451915 L179.055295,8.82348936 L177.594223,8.82348936 L177.594223,28.9451915 Z" id="Fill-13"></path>
            <path d="M183.230491,25.0377872 L183.230491,15.0692766 L181.023575,15.0692766 L181.023575,13.7254468 L183.230491,13.7254468 L183.230491,8.86161702 L184.693264,8.86161702 L184.693264,13.7254468 L190.029833,13.7254468 L190.029833,15.0692766 L184.693264,15.0692766 L184.693264,24.888 C184.693264,27.0675745 185.975741,27.8428936 187.73362,27.8428936 C188.479464,27.8428936 189.105395,27.6939574 189.972003,27.3058723 L189.972003,28.6777872 C189.196393,29.0377872 188.450549,29.2148085 187.496345,29.2148085 C185.13975,29.2148085 183.230491,27.9322553 183.230491,25.0377872" id="Fill-14"></path>
            <path d="M191.970899,8.82348936 L193.43112,8.82348936 L193.43112,16.5622128 C194.445706,14.7707234 196.146605,13.3681702 198.91992,13.3681702 C202.765651,13.3681702 205.003184,15.9928511 205.003184,19.6354043 L205.003184,28.9468936 L203.541261,28.9468936 L203.541261,19.9043404 C203.541261,16.7707234 201.782532,14.712 198.710709,14.712 C195.728184,14.712 193.43112,16.9800851 193.43112,20.1434894 L193.43112,28.9468936 L191.970899,28.9468936 L191.970899,8.82348936 Z" id="Fill-15"></path>
            <path d="M206.822975,21.3958298 L206.822975,21.3371064 C206.822975,17.0690213 210.223071,13.3677447 214.578222,13.3677447 C217.440834,13.3677447 219.23018,14.6809362 220.663187,16.1728511 L219.617985,17.2485957 C218.306592,15.9039149 216.813203,14.7413617 214.547606,14.7413617 C211.087978,14.7413617 208.404811,17.6358298 208.404811,21.2766809 L208.404811,21.3371064 C208.404811,25.0068936 211.178126,27.9328511 214.667519,27.9328511 C216.813203,27.9328511 218.484336,26.8290213 219.767664,25.3958298 L220.780549,26.2902979 C219.23018,28.052 217.381303,29.305617 214.578222,29.305617 C210.193306,29.305617 206.822975,25.664766 206.822975,21.3958298" id="Fill-16"></path>
            <path d="M221.259862,24.5307234 L221.259862,24.4694468 C221.259862,21.3068936 223.974496,19.5171064 227.909525,19.5171064 C230.028845,19.5171064 231.489066,19.7851915 232.950988,20.1715745 L232.950988,19.5171064 C232.950988,16.4413617 231.071496,14.8600851 227.941842,14.8600851 C226.092115,14.8600851 224.571512,15.3681702 223.16742,16.0839149 L222.631637,14.8013617 C224.301919,14.0243404 225.942436,13.4881702 228.029438,13.4881702 C230.087526,13.4881702 231.728893,14.0558298 232.831926,15.1588085 C233.844811,16.1724255 234.383996,17.5766809 234.383996,19.4558298 L234.383996,28.9451915 L232.950988,28.9451915 L232.950988,26.4090213 C231.908338,27.8728511 230.028845,29.3060426 227.135616,29.3060426 C224.301919,29.3060426 221.259862,27.6932766 221.259862,24.5307234 M232.980754,23.2473191 L232.980754,21.5162553 C231.698277,21.1877447 229.998228,20.8294468 227.821078,20.8294468 C224.599576,20.8294468 222.811082,22.2609362 222.811082,24.3800851 L222.811082,24.4405106 C222.811082,26.6490213 224.898084,27.9324255 227.225764,27.9324255 C230.326502,27.9324255 232.980754,26.0226383 232.980754,23.2473191" id="Fill-17"></path>
            <path d="M236.651038,13.7254468 L238.11211,13.7254468 L238.11211,18.0539574 C239.30444,15.3382128 241.84048,13.368 244.853622,13.488 L244.853622,15.0990638 L244.703092,15.0990638 C241.183933,15.0990638 238.11211,17.754383 238.11211,22.7101277 L238.11211,28.9467234 L236.651038,28.9467234 L236.651038,13.7254468 Z" id="Fill-18"></path>
            <path d="M243.80927,21.3658723 L243.80927,21.3071489 C243.80927,16.8901277 246.910858,13.3692766 251.025332,13.3692766 C255.291186,13.3692766 258.004119,16.8305532 258.004119,21.3360851 C258.004119,21.6050213 258.004119,21.695234 257.974353,21.9335319 L245.358789,21.9335319 C245.629231,25.7233191 248.341314,27.9326809 251.32469,27.9326809 C253.680435,27.9326809 255.291186,26.8875745 256.543898,25.5445957 L257.559334,26.440766 C256.007264,28.1114043 254.187303,29.3054468 251.265159,29.3054468 C247.268047,29.3054468 243.80927,26.1114043 243.80927,21.3658723 L243.80927,21.3658723 Z M256.424835,20.6203404 C256.216475,17.5462979 254.456895,14.7122553 250.967502,14.7122553 C247.95521,14.7122553 245.629231,17.2484255 245.358789,20.6203404 L256.424835,20.6203404 Z" id="Fill-19"></path>
            <path d="M22.7513896,0.311148936 C18.099432,-0.737361702 13.2654782,0.844765957 10.6197304,5.36987234 C10.4743036,5.65753191 10.6503466,5.72476596 10.8476508,5.55710638 C11.0577118,5.37497872 11.3358087,5.06519149 11.8800963,4.51285106 C14.7792779,1.55965957 17.571303,1.20561702 20.4993999,1.72902128 C26.4363864,2.79370213 29.9342843,10.5179574 28.3507478,18.6328511 C27.8481322,21.2149787 26.887975,23.5460426 25.621656,25.4890213 C28.4766142,25.5451915 31.1266142,24.9417872 33.2544384,23.8005106 C35.2011168,12.2651915 30.5500096,2.06689362 22.7513896,0.311148936" id="Fill-20"></path>
            <path d="M39.9015501,22.4347234 C40.9493036,17.7802553 39.3666175,12.9428085 34.8464795,10.2942979 C34.5564763,10.1504681 34.4892908,10.3249362 34.6576797,10.5206809 C34.8405263,10.7325957 35.1492394,11.0108936 35.7037323,11.5555745 C38.6522401,14.4568511 39.0077279,17.2491915 38.4830006,20.1802553 C37.419939,26.122383 29.7012612,29.6228085 21.5922272,28.0364255 C19.0111136,27.5342979 16.681733,26.5734468 14.7418582,25.3079149 C14.6857285,28.162383 15.2878466,30.8151489 16.4282991,32.9445106 C27.9552888,34.8942979 38.1462227,30.2398298 39.9015501,22.4347234" id="Fill-21"></path>
            <path d="M17.4784339,39.3637447 C22.1303915,40.4114043 26.9660462,38.8301277 29.6134949,34.3067234 C29.7555199,34.0165106 29.5794769,33.9484255 29.384724,34.1177872 C29.1729621,34.2990638 28.8948652,34.608 28.3522786,35.1620426 C25.4530969,38.115234 22.6602214,38.4684255 19.7312741,37.9450213 C13.7942875,36.8803404 10.2972401,29.1569362 11.8799262,21.0428936 C12.3833922,18.4599149 13.3418485,16.128 14.609018,14.1867234 C11.7549101,14.1322553 9.10746149,14.7339574 6.97623556,15.8760851 C5.03040757,27.4097021 9.68066431,37.608 17.4784339,39.3637447" id="Fill-22"></path>
            <path d="M0.310839217,17.5726809 C-0.736914313,22.2297021 0.844921374,27.0662979 5.36590982,29.7139574 C5.65421213,29.8603404 5.72224807,29.680766 5.55470956,29.4867234 C5.37186297,29.2756596 5.06485077,28.9973617 4.50950738,28.4526809 C1.56014923,25.5522553 1.20636232,22.7582128 1.72853819,19.828 C2.79159981,13.8858723 10.5102776,10.3845957 18.6201621,11.9701277 C21.1995748,12.4739574 23.5289554,13.4348085 25.4713816,14.7011915 C25.5249599,11.8450213 24.9253931,9.19565957 23.7832397,7.06459574 C12.2571004,5.11565957 2.06616656,9.7692766 0.310839217,17.5726809" id="Fill-23"></path>
            <path d="M30.7285189,34.0702979 L30.7285189,34.0634894 C30.7285189,33.4175319 31.2523957,32.8771064 31.9165966,32.8771064 C32.5824984,32.8771064 33.0995716,33.4115745 33.0995716,34.0575319 L33.0995716,34.0634894 C33.0995716,34.7094468 32.5756948,35.2507234 31.9106435,35.2507234 C31.2455921,35.2507234 30.7285189,34.7162553 30.7285189,34.0702979 L30.7285189,34.0702979 Z M32.9915645,34.0634894 L32.9915645,34.0575319 C32.9915645,33.4643404 32.5297705,32.978383 31.9165966,32.978383 C31.3017218,32.978383 30.836526,33.4694468 30.836526,34.0634894 L30.836526,34.0702979 C30.836526,34.6634894 31.29832,35.1485957 31.9106435,35.1485957 C32.5263687,35.1485957 32.9915645,34.6566809 32.9915645,34.0634894 L32.9915645,34.0634894 Z M31.4488495,33.4209362 L31.993137,33.4209362 C32.1462179,33.4209362 32.2737853,33.4694468 32.3537275,33.5494468 C32.4124085,33.604766 32.4515292,33.6873191 32.4515292,33.7851915 L32.4515292,33.792 C32.4515292,33.9885957 32.3197096,34.1060426 32.1377134,34.1485957 L32.513612,34.6379574 L32.2907943,34.6379574 L31.9404092,34.179234 L31.6291447,34.179234 L31.6291447,34.6379574 L31.4488495,34.6379574 L31.4488495,33.4209362 Z M31.976128,34.0175319 C32.1462179,34.0175319 32.2644304,33.938383 32.2644304,33.8030638 L32.2644304,33.7954043 C32.2644304,33.6677447 32.1598251,33.5851915 31.9871839,33.5851915 L31.6291447,33.5851915 L31.6291447,34.0175319 L31.976128,34.0175319 Z" id="Fill-24"></path>
        </g>
    </g>
</svg>