<?xml version="1.0" encoding="UTF-8" standalone="no"?>
<svg width="234px" height="22px" viewBox="0 0 234 22" version="1.1" xmlns="http://www.w3.org/2000/svg" xmlns:xlink="http://www.w3.org/1999/xlink">
    <!-- Generator: Sketch 3.6.1 (26313) - http://www.bohemiancoding.com/sketch -->
    <title>w-jenkins-m</title>
    <desc>Created with Sketch.</desc>
    <defs></defs>
    <g id="Page-1" stroke="none" stroke-width="1" fill="none" fill-rule="evenodd">
        <g id="w-jenkins-m" fill="#FFFFFF">
            <g id="Page-1-Copy">
                <path d="M181.420956,14.0408798 L181.940971,13.6954989 C182.460987,14.6288556 183.028444,15.1140451 184.01827,15.1140451 C185.058301,15.1140451 185.855137,14.2834746 185.855137,12.7236583 L185.855137,6.64320014 L186.483853,6.64320014 L186.483853,12.6739702 C186.483853,13.7086516 186.18124,14.5007382 185.710048,14.9990805 C185.262807,15.4725788 184.659423,15.7156607 183.982804,15.7156607 C182.725831,15.7156607 181.940971,15.0248989 181.420956,14.0408798 L181.420956,14.0408798 Z" id="Fill-1"></path>
                <path d="M188.862015,6.64242072 L194.878812,6.64242072 L194.878812,7.25670191 L189.491192,7.25670191 L189.491192,10.7704293 L194.334845,10.7704293 L194.334845,11.383249 L189.491192,11.383249 L189.491192,14.9739442 L194.940071,14.9739442 L194.940071,15.5882254 L188.862015,15.5882254 L188.862015,6.64242072 Z" id="Fill-3"></path>
                <path d="M196.954775,6.64242072 L197.547104,6.64242072 L203.382886,14.4244524 L203.382886,6.64242072 L203.987191,6.64242072 L203.987191,15.5882254 L203.514617,15.5882254 L197.55908,7.63910534 L197.55908,15.5882254 L196.954775,15.5882254 L196.954775,6.64242072 Z" id="Fill-5"></path>
                <path d="M206.497176,6.64242072 L207.124972,6.64242072 L207.124972,12.5207166 L212.513973,6.64242072 L213.372989,6.64242072 L209.673923,10.5901881 L213.528671,15.5882254 L212.706964,15.5882254 L209.227603,11.0631993 L207.124972,13.3132903 L207.124972,15.5882254 L206.497176,15.5882254 L206.497176,6.64242072 Z" id="Fill-7"></path>
                <path d="M215.217824,15.5889074 L215.84608,15.5889074 L215.84608,6.64310272 L215.217824,6.64310272 L215.217824,15.5889074 Z" id="Fill-9"></path>
                <path d="M218.443256,6.64242072 L219.035586,6.64242072 L224.870446,14.4244524 L224.870446,6.64242072 L225.475672,6.64242072 L225.475672,15.5882254 L225.003559,15.5882254 L219.046179,7.63910534 L219.046179,15.5882254 L218.443256,15.5882254 L218.443256,6.64242072 Z" id="Fill-11"></path>
                <path d="M227.442197,14.2836695 L227.85259,13.7863014 C228.782538,14.6918912 229.642015,15.1137528 230.88517,15.1137528 C232.154119,15.1137528 233.023728,14.3601502 233.023728,13.3381344 L233.023728,13.312316 C233.023728,12.3667809 232.552997,11.8177762 230.631841,11.4095545 C228.602905,10.974053 227.780276,10.2457815 227.780276,8.89105034 L227.780276,8.86474488 C227.780276,7.53680633 228.928548,6.51430339 230.498728,6.51430339 C231.731289,6.51430339 232.541943,6.87234992 233.397734,7.60013429 L233.000699,8.12429492 C232.202482,7.39553628 231.403804,7.11445757 230.474316,7.11445757 C229.231161,7.11445757 228.408533,7.86952168 228.408533,8.80092979 L228.408533,8.82723525 C228.408533,9.77277036 228.867749,10.3485676 230.874116,10.7816334 C232.830738,11.2039822 233.651985,11.9449193 233.651985,13.2489881 L233.651985,13.2743193 C233.651985,14.7177095 232.480222,15.7153684 230.848783,15.7153684 C229.495545,15.7153684 228.456895,15.2418702 227.442197,14.2836695" id="Fill-12"></path>
                <path d="M72.8066038,6.90464718 L73.5817909,6.90464718 L73.5817909,8.42792812 C74.1045701,7.5398753 74.8323156,6.70151058 76.2716856,6.70151058 C77.6811166,6.70151058 78.5521082,7.55497659 78.9965857,8.54337986 C79.5170618,7.59005053 80.3871322,6.70151058 81.9075675,6.70151058 C83.8227356,6.70151058 85.0092371,8.12736389 85.0092371,10.2697974 L85.0092371,15.4412558 L84.2349712,15.4412558 L84.2349712,10.3677122 C84.2349712,8.52827858 83.3317377,7.45706182 81.8453867,7.45706182 C80.4829367,7.45706182 79.295514,8.56286538 79.295514,10.4704983 L79.295514,15.4412558 L78.5198663,15.4412558 L78.5198663,10.3204598 C78.5198663,8.54337986 77.6014331,7.45706182 76.1611419,7.45706182 C74.7203902,7.45706182 73.5817909,8.79669169 73.5817909,10.5192121 L73.5817909,15.4412558 L72.8066038,15.4412558 L72.8066038,6.90464718 Z" id="Fill-13"></path>
                <path d="M86.1959689,11.1905372 L86.1959689,11.1569247 C86.1959689,8.67836583 87.8430687,6.70253357 90.0258445,6.70253357 C92.2896856,6.70253357 93.728595,8.64426616 93.728595,11.1739745 C93.728595,11.3230388 93.728595,11.373214 93.7133952,11.5091255 L87.0176764,11.5091255 C87.1609225,13.6330478 88.6025955,14.8718401 90.1833691,14.8718401 C91.434815,14.8718401 92.2896856,14.2858129 92.9538685,13.5336716 L93.4932292,14.0349367 C92.6682975,14.9736519 91.7028832,15.6415183 90.1511273,15.6415183 C88.0328352,15.6415183 86.1959689,13.8522599 86.1959689,11.1905372 L86.1959689,11.1905372 Z M92.8916877,10.7725727 C92.7802229,9.04761654 91.8465899,7.45613626 89.995445,7.45613626 C88.3957868,7.45613626 87.1609225,8.87955388 87.0176764,10.7725727 L92.8916877,10.7725727 Z" id="Fill-14"></path>
                <path d="M94.5225284,11.2070512 L94.5225284,11.1739258 C94.5225284,8.39431559 96.4998773,6.70248485 98.4472873,6.70248485 C100.060764,6.70248485 101.107243,7.67481257 101.772347,8.74408077 L101.772347,4.07291321 L102.546613,4.07291321 L102.546613,15.4412558 L101.772347,15.4412558 L101.772347,13.5336229 C101.075001,14.6559891 100.045103,15.6414696 98.4472873,15.6414696 C96.4998773,15.6414696 94.5225284,13.9837385 94.5225284,11.2070512 M101.818868,11.1904885 L101.818868,11.1568759 C101.818868,8.96231865 100.20447,7.49213577 98.5260497,7.49213577 C96.7684062,7.49213577 95.3621993,8.84686691 95.3621993,11.1388518 L95.3621993,11.1739258 C95.3621993,13.4152483 96.83289,14.8562029 98.5260497,14.8562029 C100.20447,14.8562029 101.818868,13.3655602 101.818868,11.1904885" id="Fill-15"></path>
                <path d="M104.412129,15.4413045 L105.186395,15.4413045 L105.186395,6.90469589 L104.412129,6.90469589 L104.412129,15.4413045 Z" id="Fill-16"></path>
                <path d="M106.575744,11.2070512 L106.575744,11.1739258 C106.575744,8.77915471 108.380829,6.70248485 110.69119,6.70248485 C112.210704,6.70248485 113.159998,7.43952485 113.921827,8.27740244 L113.367267,8.87999231 C112.670842,8.12833817 111.880916,7.47459879 110.676451,7.47459879 C108.840045,7.47459879 107.415414,9.09628164 107.415414,11.1388518 L107.415414,11.1739258 C107.415414,13.2311101 108.887947,14.8717913 110.740935,14.8717913 C111.880916,14.8717913 112.765725,14.253613 113.445569,13.4483737 L113.983548,13.9525617 C113.159998,14.9399907 112.178923,15.6414696 110.69119,15.6414696 C108.36609,15.6414696 106.575744,13.5993865 106.575744,11.2070512" id="Fill-17"></path>
                <path d="M114.554459,12.9634277 L114.554459,12.9312766 C114.554459,11.1571195 115.995672,10.1521535 118.084025,10.1521535 C119.207885,10.1521535 119.983532,10.3012178 120.75872,10.5184814 L120.75872,10.1521535 C120.75872,8.42817169 119.761524,7.5391446 118.101067,7.5391446 C117.11861,7.5391446 116.311642,7.82558182 115.566855,8.22795792 L115.282665,7.50942917 C116.169778,7.07246627 117.039848,6.77044062 118.148508,6.77044062 C119.239666,6.77044062 120.110197,7.08659327 120.695618,7.70866867 C121.234518,8.27715887 121.518707,9.06339981 121.518707,10.1190281 L121.518707,15.4414994 L120.75872,15.4414994 L120.75872,14.0200303 C120.203699,14.8379352 119.207885,15.641226 117.67225,15.641226 C116.169778,15.641226 114.554459,14.7375848 114.554459,12.9634277 M120.774841,12.2439247 L120.774841,11.2720841 C120.094076,11.0894073 119.192685,10.8877321 118.037965,10.8877321 C116.326842,10.8877321 115.377549,11.6895615 115.377549,12.8811014 L115.377549,12.9132525 C115.377549,14.1525319 116.485748,14.8720349 117.719691,14.8720349 C119.365409,14.8720349 120.774841,13.8013053 120.774841,12.2439247" id="Fill-18"></path>
                <path d="M122.982995,15.4413045 L123.759564,15.4413045 L123.759564,4.07296193 L122.982995,4.07296193 L122.982995,15.4413045 Z" id="Fill-19"></path>
                <path d="M128.201621,11.2070512 L128.201621,11.1739258 C128.201621,8.77915471 130.006246,6.70248485 132.316607,6.70248485 C133.836582,6.70248485 134.785415,7.43952485 135.542638,8.27740244 L134.990841,8.87999231 C134.295338,8.12833817 133.503109,7.47459879 132.301407,7.47459879 C130.46362,7.47459879 129.040371,9.09628164 129.040371,11.1388518 L129.040371,11.1739258 C129.040371,13.2311101 130.511983,14.8717913 132.364509,14.8717913 C133.503109,14.8717913 134.390682,14.253613 135.069604,13.4483737 L135.608504,13.9525617 C134.785415,14.9399907 133.805722,15.6414696 132.316607,15.6414696 C129.991046,15.6414696 128.201621,13.5993865 128.201621,11.2070512" id="Fill-20"></path>
                <path d="M136.053626,11.1905372 L136.053626,11.1569247 C136.053626,8.67836583 137.700726,6.70253357 139.884423,6.70253357 C142.147343,6.70253357 143.587634,8.64426616 143.587634,11.1739745 C143.587634,11.3230388 143.587634,11.373214 143.570592,11.5091255 L136.878097,11.5091255 C137.01904,13.6330478 138.461174,14.8718401 140.042408,14.8718401 C141.294775,14.8718401 142.147343,14.2858129 142.813829,13.5336716 L143.352268,14.0349367 C142.529179,14.9736519 141.561922,15.6415183 140.010627,15.6415183 C137.890493,15.6415183 136.053626,13.8522599 136.053626,11.1905372 L136.053626,11.1905372 Z M142.749806,10.7725727 C142.63788,9.04761654 141.705169,7.45613626 139.854484,7.45613626 C138.253905,7.45613626 137.01904,8.87955388 136.878097,10.7725727 L142.749806,10.7725727 Z" id="Fill-21"></path>
                <path d="M144.74217,6.90464718 L145.517818,6.90464718 L145.517818,8.49515318 C146.055797,7.49116149 146.956727,6.70151058 148.429721,6.70151058 C150.470632,6.70151058 151.658055,8.17607771 151.658055,10.2186479 L151.658055,15.4412558 L150.883328,15.4412558 L150.883328,10.3677122 C150.883328,8.61206633 149.947853,7.45706182 148.317795,7.45706182 C146.736561,7.45706182 145.517818,8.72849235 145.517818,10.5021623 L145.517818,15.4412558 L144.74217,15.4412558 L144.74217,6.90464718 Z" id="Fill-22"></path>
                <path d="M153.520116,13.2496214 L153.520116,7.65678846 L152.348354,7.65678846 L152.348354,6.90464718 L153.520116,6.90464718 L153.520116,4.00422674 L154.293921,4.00422674 L154.293921,6.90464718 L157.128904,6.90464718 L157.128904,7.65678846 L154.293921,7.65678846 L154.293921,13.1648593 C154.293921,14.3870889 154.976528,14.821129 155.90924,14.821129 C156.306736,14.821129 156.638828,14.7378284 157.095741,14.5195905 L157.095741,15.2897559 C156.684888,15.491431 156.288773,15.5912944 155.783497,15.5912944 C154.533433,15.5912944 153.520116,14.8717913 153.520116,13.2496214" id="Fill-23"></path>
                <path d="M157.280626,11.1905372 L157.280626,11.1569247 C157.280626,8.67836583 158.927725,6.70253357 161.111422,6.70253357 C163.375724,6.70253357 164.813712,8.64426616 164.813712,11.1739745 C164.813712,11.3230388 164.813712,11.373214 164.798052,11.5091255 L158.104636,11.5091255 C158.246961,13.6330478 159.686792,14.8718401 161.27125,14.8718401 C162.519932,14.8718401 163.375724,14.2858129 164.040828,13.5336716 L164.578347,14.0349367 C163.756178,14.9736519 162.789843,15.6415183 161.238087,15.6415183 C159.117953,15.6415183 157.280626,13.8522599 157.280626,11.1905372 L157.280626,11.1905372 Z M163.977726,10.7725727 C163.865801,9.04761654 162.931247,7.45613626 161.081484,7.45613626 C159.480904,7.45613626 158.246961,8.87955388 158.104636,10.7725727 L163.977726,10.7725727 Z" id="Fill-24"></path>
                <path d="M165.970045,6.90464718 L166.744311,6.90464718 L166.744311,9.33303077 C167.377173,7.80731414 168.723962,6.70151058 170.320857,6.76970992 L170.320857,7.67432543 L170.244398,7.67432543 C168.375289,7.67432543 166.744311,9.16301956 166.744311,11.9440912 L166.744311,15.4412558 L165.970045,15.4412558 L165.970045,6.90464718 Z" id="Fill-25"></path>
                <path d="M25.837359,11.0976399 L25.837359,11.0630531 C25.837359,8.63466954 27.7829266,6.62522475 30.4097193,6.62522475 C33.0346695,6.62522475 34.963195,8.60300556 34.963195,11.0304149 L34.963195,11.0630531 C34.963195,13.4758483 33.0185486,15.4862674 30.3751744,15.4862674 C27.7658845,15.4862674 25.837359,13.5075123 25.837359,11.0976399 M33.0015064,11.0976399 L33.0015064,11.0630531 C33.0015064,9.56900048 31.9154154,8.33118249 30.3751744,8.33118249 C28.8036127,8.33118249 27.7999688,9.55097637 27.7999688,11.0304149 L27.7999688,11.0630531 C27.7999688,12.5444402 28.884678,13.7949238 30.4097193,13.7949238 C31.9974019,13.7949238 33.0015064,12.5585672 33.0015064,11.0976399" id="Fill-26"></path>
                <path d="M35.8565256,6.80122775 L37.8182141,6.80122775 L37.8182141,8.21831258 C38.4515369,7.33318259 39.341413,6.62537089 40.719984,6.62537089 C42.7470775,6.62537089 44.7087661,8.21831258 44.7087661,11.0300739 L44.7087661,11.0631993 C44.7087661,13.8788577 42.7631985,15.470338 40.719984,15.470338 C39.3096317,15.470338 38.4188344,14.761552 37.8182141,13.9728753 L37.8182141,17.8660833 L35.8565256,17.8660833 L35.8565256,6.80122775 Z M42.7129933,11.0631993 L42.7129933,11.0300739 C42.7129933,9.39134121 41.595121,8.31476593 40.2676764,8.31476593 C38.9360864,8.31476593 37.7693907,9.40887818 37.7693907,11.0300739 L37.7693907,11.0631993 C37.7693907,12.7048548 38.9360864,13.7809429 40.2676764,13.7809429 C41.6121631,13.7809429 42.7129933,12.7370059 42.7129933,11.0631993 L42.7129933,11.0631993 Z" id="Fill-27"></path>
                <path d="M46.0300847,12.9461343 L46.0300847,8.47566766 L44.9435331,8.47566766 L44.9435331,6.80137389 L46.0300847,6.80137389 L46.0300847,4.47187934 L47.9913127,4.47187934 L47.9913127,6.80137389 L50.2929228,6.80137389 L50.2929228,8.47566766 L47.9913127,8.47566766 L47.9913127,12.6402116 C47.9913127,13.3957628 48.3800577,13.7021727 49.0451618,13.7021727 C49.4822697,13.7021727 49.8714753,13.6037708 50.2597598,13.4123255 L50.2597598,15.0028315 C49.7742891,15.2766031 49.2229528,15.4358973 48.4933649,15.4358973 C47.0503102,15.4358973 46.0300847,14.8104119 46.0300847,12.9461343" id="Fill-28"></path>
                <path d="M51.5736627,15.2932145 L53.5353513,15.2932145 L53.5353513,6.80142261 L51.5736627,6.80142261 L51.5736627,15.2932145 Z" id="Fill-29"></path>
                <path d="M55.0120758,6.80122775 L56.9733038,6.80122775 L56.9733038,8.08922098 C57.5237188,7.33318259 58.2694276,6.62537089 59.5830543,6.62537089 C60.815155,6.62537089 61.6732498,7.22016655 62.1273998,8.12137209 C62.8252064,7.22016655 63.7335064,6.62537089 65.0291697,6.62537089 C66.8950538,6.62537089 68.0295076,7.79986093 68.0295076,9.87409509 L68.0295076,15.2930197 L66.0682796,15.2930197 L66.0682796,10.4674293 C66.0682796,9.11854385 65.4344963,8.39416945 64.3318237,8.39416945 C63.2623142,8.39416945 62.5000239,9.13315799 62.5000239,10.5010419 L62.5000239,15.2930197 L60.5387959,15.2930197 L60.5387959,10.4523281 C60.5387959,9.13315799 59.890734,8.39416945 58.8037218,8.39416945 C57.7190126,8.39416945 56.9733038,9.19746023 56.9733038,10.5161432 L56.9733038,15.2930197 L55.0120758,15.2930197 L55.0120758,6.80122775 Z" id="Fill-30"></path>
                <path d="M195.34374,14.3856994 C195.649117,14.3856994 196.049377,13.8722326 195.588778,13.8722326 C195.282941,13.8722326 194.88176,14.3856994 195.34374,14.3856994" id="Fill-31"></path>
                <path d="M11.6248126,0.305679178 C9.24766425,-0.259888194 6.77839626,0.593577815 5.42653998,3.0385241 C5.35284423,3.19343403 5.44266092,3.22996939 5.54261077,3.13887456 C5.6494696,3.04047266 5.7913339,2.87435855 6.06907473,2.57428146 C7.55128037,0.979878354 8.97821419,0.788433068 10.4737772,1.06999891 C13.5095812,1.64677046 15.2962424,5.81764715 14.486971,10.1994547 C14.2299571,11.5951054 13.7389592,12.8548446 13.0913578,13.903653 C14.5514548,13.9338556 15.9051534,13.6079602 16.9921656,12.9912433 C17.9875188,6.76220799 15.6112917,1.25413712 11.6248126,0.305679178" id="Fill-32"></path>
                <path d="M17.8059969,5.69669075 C17.6581449,5.62021006 17.6240606,5.71422772 17.7097319,5.82042384 C17.8032334,5.9349013 17.9612186,6.08396557 18.244026,6.37868414 C19.7524858,7.94532037 19.9321191,9.45301289 19.6645115,11.0362118 C19.1219266,14.2454778 15.1769013,16.1375223 11.0333582,15.2801592 C9.71466496,15.0088233 8.52401811,14.489534 7.53188917,13.8065664 C7.50425327,15.3478714 7.8110118,16.7795704 8.39412937,17.9297035 C14.2842616,18.982409 19.4931689,16.4687763 20.3899539,12.2545443 C20.9247087,9.74091153 20.1163585,7.12741545 17.8059969,5.69669075 Z" id="Fill-33"></path>
                <path d="M8.93123315,21.3973476 C11.3074603,21.962915 13.7790312,21.1089618 15.1318087,18.6669384 C15.2045833,18.5091056 15.1152272,18.4720831 15.0143561,18.5636651 C14.9079579,18.6625541 14.765633,18.8281811 14.4878922,19.1277711 C13.0070683,20.7231484 11.5787527,20.9131323 10.0831897,20.6301051 C7.04968871,20.0562563 5.26072455,15.8839182 6.06953533,11.5016236 C6.32747043,10.1069471 6.81708653,8.84769505 7.46560906,7.79986093 C6.00689395,7.76917122 4.65365587,8.09360522 3.56526187,8.71275779 C2.56944814,14.9408188 4.94613585,20.4488897 8.93123315,21.3973476" id="Fill-34"></path>
                <path d="M0.158353728,9.62833391 C-0.375940409,12.1439152 0.431027977,14.7554628 2.74231072,16.1852132 C2.8892416,16.2631553 2.92332588,16.1681633 2.83765458,16.0634286 C2.74415311,15.9494383 2.58708906,15.7989126 2.30428164,15.5041941 C0.795821905,13.9365836 0.616188531,12.4284039 0.882875001,10.8456921 C1.42592051,7.63740036 5.36956395,5.74633013 9.5149495,6.60125755 C10.8327215,6.8740549 12.0229078,7.39334415 13.0154973,8.07728609 C13.0440544,6.53500676 12.7363747,5.10428207 12.1527965,3.95317466 C6.26312484,2.90046916 1.05606,5.41410192 0.158353728,9.62833391" id="Fill-35"></path>
                <path d="M175.583792,19.9083612 L176.309235,19.9083612 L176.309235,0 L175.583792,0 L175.583792,19.9083612 Z" id="Fill-37"></path>
            </g>
        </g>
    </g>
</svg>