<?xml version="1.0" encoding="UTF-8" standalone="no"?>
<svg width="246px" height="22px" viewBox="0 0 246 22" version="1.1" xmlns="http://www.w3.org/2000/svg" xmlns:xlink="http://www.w3.org/1999/xlink">
    <!-- Generator: Sketch 3.6.1 (26313) - http://www.bohemiancoding.com/sketch -->
    <title>w-screven-m</title>
    <desc>Created with Sketch.</desc>
    <defs></defs>
    <g id="Page-1" stroke="none" stroke-width="1" fill="none" fill-rule="evenodd">
        <g id="w-screven-m" fill="#FFFFFF">
            <g id="Group" transform="translate(186.450000, 6.600000)">
                <path d="M0.368908069,7.99583544 L0.815535707,7.48592109 C1.82738395,8.41732848 2.75871954,8.84750091 4.11274657,8.84750091 C5.48962178,8.84750091 6.43618949,8.07611983 6.43618949,7.02699817 L6.43618949,7.00150245 C6.43618949,6.03266517 5.92482533,5.46850461 3.8347603,5.04972389 C1.62827833,4.60490498 0.738831082,3.85956208 0.738831082,2.46868931 L0.738831082,2.44319359 C0.738831082,1.08161377 1.98460123,0.0352044161 3.69168714,0.0352044161 C5.03048204,0.0352044161 5.91068121,0.400281396 6.84528083,1.14725168 L6.41007728,1.68428914 C5.54239021,0.937861317 4.67742317,0.649813953 3.66557492,0.649813953 C2.3120919,0.649813953 1.41992463,1.42282242 1.41992463,2.37701322 L1.41992463,2.4030514 C1.41992463,3.37351606 1.91877669,3.96262988 4.09914646,4.40799124 C6.22620378,4.84087598 7.12054707,5.59869551 7.12054707,6.93423715 L7.12054707,6.96298764 C7.12054707,8.44119681 5.84648869,9.46373783 4.07303424,9.46373783 C2.60204626,9.46373783 1.47160505,8.97986166 0.368908069,7.99583544 L0.368908069,7.99583544 Z" id="Fill-1"></path>
                <path d="M7.90483826,4.77426164 L7.90483826,4.74930839 C7.90483826,2.15362733 9.84856609,0.00818980447 12.5038517,0.00818980447 C14.1451131,0.00818980447 15.1292171,0.610865176 16.0741528,1.47500727 L15.5889009,1.97298746 C14.7870383,1.20052146 13.8676708,0.623341803 12.4891636,0.623341803 C10.2837696,0.623341803 8.61530804,2.41780636 8.61530804,4.72272774 L8.61530804,4.74930839 C8.61530804,7.06616393 10.3104259,8.87527497 12.5038517,8.87527497 C13.8274145,8.87527497 14.7342699,8.36319076 15.6688695,7.44751477 L16.1258332,7.89179122 C15.1558733,8.8476094 14.1059448,9.48934204 12.4761075,9.48934204 C9.84856609,9.48934204 7.90483826,7.40737258 7.90483826,4.77426164" id="Fill-3"></path>
                <path d="M17.477249,0.16604627 L21.3391365,0.16604627 C22.4679457,0.16604627 23.3737131,0.518646622 23.9264216,1.0697881 C24.3594491,1.50104545 24.6222032,2.11782483 24.6222032,2.7720341 L24.6222032,2.79861474 C24.6222032,4.32944274 23.4803379,5.20714638 21.9304693,5.41490936 L24.96547,9.33148558 L24.0950629,9.33148558 L21.1672311,5.53533594 L21.1422069,5.53533594 L18.1610626,5.53533594 L18.1610626,9.33148558 L17.477249,9.33148558 L17.477249,0.16604627 Z M21.2602558,4.91801409 C22.7981564,4.91801409 23.9394777,4.14609055 23.9394777,2.823568 L23.9394777,2.79861474 C23.9394777,1.56668336 22.9673418,0.792589972 21.3005122,0.792589972 L18.1610626,0.792589972 L18.1610626,4.91801409 L21.2602558,4.91801409 Z" id="Fill-5"></path>
                <path d="M26.183768,0.16604627 L32.7221572,0.16604627 L32.7221572,0.792589972 L26.8659495,0.792589972 L26.8659495,4.39453818 L32.1313684,4.39453818 L32.1313684,5.02270927 L26.8659495,5.02270927 L26.8659495,8.70439941 L32.7901578,8.70439941 L32.7901578,9.33148558 L26.183768,9.33148558 L26.183768,0.16604627 Z" id="Fill-7"></path>
                <path d="M33.6669297,0.16604627 L34.4290799,0.16604627 L38.0265812,8.59807684 L41.6387707,0.16604627 L42.3601205,0.16604627 L38.3159916,9.39820841 L37.7116027,9.39820841 L33.6669297,0.16604627 Z" id="Fill-9"></path>
                <path d="M43.5146611,0.16604627 L50.0557704,0.16604627 L50.0557704,0.792589972 L44.1984747,0.792589972 L44.1984747,4.39453818 L49.4638936,4.39453818 L49.4638936,5.02270927 L44.1984747,5.02270927 L44.1984747,8.70439941 L50.1210509,8.70439941 L50.1210509,9.33148558 L43.5146611,9.33148558 L43.5146611,0.16604627 Z" id="Fill-11"></path>
                <path d="M51.5241472,0.16604627 L52.1693364,0.16604627 L58.5118841,8.14078131 L58.5118841,0.16604627 L59.1679534,0.16604627 L59.1679534,9.33148558 L58.6565893,9.33148558 L52.1818485,1.18587498 L52.1818485,9.33148558 L51.5241472,9.33148558 L51.5241472,0.16604627 Z" id="Fill-13"></path>
            </g>
            <path d="M74.0057714,6.90464718 L74.7937263,6.90464718 L74.7937263,8.42792812 C75.325116,7.5398753 76.0648478,6.70151058 77.5279251,6.70151058 C78.9605703,6.70151058 79.8459076,7.55497659 80.2977059,8.54337986 C80.8267546,7.59005053 81.7111556,6.70151058 83.2566333,6.70151058 C85.2033454,6.70151058 86.4093892,8.12736389 86.4093892,10.2697974 L86.4093892,15.4412558 L85.6223707,15.4412558 L85.6223707,10.3677122 C85.6223707,8.52827858 84.7042605,7.45706182 83.1934284,7.45706182 C81.808538,7.45706182 80.6015578,8.56286538 80.6015578,10.4704983 L80.6015578,15.4412558 L79.8131347,15.4412558 L79.8131347,10.3204598 C79.8131347,8.54337986 78.8795744,7.45706182 77.4155608,7.45706182 C75.951079,7.45706182 74.7937263,8.79669169 74.7937263,10.5192121 L74.7937263,15.4412558 L74.0057714,15.4412558 L74.0057714,6.90464718 Z" id="Fill-13"></path>
            <path d="M87.6156672,11.1905372 L87.6156672,11.1569247 C87.6156672,8.67836583 89.2898957,6.70253357 91.5086231,6.70253357 C93.809751,6.70253357 95.2723601,8.64426616 95.2723601,11.1739745 C95.2723601,11.3230388 95.2723601,11.373214 95.25691,11.5091255 L88.4509087,11.5091255 C88.5965142,13.6330478 90.0619323,14.8718401 91.6687423,14.8718401 C92.9408002,14.8718401 93.809751,14.2858129 94.4848734,13.5336716 L95.0331177,14.0349367 C94.1945989,14.9736519 93.2132837,15.6415183 91.6359694,15.6415183 C89.4827878,15.6415183 87.6156672,13.8522599 87.6156672,11.1905372 L87.6156672,11.1905372 Z M94.4216684,10.7725727 C94.3083677,9.04761654 93.3593573,7.45613626 91.4777229,7.45613626 C89.8517174,7.45613626 88.5965142,8.87955388 88.4509087,10.7725727 L94.4216684,10.7725727 Z" id="Fill-14"></path>
            <path d="M96.0793701,11.2070512 L96.0793701,11.1739258 C96.0793701,8.39431559 98.0892871,6.70248485 100.068772,6.70248485 C101.708823,6.70248485 102.772539,7.67481257 103.448598,8.74408077 L103.448598,4.07291321 L104.235616,4.07291321 L104.235616,15.4412558 L103.448598,15.4412558 L103.448598,13.5336229 C102.739766,14.6559891 101.692905,15.6414696 100.068772,15.6414696 C98.0892871,15.6414696 96.0793701,13.9837385 96.0793701,11.2070512 M103.495884,11.1904885 L103.495884,11.1568759 C103.495884,8.96231865 101.854897,7.49213577 100.148832,7.49213577 C98.3622388,7.49213577 96.9328708,8.84686691 96.9328708,11.1388518 L96.9328708,11.1739258 C96.9328708,13.4152483 98.4277846,14.8562029 100.148832,14.8562029 C101.854897,14.8562029 103.495884,13.3655602 103.495884,11.1904885" id="Fill-15"></path>
            <path d="M106.131858,15.4413045 L106.918876,15.4413045 L106.918876,6.90469589 L106.131858,6.90469589 L106.131858,15.4413045 Z" id="Fill-16"></path>
            <path d="M108.331109,11.2070512 L108.331109,11.1739258 C108.331109,8.77915471 110.165925,6.70248485 112.514339,6.70248485 C114.058881,6.70248485 115.023809,7.43952485 115.798187,8.27740244 L115.234492,8.87999231 C114.526597,8.12833817 113.72366,7.47459879 112.499357,7.47459879 C110.632705,7.47459879 109.184609,9.09628164 109.184609,11.1388518 L109.184609,11.1739258 C109.184609,13.2311101 110.681396,14.8717913 112.564903,14.8717913 C113.72366,14.8717913 114.623043,14.253613 115.314084,13.4483737 L115.860924,13.9525617 C115.023809,14.9399907 114.026576,15.6414696 112.514339,15.6414696 C110.150943,15.6414696 108.331109,13.5993865 108.331109,11.2070512" id="Fill-17"></path>
            <path d="M116.441239,12.9634277 L116.441239,12.9312766 C116.441239,11.1571195 117.906189,10.1521535 120.028938,10.1521535 C121.171309,10.1521535 121.959732,10.3012178 122.747687,10.5184814 L122.747687,10.1521535 C122.747687,8.42817169 121.734067,7.5391446 120.046261,7.5391446 C119.047623,7.5391446 118.227363,7.82558182 117.470309,8.22795792 L117.181439,7.50942917 C118.083162,7.07246627 118.967563,6.77044062 120.094484,6.77044062 C121.203614,6.77044062 122.088483,7.08659327 122.683545,7.70866867 C123.231322,8.27715887 123.520192,9.06339981 123.520192,10.1190281 L123.520192,15.4414994 L122.747687,15.4414994 L122.747687,14.0200303 C122.183524,14.8379352 121.171309,15.641226 119.610381,15.641226 C118.083162,15.641226 116.441239,14.7375848 116.441239,12.9634277 M122.764073,12.2439247 L122.764073,11.2720841 C122.072096,11.0894073 121.155859,10.8877321 119.98212,10.8877321 C118.242813,10.8877321 117.277885,11.6895615 117.277885,12.8811014 L117.277885,12.9132525 C117.277885,14.1525319 118.404337,14.8720349 119.658604,14.8720349 C121.331428,14.8720349 122.764073,13.8013053 122.764073,12.2439247" id="Fill-18"></path>
            <path d="M125.008598,15.4413045 L125.797957,15.4413045 L125.797957,4.07296193 L125.008598,4.07296193 L125.008598,15.4413045 Z" id="Fill-19"></path>
            <path d="M130.313177,11.2070512 L130.313177,11.1739258 C130.313177,8.77915471 132.147525,6.70248485 134.49594,6.70248485 C136.040949,6.70248485 137.00541,7.43952485 137.775105,8.27740244 L137.21422,8.87999231 C136.507261,8.12833817 135.701983,7.47459879 134.480489,7.47459879 C132.612432,7.47459879 131.165742,9.09628164 131.165742,11.1388518 L131.165742,11.1739258 C131.165742,13.2311101 132.661592,14.8717913 134.544631,14.8717913 C135.701983,14.8717913 136.604175,14.253613 137.29428,13.4483737 L137.842056,13.9525617 C137.00541,14.9399907 136.009581,15.6414696 134.49594,15.6414696 C132.132075,15.6414696 130.313177,13.5993865 130.313177,11.2070512" id="Fill-20"></path>
            <path d="M138.294509,11.1905372 L138.294509,11.1569247 C138.294509,8.67836583 139.968738,6.70253357 142.188402,6.70253357 C144.488593,6.70253357 145.952607,8.64426616 145.952607,11.1739745 C145.952607,11.3230388 145.952607,11.373214 145.935284,11.5091255 L139.13256,11.5091255 C139.275825,13.6330478 140.741711,14.8718401 142.348989,14.8718401 C143.621983,14.8718401 144.488593,14.2858129 145.166057,13.5336716 L145.713365,14.0349367 C144.876718,14.9736519 143.893531,15.6415183 142.316684,15.6415183 C140.16163,15.6415183 138.294509,13.8522599 138.294509,11.1905372 L138.294509,11.1905372 Z M145.100979,10.7725727 C144.98721,9.04761654 144.039136,7.45613626 142.15797,7.45613626 C140.531028,7.45613626 139.275825,8.87955388 139.13256,10.7725727 L145.100979,10.7725727 Z" id="Fill-21"></path>
            <path d="M147.126159,6.90464718 L147.914582,6.90464718 L147.914582,8.49515318 C148.461422,7.49116149 149.377191,6.70151058 150.874446,6.70151058 C152.948972,6.70151058 154.155952,8.17607771 154.155952,10.2186479 L154.155952,15.4412558 L153.368466,15.4412558 L153.368466,10.3677122 C153.368466,8.61206633 152.417582,7.45706182 150.760677,7.45706182 C149.153399,7.45706182 147.914582,8.72849235 147.914582,10.5021623 L147.914582,15.4412558 L147.126159,15.4412558 L147.126159,6.90464718 Z" id="Fill-22"></path>
            <path d="M156.048683,13.2496214 L156.048683,7.65678846 L154.857621,7.65678846 L154.857621,6.90464718 L156.048683,6.90464718 L156.048683,4.00422674 L156.835233,4.00422674 L156.835233,6.90464718 L159.71691,6.90464718 L159.71691,7.65678846 L156.835233,7.65678846 L156.835233,13.1648593 C156.835233,14.3870889 157.529083,14.821129 158.477157,14.821129 C158.8812,14.821129 159.218761,14.7378284 159.683201,14.5195905 L159.683201,15.2897559 C159.26558,15.491431 158.862941,15.5912944 158.349342,15.5912944 C157.078689,15.5912944 156.048683,14.8717913 156.048683,13.2496214" id="Fill-23"></path>
            <path d="M159.87113,11.1905372 L159.87113,11.1569247 C159.87113,8.67836583 161.545359,6.70253357 163.765022,6.70253357 C166.066618,6.70253357 167.528291,8.64426616 167.528291,11.1739745 C167.528291,11.3230388 167.528291,11.373214 167.512373,11.5091255 L160.708712,11.5091255 C160.853382,13.6330478 162.316927,14.8718401 163.927482,14.8718401 C165.196731,14.8718401 166.066618,14.2858129 166.742677,13.5336716 L167.289049,14.0349367 C166.453339,14.9736519 165.471087,15.6415183 163.893773,15.6415183 C161.738719,15.6415183 159.87113,13.8522599 159.87113,11.1905372 L159.87113,11.1905372 Z M166.678536,10.7725727 C166.564767,9.04761654 165.61482,7.45613626 163.73459,7.45613626 C162.107648,7.45613626 160.853382,8.87955388 160.708712,10.7725727 L166.678536,10.7725727 Z" id="Fill-24"></path>
            <path d="M168.703669,6.90464718 L169.490687,6.90464718 L169.490687,9.33303077 C170.133973,7.80731414 171.502945,6.70151058 173.126142,6.76970992 L173.126142,7.67432543 L173.048423,7.67432543 C171.148529,7.67432543 169.490687,9.16301956 169.490687,11.9440912 L169.490687,15.4412558 L168.703669,15.4412558 L168.703669,6.90464718 Z" id="Fill-25"></path>
            <path d="M26.2629155,11.0976399 L26.2629155,11.0630531 C26.2629155,8.63466954 28.2405278,6.62522475 30.9105852,6.62522475 C33.57877,6.62522475 35.5390594,8.60300556 35.5390594,11.0304149 L35.5390594,11.0630531 C35.5390594,13.4758483 33.5623835,15.4862674 30.8754714,15.4862674 C28.2232049,15.4862674 26.2629155,13.5075123 26.2629155,11.0976399 M33.5450607,11.0976399 L33.5450607,11.0630531 C33.5450607,9.56900048 32.4410811,8.33118249 30.8754714,8.33118249 C29.2780251,8.33118249 28.2578506,9.55097637 28.2578506,11.0304149 L28.2578506,11.0630531 C28.2578506,12.5444402 29.3604256,13.7949238 30.9105852,13.7949238 C32.524418,13.7949238 33.5450607,12.5585672 33.5450607,11.0976399" id="Fill-26"></path>
            <path d="M36.4471036,6.80122775 L38.4411024,6.80122775 L38.4411024,8.21831258 C39.0848564,7.33318259 39.9893892,6.62537089 41.3906661,6.62537089 C43.4511471,6.62537089 45.4451458,8.21831258 45.4451458,11.0300739 L45.4451458,11.0631993 C45.4451458,13.8788577 43.4675335,15.470338 41.3906661,15.470338 C39.9570845,15.470338 39.0516152,14.761552 38.4411024,13.9728753 L38.4411024,17.8660833 L36.4471036,17.8660833 L36.4471036,6.80122775 Z M43.4165014,11.0631993 L43.4165014,11.0300739 C43.4165014,9.39134121 42.2802171,8.31476593 40.9309087,8.31476593 C39.5773867,8.31476593 38.3914748,9.40887818 38.3914748,11.0300739 L38.3914748,11.0631993 C38.3914748,12.7048548 39.5773867,13.7809429 40.9309087,13.7809429 C42.2975399,13.7809429 43.4165014,12.7370059 43.4165014,11.0631993 L43.4165014,11.0631993 Z" id="Fill-27"></path>
            <path d="M46.7882273,12.9461343 L46.7882273,8.47566766 L45.6837795,8.47566766 L45.6837795,6.80137389 L46.7882273,6.80137389 L46.7882273,4.47187934 L48.7817578,4.47187934 L48.7817578,6.80137389 L51.1212769,6.80137389 L51.1212769,8.47566766 L48.7817578,8.47566766 L48.7817578,12.6402116 C48.7817578,13.3957628 49.1769057,13.7021727 49.8529645,13.7021727 C50.2972718,13.7021727 50.6928878,13.6037708 51.0875676,13.4123255 L51.0875676,15.0028315 C50.5941009,15.2766031 50.0336838,15.4358973 49.2920792,15.4358973 C47.8252564,15.4358973 46.7882273,14.8104119 46.7882273,12.9461343" id="Fill-28"></path>
            <path d="M52.4231113,15.2932145 L54.41711,15.2932145 L54.41711,6.80142261 L52.4231113,6.80142261 L52.4231113,15.2932145 Z" id="Fill-29"></path>
            <path d="M55.9181571,6.80122775 L57.9116876,6.80122775 L57.9116876,8.08922098 C58.4711683,7.33318259 59.2291594,6.62537089 60.5644222,6.62537089 C61.8168163,6.62537089 62.6890445,7.22016655 63.1506746,8.12137209 C63.8599745,7.22016655 64.7832347,6.62537089 66.1002383,6.62537089 C67.9968546,6.62537089 69.1499936,7.79986093 69.1499936,9.87409509 L69.1499936,15.2930197 L67.1564631,15.2930197 L67.1564631,10.4674293 C67.1564631,9.11854385 66.5122409,8.39416945 65.3914067,8.39416945 C64.3042818,8.39416945 63.5294361,9.13315799 63.5294361,10.5010419 L63.5294361,15.2930197 L61.5359055,15.2930197 L61.5359055,10.4523281 C61.5359055,9.13315799 60.8771696,8.39416945 59.7722537,8.39416945 C58.6696787,8.39416945 57.9116876,9.19746023 57.9116876,10.5161432 L57.9116876,15.2930197 L55.9181571,15.2930197 L55.9181571,6.80122775 Z" id="Fill-30"></path>
            <path d="M11.8162801,0.305679178 C9.39997872,-0.259888194 6.89004043,0.593577815 5.51591828,3.0385241 C5.44100873,3.19343403 5.53230475,3.22996939 5.63390083,3.13887456 C5.74251969,3.04047266 5.88672058,2.87435855 6.16903597,2.57428146 C7.67565439,0.979878354 9.12609066,0.788433068 10.6462864,1.06999891 C13.7320919,1.64677046 15.5481805,5.81764715 14.7255799,10.1994547 C14.4643328,11.5951054 13.9652479,12.8548446 13.3069802,13.903653 C14.7911258,13.9338556 16.1671207,13.6079602 17.2720366,12.9912433 C18.2837838,6.76220799 15.8684188,1.25413712 11.8162801,0.305679178" id="Fill-32"></path>
            <path d="M18.0992722,5.69669075 C17.9489849,5.62021006 17.9143392,5.71422772 18.0014216,5.82042384 C18.0964631,5.9349013 18.2570504,6.08396557 18.5445159,6.37868414 C20.0778208,7.94532037 20.2604129,9.45301289 19.9883975,11.0362118 C19.4368759,14.2454778 15.4268738,16.1375223 11.2150841,15.2801592 C9.87467121,15.0088233 8.66441371,14.489534 7.65594382,13.8065664 C7.62785273,15.3478714 7.93966376,16.7795704 8.53238561,17.9297035 C14.5195318,18.982409 19.8142328,16.4687763 20.7257885,12.2545443 C21.2693509,9.74091153 20.4476867,7.12741545 18.0992722,5.69669075 Z" id="Fill-33"></path>
            <path d="M9.07833582,21.3973476 C11.4937008,21.962915 14.00598,21.1089618 15.3810385,18.6669384 C15.4550117,18.5091056 15.3641839,18.4720831 15.2616514,18.5636651 C15.1535007,18.6625541 15.0088317,18.8281811 14.7265163,19.1277711 C13.2213024,20.7231484 11.7694616,20.9131323 10.2492658,20.6301051 C7.16580123,20.0562563 5.34737178,15.8839182 6.16950415,11.5016236 C6.43168759,10.1069471 6.92936795,8.84769505 7.58857204,7.79986093 C6.10583103,7.76917122 4.73030432,8.09360522 3.62398383,8.71275779 C2.61176846,14.9408188 5.02760162,20.4488897 9.07833582,21.3973476" id="Fill-34"></path>
            <path d="M0.160961907,9.62833391 C-0.382132369,12.1439152 0.438127261,14.7554628 2.78747819,16.1852132 C2.93682911,16.2631553 2.97147478,16.1681633 2.88439242,16.0634286 C2.78935093,15.9494383 2.62969994,15.7989126 2.34223452,15.5041941 C0.808929559,13.9365836 0.626337519,12.4284039 0.897416472,10.8456921 C1.44940626,7.63740036 5.45800383,5.74633013 9.67166631,6.60125755 C11.0111428,6.8740549 12.2209321,7.39334415 13.2298702,8.07728609 C13.2588976,6.53500676 12.9461502,5.10428207 12.3529602,3.95317466 C6.36628219,2.90046916 1.07345393,5.41410192 0.160961907,9.62833391" id="Fill-35"></path>
            <path d="M178.475761,19.9083612 L179.213152,19.9083612 L179.213152,0 L178.475761,0 L178.475761,19.9083612 Z" id="Fill-37"></path>
        </g>
    </g>
</svg>