<?xml version="1.0" encoding="UTF-8" standalone="no"?>
<svg width="297px" height="39px" viewBox="0 0 297 39" version="1.1" xmlns="http://www.w3.org/2000/svg" xmlns:xlink="http://www.w3.org/1999/xlink">
    <!-- Generator: Sketch 3.6.1 (26313) - http://www.bohemiancoding.com/sketch -->
    <title>w-surgeryC-d</title>
    <desc>Created with Sketch.</desc>
    <defs>
        <path id="path-1" d="M22.1363618,0.865365854 L0.404456704,0.865365854 L0.404456704,25.3834192 L22.1363618,25.3834192 L22.1363618,0.865365854 L22.1363618,0.865365854 Z"></path>
    </defs>
    <g id="Page-1" stroke="none" stroke-width="1" fill="none" fill-rule="evenodd">
        <g id="w-surgeryC-d" transform="translate(0.000000, -1.000000)">
            <g id="Group-3" transform="translate(9.523810, 0.110732)">
                <mask id="mask-2" fill="white">
                    <use xlink:href="#path-1"></use>
                </mask>
                <g id="Clip-2"></g>
                <path d="M11.8522857,1.16439024 C7.48180952,0.155609756 2.93990476,1.67560976 0.454190476,6.02878049 C0.318952381,6.30682927 0.482761905,6.3702439 0.66752381,6.20829268 C0.864666667,6.03463415 1.12561905,5.73609756 1.63704762,5.20536585 C4.3627619,2.36439024 6.98657143,2.02292683 9.73514286,2.52634146 C15.3170476,3.55170732 18.6018095,10.98 17.1132381,18.7858537 C16.6418095,21.2687805 15.7399048,23.5117073 14.550381,25.38 C17.2322857,25.4336585 19.7218095,24.8541463 21.7199048,23.7556098 C23.550381,12.6619512 19.1818095,2.85317073 11.8522857,1.16439024" id="Fill-1" fill="#FEFEFE" mask="url(#mask-2)"></path>
            </g>
            <path d="M37.4912381,22.5546341 C38.4750476,18.0765854 36.9893333,13.4239024 32.7417143,10.8756098 C32.4712381,10.7390244 32.4055238,10.9068293 32.5626667,11.0931707 C32.7369524,11.3 33.0255238,11.5653659 33.5464762,12.0892683 C36.3179048,14.8804878 36.6512381,17.5653659 36.1588571,20.3839024 C35.1607619,26.1009756 27.9064762,29.4678049 20.2874286,27.9419512 C17.863619,27.4570732 15.6750476,26.535122 13.8502857,25.3165854 C13.7988571,28.0629268 14.363619,30.6141463 15.436,32.6619512 C26.2664762,34.5360976 35.8407619,30.0590244 37.4912381,22.5546341" id="Fill-4" fill="#FEFEFE"></path>
            <path d="M16.4225714,38.8360976 C20.7930476,39.8439024 25.3368571,38.3239024 27.8235238,33.9726829 C27.9578095,33.6946341 27.794,33.6282927 27.6092381,33.7902439 C27.4111429,33.9658537 27.1501905,34.262439 26.6406667,34.7941463 C23.9149524,37.635122 21.2901905,37.9756098 18.5397143,37.4721951 C12.961619,36.4478049 9.67495238,29.0204878 11.1625714,21.2146341 C11.6359048,18.7307317 12.5368571,16.4878049 13.726381,14.6214634 C11.0454286,14.5678049 8.55590476,15.1453659 6.55590476,16.244878 C4.72542857,27.3395122 9.09590476,37.1482927 16.4225714,38.8360976" id="Fill-6" fill="#FEFEFE"></path>
            <path d="M0.291619048,17.8776585 C-0.692190476,22.3566829 0.79447619,27.0074146 5.04114286,29.5557073 C5.31161905,29.6952195 5.37542857,29.5244878 5.21828571,29.3361951 C5.04590476,29.1332683 4.75828571,28.8659512 4.23638095,28.3430244 C1.464,25.5518049 1.13352381,22.864 1.62304762,20.0454634 C2.62209524,14.3313171 9.87542857,10.9635122 17.4935238,12.4883902 C19.9192381,12.9732683 22.1068571,13.8961951 23.9306667,15.1157073 C23.9849524,12.3674146 23.4201905,9.81912195 22.3449524,7.77229268 C11.5173333,5.89619512 1.94019048,10.3713171 0.291619048,17.8776585" id="Fill-8" fill="#FEFEFE"></path>
            <path d="M28.8722857,33.7446829 L28.8722857,33.7388293 C28.8722857,33.1163902 29.3646667,32.5973659 29.9884762,32.5973659 C30.6141905,32.5973659 31.1008571,33.1105366 31.1008571,33.7329756 L31.1008571,33.7388293 C31.1008571,34.3602927 30.6075238,34.8802927 29.9827619,34.8802927 C29.3589524,34.8802927 28.8722857,34.3661463 28.8722857,33.7446829 L28.8722857,33.7446829 Z M30.998,33.7388293 L30.998,33.7329756 C30.998,33.1622439 30.5646667,32.6939512 29.9884762,32.6939512 C29.410381,32.6939512 28.9722857,33.1661463 28.9722857,33.7388293 L28.9722857,33.7446829 C28.9722857,34.3154146 29.4094286,34.7807805 29.9827619,34.7807805 C30.5608571,34.7807805 30.998,34.3085854 30.998,33.7388293 L30.998,33.7388293 Z M29.5494286,33.1202927 L30.0608571,33.1202927 C30.2037143,33.1202927 30.3237143,33.1661463 30.3999048,33.2441951 C30.4541905,33.2978537 30.490381,33.376878 30.490381,33.4724878 L30.490381,33.4773659 C30.490381,33.6676098 30.3675238,33.7788293 30.1960952,33.8188293 L30.5494286,34.2900488 L30.3389524,34.2900488 L30.0113333,33.8490732 L29.718,33.8490732 L29.718,34.2900488 L29.5494286,34.2900488 L29.5494286,33.1202927 Z M30.045619,33.6949268 C30.2037143,33.6949268 30.3160952,33.6188293 30.3160952,33.4880976 L30.3160952,33.4802927 C30.3160952,33.3583415 30.2170476,33.2773659 30.0532381,33.2773659 L29.718,33.2773659 L29.718,33.6949268 L30.045619,33.6949268 Z" id="Fill-10" fill="#FEFEFE"></path>
            <path d="M46.0673333,20.0432195 L46.0673333,19.9876098 C46.0673333,15.6266341 49.4254286,12.0207805 53.9635238,12.0207805 C58.5006667,12.0207805 61.8292381,15.5700488 61.8292381,19.9300488 L61.8292381,19.9876098 C61.8292381,24.3154146 58.4701905,27.9212683 53.906381,27.9212683 C49.3978095,27.9212683 46.0673333,24.3729756 46.0673333,20.0432195 M58.441619,20.0432195 L58.441619,19.9876098 C58.441619,17.3046829 56.5635238,15.0812683 53.906381,15.0812683 C51.1911429,15.0812683 49.4559048,17.2724878 49.4559048,19.9300488 L49.4559048,19.9876098 C49.4559048,22.6412683 51.3292381,24.8910244 53.9635238,24.8910244 C56.706381,24.8910244 58.441619,22.669561 58.441619,20.0432195" id="Fill-12" fill="#FEFEFE"></path>
            <path d="M63.3952381,12.3736585 L66.8704762,12.3736585 L66.8704762,14.8029268 C67.9933333,13.2829268 69.5733333,12.0673171 72.0152381,12.0673171 C75.6066667,12.0673171 79.0828571,14.8029268 79.0828571,19.6302439 L79.0828571,19.6868293 C79.0828571,24.5180488 75.6352381,27.5278049 72.0152381,27.5278049 C69.5133333,27.5278049 67.9361905,26.315122 66.8704762,24.9639024 L66.8704762,30.5990244 L63.3952381,30.5990244 L63.3952381,12.3736585 Z M75.5485714,19.6868293 L75.5485714,19.6302439 C75.5485714,16.8185366 73.5666667,14.9668293 71.2104762,14.9668293 C68.8542857,14.9668293 66.7838095,16.8458537 66.7838095,19.6302439 L66.7838095,19.6868293 C66.7838095,22.5014634 68.8542857,24.3512195 71.2104762,24.3512195 C73.5980952,24.3512195 75.5485714,22.5570732 75.5485714,19.6868293 L75.5485714,19.6868293 Z" id="Fill-14" fill="#FEFEFE"></path>
            <path d="M81.4244762,23.6427317 L81.4244762,15.2446829 L79.4997143,15.2446829 L79.4997143,12.3734634 L81.4244762,12.3734634 L81.4244762,8.77834146 L84.8997143,8.77834146 L84.8997143,12.3734634 L88.9787619,12.3734634 L88.9787619,15.2446829 L84.8997143,15.2446829 L84.8997143,23.116878 C84.8997143,24.4134634 85.5892381,24.9383415 86.7673333,24.9383415 C87.541619,24.9383415 88.2320952,24.7724878 88.921619,24.4446829 L88.921619,27.1754146 C88.0597143,27.6446829 87.0835238,27.9217561 85.7930476,27.9217561 C83.234,27.9217561 81.4244762,26.8427317 81.4244762,23.6427317" id="Fill-16" fill="#FEFEFE"></path>
            <path d="M91.247619,27.7712195 L94.7228571,27.7712195 L94.7228571,12.3380488 L91.247619,12.3380488 L91.247619,27.7712195 Z" id="Fill-18" fill="#FEFEFE"></path>
            <path d="M97.3405714,12.3383415 L100.817714,12.3383415 L100.817714,14.7139512 C101.792,13.4163902 103.112952,12.2007805 105.442476,12.2007805 C107.623429,12.2007805 109.14819,13.2202927 109.952952,14.7676098 C111.189143,13.2202927 112.794857,12.2007805 115.093905,12.2007805 C118.396762,12.2007805 120.409143,14.2183415 120.409143,17.7793171 L120.409143,27.8261463 L116.933905,27.8261463 L116.933905,18.7988293 C116.933905,16.4788293 115.812,15.2398049 113.860571,15.2398049 C111.964381,15.2398049 110.612,16.5090732 110.612,18.8534634 L110.612,27.8261463 L107.136762,27.8261463 L107.136762,18.7724878 C107.136762,16.5090732 105.987238,15.2398049 104.060571,15.2398049 C102.136762,15.2398049 100.817714,16.6173659 100.817714,18.8837073 L100.817714,27.8261463 L97.3405714,27.8261463 L97.3405714,12.3383415 Z" id="Fill-20" fill="#FEFEFE"></path>
            <path d="M128.311524,25.492878 L129.087714,24.4226341 C130.590571,25.6021463 132.251524,26.2616585 133.993429,26.2616585 C135.842952,26.2616585 137.289619,25.2187317 137.289619,23.5992195 L137.289619,23.5445854 C137.289619,21.8967805 135.574381,21.2919024 133.670571,20.7445854 C131.446762,20.0850732 128.982,19.3982439 128.982,16.8997073 L128.982,16.8450732 C128.982,14.5943415 130.831524,12.9738537 133.483905,12.9738537 C135.11819,12.9738537 136.967714,13.5787317 138.334381,14.5123902 L137.637238,15.6362927 C136.379143,14.785561 134.87819,14.2372683 133.429619,14.2372683 C131.554381,14.2372683 130.321048,15.2801951 130.321048,16.6801951 L130.321048,16.7348293 C130.321048,18.2997073 132.170571,18.8772683 134.127714,19.4538537 C136.324857,20.0850732 138.628667,20.9094634 138.628667,23.3787317 L138.628667,23.4343415 C138.628667,25.9319024 136.539143,27.5250732 133.912476,27.5250732 C131.929619,27.5250732 129.760095,26.7006829 128.311524,25.492878" id="Fill-21" fill="#FEFEFE"></path>
            <path d="M133.912286,27.6423415 C131.962762,27.6423415 129.735143,26.833561 128.238952,25.5847805 L128.153238,25.5116098 L129.065619,24.256 L129.159905,24.3301463 C130.690381,25.5340488 132.316095,26.1438049 133.993238,26.1438049 C135.866571,26.1438049 137.175143,25.0979512 137.175143,23.598439 L137.175143,23.5438049 C137.175143,22.0033171 135.57419,21.4140488 133.640857,20.8569756 L133.528476,20.8228293 C131.343714,20.1779512 128.865619,19.4452683 128.865619,16.8999024 L128.865619,16.8452683 C128.865619,14.496 130.765619,12.8569756 133.484667,12.8569756 C135.108476,12.8569756 136.990381,13.4530732 138.398952,14.4140488 L138.492286,14.4774634 L137.672286,15.8013659 L137.57419,15.736 C136.257048,14.8452683 134.784667,14.3555122 133.429429,14.3555122 C131.667524,14.3555122 130.437048,15.3106341 130.437048,16.6813659 L130.437048,16.7350244 C130.437048,18.2433171 132.329429,18.8003902 134.159905,19.3399024 C136.478,20.0072195 138.743714,20.8696585 138.743714,23.3789268 L138.743714,23.433561 C138.743714,25.873561 136.711333,27.6423415 133.912286,27.6423415 L133.912286,27.6423415 Z M128.470381,25.4716098 C129.927524,26.6491707 132.049429,27.4072195 133.912286,27.4072195 C136.62181,27.4072195 138.513238,25.7740488 138.513238,23.433561 L138.513238,23.3789268 C138.513238,21.0325854 136.330381,20.2101463 134.095143,19.5672195 C132.184667,19.0033171 130.205619,18.4199024 130.205619,16.7350244 L130.205619,16.6813659 C130.205619,15.1740488 131.531333,14.1194146 133.429429,14.1194146 C134.796095,14.1194146 136.273238,14.5994146 137.602762,15.4745366 L138.177048,14.5477073 C136.817048,13.6472195 135.028476,13.0930732 133.484667,13.0930732 C130.900857,13.0930732 129.097048,14.6364878 129.097048,16.8452683 L129.097048,16.8999024 C129.097048,19.2677073 131.382762,19.9438049 133.591333,20.5974634 L133.703714,20.6306341 C135.728476,21.2140488 137.403714,21.8374634 137.403714,23.5438049 L137.403714,23.598439 C137.403714,25.2101463 135.968476,26.3799024 133.993238,26.3799024 C132.298952,26.3799024 130.656095,25.7769756 129.111333,24.5877073 L128.470381,25.4716098 Z" id="Fill-22" fill="#FEFEFE"></path>
            <path d="M140.934286,21.8134634 L140.934286,13.249561 L142.246667,13.249561 L142.246667,21.5676098 C142.246667,24.449561 143.827619,26.3432195 146.587619,26.3432195 C149.268571,26.3432195 151.331429,24.2583415 151.331429,21.347122 L151.331429,13.249561 L152.645714,13.249561 L152.645714,27.249561 L151.331429,27.249561 L151.331429,24.6417561 C150.420952,26.2905366 148.892381,27.5802927 146.401905,27.5802927 C142.942857,27.5802927 140.934286,25.1637073 140.934286,21.8134634" id="Fill-23" fill="#FEFEFE"></path>
            <path d="M146.402095,27.697561 C143.008762,27.697561 140.819238,25.3882927 140.819238,21.8136585 L140.819238,13.1307317 L142.362095,13.1307317 L142.362095,21.5678049 C142.362095,24.4409756 143.981143,26.2263415 146.58781,26.2263415 C149.225905,26.2263415 151.217333,24.1307317 151.217333,21.3473171 L151.217333,13.1307317 L152.759238,13.1307317 L152.759238,27.3687805 L151.217333,27.3687805 L151.217333,25.0643902 C150.116381,26.8117073 148.497333,27.697561 146.402095,27.697561 L146.402095,27.697561 Z M141.048762,13.3668293 L141.048762,21.8136585 C141.048762,25.244878 143.149714,27.462439 146.402095,27.462439 C148.549714,27.462439 150.175429,26.4926829 151.231619,24.5843902 L151.446857,24.195122 L151.446857,27.1326829 L152.529714,27.1326829 L152.529714,13.3668293 L151.446857,13.3668293 L151.446857,21.3473171 C151.446857,24.2634146 149.359238,26.4604878 146.58781,26.4604878 C143.839238,26.4604878 142.131619,24.5863415 142.131619,21.5678049 L142.131619,13.3668293 L141.048762,13.3668293 Z" id="Fill-24" fill="#FEFEFE"></path>
            <path d="M156.021714,13.2491707 L157.334095,13.2491707 L157.334095,17.2296585 C158.406476,14.731122 160.684571,12.9194146 163.391238,13.0286829 L163.391238,14.5125854 L163.256952,14.5125854 C160.094095,14.5125854 157.334095,16.9555122 157.334095,21.5125854 L157.334095,27.2501463 L156.021714,27.2501463 L156.021714,13.2491707 Z" id="Fill-25" fill="#FEFEFE"></path>
            <path d="M157.450286,27.3679024 L155.906476,27.3679024 L155.906476,13.1308293 L157.450286,13.1308293 L157.450286,16.7093659 C158.63981,14.3513171 160.786476,12.906439 163.158857,12.906439 C163.236952,12.906439 163.316,12.9074146 163.396,12.9122927 L163.505524,12.9161951 L163.505524,14.6293659 L163.256952,14.6293659 C160.366476,14.6293659 157.450286,16.759122 157.450286,21.5122927 L157.450286,27.3679024 Z M156.136952,27.1327805 L157.21981,27.1327805 L157.21981,21.5122927 C157.21981,19.3376585 157.844571,17.5083902 159.025524,16.2225366 C160.110286,15.044 161.613143,14.3942439 163.256952,14.3942439 L163.276952,14.3942439 L163.276952,13.1435122 C160.802667,13.0927805 158.550286,14.6849756 157.43981,17.2761951 L157.21981,17.7903415 L157.21981,13.3669268 L156.136952,13.3669268 L156.136952,27.1327805 Z" id="Fill-26" fill="#FEFEFE"></path>
            <path d="M164.196,29.5563902 L164.97219,28.4588293 C166.606476,29.7476098 168.482667,30.434439 170.49219,30.434439 C173.628381,30.434439 175.85219,28.5963902 175.85219,24.9993171 L175.85219,22.967122 C174.674095,24.6978537 172.850286,26.2051707 170.144571,26.2051707 C166.847429,26.2051707 163.57981,23.6256585 163.57981,19.6188293 L163.57981,19.5641951 C163.57981,15.5280976 166.847429,12.9193171 170.144571,12.9193171 C172.877905,12.9193171 174.726476,14.4022439 175.85219,16.0490732 L175.85219,13.2490732 L177.166476,13.2490732 L177.166476,25.0822439 C177.166476,27.1134634 176.523619,28.7056585 175.423619,29.8305366 C174.245524,31.0393171 172.476952,31.696878 170.467429,31.696878 C168.188381,31.696878 166.071238,30.9846829 164.196,29.5563902 M175.933143,19.5905366 L175.933143,19.5359024 C175.933143,16.296878 173.118857,14.2100488 170.278857,14.2100488 C167.411238,14.2100488 164.99981,16.2422439 164.99981,19.5085854 L164.99981,19.5641951 C164.99981,22.7202927 167.465524,24.9163902 170.278857,24.9163902 C173.118857,24.9163902 175.933143,22.7759024 175.933143,19.5905366" id="Fill-27" fill="#FEFEFE"></path>
            <path d="M170.467333,31.8143415 C168.147333,31.8143415 166.013048,31.0865366 164.126381,29.650439 L164.035905,29.5801951 L164.95019,28.2914146 L165.041619,28.365561 C166.683524,29.6601951 168.516857,30.3158049 170.492095,30.3158049 C173.77781,30.3158049 175.73781,28.3294634 175.73781,24.9987317 L175.73781,23.330439 C174.291143,25.290439 172.364476,26.3245854 170.144476,26.3245854 C168.465429,26.3245854 166.791143,25.6601951 165.549238,24.5021463 C164.204476,23.2494634 163.465429,21.5148293 163.465429,19.6182439 L163.465429,19.5636098 C163.465429,15.3860488 166.932095,12.8016585 170.144476,12.8016585 C172.945429,12.8016585 174.709238,14.308 175.73781,15.690439 L175.73781,13.130439 L177.281619,13.130439 L177.281619,25.0816585 C177.281619,27.0533659 176.667333,28.7236098 175.504476,29.9148293 C174.308286,31.1401951 172.518762,31.8143415 170.467333,31.8143415 L170.467333,31.8143415 Z M164.354952,29.530439 C166.178762,30.8914146 168.234952,31.5801951 170.467333,31.5801951 C172.458762,31.5801951 174.19019,30.9294634 175.342571,29.748 C176.459714,28.6036098 177.051143,26.9899512 177.051143,25.0816585 L177.051143,13.3675122 L175.967333,13.3675122 L175.967333,16.423122 L175.759714,16.1177561 C174.798762,14.712878 173.044476,13.0367805 170.144476,13.0367805 C167.042571,13.0367805 163.694952,15.5323902 163.694952,19.5636098 L163.694952,19.6182439 C163.694952,22.8006829 166.107333,26.0894634 170.144476,26.0894634 C172.427333,26.0894634 174.314952,25.0153171 175.759714,22.8982439 L175.967333,22.5938537 L175.967333,24.9987317 C175.967333,28.4767805 173.921619,30.5519024 170.492095,30.5519024 C168.502571,30.5519024 166.654952,29.903122 164.99781,28.6240976 L164.354952,29.530439 Z M170.278762,25.0348293 C167.254,25.0348293 164.884476,22.6309268 164.884476,19.5636098 L164.884476,19.5089756 C164.884476,16.3694634 167.153048,14.0923902 170.278762,14.0923902 C173.89019,14.0923902 176.048286,16.8601951 176.048286,19.5353171 L176.048286,19.5909268 C176.048286,22.952878 173.053048,25.0348293 170.278762,25.0348293 L170.278762,25.0348293 Z M170.278762,14.3275122 C167.285429,14.3275122 165.114952,16.5060488 165.114952,19.5089756 L165.114952,19.5636098 C165.114952,22.4982439 167.381619,24.7997073 170.278762,24.7997073 C172.942571,24.7997073 175.81781,22.8075122 175.81781,19.5909268 L175.81781,19.5353171 C175.81781,16.2758049 173.000667,14.3275122 170.278762,14.3275122 L170.278762,14.3275122 Z" id="Fill-28" fill="#FEFEFE"></path>
            <path d="M179.603333,20.277561 L179.603333,20.2219512 C179.603333,16.1585366 182.390952,12.9195122 186.090952,12.9195122 C189.922381,12.9195122 192.361429,16.104878 192.361429,20.2492683 C192.361429,20.4970732 192.361429,20.58 192.332857,20.7985366 L180.998571,20.7985366 C181.238571,24.2843902 183.675714,26.3165854 186.356667,26.3165854 C188.47381,26.3165854 189.922381,25.3556098 191.047143,24.1195122 L191.957619,24.9439024 C190.565238,26.4814634 188.93,27.5790244 186.303333,27.5790244 C182.71381,27.5790244 179.603333,24.642439 179.603333,20.277561 L179.603333,20.277561 Z M190.939524,19.5907317 C190.751905,16.762439 189.171905,14.1546341 186.036667,14.1546341 C183.33,14.1546341 181.238571,16.4882927 180.998571,19.5907317 L190.939524,19.5907317 Z" id="Fill-29" fill="#FEFEFE"></path>
            <path d="M186.303524,27.697561 C182.418762,27.697561 179.489238,24.5063415 179.489238,20.2780488 L179.489238,20.222439 C179.489238,16.0604878 182.388286,12.8009756 186.09019,12.8009756 C189.849238,12.8009756 192.474952,15.8634146 192.474952,20.2487805 C192.474952,20.5014634 192.474952,20.5863415 192.448286,20.8136585 L192.434952,20.9160976 L181.121619,20.9160976 C181.389238,24.0331707 183.527333,26.1990244 186.356857,26.1990244 C188.15781,26.1990244 189.621619,25.5131707 190.963524,24.04 L191.039714,23.9570732 L192.121619,24.9356098 L192.040667,25.0243902 C190.343524,26.8985366 188.628286,27.697561 186.303524,27.697561 L186.303524,27.697561 Z M186.09019,13.0370732 C182.51781,13.0370732 179.718762,16.1931707 179.718762,20.222439 L179.718762,20.2780488 C179.718762,24.3736585 182.55019,27.462439 186.303524,27.462439 C188.520667,27.462439 190.168286,26.7102439 191.794,24.9521951 L191.054,24.284878 C189.687333,25.7492683 188.191143,26.4341463 186.356857,26.4341463 C183.363524,26.4341463 181.113048,24.12 180.883524,20.8058537 L180.874,20.6809756 L192.232095,20.6809756 C192.243524,20.5395122 192.243524,20.4517073 192.243524,20.2487805 C192.243524,16.0019512 189.714,13.0370732 186.09019,13.0370732 L186.09019,13.0370732 Z M191.062571,19.7082927 L180.873048,19.7082927 L180.883524,19.5804878 C181.133048,16.3697561 183.299714,14.0360976 186.036857,14.0360976 C189.469238,14.0360976 190.885429,17.0253659 191.054,19.5834146 L191.062571,19.7082927 Z M181.123524,19.4721951 L190.815905,19.4721951 C190.614952,17.044878 189.255905,14.2721951 186.036857,14.2721951 C183.458762,14.2721951 181.409238,16.4526829 181.123524,19.4721951 L181.123524,19.4721951 Z" id="Fill-30" fill="#FEFEFE"></path>
            <path d="M194.586571,13.2491707 L195.898,13.2491707 L195.898,17.2296585 C196.969429,14.731122 199.248476,12.9194146 201.956095,13.0286829 L201.956095,14.5125854 L201.820857,14.5125854 C198.658952,14.5125854 195.898,16.9555122 195.898,21.5125854 L195.898,27.2501463 L194.586571,27.2501463 L194.586571,13.2491707 Z" id="Fill-31" fill="#FEFEFE"></path>
            <path d="M196.012381,27.3679024 L194.471429,27.3679024 L194.471429,13.1308293 L196.012381,13.1308293 L196.012381,16.7093659 C197.202857,14.3513171 199.351429,12.906439 201.721905,12.906439 C201.8,12.906439 201.879048,12.9074146 201.959048,12.9122927 L202.069524,12.9161951 L202.069524,14.6293659 L201.820952,14.6293659 C198.929524,14.6293659 196.012381,16.759122 196.012381,21.5122927 L196.012381,27.3679024 Z M194.7,27.1327805 L195.782857,27.1327805 L195.782857,21.5122927 C195.782857,19.3376585 196.408571,17.5083902 197.589524,16.2225366 C198.674286,15.044 200.17619,14.3942439 201.820952,14.3942439 L201.840952,14.3942439 L201.840952,13.1435122 C199.355238,13.0927805 197.11619,14.6849756 196.002857,17.2761951 L195.782857,17.7903415 L195.782857,13.3669268 L194.7,13.3669268 L194.7,27.1327805 Z" id="Fill-32" fill="#FEFEFE"></path>
            <path d="M215.998476,13.2491707 L217.445143,13.2491707 L211.521333,27.7428293 C210.314667,30.6813659 208.923238,31.7242927 206.967048,31.7242927 C205.920381,31.7242927 205.169905,31.5330732 204.259429,31.1203902 L204.714667,29.940878 C205.438476,30.2979512 206.027048,30.4628293 207.046095,30.4628293 C208.467048,30.4628293 209.40419,29.6101463 210.422286,27.1691707 L203.856571,13.2491707 L205.38419,13.2491707 L211.065143,25.7681951 L215.998476,13.2491707 Z" id="Fill-33" fill="#FEFEFE"></path>
            <path d="M206.966571,31.8420488 C205.960857,31.8420488 205.189429,31.6703415 204.213238,31.2283902 L204.111333,31.1825366 L204.653238,29.7796098 L204.765619,29.8332683 C205.435143,30.1649756 205.998,30.3435122 207.045619,30.3435122 C208.440857,30.3435122 209.325619,29.484 210.298,27.1708293 L203.672286,13.1298537 L205.458952,13.1298537 L211.058,25.4722927 L215.918952,13.1298537 L217.618,13.1298537 L211.628476,27.7893659 C210.46181,30.6303415 209.068476,31.8420488 206.966571,31.8420488 L206.966571,31.8420488 Z M204.406571,31.0566829 C205.303714,31.4527805 206.030381,31.6069268 206.966571,31.6069268 C208.986571,31.6069268 210.276095,30.4742439 211.416095,27.6976585 L217.271333,13.3669268 L216.075143,13.3669268 L211.073238,26.0635122 L205.312286,13.3669268 L204.040857,13.3669268 L210.549429,27.1649756 L210.529429,27.2147317 C209.519905,29.6361951 208.54181,30.5796098 207.045619,30.5796098 C206.018,30.5796098 205.418,30.404 204.775143,30.1005854 L204.406571,31.0566829 Z" id="Fill-34" fill="#FEFEFE"></path>
            <path d="M223.327333,20.3042927 L223.327333,20.2486829 C223.327333,16.3238049 226.384476,12.9199024 230.295905,12.9199024 C232.868286,12.9199024 234.476857,14.1286829 235.763524,15.5003902 L234.824476,16.4886829 C233.646381,15.2525854 232.305429,14.1833171 230.27019,14.1833171 C227.159714,14.1833171 224.748286,16.8457561 224.748286,20.1950244 L224.748286,20.2486829 C224.748286,23.6252683 227.240667,26.3169756 230.374952,26.3169756 C232.305429,26.3169756 233.806381,25.3013659 234.959714,23.9833171 L235.871143,24.8057561 C234.476857,26.4262439 232.815905,27.5803902 230.295905,27.5803902 C226.356857,27.5803902 223.327333,24.2291707 223.327333,20.3042927" id="Fill-35" fill="#FEFEFE"></path>
            <path d="M230.296286,27.697561 C226.389619,27.697561 223.212476,24.3814634 223.212476,20.3043902 L223.212476,20.2487805 C223.212476,16.142439 226.389619,12.8009756 230.296286,12.8009756 C233.041048,12.8009756 234.703905,14.2 235.84581,15.4195122 L235.922952,15.5004878 L234.824857,16.657561 L234.742,16.5707317 C233.617238,15.3921951 232.297238,14.3014634 230.270571,14.3014634 C227.237238,14.3014634 224.863905,16.8897561 224.863905,20.1960976 L224.863905,20.2487805 C224.863905,23.5853659 227.28581,26.1990244 230.375333,26.1990244 C232.028667,26.1990244 233.542,25.4263415 234.873429,23.9043902 L234.950571,23.8165854 L236.032476,24.7970732 L235.957238,24.884878 C234.282952,26.8282927 232.537238,27.697561 230.296286,27.697561 M230.296286,13.0370732 C226.517238,13.0370732 223.442952,16.2731707 223.442952,20.2487805 L223.442952,20.3043902 C223.442952,24.2507317 226.517238,27.462439 230.296286,27.462439 C232.430571,27.462439 234.103905,26.644878 235.708667,24.8156098 L234.968667,24.1473171 C233.609619,25.6653659 232.064857,26.4341463 230.375333,26.4341463 C227.155333,26.4341463 224.633429,23.7180488 224.633429,20.2487805 L224.633429,20.1960976 C224.633429,16.7570732 227.108667,14.0634146 230.270571,14.0634146 C232.332476,14.0634146 233.682952,15.137561 234.823905,16.3209756 L235.602,15.5004878 C234.433429,14.2682927 232.881048,13.0370732 230.296286,13.0370732" id="Fill-36" fill="#FEFEFE"></path>
            <path d="M236.620667,20.277561 L236.620667,20.2219512 C236.620667,16.1585366 239.407333,12.9195122 243.107333,12.9195122 C246.93781,12.9195122 249.376857,16.104878 249.376857,20.2492683 C249.376857,20.4970732 249.376857,20.58 249.35019,20.7985366 L238.013048,20.7985366 C238.255905,24.2843902 240.693048,26.3165854 243.374,26.3165854 C245.49019,26.3165854 246.93781,25.3556098 248.063524,24.1195122 L248.975905,24.9439024 C247.580667,26.4814634 245.946381,27.5790244 243.318762,27.5790244 C239.73019,27.5790244 236.620667,24.642439 236.620667,20.277561 L236.620667,20.277561 Z M247.954952,19.5907317 C247.769238,16.762439 246.188286,14.1546341 243.053048,14.1546341 C240.344476,14.1546341 238.255905,16.4882927 238.013048,19.5907317 L247.954952,19.5907317 Z" id="Fill-37" fill="#FEFEFE"></path>
            <path d="M243.318952,27.697561 C239.435143,27.697561 236.505619,24.5063415 236.505619,20.2780488 L236.505619,20.222439 C236.505619,16.0604878 239.403714,12.8009756 243.106571,12.8009756 C246.865619,12.8009756 249.491333,15.8634146 249.491333,20.2487805 C249.491333,20.5014634 249.491333,20.5863415 249.464667,20.8136585 L249.452286,20.9160976 L238.138952,20.9160976 C238.406571,24.0331707 240.543714,26.1990244 243.37419,26.1990244 C245.175143,26.1990244 246.638,25.5131707 247.978952,24.04 L248.055143,23.9570732 L249.138952,24.9356098 L249.058,25.0243902 C247.359905,26.8985366 245.643714,27.697561 243.318952,27.697561 L243.318952,27.697561 Z M243.106571,13.0370732 C239.533238,13.0370732 236.735143,16.1931707 236.735143,20.222439 L236.735143,20.2780488 C236.735143,24.3736585 239.566571,27.462439 243.318952,27.462439 C245.537048,27.462439 247.184667,26.7102439 248.810381,24.9521951 L248.070381,24.284878 C246.703714,25.7492683 245.207524,26.4341463 243.37419,26.4341463 C240.378952,26.4341463 238.128476,24.12 237.899905,20.8058537 L237.890381,20.6809756 L249.247524,20.6809756 C249.26181,20.5395122 249.26181,20.4517073 249.26181,20.2487805 C249.26181,16.0019512 246.731333,13.0370732 243.106571,13.0370732 L243.106571,13.0370732 Z M248.079905,19.7082927 L237.890381,19.7082927 L237.899905,19.5804878 C238.149429,16.3697561 240.317048,14.0360976 243.053238,14.0360976 C246.484667,14.0360976 247.90181,17.0253659 248.070381,19.5834146 L248.079905,19.7082927 Z M238.138952,19.4721951 L247.832286,19.4721951 C247.631333,17.044878 246.271333,14.2721951 243.053238,14.2721951 C240.475143,14.2721951 238.424667,16.4526829 238.138952,19.4721951 L238.138952,19.4721951 Z" id="Fill-38" fill="#FEFEFE"></path>
            <path d="M251.601143,13.2491707 L252.914476,13.2491707 L252.914476,15.8569756 C253.826857,14.2091707 255.352571,12.9194146 257.845905,12.9194146 C261.302095,12.9194146 263.311619,15.336 263.311619,18.6852683 L263.311619,27.2501463 L261.998286,27.2501463 L261.998286,18.9320976 C261.998286,16.0501463 260.419238,14.1545366 257.658286,14.1545366 C254.978286,14.1545366 252.914476,16.2413659 252.914476,19.1516098 L252.914476,27.2501463 L251.601143,27.2501463 L251.601143,13.2491707 Z" id="Fill-39" fill="#FEFEFE"></path>
            <path d="M263.42781,27.3679024 L261.884952,27.3679024 L261.884952,18.9327805 C261.884952,16.0576585 260.265905,14.2722927 257.657333,14.2722927 C255.02019,14.2722927 253.030667,16.3698537 253.030667,19.1522927 L253.030667,27.3679024 L251.485905,27.3679024 L251.485905,13.1308293 L253.030667,13.1308293 L253.030667,15.4342439 C254.129714,13.6879024 255.748762,12.8020488 257.846857,12.8020488 C261.235429,12.8020488 263.42781,15.1113171 263.42781,18.6859512 L263.42781,27.3679024 Z M262.113524,27.1327805 L263.196381,27.1327805 L263.196381,18.6859512 C263.196381,15.2547317 261.097333,13.0371707 257.846857,13.0371707 C255.696381,13.0371707 254.071619,14.0049756 253.015429,15.9152195 L252.799238,16.3025366 L252.799238,13.3669268 L251.716381,13.3669268 L251.716381,27.1327805 L252.799238,27.1327805 L252.799238,19.1522927 C252.799238,16.2361951 254.888762,14.0371707 257.657333,14.0371707 C260.405905,14.0371707 262.113524,15.9132683 262.113524,18.9327805 L262.113524,27.1327805 Z" id="Fill-40" fill="#FEFEFE"></path>
            <path d="M267.144381,23.6531707 L267.144381,14.4853659 L265.160571,14.4853659 L265.160571,13.2492683 L267.144381,13.2492683 L267.144381,8.77512195 L268.457714,8.77512195 L268.457714,13.2492683 L273.253905,13.2492683 L273.253905,14.4853659 L268.457714,14.4853659 L268.457714,23.5156098 C268.457714,25.5195122 269.609143,26.2346341 271.191048,26.2346341 C271.860571,26.2346341 272.424381,26.0970732 273.199619,25.7409756 L273.199619,27.0034146 C272.504381,27.3321951 271.833905,27.4970732 270.974857,27.4970732 C268.859619,27.4970732 267.144381,26.3165854 267.144381,23.6531707" id="Fill-41" fill="#FEFEFE"></path>
            <path d="M270.975238,27.6146341 C268.50381,27.6146341 267.028571,26.1346341 267.028571,23.6546341 L267.028571,14.6019512 L265.045714,14.6019512 L265.045714,13.1297561 L267.028571,13.1297561 L267.028571,8.65658537 L268.572381,8.65658537 L268.572381,13.1297561 L273.369524,13.1297561 L273.369524,14.6019512 L268.572381,14.6019512 L268.572381,23.5160976 C268.572381,25.2419512 269.452381,26.1170732 271.191429,26.1170732 C271.84381,26.1170732 272.394286,25.9804878 273.153333,25.6321951 L273.315238,25.5580488 L273.315238,27.0790244 L273.248571,27.1092683 C272.499048,27.4634146 271.819048,27.6146341 270.975238,27.6146341 L270.975238,27.6146341 Z M265.277143,14.3658537 L267.259048,14.3658537 L267.259048,23.6546341 C267.259048,25.9863415 268.648571,27.3785366 270.975238,27.3785366 C271.758095,27.3785366 272.394286,27.2439024 273.085714,26.9278049 L273.085714,25.92 C272.375238,26.2292683 271.830476,26.3521951 271.191429,26.3521951 C269.327619,26.3521951 268.340952,25.3707317 268.340952,23.5160976 L268.340952,14.3658537 L273.138095,14.3658537 L273.138095,13.3668293 L268.340952,13.3668293 L268.340952,8.89268293 L267.259048,8.89268293 L267.259048,13.3668293 L265.277143,13.3668293 L265.277143,14.3658537 Z" id="Fill-42" fill="#FEFEFE"></path>
            <path d="M274.192286,20.277561 L274.192286,20.2219512 C274.192286,16.1585366 276.979905,12.9195122 280.678,12.9195122 C284.508476,12.9195122 286.947524,16.104878 286.947524,20.2492683 C286.947524,20.4970732 286.947524,20.58 286.920857,20.7985366 L275.585619,20.7985366 C275.826571,24.2843902 278.264667,26.3165854 280.945619,26.3165854 C283.06181,26.3165854 284.508476,25.3556098 285.636095,24.1195122 L286.545619,24.9439024 C285.152286,26.4814634 283.517048,27.5790244 280.891333,27.5790244 C277.302762,27.5790244 274.192286,24.642439 274.192286,20.277561 L274.192286,20.277561 Z M285.527524,19.5907317 C285.340857,16.762439 283.758952,14.1546341 280.624667,14.1546341 C277.916095,14.1546341 275.826571,16.4882927 275.585619,19.5907317 L285.527524,19.5907317 Z" id="Fill-43" fill="#FEFEFE"></path>
            <path d="M280.891429,27.697561 C277.007619,27.697561 274.078095,24.5063415 274.078095,20.2780488 L274.078095,20.222439 C274.078095,16.0604878 276.97619,12.8009756 280.677143,12.8009756 C284.438095,12.8009756 287.061905,15.8634146 287.061905,20.2487805 C287.061905,20.5014634 287.061905,20.5863415 287.035238,20.8136585 L287.02381,20.9160976 L275.709524,20.9160976 C275.978095,24.0331707 278.11619,26.1990244 280.945714,26.1990244 C282.746667,26.1990244 284.209524,25.5131707 285.551429,24.04 L285.627619,23.9570732 L286.709524,24.9356098 L286.629524,25.0243902 C284.932381,26.8985366 283.21619,27.697561 280.891429,27.697561 L280.891429,27.697561 Z M280.677143,13.0370732 C277.10381,13.0370732 274.306667,16.1931707 274.306667,20.222439 L274.306667,20.2780488 C274.306667,24.3736585 277.138095,27.462439 280.891429,27.462439 C283.109524,27.462439 284.757143,26.7102439 286.381905,24.9521951 L285.640952,24.284878 C284.275238,25.7492683 282.78,26.4341463 280.945714,26.4341463 C277.951429,26.4341463 275.700952,24.12 275.472381,20.8058537 L275.461905,20.6809756 L286.819048,20.6809756 C286.832381,20.5395122 286.832381,20.4517073 286.832381,20.2487805 C286.832381,16.0019512 284.302857,13.0370732 280.677143,13.0370732 L280.677143,13.0370732 Z M285.650476,19.7082927 L275.461905,19.7082927 L275.472381,19.5804878 C275.721905,16.3697561 277.887619,14.0360976 280.625714,14.0360976 C284.05619,14.0360976 285.473333,17.0253659 285.640952,19.5834146 L285.650476,19.7082927 Z M275.711429,19.4721951 L285.40381,19.4721951 C285.202857,17.044878 283.842857,14.2721951 280.625714,14.2721951 C278.046667,14.2721951 275.99619,16.4526829 275.711429,19.4721951 L275.711429,19.4721951 Z" id="Fill-44" fill="#FEFEFE"></path>
            <path d="M289.172667,13.2491707 L290.486952,13.2491707 L290.486952,17.2296585 C291.558381,14.731122 293.835524,12.9194146 296.54219,13.0286829 L296.54219,14.5125854 L296.40981,14.5125854 C293.246952,14.5125854 290.486952,16.9555122 290.486952,21.5125854 L290.486952,27.2501463 L289.172667,27.2501463 L289.172667,13.2491707 Z" id="Fill-45" fill="#FEFEFE"></path>
            <path d="M290.602286,27.3679024 L289.057524,27.3679024 L289.057524,13.1308293 L290.602286,13.1308293 L290.602286,16.7093659 C291.790857,14.3513171 293.938476,12.906439 296.308952,12.906439 C296.388952,12.906439 296.468,12.9074146 296.548,12.9122927 L296.658476,12.9161951 L296.658476,14.6293659 L296.409905,14.6293659 C293.517524,14.6293659 290.602286,16.759122 290.602286,21.5122927 L290.602286,27.3679024 Z M289.288952,27.1327805 L290.37181,27.1327805 L290.37181,21.5122927 C290.37181,19.3376585 290.996571,17.5083902 292.178476,16.2225366 C293.262286,15.044 294.765143,14.3942439 296.409905,14.3942439 L296.427048,14.3942439 L296.427048,13.1435122 C293.948,13.0927805 291.703238,14.6849756 290.59181,17.2761951 L290.37181,17.7903415 L290.37181,13.3669268 L289.288952,13.3669268 L289.288952,27.1327805 Z" id="Fill-46" fill="#FEFEFE"></path>
        </g>
    </g>
</svg>