<?xml version="1.0" encoding="UTF-8" standalone="no"?>
<svg width="201px" height="27px" viewBox="0 0 201 27" version="1.1" xmlns="http://www.w3.org/2000/svg" xmlns:xlink="http://www.w3.org/1999/xlink">
    <!-- Generator: Sketch 3.6.1 (26313) - http://www.bohemiancoding.com/sketch -->
    <title>w-surgeryC-m</title>
    <desc>Created with Sketch.</desc>
    <defs>
        <path id="path-1" d="M14.9420442,0.584121951 L0.273008275,0.584121951 L0.273008275,17.133808 L14.9420442,17.133808 L14.9420442,0.584121951 L14.9420442,0.584121951 Z"></path>
        <path id="path-3" d="M0,26.4162073 L200.244857,26.4162073 L200.244857,0.658865854 L0,0.658865854 L0,26.4162073 Z"></path>
    </defs>
    <g id="Page-1" stroke="none" stroke-width="1" fill="none" fill-rule="evenodd">
        <g id="w-surgeryC-m">
            <g id="Group-3" transform="translate(6.428571, 0.074744)">
                <mask id="mask-2" fill="white">
                    <use xlink:href="#path-1"></use>
                </mask>
                <g id="Clip-2"></g>
                <path d="M8.00029286,0.785963415 C5.05022143,0.105036585 1.98443571,1.13103659 0.306578571,4.06942683 C0.215292857,4.25710976 0.325864286,4.29991463 0.450578571,4.19059756 C0.58365,4.07337805 0.759792857,3.87186585 1.10500714,3.51362195 C2.94486429,1.59596341 4.71593571,1.36547561 6.57122143,1.70528049 C10.3390071,2.39740244 12.5562214,7.4115 11.5514357,12.6804512 C11.2332214,14.3564268 10.6244357,15.8704024 9.82150714,17.1315 C11.6317929,17.1677195 13.3122214,16.7765488 14.6609357,16.0350366 C15.8965071,8.54681707 12.9477214,1.92589024 8.00029286,0.785963415" id="Fill-1" fill="#FEFEFE" mask="url(#mask-2)"></path>
            </g>
            <path d="M25.3065857,15.224378 C25.9706571,12.2016951 24.9678,9.06113415 22.1006571,7.34103659 C21.9180857,7.24884146 21.8737286,7.36210976 21.9798,7.48789024 C22.0974429,7.6275 22.2922286,7.80662195 22.6438714,8.1602561 C24.5145857,10.0443293 24.7395857,11.856622 24.4072286,13.7591341 C23.7335143,17.6181585 18.8368714,19.8907683 13.6940143,18.8608171 C12.0579429,18.5335244 10.5806571,17.9112073 9.34894286,17.0886951 C9.31422857,18.9424756 9.69544286,20.6645488 10.4193,22.0468171 C17.7298714,23.3118659 24.1925143,20.2898415 25.3065857,15.224378" id="Fill-4" fill="#FEFEFE"></path>
            <path d="M11.0852357,26.2143659 C14.0353071,26.8946341 17.1023786,25.8686341 18.7808786,22.931561 C18.8715214,22.743878 18.76095,22.6990976 18.6362357,22.8084146 C18.5025214,22.9269512 18.3263786,23.1271463 17.98245,23.4860488 C16.1425929,25.4037073 14.3708786,25.6335366 12.5143071,25.2937317 C8.74909286,24.6022683 6.53059286,19.5888293 7.53473571,14.319878 C7.85423571,12.6432439 8.46237857,11.1292683 9.26530714,9.8694878 C7.45566429,9.83326829 5.77523571,10.223122 4.42523571,10.9652927 C3.18966429,18.4541707 6.13973571,25.0750976 11.0852357,26.2143659" id="Fill-6" fill="#FEFEFE"></path>
            <path d="M0.196842857,12.0674195 C-0.467228571,15.090761 0.536271429,18.2300049 3.40277143,19.9501024 C3.58534286,20.0442732 3.62841429,19.9290293 3.52234286,19.8019317 C3.40598571,19.6649561 3.21184286,19.4845171 2.85955714,19.1315415 C0.9882,17.2474683 0.765128571,15.4332 1.09555714,13.5306878 C1.76991429,9.67363902 6.66591429,7.40037073 11.8081286,8.42966341 C13.4454857,8.7569561 14.9221286,9.37993171 16.1532,10.2031024 C16.1898429,8.34800488 15.8086286,6.62790732 15.0828429,5.24629756 C7.7742,3.97993171 1.30962857,7.00063902 0.196842857,12.0674195" id="Fill-8" fill="#FEFEFE"></path>
            <path d="M19.4887929,22.777661 L19.4887929,22.7737098 C19.4887929,22.3535634 19.82115,22.003222 20.2422214,22.003222 C20.6645786,22.003222 20.9930786,22.3496122 20.9930786,22.7697585 L20.9930786,22.7737098 C20.9930786,23.1931976 20.6600786,23.5441976 20.2383643,23.5441976 C19.8172929,23.5441976 19.4887929,23.1971488 19.4887929,22.777661 L19.4887929,22.777661 Z M20.92365,22.7737098 L20.92365,22.7697585 C20.92365,22.3845146 20.63115,22.0684171 20.2422214,22.0684171 C19.8520071,22.0684171 19.5562929,22.3871488 19.5562929,22.7737098 L19.5562929,22.777661 C19.5562929,23.1629049 19.8513643,23.4770268 20.2383643,23.4770268 C20.6285786,23.4770268 20.92365,23.1582951 20.92365,22.7737098 L20.92365,22.7737098 Z M19.9458643,22.3561976 L20.2910786,22.3561976 C20.3875071,22.3561976 20.4685071,22.3871488 20.5199357,22.4398317 C20.5565786,22.4760512 20.5810071,22.5293927 20.5810071,22.5939293 L20.5810071,22.597222 C20.5810071,22.7256366 20.4980786,22.8007098 20.3823643,22.8277098 L20.6208643,23.1457829 L20.4787929,23.1457829 L20.25765,22.8481244 L20.05965,22.8481244 L20.05965,23.1457829 L19.9458643,23.1457829 L19.9458643,22.3561976 Z M20.2807929,22.7440756 C20.3875071,22.7440756 20.4633643,22.6927098 20.4633643,22.6044659 L20.4633643,22.5991976 C20.4633643,22.5168805 20.3965071,22.462222 20.2859357,22.462222 L20.05965,22.462222 L20.05965,22.7440756 L20.2807929,22.7440756 Z" id="Fill-10" fill="#FEFEFE"></path>
            <path d="M31.09545,13.5291732 L31.09545,13.4916366 C31.09545,10.547978 33.3621643,8.11402683 36.4253786,8.11402683 C39.48795,8.11402683 41.7347357,10.5097829 41.7347357,13.4527829 L41.7347357,13.4916366 C41.7347357,16.4129049 39.4673786,18.8468561 36.3868071,18.8468561 C33.3435214,18.8468561 31.09545,16.4517585 31.09545,13.5291732 M39.4480929,13.5291732 L39.4480929,13.4916366 C39.4480929,11.680661 38.1803786,10.1798561 36.3868071,10.1798561 C34.5540214,10.1798561 33.3827357,11.6589293 33.3827357,13.4527829 L33.3827357,13.4916366 C33.3827357,15.2828561 34.6472357,16.8014415 36.4253786,16.8014415 C38.2768071,16.8014415 39.4480929,15.3019537 39.4480929,13.5291732" id="Fill-12" fill="#FEFEFE"></path>
            <path d="M42.7917857,8.35221951 L45.1375714,8.35221951 L45.1375714,9.99197561 C45.8955,8.96597561 46.962,8.14543902 48.6102857,8.14543902 C51.0345,8.14543902 53.3809286,9.99197561 53.3809286,13.2504146 L53.3809286,13.2886098 C53.3809286,16.5496829 51.0537857,18.5812683 48.6102857,18.5812683 C46.9215,18.5812683 45.8569286,17.7627073 45.1375714,16.8506341 L45.1375714,20.6543415 L42.7917857,20.6543415 L42.7917857,8.35221951 Z M50.9952857,13.2886098 L50.9952857,13.2504146 C50.9952857,11.3525122 49.6575,10.1026098 48.0670714,10.1026098 C46.4766429,10.1026098 45.0790714,11.3709512 45.0790714,13.2504146 L45.0790714,13.2886098 C45.0790714,15.1884878 46.4766429,16.4370732 48.0670714,16.4370732 C49.6787143,16.4370732 50.9952857,15.2260244 50.9952857,13.2886098 L50.9952857,13.2886098 Z" id="Fill-14" fill="#FEFEFE"></path>
            <path d="M54.9615214,15.9588439 L54.9615214,10.290161 L53.6623071,10.290161 L53.6623071,8.3520878 L54.9615214,8.3520878 L54.9615214,5.92538049 L57.3073071,5.92538049 L57.3073071,8.3520878 L60.0606643,8.3520878 L60.0606643,10.290161 L57.3073071,10.290161 L57.3073071,15.6038927 C57.3073071,16.4790878 57.7727357,16.8333805 58.56795,16.8333805 C59.0905929,16.8333805 59.5566643,16.7214293 60.0220929,16.500161 L60.0220929,18.3434049 C59.4403071,18.660161 58.7813786,18.8471854 57.9103071,18.8471854 C56.18295,18.8471854 54.9615214,18.1188439 54.9615214,15.9588439" id="Fill-16" fill="#FEFEFE"></path>
            <mask id="mask-4" fill="white">
                <use xlink:href="#path-3"></use>
            </mask>
            <g id="Clip-19"></g>
            <path d="M61.5921429,18.7455732 L63.9379286,18.7455732 L63.9379286,8.32818293 L61.5921429,8.32818293 L61.5921429,18.7455732 Z" id="Fill-18" fill="#FEFEFE" mask="url(#mask-4)"></path>
            <path d="M65.7048857,8.32838049 L68.0519571,8.32838049 L68.0519571,9.93191707 C68.7096,9.05606341 69.6012429,8.23552683 71.1736714,8.23552683 C72.6458143,8.23552683 73.6750286,8.92369756 74.2182429,9.96813659 C75.0526714,8.92369756 76.1365286,8.23552683 77.6883857,8.23552683 C79.9178143,8.23552683 81.2761714,9.59738049 81.2761714,12.001039 L81.2761714,18.7826488 L78.9303857,18.7826488 L78.9303857,12.6892098 C78.9303857,11.1232098 78.1731,10.2868683 76.8558857,10.2868683 C75.5759571,10.2868683 74.6631,11.1436244 74.6631,12.7260878 L74.6631,18.7826488 L72.3173143,18.7826488 L72.3173143,12.6714293 C72.3173143,11.1436244 71.5413857,10.2868683 70.2408857,10.2868683 C68.9423143,10.2868683 68.0519571,11.216722 68.0519571,12.7465024 L68.0519571,18.7826488 L65.7048857,18.7826488 L65.7048857,8.32838049 Z" id="Fill-20" fill="#FEFEFE" mask="url(#mask-4)"></path>
            <path d="M86.6102786,17.2076927 L87.1342071,16.485278 C88.1486357,17.2814488 89.2697786,17.7266195 90.4455643,17.7266195 C91.6939929,17.7266195 92.6704929,17.0226439 92.6704929,15.9294732 L92.6704929,15.8925951 C92.6704929,14.7803268 91.5127071,14.3720341 90.2276357,14.0025951 C88.7265643,13.5574244 87.06285,13.0938146 87.06285,11.4073024 L87.06285,11.3704244 C87.06285,9.85118049 88.3112786,8.75735122 90.1016357,8.75735122 C91.2047786,8.75735122 92.4532071,9.1656439 93.3757071,9.79586341 L92.9051357,10.5544976 C92.0559214,9.98025366 91.0427786,9.6101561 90.0649929,9.6101561 C88.7992071,9.6101561 87.9667071,10.3141317 87.9667071,11.2591317 L87.9667071,11.2960098 C87.9667071,12.3523024 89.2151357,12.7421561 90.5362071,13.1313512 C92.0192786,13.5574244 93.57435,14.1138878 93.57435,15.7806439 L93.57435,15.8181805 C93.57435,17.5040341 92.1639214,18.5794244 90.3909214,18.5794244 C89.0524929,18.5794244 87.5880643,18.022961 86.6102786,17.2076927" id="Fill-21" fill="#FEFEFE" mask="url(#mask-4)"></path>
            <path d="M90.3907929,18.6585805 C89.0748643,18.6585805 87.5712214,18.1126537 86.5612929,17.2697268 L86.5034357,17.2203366 L87.1192929,16.3728 L87.1829357,16.4228488 C88.2160071,17.2354829 89.3133643,17.6470683 90.4454357,17.6470683 C91.7099357,17.6470683 92.5932214,16.9411171 92.5932214,15.9289463 L92.5932214,15.8920683 C92.5932214,14.852239 91.5125786,14.4544829 90.2075786,14.0784585 L90.1317214,14.0554098 C88.6570071,13.6201171 86.9842929,13.1255561 86.9842929,11.4074341 L86.9842929,11.3705561 C86.9842929,9.7848 88.2667929,8.67845854 90.10215,8.67845854 C91.1982214,8.67845854 92.4685071,9.08082439 93.4192929,9.72948293 L93.4822929,9.7722878 L92.9287929,10.665922 L92.8625786,10.6218 C91.9735071,10.0205561 90.97965,9.68997073 90.0648643,9.68997073 C88.8755786,9.68997073 88.0450071,10.334678 88.0450071,11.259922 L88.0450071,11.2961415 C88.0450071,12.314239 89.3223643,12.6902634 90.5579357,13.0544341 C92.12265,13.5048732 93.6520071,14.0870195 93.6520071,15.7807756 L93.6520071,15.8176537 C93.6520071,17.4646537 92.28015,18.6585805 90.3907929,18.6585805 L90.3907929,18.6585805 Z M86.7175071,17.1933366 C87.7010786,17.9881902 89.1333643,18.4998732 90.3907929,18.4998732 C92.2197214,18.4998732 93.4964357,17.3974829 93.4964357,15.8176537 L93.4964357,15.7807756 C93.4964357,14.1969951 92.0230071,13.6418488 90.5142214,13.2078732 C89.22465,12.827239 87.8887929,12.4334341 87.8887929,11.2961415 L87.8887929,11.259922 C87.8887929,10.2424829 88.78365,9.53060488 90.0648643,9.53060488 C90.9873643,9.53060488 91.9844357,9.85460488 92.8818643,10.4453122 L93.2695071,9.81970244 C92.3515071,9.21187317 91.1442214,8.83782439 90.10215,8.83782439 C88.3580786,8.83782439 87.1405071,9.87962927 87.1405071,11.3705561 L87.1405071,11.4074341 C87.1405071,13.0057024 88.6833643,13.4620683 90.17415,13.9032878 L90.2500071,13.925678 C91.6167214,14.3194829 92.7475071,14.7402878 92.7475071,15.8920683 L92.7475071,15.9289463 C92.7475071,17.0168488 91.7787214,17.8064341 90.4454357,17.8064341 C89.3017929,17.8064341 88.1928643,17.3994585 87.15015,16.5967024 L86.7175071,17.1933366 Z" id="Fill-22" fill="#FEFEFE" mask="url(#mask-4)"></path>
            <path d="M95.1306429,14.7240878 L95.1306429,8.94345366 L96.0165,8.94345366 L96.0165,14.5581366 C96.0165,16.5034537 97.0836429,17.7816732 98.9466429,17.7816732 C100.756286,17.7816732 102.148714,16.3743805 102.148714,14.4093073 L102.148714,8.94345366 L103.035857,8.94345366 L103.035857,18.3934537 L102.148714,18.3934537 L102.148714,16.6331854 C101.534143,17.7461122 100.502357,18.6166976 98.8212857,18.6166976 C96.4864286,18.6166976 95.1306429,16.9855024 95.1306429,14.7240878" id="Fill-23" fill="#FEFEFE" mask="url(#mask-4)"></path>
            <path d="M98.8214143,18.6958537 C96.5309143,18.6958537 95.0529857,17.1370976 95.0529857,14.7242195 L95.0529857,8.8632439 L96.0944143,8.8632439 L96.0944143,14.5582683 C96.0944143,16.4976585 97.1872714,17.7027805 98.9467714,17.7027805 C100.727486,17.7027805 102.0717,16.2882439 102.0717,14.409439 L102.0717,8.8632439 L103.112486,8.8632439 L103.112486,18.4739268 L102.0717,18.4739268 L102.0717,16.9184634 C101.328557,18.0979024 100.2357,18.6958537 98.8214143,18.6958537 L98.8214143,18.6958537 Z M95.2079143,9.02260976 L95.2079143,14.7242195 C95.2079143,17.0402927 96.6260571,18.5371463 98.8214143,18.5371463 C100.271057,18.5371463 101.368414,17.882561 102.081343,16.5944634 L102.226629,16.3317073 L102.226629,18.314561 L102.957557,18.314561 L102.957557,9.02260976 L102.226629,9.02260976 L102.226629,14.409439 C102.226629,16.3778049 100.817486,17.8608293 98.9467714,17.8608293 C97.0914857,17.8608293 95.9388429,16.5957805 95.9388429,14.5582683 L95.9388429,9.02260976 L95.2079143,9.02260976 Z" id="Fill-24" fill="#FEFEFE" mask="url(#mask-4)"></path>
            <path d="M105.314657,8.94319024 L106.200514,8.94319024 L106.200514,11.6300195 C106.924371,9.94350732 108.462086,8.72060488 110.289086,8.79436098 L110.289086,9.79599512 L110.198443,9.79599512 C108.063514,9.79599512 106.200514,11.4449707 106.200514,14.5209951 L106.200514,18.3938488 L105.314657,18.3938488 L105.314657,8.94319024 Z" id="Fill-25" fill="#FEFEFE" mask="url(#mask-4)"></path>
            <path d="M106.278943,18.4733341 L105.236871,18.4733341 L105.236871,8.86330976 L106.278943,8.86330976 L106.278943,11.278822 C107.081871,9.68713902 108.530871,8.71184634 110.132229,8.71184634 C110.184943,8.71184634 110.2383,8.71250488 110.2923,8.71579756 L110.366229,8.71843171 L110.366229,9.87482195 L110.198443,9.87482195 C108.247371,9.87482195 106.278943,11.3124073 106.278943,14.5207976 L106.278943,18.4733341 Z M105.392443,18.3146268 L106.123371,18.3146268 L106.123371,14.5207976 C106.123371,13.0529195 106.545086,11.8181634 107.342229,10.9502122 C108.074443,10.1547 109.088871,9.71611463 110.198443,9.71611463 L110.211943,9.71611463 L110.211943,8.87187073 C108.5418,8.83762683 107.021443,9.91235854 106.271871,11.6614317 L106.123371,12.0084805 L106.123371,9.02267561 L105.392443,9.02267561 L105.392443,18.3146268 Z" id="Fill-26" fill="#FEFEFE" mask="url(#mask-4)"></path>
            <path d="M110.8323,19.9505634 L111.356229,19.2097098 C112.459371,20.0796366 113.7258,20.5432463 115.082229,20.5432463 C117.199157,20.5432463 118.700229,19.3025634 118.700229,16.874539 L118.700229,15.5028073 C117.905014,16.6710512 116.673943,17.6884902 114.847586,17.6884902 C112.622014,17.6884902 110.416371,15.9473195 110.416371,13.2427098 L110.416371,13.2058317 C110.416371,10.4814659 112.622014,8.72053902 114.847586,8.72053902 C116.692586,8.72053902 117.940371,9.72151463 118.700229,10.8331244 L118.700229,8.94312439 L119.587371,8.94312439 L119.587371,16.9305146 C119.587371,18.3015878 119.153443,19.3763195 118.410943,20.1356122 C117.615729,20.951539 116.421943,21.3953927 115.065514,21.3953927 C113.527157,21.3953927 112.098086,20.914661 110.8323,19.9505634 M118.754871,13.2236122 L118.754871,13.1867341 C118.754871,11.0003927 116.855229,9.59178293 114.938229,9.59178293 C113.002586,9.59178293 111.374871,10.9635146 111.374871,13.1682951 L111.374871,13.2058317 C111.374871,15.3361976 113.039229,16.8185634 114.938229,16.8185634 C116.855229,16.8185634 118.754871,15.3737341 118.754871,13.2236122" id="Fill-27" fill="#FEFEFE" mask="url(#mask-4)"></path>
            <path d="M115.06545,21.4746805 C113.49945,21.4746805 112.058807,20.9834122 110.785307,20.0140463 L110.724236,19.9666317 L111.341379,19.0967049 L111.403093,19.1467537 C112.511379,20.0206317 113.748879,20.4631683 115.082164,20.4631683 C117.300021,20.4631683 118.623021,19.1223878 118.623021,16.8741439 L118.623021,15.7480463 C117.646521,17.0710463 116.346021,17.7690951 114.847521,17.7690951 C113.714164,17.7690951 112.584021,17.3206317 111.745736,16.5389488 C110.838021,15.6933878 110.339164,14.5225098 110.339164,13.2423146 L110.339164,13.2054366 C110.339164,10.3855829 112.679164,8.64111951 114.847521,8.64111951 C116.738164,8.64111951 117.928736,9.6579 118.623021,10.5910463 L118.623021,8.86304634 L119.665093,8.86304634 L119.665093,16.9301195 C119.665093,18.261022 119.25045,19.3884366 118.465521,20.1925098 C117.658093,21.0196317 116.450164,21.4746805 115.06545,21.4746805 L115.06545,21.4746805 Z M110.939593,19.9330463 C112.170664,20.8517049 113.558593,21.3166317 115.06545,21.3166317 C116.409664,21.3166317 117.578379,20.8773878 118.356236,20.0799 C119.110307,19.3074366 119.509521,18.2182171 119.509521,16.9301195 L119.509521,9.02307073 L118.77795,9.02307073 L118.77795,11.0856073 L118.637807,10.8794854 C117.989164,9.93119268 116.805021,8.79982683 114.847521,8.79982683 C112.753736,8.79982683 110.494093,10.4843634 110.494093,13.2054366 L110.494093,13.2423146 C110.494093,15.390461 112.12245,17.6103878 114.847521,17.6103878 C116.38845,17.6103878 117.662593,16.885339 118.637807,15.4563146 L118.77795,15.2508512 L118.77795,16.8741439 C118.77795,19.2218268 117.397093,20.6225341 115.082164,20.6225341 C113.739236,20.6225341 112.492093,20.1846073 111.373521,19.3212659 L110.939593,19.9330463 Z M114.938164,16.8985098 C112.89645,16.8985098 111.297021,15.2758756 111.297021,13.2054366 L111.297021,13.1685585 C111.297021,11.0493878 112.828307,9.51236341 114.938164,9.51236341 C117.375879,9.51236341 118.832593,11.3806317 118.832593,13.186339 L118.832593,13.2238756 C118.832593,15.4931927 116.810807,16.8985098 114.938164,16.8985098 L114.938164,16.8985098 Z M114.938164,9.67107073 C112.917664,9.67107073 111.452593,11.1415829 111.452593,13.1685585 L111.452593,13.2054366 C111.452593,15.1863146 112.982593,16.7398024 114.938164,16.7398024 C116.736236,16.7398024 118.677021,15.3950707 118.677021,13.2238756 L118.677021,13.186339 C118.677021,10.9861683 116.77545,9.67107073 114.938164,9.67107073 L114.938164,9.67107073 Z" id="Fill-28" fill="#FEFEFE" mask="url(#mask-4)"></path>
            <path d="M121.23225,13.6873537 L121.23225,13.6498171 C121.23225,10.9070122 123.113893,8.72067073 125.611393,8.72067073 C128.197607,8.72067073 129.843964,10.8707927 129.843964,13.6682561 C129.843964,13.8355244 129.843964,13.8915 129.824679,14.0390122 L122.174036,14.0390122 C122.336036,16.3919634 123.981107,17.7636951 125.79075,17.7636951 C127.219821,17.7636951 128.197607,17.1150366 128.956821,16.2806707 L129.571393,16.8371341 C128.631536,17.8749878 127.52775,18.6158415 125.75475,18.6158415 C123.331821,18.6158415 121.23225,16.6336463 121.23225,13.6873537 L121.23225,13.6873537 Z M128.884179,13.2237439 C128.757536,11.3146463 127.691036,9.55437805 125.57475,9.55437805 C123.74775,9.55437805 122.336036,11.1295976 122.174036,13.2237439 L128.884179,13.2237439 Z" id="Fill-29" fill="#FEFEFE" mask="url(#mask-4)"></path>
            <path d="M125.754879,18.6958537 C123.132664,18.6958537 121.155236,16.5417805 121.155236,13.6876829 L121.155236,13.6501463 C121.155236,10.8408293 123.112093,8.64065854 125.610879,8.64065854 C128.148236,8.64065854 129.920593,10.7078049 129.920593,13.6679268 C129.920593,13.8384878 129.920593,13.8957805 129.902593,14.0492195 L129.893593,14.1183659 L122.257093,14.1183659 C122.437736,16.2223902 123.88095,17.6843415 125.790879,17.6843415 C127.006521,17.6843415 127.994593,17.2213902 128.900379,16.227 L128.951807,16.1710244 L129.682093,16.8315366 L129.62745,16.8914634 C128.481879,18.1565122 127.324093,18.6958537 125.754879,18.6958537 L125.754879,18.6958537 Z M125.610879,8.80002439 C123.199521,8.80002439 121.310164,10.9303902 121.310164,13.6501463 L121.310164,13.6876829 C121.310164,16.4522195 123.221379,18.5371463 125.754879,18.5371463 C127.25145,18.5371463 128.363593,18.0294146 129.46095,16.8427317 L128.96145,16.3922927 C128.03895,17.3807561 127.029021,17.8430488 125.790879,17.8430488 C123.770379,17.8430488 122.251307,16.281 122.096379,14.0439512 L122.08995,13.9596585 L129.756664,13.9596585 C129.764379,13.8641707 129.764379,13.8049024 129.764379,13.6679268 C129.764379,10.8013171 128.05695,8.80002439 125.610879,8.80002439 L125.610879,8.80002439 Z M128.967236,13.3030976 L122.089307,13.3030976 L122.096379,13.2168293 C122.264807,11.0495854 123.727307,9.47436585 125.574879,9.47436585 C127.891736,9.47436585 128.847664,11.492122 128.96145,13.2188049 L128.967236,13.3030976 Z M122.258379,13.1437317 L128.800736,13.1437317 C128.665093,11.5052927 127.747736,9.63373171 125.574879,9.63373171 C123.834664,9.63373171 122.451236,11.105561 122.258379,13.1437317 L122.258379,13.1437317 Z" id="Fill-30" fill="#FEFEFE" mask="url(#mask-4)"></path>
            <path d="M131.345936,8.94319024 L132.23115,8.94319024 L132.23115,11.6300195 C132.954364,9.94350732 134.492721,8.72060488 136.320364,8.79436098 L136.320364,9.79599512 L136.229079,9.79599512 C134.094793,9.79599512 132.23115,11.4449707 132.23115,14.5209951 L132.23115,18.3938488 L131.345936,18.3938488 L131.345936,8.94319024 Z" id="Fill-31" fill="#FEFEFE" mask="url(#mask-4)"></path>
            <path d="M132.308357,18.4733341 L131.268214,18.4733341 L131.268214,8.86330976 L132.308357,8.86330976 L132.308357,11.278822 C133.111929,9.68713902 134.562214,8.71184634 136.162286,8.71184634 C136.215,8.71184634 136.268357,8.71250488 136.322357,8.71579756 L136.396929,8.71843171 L136.396929,9.87482195 L136.229143,9.87482195 C134.277429,9.87482195 132.308357,11.3124073 132.308357,14.5207976 L132.308357,18.4733341 Z M131.4225,18.3146268 L132.153429,18.3146268 L132.153429,14.5207976 C132.153429,13.0529195 132.575786,11.8181634 133.372929,10.9502122 C134.105143,10.1547 135.118929,9.71611463 136.229143,9.71611463 L136.242643,9.71611463 L136.242643,8.87187073 C134.564786,8.83762683 133.053429,9.91235854 132.301929,11.6614317 L132.153429,12.0084805 L132.153429,9.02267561 L131.4225,9.02267561 L131.4225,18.3146268 Z" id="Fill-32" fill="#FEFEFE" mask="url(#mask-4)"></path>
            <path d="M145.798971,8.94319024 L146.775471,8.94319024 L142.7769,18.7264098 C141.9624,20.709922 141.023186,21.4138976 139.702757,21.4138976 C138.996257,21.4138976 138.489686,21.2848244 137.875114,21.0062634 L138.1824,20.2100927 C138.670971,20.4511171 139.068257,20.5624098 139.756114,20.5624098 C140.715257,20.5624098 141.347829,19.9868488 142.035043,18.3391902 L137.603186,8.94319024 L138.634329,8.94319024 L142.468971,17.3935317 L145.798971,8.94319024 Z" id="Fill-33" fill="#FEFEFE" mask="url(#mask-4)"></path>
            <path d="M139.702436,21.4933829 C139.023579,21.4933829 138.502864,21.3774805 137.843936,21.0791634 L137.77515,21.0482122 L138.140936,20.1012366 L138.216793,20.1374561 C138.668721,20.3613585 139.04865,20.4818707 139.755793,20.4818707 C140.697579,20.4818707 141.294793,19.9017 141.95115,18.3403098 L137.478793,8.86265122 L138.684793,8.86265122 L142.46415,17.1937976 L145.745293,8.86265122 L146.89215,8.86265122 L142.849221,18.757822 C142.061721,20.6754805 141.121221,21.4933829 139.702436,21.4933829 L139.702436,21.4933829 Z M137.974436,20.963261 C138.580007,21.2306268 139.070507,21.3346756 139.702436,21.3346756 C141.065936,21.3346756 141.936364,20.5701146 142.705864,18.6959195 L146.65815,9.02267561 L145.850721,9.02267561 L142.474436,17.5928707 L138.585793,9.02267561 L137.727579,9.02267561 L142.120864,18.3363585 L142.107364,18.3699439 C141.425936,20.0044317 140.765721,20.6412366 139.755793,20.6412366 C139.06215,20.6412366 138.65715,20.5227 138.223221,20.3178951 L137.974436,20.963261 Z" id="Fill-34" fill="#FEFEFE" mask="url(#mask-4)"></path>
            <path d="M150.74595,13.7053976 L150.74595,13.667861 C150.74595,11.0185683 152.809521,8.72093415 155.449736,8.72093415 C157.186093,8.72093415 158.271879,9.53686098 159.140379,10.4627634 L158.506521,11.129861 C157.711307,10.2954951 156.806164,9.57373902 155.432379,9.57373902 C153.332807,9.57373902 151.705093,11.3708854 151.705093,13.6316415 L151.705093,13.667861 C151.705093,15.9470561 153.38745,17.7639585 155.503093,17.7639585 C156.806164,17.7639585 157.819307,17.078422 158.597807,16.188739 L159.213021,16.7438854 C158.271879,17.8377146 157.150736,18.6167634 155.449736,18.6167634 C152.790879,18.6167634 150.74595,16.3546902 150.74595,13.7053976" id="Fill-35" fill="#FEFEFE" mask="url(#mask-4)"></path>
            <path d="M155.449993,18.6958537 C152.812993,18.6958537 150.668421,16.4574878 150.668421,13.7054634 L150.668421,13.6679268 C150.668421,10.8961463 152.812993,8.64065854 155.449993,8.64065854 C157.302707,8.64065854 158.425136,9.585 159.195921,10.4081707 L159.247993,10.4628293 L158.506779,11.2438537 L158.45085,11.1852439 C157.691636,10.3897317 156.800636,9.6534878 155.432636,9.6534878 C153.385136,9.6534878 151.783136,11.4005854 151.783136,13.6323659 L151.783136,13.6679268 C151.783136,15.920122 153.417921,17.6843415 155.50335,17.6843415 C156.61935,17.6843415 157.64085,17.1627805 158.539564,16.1354634 L158.591636,16.0761951 L159.321921,16.7380244 L159.271136,16.7972927 C158.140993,18.1090976 156.962636,18.6958537 155.449993,18.6958537 M155.449993,8.80002439 C152.899136,8.80002439 150.823993,10.9843902 150.823993,13.6679268 L150.823993,13.7054634 C150.823993,16.3692439 152.899136,18.5371463 155.449993,18.5371463 C156.890636,18.5371463 158.020136,17.9852927 159.10335,16.7505366 L158.60385,16.299439 C157.686493,17.324122 156.643779,17.8430488 155.50335,17.8430488 C153.32985,17.8430488 151.627564,16.0096829 151.627564,13.6679268 L151.627564,13.6323659 C151.627564,11.3110244 153.29835,9.49280488 155.432636,9.49280488 C156.824421,9.49280488 157.735993,10.2178537 158.506136,11.0166585 L159.03135,10.4628293 C158.242564,9.63109756 157.194707,8.80002439 155.449993,8.80002439" id="Fill-36" fill="#FEFEFE" mask="url(#mask-4)"></path>
            <path d="M159.71895,13.6873537 L159.71895,13.6498171 C159.71895,10.9070122 161.59995,8.72067073 164.09745,8.72067073 C166.683021,8.72067073 168.329379,10.8707927 168.329379,13.6682561 C168.329379,13.8355244 168.329379,13.8915 168.311379,14.0390122 L160.658807,14.0390122 C160.822736,16.3919634 162.467807,17.7636951 164.27745,17.7636951 C165.705879,17.7636951 166.683021,17.1150366 167.442879,16.2806707 L168.058736,16.8371341 C167.11695,17.8749878 166.013807,18.6158415 164.240164,18.6158415 C161.817879,18.6158415 159.71895,16.6336463 159.71895,13.6873537 L159.71895,13.6873537 Z M167.369593,13.2237439 C167.244236,11.3146463 166.177093,9.55437805 164.060807,9.55437805 C162.232521,9.55437805 160.822736,11.1295976 160.658807,13.2237439 L167.369593,13.2237439 Z" id="Fill-37" fill="#FEFEFE" mask="url(#mask-4)"></path>
            <path d="M164.240293,18.6958537 C161.618721,18.6958537 159.641293,16.5417805 159.641293,13.6876829 L159.641293,13.6501463 C159.641293,10.8408293 161.597507,8.64065854 164.096936,8.64065854 C166.634293,8.64065854 168.40665,10.7078049 168.40665,13.6679268 C168.40665,13.8384878 168.40665,13.8957805 168.38865,14.0492195 L168.380293,14.1183659 L160.743793,14.1183659 C160.924436,16.2223902 162.367007,17.6843415 164.277579,17.6843415 C165.493221,17.6843415 166.48065,17.2213902 167.385793,16.227 L167.437221,16.1710244 L168.168793,16.8315366 L168.11415,16.8914634 C166.967936,18.1565122 165.809507,18.6958537 164.240293,18.6958537 L164.240293,18.6958537 Z M164.096936,8.80002439 C161.684936,8.80002439 159.796221,10.9303902 159.796221,13.6501463 L159.796221,13.6876829 C159.796221,16.4522195 161.707436,18.5371463 164.240293,18.5371463 C165.737507,18.5371463 166.84965,18.0294146 167.947007,16.8427317 L167.447507,16.3922927 C166.525007,17.3807561 165.515079,17.8430488 164.277579,17.8430488 C162.255793,17.8430488 160.736721,16.281 160.582436,14.0439512 L160.576007,13.9596585 L168.242079,13.9596585 C168.251721,13.8641707 168.251721,13.8049024 168.251721,13.6679268 C168.251721,10.8013171 166.54365,8.80002439 164.096936,8.80002439 L164.096936,8.80002439 Z M167.453936,13.3030976 L160.576007,13.3030976 L160.582436,13.2168293 C160.750864,11.0495854 162.214007,9.47436585 164.060936,9.47436585 C166.37715,9.47436585 167.333721,11.492122 167.447507,13.2188049 L167.453936,13.3030976 Z M160.743793,13.1437317 L167.286793,13.1437317 C167.15115,11.5052927 166.23315,9.63373171 164.060936,9.63373171 C162.320721,9.63373171 160.93665,11.105561 160.743793,13.1437317 L160.743793,13.1437317 Z" id="Fill-38" fill="#FEFEFE" mask="url(#mask-4)"></path>
            <path d="M169.830771,8.94319024 L170.717271,8.94319024 L170.717271,10.7034585 C171.333129,9.59119024 172.362986,8.72060488 174.045986,8.72060488 C176.378914,8.72060488 177.735343,10.3518 177.735343,12.6125561 L177.735343,18.3938488 L176.848843,18.3938488 L176.848843,12.7791659 C176.848843,10.8338488 175.782986,9.5543122 173.919343,9.5543122 C172.110343,9.5543122 170.717271,10.962922 170.717271,12.9273366 L170.717271,18.3938488 L169.830771,18.3938488 L169.830771,8.94319024 Z" id="Fill-39" fill="#FEFEFE" mask="url(#mask-4)"></path>
            <path d="M177.813771,18.4733341 L176.772343,18.4733341 L176.772343,12.7796268 C176.772343,10.8389195 175.679486,9.63379756 173.9187,9.63379756 C172.138629,9.63379756 170.7957,11.0496512 170.7957,12.9277976 L170.7957,18.4733341 L169.752986,18.4733341 L169.752986,8.86330976 L170.7957,8.86330976 L170.7957,10.4181146 C171.537557,9.23933415 172.630414,8.64138293 174.046629,8.64138293 C176.333914,8.64138293 177.813771,10.200139 177.813771,12.6130171 L177.813771,18.4733341 Z M176.926629,18.3146268 L177.657557,18.3146268 L177.657557,12.6130171 C177.657557,10.2969439 176.2407,8.80009024 174.046629,8.80009024 C172.595057,8.80009024 171.498343,9.45335854 170.785414,10.7427732 L170.639486,11.0042122 L170.639486,9.02267561 L169.908557,9.02267561 L169.908557,18.3146268 L170.639486,18.3146268 L170.639486,12.9277976 C170.639486,10.9594317 172.049914,9.47509024 173.9187,9.47509024 C175.773986,9.47509024 176.926629,10.7414561 176.926629,12.7796268 L176.926629,18.3146268 Z" id="Fill-40" fill="#FEFEFE" mask="url(#mask-4)"></path>
            <path d="M180.322457,15.9658902 L180.322457,9.77762195 L178.983386,9.77762195 L178.983386,8.9432561 L180.322457,8.9432561 L180.322457,5.92320732 L181.208957,5.92320732 L181.208957,8.9432561 L184.446386,8.9432561 L184.446386,9.77762195 L181.208957,9.77762195 L181.208957,15.8730366 C181.208957,17.2256707 181.986171,17.708378 183.053957,17.708378 C183.505886,17.708378 183.886457,17.6155244 184.409743,17.3751585 L184.409743,18.2273049 C183.940457,18.4492317 183.487886,18.5605244 182.908029,18.5605244 C181.480243,18.5605244 180.322457,17.7636951 180.322457,15.9658902" id="Fill-41" fill="#FEFEFE" mask="url(#mask-4)"></path>
            <path d="M182.908286,18.639878 C181.240071,18.639878 180.244286,17.640878 180.244286,15.966878 L180.244286,9.85631707 L178.905857,9.85631707 L178.905857,8.86258537 L180.244286,8.86258537 L180.244286,5.84319512 L181.286357,5.84319512 L181.286357,8.86258537 L184.524429,8.86258537 L184.524429,9.85631707 L181.286357,9.85631707 L181.286357,15.8733659 C181.286357,17.0383171 181.880357,17.6290244 183.054214,17.6290244 C183.494571,17.6290244 183.866143,17.5368293 184.3785,17.3017317 L184.487786,17.2516829 L184.487786,18.2783415 L184.442786,18.2987561 C183.936857,18.5378049 183.477857,18.639878 182.908286,18.639878 L182.908286,18.639878 Z M179.062071,9.69695122 L180.399857,9.69695122 L180.399857,15.966878 C180.399857,17.5407805 181.337786,18.4805122 182.908286,18.4805122 C183.436714,18.4805122 183.866143,18.3896341 184.332857,18.1762683 L184.332857,17.496 C183.853286,17.7047561 183.485571,17.7877317 183.054214,17.7877317 C181.796143,17.7877317 181.130143,17.1252439 181.130143,15.8733659 L181.130143,9.69695122 L184.368214,9.69695122 L184.368214,9.02260976 L181.130143,9.02260976 L181.130143,6.00256098 L180.399857,6.00256098 L180.399857,9.02260976 L179.062071,9.02260976 L179.062071,9.69695122 Z" id="Fill-42" fill="#FEFEFE" mask="url(#mask-4)"></path>
            <path d="M185.079793,13.6873537 L185.079793,13.6498171 C185.079793,10.9070122 186.961436,8.72067073 189.45765,8.72067073 C192.043221,8.72067073 193.689579,10.8707927 193.689579,13.6682561 C193.689579,13.8355244 193.689579,13.8915 193.671579,14.0390122 L186.020293,14.0390122 C186.182936,16.3919634 187.82865,17.7636951 189.638293,17.7636951 C191.066721,17.7636951 192.043221,17.1150366 192.804364,16.2806707 L193.418293,16.8371341 C192.477793,17.8749878 191.374007,18.6158415 189.60165,18.6158415 C187.179364,18.6158415 185.079793,16.6336463 185.079793,13.6873537 L185.079793,13.6873537 Z M192.731079,13.2237439 C192.605079,11.3146463 191.537293,9.55437805 189.42165,9.55437805 C187.593364,9.55437805 186.182936,11.1295976 186.020293,13.2237439 L192.731079,13.2237439 Z" id="Fill-43" fill="#FEFEFE" mask="url(#mask-4)"></path>
            <path d="M189.601714,18.6958537 C186.980143,18.6958537 185.002714,16.5417805 185.002714,13.6876829 L185.002714,13.6501463 C185.002714,10.8408293 186.958929,8.64065854 189.457071,8.64065854 C191.995714,8.64065854 193.766786,10.7078049 193.766786,13.6679268 C193.766786,13.8384878 193.766786,13.8957805 193.748786,14.0492195 L193.741071,14.1183659 L186.103929,14.1183659 C186.285214,16.2223902 187.728429,17.6843415 189.638357,17.6843415 C190.854,17.6843415 191.841429,17.2213902 192.747214,16.227 L192.798643,16.1710244 L193.528929,16.8315366 L193.474929,16.8914634 C192.329357,18.1565122 191.170929,18.6958537 189.601714,18.6958537 L189.601714,18.6958537 Z M189.457071,8.80002439 C187.045071,8.80002439 185.157,10.9303902 185.157,13.6501463 L185.157,13.6876829 C185.157,16.4522195 187.068214,18.5371463 189.601714,18.5371463 C191.098929,18.5371463 192.211071,18.0294146 193.307786,16.8427317 L192.807643,16.3922927 C191.885786,17.3807561 190.8765,17.8430488 189.638357,17.8430488 C187.617214,17.8430488 186.098143,16.281 185.943857,14.0439512 L185.936786,13.9596585 L193.602857,13.9596585 C193.611857,13.8641707 193.611857,13.8049024 193.611857,13.6679268 C193.611857,10.8013171 191.904429,8.80002439 189.457071,8.80002439 L189.457071,8.80002439 Z M192.814071,13.3030976 L185.936786,13.3030976 L185.943857,13.2168293 C186.112286,11.0495854 187.574143,9.47436585 189.422357,9.47436585 C191.737929,9.47436585 192.6945,11.492122 192.807643,13.2188049 L192.814071,13.3030976 Z M186.105214,13.1437317 L192.647571,13.1437317 C192.511929,11.5052927 191.593929,9.63373171 189.422357,9.63373171 C187.6815,9.63373171 186.297429,11.105561 186.105214,13.1437317 L186.105214,13.1437317 Z" id="Fill-44" fill="#FEFEFE" mask="url(#mask-4)"></path>
            <path d="M195.19155,8.94319024 L196.078693,8.94319024 L196.078693,11.6300195 C196.801907,9.94350732 198.338979,8.72060488 200.165979,8.79436098 L200.165979,9.79599512 L200.076621,9.79599512 C197.941693,9.79599512 196.078693,11.4449707 196.078693,14.5209951 L196.078693,18.3938488 L195.19155,18.3938488 L195.19155,8.94319024 Z" id="Fill-45" fill="#FEFEFE" mask="url(#mask-4)"></path>
            <path d="M196.156543,18.4733341 L195.113829,18.4733341 L195.113829,8.86330976 L196.156543,8.86330976 L196.156543,11.278822 C196.958829,9.68713902 198.408471,8.71184634 200.008543,8.71184634 C200.062543,8.71184634 200.1159,8.71250488 200.1699,8.71579756 L200.244471,8.71843171 L200.244471,9.87482195 L200.076686,9.87482195 C198.124329,9.87482195 196.156543,11.3124073 196.156543,14.5207976 L196.156543,18.4733341 Z M195.270043,18.3146268 L196.000971,18.3146268 L196.000971,14.5207976 C196.000971,13.0529195 196.422686,11.8181634 197.220471,10.9502122 C197.952043,10.1547 198.966471,9.71611463 200.076686,9.71611463 L200.088257,9.71611463 L200.088257,8.87187073 C198.4149,8.83762683 196.899686,9.91235854 196.149471,11.6614317 L196.000971,12.0084805 L196.000971,9.02267561 L195.270043,9.02267561 L195.270043,18.3146268 Z" id="Fill-46" fill="#FEFEFE" mask="url(#mask-4)"></path>
        </g>
    </g>
</svg>