<?xml version="1.0" encoding="UTF-8" standalone="no"?>
<svg width="241px" height="22px" viewBox="0 0 241 22" version="1.1" xmlns="http://www.w3.org/2000/svg" xmlns:xlink="http://www.w3.org/1999/xlink">
    <!-- Generator: Sketch 3.6.1 (26313) - http://www.bohemiancoding.com/sketch -->
    <title>w-tattnall-m</title>
    <desc>Created with Sketch.</desc>
    <defs>
        <path id="path-1" d="M6.00510649,9.1595122 L6.00510649,0.407804878 L0.219537335,0.407804878 L0.219537335,9.1595122 L6.00510649,9.1595122 L6.00510649,9.1595122 Z"></path>
    </defs>
    <g id="Page-1" stroke="none" stroke-width="1" fill="none" fill-rule="evenodd">
        <g id="w-tattnall-m">
            <g id="Page-1" transform="translate(173.853659, 0.000000)">
                <path d="M10.8560688,7.39287805 L7.80623511,7.39287805 L7.80623511,6.79239024 L14.5546685,6.79239024 L14.5546685,7.39287805 L11.5043474,7.39287805 L11.5043474,15.5450732 L10.8560688,15.5450732 L10.8560688,7.39287805 Z" id="Fill-3" fill="#FFFFFF"></path>
                <path d="M17.2258198,6.72956098 L17.8511893,6.72956098 L21.9251081,15.5441951 L21.2115143,15.5441951 L20.0987173,13.0939512 L14.9392975,13.0939512 L13.8279629,15.5441951 L13.1533633,15.5441951 L17.2258198,6.72956098 Z M19.8252705,12.5061463 L17.5265626,7.44321951 L15.2137192,12.5061463 L19.8252705,12.5061463 Z" id="Fill-5" fill="#FFFFFF"></path>
                <path d="M23.5715894,7.39287805 L20.5222431,7.39287805 L20.5222431,6.79239024 L27.270189,6.79239024 L27.270189,7.39287805 L24.2208428,7.39287805 L24.2208428,15.5450732 L23.5715894,15.5450732 L23.5715894,7.39287805 Z" id="Fill-7" fill="#FFFFFF"></path>
                <path d="M31.4159547,7.39287805 L28.3670958,7.39287805 L28.3670958,6.79239024 L35.1145544,6.79239024 L35.1145544,7.39287805 L32.0652081,7.39287805 L32.0652081,15.5450732 L31.4159547,15.5450732 L31.4159547,7.39287805 Z" id="Fill-9" fill="#FFFFFF"></path>
                <path d="M36.3364863,6.79258537 L36.9491826,6.79258537 L42.9845096,14.4077073 L42.9845096,6.79258537 L43.6089042,6.79258537 L43.6089042,15.5442927 L43.1209893,15.5442927 L36.9608809,7.76721951 L36.9608809,15.5442927 L36.3364863,15.5442927 L36.3364863,6.79258537 Z" id="Fill-11" fill="#FFFFFF"></path>
                <path d="M48.5294846,6.72956098 L49.1538792,6.72956098 L53.227798,15.5441951 L52.5142042,15.5441951 L51.4023821,13.0939512 L46.2419874,13.0939512 L45.1306528,15.5441951 L44.457028,15.5441951 L48.5294846,6.72956098 Z M51.1289353,12.5061463 L48.8292525,7.44321951 L46.5178714,12.5061463 L51.1289353,12.5061463 Z" id="Fill-13" fill="#FFFFFF"></path>
                <path d="M54.3241199,6.79258537 L54.9733733,6.79258537 L54.9733733,14.9457561 L60.109884,14.9457561 L60.109884,15.5442927 L54.3241199,15.5442927 L54.3241199,6.79258537 Z" id="Fill-15" fill="#FFFFFF"></path>
                <g id="Group-19" transform="translate(60.836443, 6.384780)">
                    <mask id="mask-2" fill="white">
                        <use xlink:href="#path-1"></use>
                    </mask>
                    <g id="Clip-18"></g>
                    <path d="M0.219537335,0.407804878 L0.869765586,0.407804878 L0.869765586,8.56097561 L6.00530146,8.56097561 L6.00530146,9.1595122 L0.219537335,9.1595122 L0.219537335,0.407804878 Z" id="Fill-17" fill="#FFFFFF" mask="url(#mask-2)"></path>
                </g>
                <path d="M0.355954903,19.9491707 L1.12365318,19.9491707 L1.12365318,0.0130731707 L0.355954903,0.0130731707 L0.355954903,19.9491707 Z" id="Fill-46" fill="#FFFFFF"></path>
            </g>
            <path d="M72.2007526,7.27282652 L72.9694891,7.27282652 L72.9694891,8.75895426 C73.487918,7.89256127 74.2096076,7.07464447 75.6370001,7.07464447 C77.0347028,7.07464447 77.8984465,7.90729423 78.3392253,8.8715901 C78.8553704,7.94151271 79.7182006,7.07464447 81.2259837,7.07464447 C83.125215,7.07464447 84.3018432,8.46572087 84.3018432,10.5558999 L84.3018432,15.6012252 L83.5340202,15.6012252 L83.5340202,10.6514265 C83.5340202,8.85685715 82.6383029,7.81176763 81.1643204,7.81176763 C79.8132078,7.81176763 78.6356661,8.89060037 78.6356661,10.7517057 L78.6356661,15.6012252 L77.8664729,15.6012252 L77.8664729,10.6053266 C77.8664729,8.8715901 76.9556823,7.81176763 75.5273763,7.81176763 C74.0986136,7.81176763 72.9694891,9.1187236 72.9694891,10.7992313 L72.9694891,15.6012252 L72.2007526,15.6012252 L72.2007526,7.27282652 Z" id="Fill-13" fill="#FFFFFF"></path>
            <path d="M85.4786997,11.4541826 L85.4786997,11.4213899 C85.4786997,9.00328374 87.1120934,7.07564251 89.2767055,7.07564251 C91.5217083,7.07564251 92.948644,8.97001577 92.948644,11.4380239 C92.948644,11.5834524 92.948644,11.6324039 92.9335707,11.7650005 L86.2935695,11.7650005 C86.4356236,13.8371198 87.8652998,15.0456976 89.4329193,15.0456976 C90.6739514,15.0456976 91.5217083,14.4739638 92.1803643,13.7401674 L92.7152368,14.2292066 C91.8971696,15.1450263 90.939789,15.7966032 89.4009457,15.7966032 C87.3002808,15.7966032 85.4786997,14.0509853 85.4786997,11.4541826 L85.4786997,11.4541826 Z M92.1187009,11.0464124 C92.0081636,9.36352833 91.0822998,7.81086464 89.2465589,7.81086464 C87.6602121,7.81086464 86.4356236,9.19956476 86.2935695,11.0464124 L92.1187009,11.0464124 Z" id="Fill-14" fill="#FFFFFF"></path>
            <path d="M93.7359708,11.4702938 L93.7359708,11.4379764 C93.7359708,8.72616155 95.6968654,7.07559498 97.6280703,7.07559498 C99.2281202,7.07559498 100.265892,8.02420738 100.925461,9.06739587 L100.925461,4.51015923 L101.693284,4.51015923 L101.693284,15.6012252 L100.925461,15.6012252 L100.925461,13.7401199 C100.233918,14.8351114 99.2125901,15.7965557 97.6280703,15.7965557 C95.6968654,15.7965557 93.7359708,14.1792571 93.7359708,11.4702938 M100.971594,11.4541351 L100.971594,11.4213424 C100.971594,9.28031088 99.370631,7.84598611 97.7061772,7.84598611 C95.9631598,7.84598611 94.5686545,9.16767504 94.5686545,11.4037579 L94.5686545,11.4379764 C94.5686545,13.6246325 96.027107,15.0304419 97.7061772,15.0304419 C99.370631,15.0304419 100.971594,13.5761563 100.971594,11.4541351" id="Fill-15" fill="#FFFFFF"></path>
            <path d="M103.543276,15.6012727 L104.311099,15.6012727 L104.311099,7.27287404 L103.543276,7.27287404 L103.543276,15.6012727 Z" id="Fill-16" fill="#FFFFFF"></path>
            <path d="M105.688887,11.4702938 L105.688887,11.4379764 C105.688887,9.10161435 107.478951,7.07559498 109.770087,7.07559498 C111.276957,7.07559498 112.218351,7.79465839 112.973841,8.61209994 L112.423895,9.19999249 C111.733266,8.46667138 110.949913,7.82887687 109.755471,7.82887687 C107.934346,7.82887687 106.52157,9.41100648 106.52157,11.4037579 L106.52157,11.4379764 C106.52157,13.4449855 107.98185,15.0456501 109.819418,15.0456501 C110.949913,15.0456501 111.827359,14.4425493 112.501545,13.65695 L113.035047,14.1488407 C112.218351,15.112186 111.24544,15.7965557 109.770087,15.7965557 C107.464334,15.7965557 105.688887,13.8042795 105.688887,11.4702938" id="Fill-17" fill="#FFFFFF"></path>
            <path d="M113.601208,13.1838319 L113.601208,13.152465 C113.601208,11.42158 115.030428,10.4411254 117.101403,10.4411254 C118.215911,10.4411254 118.985104,10.586554 119.753841,10.7985185 L119.753841,10.4411254 C119.753841,8.75919189 118.764943,7.89184839 117.118303,7.89184839 C116.144022,7.89184839 115.343769,8.17129934 114.605179,8.56386138 L114.323355,7.86285773 C115.203085,7.43655245 116.065915,7.14189329 117.16535,7.14189329 C118.247428,7.14189329 119.110715,7.4503349 119.691264,8.05723772 C120.22568,8.61186231 120.507504,9.37892665 120.507504,10.4088079 L120.507504,15.6014628 L119.753841,15.6014628 L119.753841,14.2146637 C119.203438,15.0126197 118.215911,15.7963181 116.693055,15.7963181 C115.203085,15.7963181 113.601208,14.9147169 113.601208,13.1838319 M119.769828,12.4818777 L119.769828,11.5337406 C119.094728,11.3555193 118.200838,11.158763 117.055726,11.158763 C115.358842,11.158763 114.417448,11.9410356 114.417448,13.1035135 L114.417448,13.1348805 C114.417448,14.3439335 115.516426,15.0458877 116.740101,15.0458877 C118.372125,15.0458877 119.769828,14.0012735 119.769828,12.4818777" id="Fill-18" fill="#FFFFFF"></path>
            <path d="M121.959607,15.6012727 L122.729714,15.6012727 L122.729714,4.51020676 L121.959607,4.51020676 L121.959607,15.6012727 Z" id="Fill-19" fill="#FFFFFF"></path>
            <path d="M127.134807,11.4702938 L127.134807,11.4379764 C127.134807,9.10161435 128.924415,7.07559498 131.215551,7.07559498 C132.722877,7.07559498 133.663814,7.79465839 134.414737,8.61209994 L133.867532,9.19999249 C133.177816,8.46667138 132.392179,7.82887687 131.200478,7.82887687 C129.377983,7.82887687 127.966577,9.41100648 127.966577,11.4037579 L127.966577,11.4379764 C127.966577,13.4449855 129.425943,15.0456501 131.263054,15.0456501 C132.392179,15.0456501 133.272366,14.4425493 133.945639,13.65695 L134.480054,14.1488407 C133.663814,15.112186 132.692274,15.7965557 131.215551,15.7965557 C128.909341,15.7965557 127.134807,13.8042795 127.134807,11.4702938" id="Fill-20" fill="#FFFFFF"></path>
            <path d="M134.921473,11.4541826 L134.921473,11.4213899 C134.921473,9.00328374 136.554866,7.07564251 138.720392,7.07564251 C140.964481,7.07564251 142.392787,8.97001577 142.392787,11.4380239 C142.392787,11.5834524 142.392787,11.6324039 142.375887,11.7650005 L135.739083,11.7650005 C135.878853,13.8371198 137.308986,15.0456976 138.877063,15.0456976 C140.119008,15.0456976 140.964481,14.4739638 141.625421,13.7401674 L142.15938,14.2292066 C141.34314,15.1450263 140.383932,15.7966032 138.845546,15.7966032 C136.743054,15.7966032 134.921473,14.0509853 134.921473,11.4541826 L134.921473,11.4541826 Z M141.561931,11.0464124 C141.450937,9.36352833 140.525986,7.81086464 138.690702,7.81086464 C137.103442,7.81086464 135.878853,9.19956476 135.739083,11.0464124 L141.561931,11.0464124 Z" id="Fill-21" fill="#FFFFFF"></path>
            <path d="M143.537716,7.27282652 L144.306909,7.27282652 L144.306909,8.82453969 C144.840411,7.8450356 145.733845,7.07464447 147.194581,7.07464447 C149.218509,7.07464447 150.396051,8.51324654 150.396051,10.5059979 L150.396051,15.6012252 L149.627771,15.6012252 L149.627771,10.6514265 C149.627771,8.9386013 148.70008,7.81176763 147.083587,7.81176763 C145.515511,7.81176763 144.306909,9.05218766 144.306909,10.7825974 L144.306909,15.6012252 L143.537716,15.6012252 L143.537716,7.27282652 Z" id="Fill-22" fill="#FFFFFF"></path>
            <path d="M152.242617,13.4630452 L152.242617,8.00662288 L151.080606,8.00662288 L151.080606,7.27282652 L152.242617,7.27282652 L152.242617,4.44314804 L153.009983,4.44314804 L153.009983,7.27282652 L155.821376,7.27282652 L155.821376,8.00662288 L153.009983,8.00662288 L153.009983,13.3803506 C153.009983,14.5727697 153.68691,14.9962234 154.61186,14.9962234 C155.006049,14.9962234 155.335377,14.9149545 155.788488,14.7020395 L155.788488,15.4534203 C155.381054,15.6501766 154.988235,15.7476043 154.487163,15.7476043 C153.247502,15.7476043 152.242617,15.0456501 152.242617,13.4630452" id="Fill-23" fill="#FFFFFF"></path>
            <path d="M155.971834,11.4541826 L155.971834,11.4213899 C155.971834,9.00328374 157.605228,7.07564251 159.770754,7.07564251 C162.016213,7.07564251 163.442235,8.97001577 163.442235,11.4380239 C163.442235,11.5834524 163.442235,11.6324039 163.426705,11.7650005 L156.788988,11.7650005 C156.930128,13.8371198 158.357978,15.0456976 159.929251,15.0456976 C161.167543,15.0456976 162.016213,14.4739638 162.675783,13.7401674 L163.208828,14.2292066 C162.393501,15.1450263 161.435207,15.7966032 159.896364,15.7966032 C157.793872,15.7966032 155.971834,14.0509853 155.971834,11.4541826 L155.971834,11.4541826 Z M162.613206,11.0464124 C162.502212,9.36352833 161.575434,7.81086464 159.741064,7.81086464 C158.153803,7.81086464 156.930128,9.19956476 156.788988,11.0464124 L162.613206,11.0464124 Z" id="Fill-24" fill="#FFFFFF"></path>
            <path d="M164.588945,7.27282652 L165.356768,7.27282652 L165.356768,9.64198124 C165.984364,8.15347721 167.319947,7.07464447 168.903553,7.14118041 L168.903553,8.02373213 L168.82773,8.02373213 C166.974175,8.02373213 165.356768,9.47611665 165.356768,12.1893572 L165.356768,15.6012252 L164.588945,15.6012252 L164.588945,7.27282652 Z" id="Fill-25" fill="#FFFFFF"></path>
            <path d="M25.6223566,11.3635512 L25.6223566,11.3298079 C25.6223566,8.96065321 27.5517344,7.00021926 30.1566685,7.00021926 C32.7597756,7.00021926 34.672253,8.92976153 34.672253,11.2979657 L34.672253,11.3298079 C34.672253,13.6837544 32.7437888,15.6451389 30.1224111,15.6451389 C27.5348341,15.6451389 25.6223566,13.7146461 25.6223566,11.3635512 M32.7268884,11.3635512 L32.7268884,11.3298079 C32.7268884,9.87219559 31.6498352,8.66456828 30.1224111,8.66456828 C28.5639269,8.66456828 27.5686347,9.85461109 27.5686347,11.2979657 L27.5686347,11.3298079 C27.5686347,12.7750636 28.6443177,13.9950476 30.1566685,13.9950476 C31.7311395,13.9950476 32.7268884,12.7888461 32.7268884,11.3635512" id="Fill-26" fill="#FFFFFF"></path>
            <path d="M35.5581499,7.17192952 L37.5035145,7.17192952 L37.5035145,8.5544513 C38.1315672,7.69090985 39.0140383,7.00036184 40.3811377,7.00036184 C42.391363,7.00036184 44.3367276,8.5544513 44.3367276,11.2976331 L44.3367276,11.3299505 C44.3367276,14.0769343 42.4073498,15.629598 40.3811377,15.629598 C38.9825214,15.629598 38.0991368,14.9380995 37.5035145,14.1686589 L37.5035145,17.9669105 L35.5581499,17.9669105 L35.5581499,7.17192952 Z M42.3575623,11.3299505 L42.3575623,11.2976331 C42.3575623,9.69886947 41.2489923,8.64855213 39.9325939,8.64855213 C38.6120846,8.64855213 37.4550973,9.71597871 37.4550973,11.2976331 L37.4550973,11.3299505 C37.4550973,12.9315656 38.6120846,13.9814077 39.9325939,13.9814077 C41.2658926,13.9814077 42.3575623,12.9629326 42.3575623,11.3299505 L42.3575623,11.3299505 Z" id="Fill-27" fill="#FFFFFF"></path>
            <path d="M45.647051,13.1669603 L45.647051,8.80552942 L44.569541,8.80552942 L44.569541,7.17207209 L45.647051,7.17207209 L45.647051,4.89939448 L47.5919588,4.89939448 L47.5919588,7.17207209 L49.8744165,7.17207209 L49.8744165,8.80552942 L47.5919588,8.80552942 L47.5919588,12.8684991 C47.5919588,13.6056222 47.977469,13.9045587 48.6370385,13.9045587 C49.070509,13.9045587 49.4564759,13.8085569 49.8415293,13.621781 L49.8415293,15.1734941 C49.3600984,15.4405884 48.81335,15.5959974 48.0898333,15.5959974 C46.6587868,15.5959974 45.647051,14.9857677 45.647051,13.1669603" id="Fill-28" fill="#FFFFFF"></path>
            <path d="M51.1444988,15.4567947 L53.0898634,15.4567947 L53.0898634,7.17211962 L51.1444988,7.17211962 L51.1444988,15.4567947 Z" id="Fill-29" fill="#FFFFFF"></path>
            <path d="M54.5542996,7.17192952 L56.4992074,7.17192952 L56.4992074,8.42850827 C57.0450423,7.69090985 57.7845458,7.00036184 59.0872412,7.00036184 C60.3090891,7.00036184 61.1600434,7.58065029 61.6104143,8.45987521 C62.3024141,7.58065029 63.2031558,7.00036184 64.4880374,7.00036184 C66.3383948,7.00036184 67.4634084,8.14620578 67.4634084,10.1698489 L67.4634084,15.4566046 L65.5185006,15.4566046 L65.5185006,10.7487116 C65.5185006,9.43272571 64.8899911,8.72601897 63.7964943,8.72601897 C62.7358846,8.72601897 61.9799376,9.44698341 61.9799376,10.7815043 L61.9799376,15.4566046 L60.0350298,15.4566046 L60.0350298,10.7339786 C60.0350298,9.44698341 59.3923606,8.72601897 58.3143938,8.72601897 C57.2387109,8.72601897 56.4992074,9.5097173 56.4992074,10.7962372 L56.4992074,15.4566046 L54.5542996,15.4566046 L54.5542996,7.17192952 Z" id="Fill-30" fill="#FFFFFF"></path>
            <path d="M11.5280781,0.834808954 C9.17071095,0.283035908 6.72199067,1.11568567 5.38138369,3.50099912 C5.3083012,3.65213076 5.39737048,3.68777501 5.49648861,3.59890201 C5.60245823,3.50290015 5.74314203,3.34083761 6.01857167,3.04807948 C7.48844331,1.49256425 8.90350308,1.30578836 10.3866209,1.58048674 C13.3971629,2.14319069 15.1689566,6.21233868 14.3664194,10.4872728 C14.1115442,11.8488833 13.6246321,13.0778972 12.9824197,14.1011249 C14.4303666,14.1305908 15.7728006,13.8126441 16.8507674,13.2109691 C17.8378378,7.13386145 15.4813842,1.76013378 11.5280781,0.834808954" id="Fill-32" fill="#FFFFFF"></path>
            <path d="M17.6578265,6.09433244 C17.5112048,6.01971714 17.4774041,6.11144168 17.5623625,6.21504765 C17.6550859,6.32673297 17.8117565,6.47216153 18.0922106,6.75969184 C19.5881179,8.28811744 19.7662564,9.75903697 19.5008756,11.3036213 C18.9628058,14.4346125 15.0506086,16.2805096 10.9415454,15.4440578 C9.63382557,15.1793398 8.45308654,14.6727161 7.46921348,14.0064062 C7.44180755,15.5101185 7.74601342,16.906898 8.32427865,18.0289791 C14.1653969,19.0560088 19.3309588,16.6036842 20.2202814,12.4922383 C20.7505863,10.0399137 19.9489627,7.49016141 17.6578265,6.09433244 Z" id="Fill-33" fill="#FFFFFF"></path>
            <path d="M8.85691299,21.4120465 C11.2133666,21.9638195 13.6643707,21.1306945 15.0058912,18.7482326 C15.0780602,18.5942494 14.9894477,18.5581299 14.889416,18.6474782 C14.7839032,18.7439553 14.6427626,18.9055425 14.367333,19.1978254 C12.8988316,20.7542912 11.4824015,20.9396413 9.99928371,20.6635171 C6.99102559,20.1036647 5.21694808,16.033091 6.01902844,11.7576816 C6.27481716,10.3970216 6.76035898,9.16848297 7.40348491,8.14620578 C5.95690832,8.11626461 4.61493104,8.43278558 3.53559398,9.03683686 C2.54806679,15.112994 4.90497719,20.4867216 8.85691299,21.4120465" id="Fill-34" fill="#FFFFFF"></path>
            <path d="M0.157036007,9.93008186 C-0.372812067,12.3843075 0.42744123,14.9321588 2.71949091,16.3270372 C2.86519913,16.4030783 2.89899979,16.3104033 2.81404139,16.2082231 C2.72131798,16.097013 2.56556091,15.9501587 2.28510685,15.6626284 C0.78919957,14.1332522 0.611060994,12.6618575 0.875528265,11.1177484 C1.41405488,7.98770767 5.32488179,6.1427611 9.43577201,6.97683663 C10.7425783,7.24298039 11.9228606,7.74960405 12.9071904,8.41686448 C12.9355099,6.91220172 12.6303905,5.51637275 12.0516685,4.39334113 C6.21100701,3.36631137 1.04727212,5.81863602 0.157036007,9.93008186" id="Fill-35" fill="#FFFFFF"></path>
        </g>
    </g>
</svg>