<?xml version="1.0" encoding="UTF-8" standalone="no"?>
<svg width="449px" height="41px" viewBox="0 0 449 41" version="1.1" xmlns="http://www.w3.org/2000/svg" xmlns:xlink="http://www.w3.org/1999/xlink">
    <!-- Generator: Sketch 3.6.1 (26313) - http://www.bohemiancoding.com/sketch -->
    <title>w-tattnall-d</title>
    <desc>Created with Sketch.</desc>
    <defs>
        <path id="path-1" d="M11.1913348,17.07 L11.1913348,0.76 L0.40913776,0.76 L0.40913776,17.07 L11.1913348,17.07 L11.1913348,17.07 Z"></path>
    </defs>
    <g id="Page-1" stroke="none" stroke-width="1" fill="none" fill-rule="evenodd">
        <g id="w-tattnall-d">
            <g id="Page-1" transform="translate(324.000000, 0.000000)">
                <path d="M20.2317646,13.7776364 L14.5479836,13.7776364 L14.5479836,12.6585455 L27.1246095,12.6585455 L27.1246095,13.7776364 L21.4399201,13.7776364 L21.4399201,28.9703636 L20.2317646,28.9703636 L20.2317646,13.7776364 Z" id="Fill-3" fill="#FFFFFF"></path>
                <path d="M32.1026642,12.5414545 L33.2681254,12.5414545 L40.8604287,28.9687273 L39.5305493,28.9687273 L37.4567005,24.4023636 L27.8414181,24.4023636 L25.7702945,28.9687273 L24.5130861,28.9687273 L32.1026642,12.5414545 Z M36.9470951,23.3069091 L32.6631393,13.8714545 L28.3528403,23.3069091 L36.9470951,23.3069091 Z" id="Fill-5" fill="#FFFFFF"></path>
                <path d="M43.9288711,13.7776364 L38.2459985,13.7776364 L38.2459985,12.6585455 L50.8217159,12.6585455 L50.8217159,13.7776364 L45.1388433,13.7776364 L45.1388433,28.9703636 L43.9288711,28.9703636 L43.9288711,13.7776364 Z" id="Fill-7" fill="#FFFFFF"></path>
                <path d="M58.5479155,13.7776364 L52.8659513,13.7776364 L52.8659513,12.6585455 L65.4407604,12.6585455 L65.4407604,13.7776364 L59.7578878,13.7776364 L59.7578878,28.9703636 L58.5479155,28.9703636 L58.5479155,13.7776364 Z" id="Fill-9" fill="#FFFFFF"></path>
                <path d="M67.7179972,12.6589091 L68.8598403,12.6589091 L80.1074952,26.8507273 L80.1074952,12.6589091 L81.2711397,12.6589091 L81.2711397,28.9689091 L80.3618437,28.9689091 L68.8816417,14.4752727 L68.8816417,28.9689091 L67.7179972,28.9689091 L67.7179972,12.6589091 Z" id="Fill-11" fill="#FFFFFF"></path>
                <path d="M90.4413122,12.5414545 L91.6049566,12.5414545 L99.1972599,28.9687273 L97.8673805,28.9687273 L95.7953485,24.4023636 L86.1782493,24.4023636 L84.1071257,28.9687273 L82.851734,28.9687273 L90.4413122,12.5414545 Z M95.285743,23.3069091 L90.9999705,13.8714545 L86.6923967,23.3069091 L95.285743,23.3069091 Z" id="Fill-13" fill="#FFFFFF"></path>
                <path d="M101.240405,12.6589091 L102.450377,12.6589091 L102.450377,27.8534545 L112.022966,27.8534545 L112.022966,28.9689091 L101.240405,28.9689091 L101.240405,12.6589091 Z" id="Fill-15" fill="#FFFFFF"></path>
                <g id="Group-19" transform="translate(113.377008, 11.898909)">
                    <mask id="mask-2" fill="white">
                        <use xlink:href="#path-1"></use>
                    </mask>
                    <g id="Clip-18"></g>
                    <path d="M0.40913776,0.76 L1.62092677,0.76 L1.62092677,15.9545455 L11.1916982,15.9545455 L11.1916982,17.07 L0.40913776,17.07 L0.40913776,0.76 Z" id="Fill-17" fill="#FFFFFF" mask="url(#mask-2)"></path>
                </g>
                <path d="M0.6633705,37.178 L2.09408092,37.178 L2.09408092,0.0243636364 L0.6633705,0.0243636364 L0.6633705,37.178 Z" id="Fill-46" fill="#FFFFFF"></path>
            </g>
            <path d="M134.555948,13.553904 L135.988593,13.553904 L135.988593,16.3235057 C136.954756,14.7088642 138.299723,13.1845647 140.959864,13.1845647 C143.564673,13.1845647 145.174378,14.7363211 145.995829,16.5334179 C146.957736,14.8000919 148.565737,13.1845647 151.375697,13.1845647 C154.915173,13.1845647 157.10798,15.7770253 157.10798,19.6723589 L157.10798,29.0750106 L155.677038,29.0750106 L155.677038,19.8503858 C155.677038,16.505961 154.007746,14.5582942 151.260779,14.5582942 C148.742796,14.5582942 146.548287,16.5688462 146.548287,20.0372697 L146.548287,29.0750106 L145.11479,29.0750106 L145.11479,19.7644723 C145.11479,16.5334179 143.417408,14.5582942 140.755565,14.5582942 C138.092871,14.5582942 135.988593,16.9939849 135.988593,20.1258402 L135.988593,29.0750106 L134.555948,29.0750106 L134.555948,13.553904 Z" id="Fill-13" fill="#FFFFFF"></path>
            <path d="M159.301213,21.3464312 L159.301213,21.2853176 C159.301213,16.778847 162.345265,13.1864247 166.379315,13.1864247 C170.563184,13.1864247 173.222473,16.7168476 173.222473,21.3163173 C173.222473,21.5873432 173.222473,21.6785709 173.194382,21.9256828 L160.819834,21.9256828 C161.084571,25.7873596 163.748968,28.0397092 166.670441,28.0397092 C168.983273,28.0397092 170.563184,26.9742052 171.790679,25.6066756 L172.787487,26.5180668 C171.262907,28.2248217 169.478698,29.4391242 166.610853,29.4391242 C162.695978,29.4391242 159.301213,26.1859272 159.301213,21.3464312 L159.301213,21.3464312 Z M171.675761,20.5864958 C171.46976,17.4502119 169.744286,14.5566114 166.323133,14.5566114 C163.366759,14.5566114 161.084571,17.1446434 160.819834,20.5864958 L171.675761,20.5864958 Z" id="Fill-14" fill="#FFFFFF"></path>
            <path d="M174.689764,21.3764567 L174.689764,21.3162287 C174.689764,16.262392 178.344158,13.1863361 181.943222,13.1863361 C184.925133,13.1863361 186.859162,14.9542047 188.088359,16.8983287 L188.088359,8.40529675 L189.519302,8.40529675 L189.519302,29.0750106 L188.088359,29.0750106 L188.088359,25.6065871 C186.799574,27.647253 184.896191,29.4390356 181.943222,29.4390356 C178.344158,29.4390356 174.689764,26.4249791 174.689764,21.3764567 M188.174335,21.3463427 L188.174335,21.285229 C188.174335,17.2951248 185.190721,14.622065 182.088785,14.622065 C178.840434,14.622065 176.241583,17.0852126 176.241583,21.2524579 L176.241583,21.3162287 C176.241583,25.3913606 178.959608,28.011278 182.088785,28.011278 C185.190721,28.011278 188.174335,25.3010186 188.174335,21.3463427" id="Fill-15" fill="#FFFFFF"></path>
            <path d="M192.967014,29.0750991 L194.397957,29.0750991 L194.397957,13.5539925 L192.967014,13.5539925 L192.967014,29.0750991 Z" id="Fill-16" fill="#FFFFFF"></path>
            <path d="M196.965652,21.3764567 L196.965652,21.3162287 C196.965652,16.9620995 200.301681,13.1863361 204.571526,13.1863361 C207.379783,13.1863361 209.134199,14.5264088 210.542158,16.0498226 L209.517259,17.1454406 C208.230177,15.7787967 206.770292,14.5901796 204.544286,14.5901796 C201.150372,14.5901796 198.517472,17.5386939 198.517472,21.2524579 L198.517472,21.3162287 C198.517472,25.0565638 201.238902,28.0396206 204.66346,28.0396206 C206.770292,28.0396206 208.405533,26.9156601 209.661971,25.4515886 L210.656225,26.368294 C209.134199,28.1636194 207.321047,29.4390356 204.571526,29.4390356 C200.274441,29.4390356 196.965652,25.7261573 196.965652,21.3764567" id="Fill-17" fill="#FFFFFF"></path>
            <path d="M211.711343,24.5698686 L211.711343,24.511412 C211.711343,21.2856718 214.374888,19.458461 218.234433,19.458461 C220.311471,19.458461 221.744967,19.7294869 223.177612,20.1245117 L223.177612,19.458461 C223.177612,16.3239485 221.334667,14.7075356 218.265929,14.7075356 C216.450223,14.7075356 214.958842,15.2283306 213.582379,15.9599235 L213.057161,14.6535076 C214.696659,13.8590296 216.304661,13.309892 218.353607,13.309892 C220.370206,13.309892 221.979059,13.884715 223.060992,15.0157612 C224.056948,16.0493798 224.582166,17.4789088 224.582166,19.398233 L224.582166,29.0754534 L223.177612,29.0754534 L223.177612,26.4909642 C222.151862,27.9780641 220.311471,29.4385928 217.47342,29.4385928 C214.696659,29.4385928 211.711343,27.7956087 211.711343,24.5698686 M223.207406,23.2616812 L223.207406,21.4946984 C221.949266,21.1625587 220.283379,20.7958766 218.149308,20.7958766 C214.986933,20.7958766 213.232518,22.2537482 213.232518,24.4201843 L213.232518,24.4786409 C213.232518,26.7318762 215.280613,28.0400635 217.561098,28.0400635 C220.602596,28.0400635 223.207406,26.0932824 223.207406,23.2616812" id="Fill-18" fill="#FFFFFF"></path>
            <path d="M227.288359,29.0750991 L228.723558,29.0750991 L228.723558,8.40538532 L227.288359,8.40538532 L227.288359,29.0750991 Z" id="Fill-19" fill="#FFFFFF"></path>
            <path d="M236.93305,21.3764567 L236.93305,21.3162287 C236.93305,16.9620995 240.268227,13.1863361 244.538072,13.1863361 C247.34718,13.1863361 249.100745,14.5264088 250.500192,16.0498226 L249.4804,17.1454406 C248.19502,15.7787967 246.730879,14.5901796 244.509981,14.5901796 C241.113514,14.5901796 238.483167,17.5386939 238.483167,21.2524579 L238.483167,21.3162287 C238.483167,25.0565638 241.202894,28.0396206 244.626601,28.0396206 C246.730879,28.0396206 248.371228,26.9156601 249.625963,25.4515886 L250.62192,26.368294 C249.100745,28.1636194 247.290147,29.4390356 244.538072,29.4390356 C240.240136,29.4390356 236.93305,25.7261573 236.93305,21.3764567" id="Fill-20" fill="#FFFFFF"></path>
            <path d="M251.444563,21.3464312 L251.444563,21.2853176 C251.444563,16.778847 254.488615,13.1864247 258.524367,13.1864247 C262.706533,13.1864247 265.368376,16.7168476 265.368376,21.3163173 C265.368376,21.5873432 265.368376,21.6785709 265.33688,21.9256828 L252.968291,21.9256828 C253.228772,25.7873596 255.89402,28.0397092 258.816344,28.0397092 C261.130879,28.0397092 262.706533,26.9742052 263.938285,25.6066756 L264.93339,26.5180668 C263.412215,28.2248217 261.624601,29.4391242 258.757608,29.4391242 C254.839328,29.4391242 251.444563,26.1859272 251.444563,21.3464312 L251.444563,21.3464312 Z M263.819962,20.5864958 C263.613109,17.4502119 261.889338,14.5566114 258.469036,14.5566114 C255.51096,14.5566114 253.228772,17.1446434 252.968291,20.5864958 L263.819962,20.5864958 Z" id="Fill-21" fill="#FFFFFF"></path>
            <path d="M267.502107,13.553904 L268.935603,13.553904 L268.935603,16.4457331 C269.929857,14.6202936 271.594893,13.1845647 274.317174,13.1845647 C278.08904,13.1845647 280.28355,15.8655958 280.28355,19.5793598 L280.28355,29.0750106 L278.851756,29.0750106 L278.851756,19.8503858 C278.851756,16.6583024 277.122877,14.5582942 274.110321,14.5582942 C271.187997,14.5582942 268.935603,16.8699861 268.935603,20.0948405 L268.935603,29.0750106 L267.502107,29.0750106 L267.502107,13.553904 Z" id="Fill-22" fill="#FFFFFF"></path>
            <path d="M283.724878,25.0902207 L283.724878,14.9214336 L281.55931,14.9214336 L281.55931,13.553904 L283.724878,13.553904 L283.724878,8.28041225 L285.154969,8.28041225 L285.154969,13.553904 L290.394382,13.553904 L290.394382,14.9214336 L285.154969,14.9214336 L285.154969,24.9361079 C285.154969,27.1583434 286.416514,27.9475072 288.140285,27.9475072 C288.87491,27.9475072 289.488657,27.7960516 290.333092,27.3992554 L290.333092,28.7995561 C289.573782,29.1662383 288.841711,29.3478079 287.907895,29.3478079 C285.597617,29.3478079 283.724878,28.0396206 283.724878,25.0902207" id="Fill-23" fill="#FFFFFF"></path>
            <path d="M290.674782,21.3464312 L290.674782,21.2853176 C290.674782,16.778847 293.718834,13.1864247 297.754586,13.1864247 C301.939306,13.1864247 304.596893,16.7168476 304.596893,21.3163173 C304.596893,21.5873432 304.596893,21.6785709 304.567951,21.9256828 L292.197659,21.9256828 C292.460694,25.7873596 295.121685,28.0397092 298.049968,28.0397092 C300.357693,28.0397092 301.939306,26.9742052 303.168504,25.6066756 L304.161907,26.5180668 C302.642435,28.2248217 300.856523,29.4391242 297.988678,29.4391242 C294.070398,29.4391242 290.674782,26.1859272 290.674782,21.3464312 L290.674782,21.3464312 Z M303.051883,20.5864958 C302.845031,17.4502119 301.117855,14.5566114 297.699255,14.5566114 C294.741179,14.5566114 292.460694,17.1446434 292.197659,20.5864958 L303.051883,20.5864958 Z" id="Fill-24" fill="#FFFFFF"></path>
            <path d="M306.733943,13.553904 L308.164886,13.553904 L308.164886,17.9691469 C309.334497,15.1951166 311.823537,13.1845647 314.774803,13.3085635 L314.774803,14.953319 L314.633496,14.953319 C311.179144,14.953319 308.164886,17.6600356 308.164886,22.7165294 L308.164886,29.0750106 L306.733943,29.0750106 L306.733943,13.553904 Z" id="Fill-25" fill="#FFFFFF"></path>
            <path d="M47.7507555,21.1775272 L47.7507555,21.1146421 C47.7507555,16.6993992 51.3464141,13.0458632 56.2010641,13.0458632 C61.052309,13.0458632 64.6164716,16.6418283 64.6164716,21.0552998 L64.6164716,21.1146421 C64.6164716,25.5015424 61.0225154,29.1568498 56.1372207,29.1568498 C51.3149181,29.1568498 47.7507555,25.5591132 47.7507555,21.1775272 M60.9910194,21.1775272 L60.9910194,21.1146421 C60.9910194,18.3981827 58.9837838,16.1476045 56.1372207,16.1476045 C53.2327729,16.1476045 51.3779102,18.3654116 51.3779102,21.0552998 L51.3779102,21.1146421 C51.3779102,23.8080731 53.382592,26.0816796 56.2010641,26.0816796 C59.1353054,26.0816796 60.9910194,23.8337585 60.9910194,21.1775272" id="Fill-26" fill="#FFFFFF"></path>
            <path d="M66.2674612,13.3658686 L69.8929134,13.3658686 L69.8929134,15.9423865 C71.0633752,14.3330593 72.7079804,13.0461289 75.2557565,13.0461289 C79.0020856,13.0461289 82.6275378,15.9423865 82.6275378,21.0546798 L82.6275378,21.1149078 C82.6275378,26.2342867 79.0318791,29.1278872 75.2557565,29.1278872 C72.6492445,29.1278872 71.0029368,27.8391854 69.8929134,26.4052279 L69.8929134,33.4837878 L66.2674612,33.4837878 L66.2674612,13.3658686 Z M78.9390934,21.1149078 L78.9390934,21.0546798 C78.9390934,18.0751658 76.8731219,16.1177562 74.419834,16.1177562 C71.9588849,16.1177562 69.8026814,18.1070512 69.8026814,21.0546798 L69.8026814,21.1149078 C69.8026814,24.099736 71.9588849,26.0562599 74.419834,26.0562599 C76.904618,26.0562599 78.9390934,24.1581925 78.9390934,21.1149078 L78.9390934,21.1149078 Z" id="Fill-27" fill="#FFFFFF"></path>
            <path d="M85.0695041,24.538426 L85.0695041,16.4103048 L83.0614173,16.4103048 L83.0614173,13.3661344 L85.0695041,13.3661344 L85.0695041,9.13068972 L88.6941051,9.13068972 L88.6941051,13.3661344 L92.9477761,13.3661344 L92.9477761,16.4103048 L88.6941051,16.4103048 L88.6941051,23.9822028 C88.6941051,25.3559324 89.4125559,25.9130412 90.6417536,25.9130412 C91.449585,25.9130412 92.168887,25.7341287 92.8864865,25.3860464 L92.8864865,28.2778754 C91.9892743,28.7756421 90.9703341,29.0652678 89.6219621,29.0652678 C86.9550117,29.0652678 85.0695041,27.9280217 85.0695041,24.538426" id="Fill-28" fill="#FFFFFF"></path>
            <path d="M95.3147478,28.8058446 L98.9402,28.8058446 L98.9402,13.3662229 L95.3147478,13.3662229 L95.3147478,28.8058446 Z" id="Fill-29" fill="#FFFFFF"></path>
            <path d="M101.669376,13.3658686 L105.293977,13.3658686 L105.293977,15.7076745 C106.311215,14.3330593 107.689381,13.0461289 110.117131,13.0461289 C112.394212,13.0461289 113.980081,14.1275755 114.819408,15.7661311 C116.109044,14.1275755 117.7877,13.0461289 120.182252,13.0461289 C123.630645,13.0461289 125.727261,15.1815653 125.727261,18.9529002 L125.727261,28.8054903 L122.10266,28.8054903 L122.10266,20.0316897 C122.10266,17.5791706 120.931347,16.2621263 118.893467,16.2621263 C116.916876,16.2621263 115.508066,17.6057418 115.508066,20.0928034 L115.508066,28.8054903 L111.883465,28.8054903 L111.883465,20.0042328 C111.883465,17.6057418 110.685763,16.2621263 108.676825,16.2621263 C106.672143,16.2621263 105.293977,17.722655 105.293977,20.1202603 L105.293977,28.8054903 L101.669376,28.8054903 L101.669376,13.3658686 Z" id="Fill-30" fill="#FFFFFF"></path>
            <path d="M21.4841456,1.55578032 C17.0908704,0.527476011 12.5273462,2.07923239 10.0289423,6.52458928 C9.89274314,6.80624369 10.0587359,6.87267162 10.2434561,6.70704465 C10.4409449,6.5281321 10.7031283,6.22610646 11.216429,5.68051175 C13.9557353,2.78159701 16.5928921,2.43351467 19.3568844,2.94545256 C24.9674399,3.9941281 28.269419,11.5775403 26.7737817,19.544463 C26.298787,22.0820098 25.3913599,24.3724448 24.1945095,26.2793691 C26.8929559,26.3342829 29.3947648,25.7417458 31.4037029,24.6204423 C33.2432432,13.2949236 28.8516706,3.28024931 21.4841456,1.55578032" id="Fill-32" fill="#FFFFFF"></path>
            <path d="M32.9077676,11.3576195 C32.634518,11.2185638 32.5715259,11.389505 32.7298574,11.5825888 C32.9026601,11.7907296 33.1946372,12.0617556 33.7173016,12.5976075 C36.5051288,15.446037 36.8371143,18.1872962 36.342541,21.0658397 C35.3397744,26.9008688 28.0488615,30.3409497 20.3910619,28.7821077 C17.9539476,28.2887696 15.7534795,27.3446074 13.9198979,26.102848 C13.8688232,28.9052208 14.4357523,31.5083098 15.5134284,33.599461 C26.3991488,35.513471 36.0258778,30.9432296 37.6832518,23.2809896 C38.6715471,18.7107482 37.1776123,13.9589372 32.9077676,11.3576195 Z" id="Fill-33" fill="#FFFFFF"></path>
            <path d="M16.5060651,39.9042684 C20.8976378,40.9325727 25.4654182,39.3799306 27.9655246,34.939888 C28.1000213,34.6529193 27.9348798,34.5856057 27.7484571,34.7521184 C27.5518195,34.9319166 27.2887848,35.2330566 26.7754841,35.7777656 C24.0387316,38.6784517 21.3990211,39.0238769 18.6350287,38.5092819 C13.0287295,37.4659206 9.72249415,29.8798513 11.2172803,21.9120429 C11.6939774,19.3762675 12.5988508,17.0867183 13.7974037,15.1815653 C11.101511,15.1257659 8.60055331,15.7156459 6.5890615,16.8413778 C4.74866993,28.1651251 9.14109385,38.1797994 16.5060651,39.9042684" id="Fill-34" fill="#FFFFFF"></path>
            <path d="M0.292658012,18.5060616 C-0.694786125,23.0798459 0.79659502,27.8281141 5.06814216,30.4276603 C5.3396893,30.5693732 5.40268142,30.3966606 5.24434986,30.2062339 C5.07154714,29.9989788 4.78127261,29.7252957 4.25860821,29.1894438 C1.47078102,26.3392428 1.13879549,23.597098 1.63166631,20.7194402 C2.6352841,14.8861825 9.92364333,11.447873 17.5848478,13.0022865 C20.0202596,13.4982816 22.2198766,14.4424439 24.0543094,15.6859747 C24.1070866,12.8818305 23.538455,10.2805129 22.4599276,8.18759029 C11.5750585,6.27358028 1.95173441,10.8438217 0.292658012,18.5060616" id="Fill-35" fill="#FFFFFF"></path>
        </g>
    </g>
</svg>