<?xml version="1.0" encoding="UTF-8" standalone="no"?>
<svg width="228px" height="39px" viewBox="0 0 228 39" version="1.1" xmlns="http://www.w3.org/2000/svg" xmlns:xlink="http://www.w3.org/1999/xlink">
    <!-- Generator: Sketch 3.6.1 (26313) - http://www.bohemiancoding.com/sketch -->
    <title>w-therapy-d</title>
    <desc>Created with Sketch.</desc>
    <defs>
        <path id="path-1" d="M0,38.7413302 L227.339431,38.7413302 L227.339431,-0.000181395349 L0,-0.000181395349 L0,38.7413302 Z"></path>
    </defs>
    <g id="Page-1" stroke="none" stroke-width="1" fill="none" fill-rule="evenodd">
        <g id="w-therapy-d">
            <path d="M134.20062,22.9909535 L134.20062,13.2273488 L132.050391,13.2273488 L132.050391,11.9113256 L134.20062,11.9113256 L134.20062,7.32927907 L135.625394,7.32927907 L135.625394,11.9113256 L140.824335,11.9113256 L140.824335,13.2273488 L135.625394,13.2273488 L135.625394,22.8458372 C135.625394,24.9790465 136.873537,25.738186 138.588493,25.738186 C139.313948,25.738186 139.922248,25.5930698 140.76756,25.2130465 L140.76756,26.558093 C140.008762,26.91 139.28511,27.0850465 138.355086,27.0850465 C136.060667,27.0850465 134.20062,25.8270698 134.20062,22.9909535 L134.20062,22.9909535 Z" id="Fill-1" fill="#FEFEFE"></path>
            <path d="M143.290791,7.12421163 L144.71196,7.12421163 L144.71196,14.6883977 C145.701462,12.9343047 147.35604,11.5620488 150.058696,11.5620488 C153.804925,11.5620488 155.986696,14.1351419 155.986696,17.7004674 L155.986696,26.8210256 L154.561921,26.8210256 L154.561921,17.9625837 C154.561921,14.8933744 152.846964,12.8762581 149.855028,12.8762581 C146.951407,12.8762581 144.71196,15.0974442 144.71196,18.1974907 L144.71196,26.8210256 L143.290791,26.8210256 L143.290791,7.12421163 Z" id="Fill-3" fill="#FEFEFE"></path>
            <path d="M157.75293,19.3957884 L157.75293,19.3368349 C157.75293,15.0105558 160.773704,11.5613233 164.782179,11.5613233 C168.935744,11.5613233 171.578922,14.9534163 171.578922,19.3667651 C171.578922,19.6297884 171.578922,19.7168581 171.550084,19.9508581 L159.263317,19.9508581 C159.524661,23.6649279 162.167839,25.8271605 165.073262,25.8271605 C167.369483,25.8271605 168.935744,24.8049977 170.158653,23.4889744 L171.142748,24.365114 C169.633262,26.0013 167.859728,27.173114 165.015586,27.173114 C161.124266,27.173114 157.75293,24.0431372 157.75293,19.3957884 L157.75293,19.3957884 Z M170.038795,18.6629512 C169.834226,15.6545093 168.122874,12.8764395 164.725404,12.8764395 C161.790242,12.8764395 159.524661,15.3624628 159.263317,18.6629512 L170.038795,18.6629512 Z" id="Fill-5" fill="#FEFEFE"></path>
            <path d="M173.990044,11.911507 L175.412115,11.911507 L175.412115,16.1507163 C176.573744,13.4887395 179.043894,11.561414 181.975451,11.677507 L181.975451,13.2565535 L181.833064,13.2565535 C178.404052,13.2565535 175.412115,15.8586698 175.412115,20.7100884 L175.412115,26.8212977 L173.990044,26.8212977 L173.990044,11.911507 Z" id="Fill-7" fill="#FEFEFE"></path>
            <path d="M182.495976,22.4941116 L182.495976,22.4369721 C182.495976,19.3369256 185.140055,17.5837395 188.9737,17.5837395 C191.036514,17.5837395 192.461289,17.8458558 193.884261,18.227693 L193.884261,17.5837395 C193.884261,14.5725767 192.053953,13.0243674 189.005241,13.0243674 C187.203771,13.0243674 185.72132,13.5204837 184.357826,14.2215767 L183.834237,12.961786 C185.460877,12.2044605 187.056877,11.677507 189.092656,11.677507 C191.09419,11.677507 192.694696,12.2334837 193.767107,13.315507 C194.753905,14.3095535 195.278395,15.6836233 195.278395,17.524786 L195.278395,26.8212977 L193.884261,26.8212977 L193.884261,24.3361814 C192.866822,25.7692047 191.036514,27.1722977 188.219407,27.1722977 C185.460877,27.1722977 182.495976,25.5932512 182.495976,22.4941116 M193.913099,21.2379488 L193.913099,19.5409953 C192.663154,19.2199256 191.008577,18.8698326 188.888988,18.8698326 C185.750158,18.8698326 184.009067,20.2729256 184.009067,22.3489953 L184.009067,22.4061349 C184.009067,24.5701814 186.04034,25.8272512 188.305921,25.8272512 C191.326696,25.8272512 193.913099,23.9561581 193.913099,21.2379488" id="Fill-9" fill="#FEFEFE"></path>
            <path d="M198.066033,11.911507 L199.486302,11.911507 L199.486302,15.2437395 C200.763282,13.2855767 202.65397,11.561414 205.588231,11.561414 C209.15963,11.561414 212.791409,14.4546698 212.791409,19.3069953 L212.791409,19.3677628 C212.791409,24.2182744 209.15963,27.1722977 205.588231,27.1722977 C202.625132,27.1722977 200.709211,25.4771581 199.486302,23.6060651 L199.486302,31.4985767 L198.066033,31.4985767 L198.066033,11.911507 Z M211.251282,19.4249023 L211.251282,19.3677628 C211.251282,15.4478093 208.550428,12.9354837 205.441338,12.9354837 C202.363788,12.9354837 199.398887,15.535786 199.398887,19.3369256 L199.398887,19.3958791 C199.398887,23.2260419 202.363788,25.7991349 205.441338,25.7991349 C208.666681,25.7991349 211.251282,23.4301116 211.251282,19.4249023 L211.251282,19.4249023 Z" id="Fill-11" fill="#FEFEFE"></path>
            <path d="M213.05095,30.9429628 L213.542998,29.685893 C214.328832,30.0650093 214.96597,30.2418698 216.071725,30.2418698 C217.610049,30.2418698 218.625685,29.334893 219.730539,26.7327767 L212.614776,11.9118698 L214.269353,11.9118698 L220.428057,25.242614 L225.771187,11.9118698 L227.339251,11.9118698 L220.920104,27.348614 C219.614286,30.4749628 218.102096,31.5860093 215.983409,31.5860093 C214.848816,31.5860093 214.035946,31.3810326 213.05095,30.9429628" id="Fill-13" fill="#FEFEFE"></path>
            <path d="M47.604147,19.3586023 L47.604147,19.3023698 C47.604147,14.8745093 51.0746134,11.2139512 55.7643842,11.2139512 C60.4514514,11.2139512 63.8912775,14.8182767 63.8912775,19.2434163 L63.8912775,19.3023698 C63.8912775,23.6957651 60.4208111,27.3572302 55.7058071,27.3572302 C51.0466767,27.3572302 47.604147,23.7556256 47.604147,19.3586023 M60.3901708,19.3586023 L60.3901708,19.3023698 C60.3901708,16.5787186 58.4517202,14.3203465 55.7058071,14.3203465 C52.8986134,14.3203465 51.1061549,16.5451605 51.1061549,19.2434163 L51.1061549,19.3023698 C51.1061549,21.9960907 53.0437043,24.2807651 55.7643842,24.2807651 C58.5995146,24.2807651 60.3901708,22.025114 60.3901708,19.3586023" id="Fill-15" fill="#FEFEFE"></path>
            <path d="M65.5107984,11.5722977 L69.1011225,11.5722977 L69.1011225,14.0392744 C70.2609486,12.4956 71.8938972,11.2602977 74.4172174,11.2602977 C78.1283004,11.2602977 81.7222292,14.0392744 81.7222292,18.9405767 L81.7222292,18.9968093 C81.7222292,23.9026465 78.1571383,26.9582512 74.4172174,26.9582512 C71.8317154,26.9582512 70.2014704,25.7256698 69.1011225,24.3543209 L69.1011225,30.0737163 L65.5107984,30.0737163 L65.5107984,11.5722977 Z M78.0679209,18.9968093 L78.0679209,18.9405767 C78.0679209,16.084507 76.0195257,14.2052512 73.5863241,14.2052512 C71.1522213,14.2052512 69.0101028,16.1126233 69.0101028,18.9405767 L69.0101028,18.9968093 C69.0101028,21.854693 71.1522213,23.7321349 73.5863241,23.7321349 C76.0519684,23.7321349 78.0679209,21.9100186 78.0679209,18.9968093 L78.0679209,18.9968093 Z" id="Fill-17" fill="#FEFEFE"></path>
            <path d="M84.1400206,23.0130837 L84.1400206,14.4856884 L82.1520047,14.4856884 L82.1520047,11.5724791 L84.1400206,11.5724791 L84.1400206,7.92189767 L87.7312458,7.92189767 L87.7312458,11.5724791 L91.9478941,11.5724791 L91.9478941,14.4856884 L87.7312458,14.4856884 L87.7312458,22.4788744 C87.7312458,23.7948977 88.444985,24.3282 89.662487,24.3282 C90.4618387,24.3282 91.1755779,24.1604093 91.889317,23.8266419 L91.889317,26.6001767 C90.9989455,27.0754326 89.9887162,27.3565953 88.6540601,27.3565953 C86.0117834,27.3565953 84.1400206,26.2618744 84.1400206,23.0130837" id="Fill-19" fill="#FEFEFE"></path>
            <mask id="mask-2" fill="white">
                <use xlink:href="#path-1"></use>
            </mask>
            <g id="Clip-22"></g>
            <path d="M94.2910672,27.2036791 L97.8831937,27.2036791 L97.8831937,11.5365628 L94.2910672,11.5365628 L94.2910672,27.2036791 Z" id="Fill-21" fill="#FEFEFE" mask="url(#mask-2)"></path>
            <path d="M100.588373,11.5368349 L104.181401,11.5368349 L104.181401,13.9475791 C105.188926,12.6297419 106.553322,11.3962535 108.96129,11.3962535 C111.215156,11.3962535 112.79133,12.431114 113.622223,14.0038116 C114.900104,12.431114 116.559187,11.3962535 118.933812,11.3962535 C122.348405,11.3962535 124.42744,13.4433 124.42744,17.0603233 L124.42744,27.2610907 L120.838017,27.2610907 L120.838017,18.0960907 C120.838017,15.7406721 119.67729,14.4817884 117.659535,14.4817884 C115.70216,14.4817884 114.304421,15.7706023 114.304421,18.1496023 L114.304421,27.2610907 L110.711393,27.2610907 L110.711393,18.0679744 C110.711393,15.7706023 109.52363,14.4817884 107.533812,14.4817884 C105.543994,14.4817884 104.181401,15.8812535 104.181401,18.1804395 L104.181401,27.2610907 L100.588373,27.2610907 L100.588373,11.5368349 Z" id="Fill-23" fill="#FEFEFE" mask="url(#mask-2)"></path>
            <path d="M22.090136,0.304109302 C17.5742941,-0.720774419 12.8800174,0.823806977 10.3116379,5.24259767 C10.1701518,5.52557442 10.3422783,5.58996977 10.5333296,5.42399302 C10.7351953,5.24894651 11.005551,4.94420233 11.534547,4.40636512 C14.3498514,1.52217907 17.0624206,1.17571395 19.9038593,1.68634186 C25.6696458,2.72936512 29.066215,10.2690628 27.5278909,18.1942256 C27.0394482,20.7165279 26.1067209,22.9930395 24.8766024,24.8895279 C27.649551,24.9439465 30.2224364,24.3562256 32.287053,23.2397372 C34.1777407,11.9769 29.6637012,2.01920233 22.090136,0.304109302" id="Fill-24" fill="#FEFEFE" mask="url(#mask-2)"></path>
            <path d="M38.7435984,21.9077512 C39.7592348,17.3619837 38.2236142,12.6375419 33.8330372,10.0517512 C33.5527684,9.91116977 33.487883,10.0825884 33.6500964,10.2721465 C33.82763,10.4807512 34.1286261,10.7510302 34.6675352,11.2825186 C37.5306024,14.1168209 37.8739542,16.842286 37.3665866,19.7056116 C36.3329265,25.5093558 28.8395668,28.9268442 20.9641043,27.3777279 C18.4606103,26.8870535 16.1977328,25.9501465 14.3133534,24.7130302 C14.258381,27.5010767 14.8441518,30.0895884 15.9526103,32.169286 C27.142634,34.0721233 37.0376538,29.5281698 38.7435984,21.9077512" id="Fill-25" fill="#FEFEFE" mask="url(#mask-2)"></path>
            <path d="M16.9717613,38.4370395 C21.4885043,39.4619233 26.182781,37.9182488 28.7511605,33.5012721 C28.8926466,33.2173884 28.7223225,33.1511791 28.5312711,33.3162488 C28.326702,33.4940163 28.0572474,33.7942256 27.5300538,34.3347837 C24.7147494,37.2189698 22.0021802,37.5636209 19.1589391,37.052086 C13.3931526,36.0126907 9.99928696,28.472086 11.5367099,20.5469233 C12.0233502,18.0246209 12.9560775,15.7481093 14.1852949,13.8525279 C11.4141486,13.7990163 8.84306561,14.3849233 6.77574545,15.5023186 C4.88415652,26.7660628 9.39999842,36.7237605 16.9717613,38.4370395" id="Fill-26" fill="#FEFEFE" mask="url(#mask-2)"></path>
            <path d="M0.302437945,17.1602721 C-0.716803162,21.7078535 0.820619763,26.4304814 5.20939447,29.0153651 C5.49146561,29.1577605 5.55635099,28.9845279 5.39413755,28.7931558 C5.21660395,28.5872721 4.91741028,28.316086 4.3776,27.7836907 C1.51363162,24.9512023 1.17118103,22.2221093 1.67854862,19.3615047 C2.71130751,13.5595744 10.2046672,10.1402721 18.0801296,11.6893884 C20.5854261,12.1809698 22.8465012,13.1178767 24.7299794,14.354993 C24.7840506,11.5660395 24.2009834,8.97934186 23.0925249,6.89873721 C11.9016,4.99499302 2.00658024,9.53985349 0.302437945,17.1602721" id="Fill-27" fill="#FEFEFE" mask="url(#mask-2)"></path>
            <path d="M29.8356474,33.268814 L29.8356474,33.2642791 C29.8356474,32.6321163 30.3448174,32.1051628 30.9900664,32.1051628 C31.6371178,32.1051628 32.1390783,32.6257674 32.1390783,33.2570233 L32.1390783,33.2642791 C32.1390783,33.8937209 31.6299083,34.4224884 30.9828569,34.4224884 C30.3394103,34.4224884 29.8356474,33.9000698 29.8356474,33.268814 L29.8356474,33.268814 Z M32.0345407,33.2642791 L32.0345407,33.2570233 C32.0345407,32.6783721 31.584849,32.2031163 30.9900664,32.2031163 C30.3925802,32.2031163 29.9410862,32.682907 29.9410862,33.2642791 L29.9410862,33.268814 C29.9410862,33.8492791 30.3898767,34.321814 30.9828569,34.321814 C31.5821455,34.321814 32.0345407,33.8420233 32.0345407,33.2642791 L32.0345407,33.2642791 Z M30.5349676,32.6357442 L31.0648648,32.6357442 C31.2117581,32.6357442 31.3379241,32.682907 31.4136237,32.76 C31.4712996,32.8153256 31.507347,32.8960465 31.507347,32.992186 L31.507347,32.9985349 C31.507347,33.189907 31.3820822,33.304186 31.2054498,33.345907 L31.5695289,33.8220698 L31.3523431,33.8220698 L31.0134972,33.3758372 L30.7106988,33.3758372 L30.7106988,33.8220698 L30.5349676,33.8220698 L30.5349676,32.6357442 Z M31.0486435,33.2180233 C31.2117581,33.2180233 31.3271099,33.1409302 31.3271099,33.0085116 L31.3271099,33.0012558 C31.3271099,32.877 31.2261771,32.7953721 31.0567542,32.7953721 L30.7106988,32.7953721 L30.7106988,33.2180233 L31.0486435,33.2180233 Z" id="Fill-28" fill="#FEFEFE" mask="url(#mask-2)"></path>
        </g>
    </g>
</svg>