<?xml version="1.0" encoding="UTF-8" standalone="no"?>
<svg width="156px" height="27px" viewBox="0 0 156 27" version="1.1" xmlns="http://www.w3.org/2000/svg" xmlns:xlink="http://www.w3.org/1999/xlink">
    <!-- Generator: Sketch 3.6.1 (26313) - http://www.bohemiancoding.com/sketch -->
    <title>w-therapy-m</title>
    <desc>Created with Sketch.</desc>
    <defs>
        <path id="path-1" d="M0,26.8209209 L155.548032,26.8209209 L155.548032,-0.000125581395 L0,-0.000125581395 L0,26.8209209 Z"></path>
    </defs>
    <g id="Page-1" stroke="none" stroke-width="1" fill="none" fill-rule="evenodd">
        <g id="w-therapy-m">
            <path d="M91.8214767,15.916814 L91.8214767,9.15739535 L90.3502672,9.15739535 L90.3502672,8.24630233 L91.8214767,8.24630233 L91.8214767,5.07411628 L92.7963225,5.07411628 L92.7963225,8.24630233 L96.3534925,8.24630233 L96.3534925,9.15739535 L92.7963225,9.15739535 L92.7963225,15.8163488 C92.7963225,17.293186 93.6503146,17.8187442 94.8237059,17.8187442 C95.3200696,17.8187442 95.7362751,17.7182791 96.3146466,17.455186 L96.3146466,18.3863721 C95.7954688,18.63 95.3003383,18.751186 94.6640063,18.751186 C93.0941407,18.751186 91.8214767,17.8802791 91.8214767,15.916814 L91.8214767,15.916814 Z" id="Fill-1" fill="#FEFEFE"></path>
            <path d="M98.0410672,4.93214651 L99.0134466,4.93214651 L99.0134466,10.1688907 C99.6904743,8.9545186 100.822553,8.00449535 102.671739,8.00449535 C105.234949,8.00449535 106.727739,9.78586744 106.727739,12.2541698 L106.727739,18.5684023 L105.752893,18.5684023 L105.752893,12.4356349 C105.752893,10.3107977 104.579502,8.91433256 102.532387,8.91433256 C100.5457,8.91433256 99.0134466,10.4520767 99.0134466,12.5982628 L99.0134466,18.5684023 L98.0410672,18.5684023 L98.0410672,4.93214651 Z" id="Fill-3" fill="#FEFEFE"></path>
            <path d="M107.936215,13.4278535 L107.936215,13.3870395 C107.936215,10.3919233 110.003061,8.00399302 112.745701,8.00399302 C115.587614,8.00399302 117.396104,10.3523651 117.396104,13.4077605 C117.396104,13.5898535 117.396104,13.6501326 117.376373,13.8121326 L108.969638,13.8121326 C109.148452,16.3834116 110.956942,17.8803419 112.944863,17.8803419 C114.515962,17.8803419 115.587614,17.1726907 116.424342,16.2615977 L117.09767,16.8681558 C116.064863,18.0009 114.851393,18.8121558 112.905401,18.8121558 C110.242919,18.8121558 107.936215,16.6452488 107.936215,13.4278535 L107.936215,13.4278535 Z M116.342334,12.9205047 C116.202365,10.8377372 115.03144,8.91445814 112.706855,8.91445814 C110.698587,8.91445814 109.148452,10.6355512 108.969638,12.9205047 L116.342334,12.9205047 Z" id="Fill-5" fill="#FEFEFE"></path>
            <path d="M119.04582,8.24642791 L120.018816,8.24642791 L120.018816,11.1812651 C120.813614,9.33835814 122.503717,8.00405581 124.509519,8.08442791 L124.509519,9.17761395 L124.412096,9.17761395 C122.06593,9.17761395 120.018816,10.9790791 120.018816,14.3377535 L120.018816,18.5685907 L119.04582,18.5685907 L119.04582,8.24642791 Z" id="Fill-7" fill="#FEFEFE"></path>
            <path d="M124.865668,15.5728465 L124.865668,15.5332884 C124.865668,13.3871023 126.674775,12.1733581 129.297794,12.1733581 C130.709194,12.1733581 131.68404,12.3548233 132.657652,12.6191721 L132.657652,12.1733581 C132.657652,10.088707 131.405336,9.01686977 129.319375,9.01686977 C128.086791,9.01686977 127.072482,9.36033488 126.139565,9.84570698 L125.78132,8.97354419 C126.894285,8.44924186 127.986285,8.08442791 129.379186,8.08442791 C130.748656,8.08442791 131.843739,8.46933488 132.577494,9.21842791 C133.252672,9.90661395 133.611534,10.857893 133.611534,12.1325442 L133.611534,18.5685907 L132.657652,18.5685907 L132.657652,16.8481256 C131.96151,17.8402186 130.709194,18.8115907 128.7817,18.8115907 C126.894285,18.8115907 124.865668,17.7184047 124.865668,15.5728465 M132.677383,14.7031953 L132.677383,13.5283814 C131.822158,13.3061023 130.690079,13.0637302 129.239834,13.0637302 C127.092213,13.0637302 125.900941,14.0351023 125.900941,15.4723814 L125.900941,15.5119395 C125.900941,17.0101256 127.290759,17.8804047 128.840893,17.8804047 C130.907739,17.8804047 132.677383,16.5850326 132.677383,14.7031953" id="Fill-9" fill="#FEFEFE"></path>
            <path d="M135.518865,8.24642791 L136.490628,8.24642791 L136.490628,10.5533581 C137.364351,9.19770698 138.657979,8.00405581 140.665632,8.00405581 C143.109221,8.00405581 145.594122,10.0070791 145.594122,13.3663814 L145.594122,13.4084512 C145.594122,16.7664977 143.109221,18.8115907 140.665632,18.8115907 C138.638248,18.8115907 137.327355,17.6380326 136.490628,16.3426605 L136.490628,21.806707 L135.518865,21.806707 L135.518865,8.24642791 Z M144.540351,13.4480093 L144.540351,13.4084512 C144.540351,10.6946372 142.692398,8.95533488 140.565126,8.95533488 C138.459434,8.95533488 136.430817,10.7555442 136.430817,13.3871023 L136.430817,13.4279163 C136.430817,16.0795674 138.459434,17.8609395 140.565126,17.8609395 C142.77194,17.8609395 144.540351,16.2208465 144.540351,13.4480093 L144.540351,13.4480093 Z" id="Fill-11" fill="#FEFEFE"></path>
            <path d="M145.771703,21.4220512 L146.108367,20.5517721 C146.646043,20.8142372 147.081979,20.9366791 147.838549,20.9366791 C148.891086,20.9366791 149.585995,20.3087721 150.341948,18.507307 L145.473268,8.24667907 L146.605347,8.24667907 L150.819197,17.4756558 L154.475023,8.24667907 L155.547908,8.24667907 L151.155861,18.9336558 C150.262406,21.0980512 149.22775,21.8672372 147.778122,21.8672372 C147.001821,21.8672372 146.445647,21.7253302 145.771703,21.4220512" id="Fill-13" fill="#FEFEFE"></path>
            <path d="M32.5712585,13.4021093 L32.5712585,13.3631791 C32.5712585,10.2977372 34.9457881,7.76350465 38.1545787,7.76350465 C41.3615194,7.76350465 43.7150846,10.258807 43.7150846,13.3223651 L43.7150846,13.3631791 C43.7150846,16.4047605 41.3405549,18.9396209 38.1144996,18.9396209 C34.9266735,18.9396209 32.5712585,16.4462023 32.5712585,13.4021093 M41.3195905,13.4021093 L41.3195905,13.3631791 C41.3195905,11.4775744 39.9932822,9.91408605 38.1144996,9.91408605 C36.1937881,9.91408605 34.9673692,11.4543419 34.9673692,13.3223651 L34.9673692,13.3631791 C34.9673692,15.2280628 36.2930609,16.8097605 38.1545787,16.8097605 C40.0944047,16.8097605 41.3195905,15.2481558 41.3195905,13.4021093" id="Fill-15" fill="#FEFEFE"></path>
            <path d="M44.8231779,8.0115907 L47.2797154,8.0115907 L47.2797154,9.71949767 C48.0732806,8.6508 49.1905613,7.7955907 50.9170435,7.7955907 C53.4562055,7.7955907 55.9152095,9.71949767 55.9152095,13.112707 L55.9152095,13.1516372 C55.9152095,16.547986 53.4759368,18.6634047 50.9170435,18.6634047 C49.1480158,18.6634047 48.032585,17.8100791 47.2797154,16.8606837 L47.2797154,20.8202651 L44.8231779,20.8202651 L44.8231779,8.0115907 Z M53.4148933,13.1516372 L53.4148933,13.112707 C53.4148933,11.1354279 52.0133597,9.83440465 50.3485375,9.83440465 C48.6830988,9.83440465 47.2174387,11.154893 47.2174387,13.112707 L47.2174387,13.1516372 C47.2174387,15.1301721 48.6830988,16.4299395 50.3485375,16.4299395 C52.0355573,16.4299395 53.4148933,15.1684744 53.4148933,13.1516372 L53.4148933,13.1516372 Z" id="Fill-17" fill="#FEFEFE"></path>
            <path d="M57.5694877,15.9321349 L57.5694877,10.0285535 L56.2092664,10.0285535 L56.2092664,8.01171628 L57.5694877,8.01171628 L57.5694877,5.4843907 L60.0266419,5.4843907 L60.0266419,8.01171628 L62.911717,8.01171628 L62.911717,10.0285535 L60.0266419,10.0285535 L60.0266419,15.5622977 C60.0266419,16.4733907 60.5149897,16.8426 61.3480174,16.8426 C61.8949423,16.8426 62.3832901,16.7264372 62.8716379,16.4953674 L62.8716379,18.415507 C62.2624364,18.7445302 61.5712269,18.9391814 60.6580411,18.9391814 C58.8501676,18.9391814 57.5694877,18.1812977 57.5694877,15.9321349" id="Fill-19" fill="#FEFEFE"></path>
            <mask id="mask-2" fill="white">
                <use xlink:href="#path-1"></use>
            </mask>
            <g id="Clip-22"></g>
            <path d="M64.5149407,18.8333163 L66.9727115,18.8333163 L66.9727115,7.98685116 L64.5149407,7.98685116 L64.5149407,18.8333163 Z" id="Fill-21" fill="#FEFEFE" mask="url(#mask-2)"></path>
            <path d="M68.8236237,7.98703953 L71.2820111,7.98703953 L71.2820111,9.65601628 C71.9713708,8.74366744 72.9049043,7.88971395 74.5524617,7.88971395 C76.0945802,7.88971395 77.173015,8.60615581 77.7415209,9.69494651 C78.6158609,8.60615581 79.7510229,7.88971395 81.375766,7.88971395 C83.7120664,7.88971395 85.1345644,9.3069 85.1345644,11.810993 L85.1345644,18.8730628 L82.6786435,18.8730628 L82.6786435,12.5280628 C82.6786435,10.8973884 81.8844617,10.0258535 80.5038925,10.0258535 C79.1646356,10.0258535 78.2082877,10.9181093 78.2082877,12.5651093 L78.2082877,18.8730628 L75.7499004,18.8730628 L75.7499004,12.5085977 C75.7499004,10.9181093 74.9372206,10.0258535 73.575766,10.0258535 C72.2143115,10.0258535 71.2820111,10.994714 71.2820111,12.5864581 L71.2820111,18.8730628 L68.8236237,18.8730628 L68.8236237,7.98703953 Z" id="Fill-23" fill="#FEFEFE" mask="url(#mask-2)"></path>
            <path d="M15.1143036,0.210537209 C12.024517,-0.498997674 8.81264348,0.570327907 7.05533123,3.6294907 C6.9585249,3.82539767 7.07629565,3.86997907 7.20701502,3.75507209 C7.3451336,3.63388605 7.53011383,3.4229093 7.8920585,3.05056047 C9.81831937,1.05381628 11.6742877,0.813955814 13.61843,1.16746744 C17.5634419,1.88956047 19.8874103,7.10935116 18.8348727,12.5960023 C18.5006751,14.3422116 17.8624933,15.9182581 17.0208332,17.2312116 C18.9181138,17.268886 20.6785091,16.8620023 22.0911415,16.0890488 C23.38477,8.2917 20.2962166,1.3979093 15.1143036,0.210537209" id="Fill-24" fill="#FEFEFE" mask="url(#mask-2)"></path>
            <path d="M26.5087779,15.1669047 C27.203687,12.0198349 26.1529992,8.74906744 23.1489202,6.95890465 C22.9571573,6.86157907 22.9127621,6.98025349 23.0237502,7.11148605 C23.1452206,7.25590465 23.3511652,7.44302093 23.7198925,7.81097442 C25.6788332,9.77318372 25.9137581,11.6600442 25.5666119,13.6423465 C24.8593708,17.6603233 19.7323352,20.0262767 14.3438609,18.9538116 C12.6309439,18.614114 11.0826593,17.965486 9.79334704,17.1090209 C9.75573439,19.039207 10.1565249,20.8312535 10.9149439,22.2710442 C18.5712759,23.588393 25.3415526,20.4425791 26.5087779,15.1669047" id="Fill-25" fill="#FEFEFE" mask="url(#mask-2)"></path>
            <path d="M11.6122577,26.6102581 C14.7026609,27.319793 17.9145344,26.2510953 19.6718466,23.1931884 C19.768653,22.9966535 19.6521154,22.9508163 19.521396,23.0650953 C19.3814277,23.1881651 19.197064,23.3960023 18.8363526,23.7702349 C16.9100917,25.7669791 15.0541233,26.0055837 13.1087478,25.6514442 C9.16373597,24.9318628 6.84161739,19.7114442 7.89353834,14.224793 C8.22650277,12.4785837 8.86468458,10.9025372 9.70572806,9.59021163 C7.80968063,9.55316512 6.05051858,9.95879302 4.63603636,10.7323744 C3.3417913,18.5303512 6.43157787,25.4241419 11.6122577,26.6102581" id="Fill-26" fill="#FEFEFE" mask="url(#mask-2)"></path>
            <path d="M0.206931225,11.8801884 C-0.490444269,15.028514 0.56147668,18.2980256 3.56432253,20.0875605 C3.75731858,20.1861419 3.80171383,20.0662116 3.69072569,19.9337233 C3.56925534,19.7911884 3.36454387,19.6034442 2.9952,19.2348628 C1.03564269,17.2739093 0.801334387,15.3845372 1.14848063,13.4041186 C1.85510514,9.38739767 6.98214071,7.02018837 12.370615,8.09265349 C14.0847652,8.43297907 15.6318166,9.08160698 16.9205123,9.93807209 C16.9575083,8.00725814 16.5585676,6.21646744 15.8001486,4.77604884 C8.1432,3.45807209 1.37292332,6.60451395 0.206931225,11.8801884" id="Fill-27" fill="#FEFEFE" mask="url(#mask-2)"></path>
            <path d="M20.413864,23.0322558 L20.413864,23.0291163 C20.413864,22.5914651 20.7622435,22.2266512 21.2037296,22.2266512 C21.646449,22.2266512 21.9898957,22.5870698 21.9898957,23.024093 L21.9898957,23.0291163 C21.9898957,23.4648837 21.6415162,23.8309535 21.1987968,23.8309535 C20.7585439,23.8309535 20.413864,23.4692791 20.413864,23.0322558 L20.413864,23.0322558 Z M21.91837,23.0291163 L21.91837,23.024093 C21.91837,22.6234884 21.6106862,22.2944651 21.2037296,22.2944651 C20.7949233,22.2944651 20.4860063,22.6266279 20.4860063,23.0291163 L20.4860063,23.0322558 C20.4860063,23.4341163 20.7930735,23.7612558 21.1987968,23.7612558 C21.6088364,23.7612558 21.91837,23.429093 21.91837,23.0291163 L21.91837,23.0291163 Z M20.8923462,22.5939767 L21.2549075,22.5939767 C21.3554134,22.5939767 21.4417375,22.6266279 21.493532,22.68 C21.5329945,22.7183023 21.5576585,22.774186 21.5576585,22.8407442 L21.5576585,22.8451395 C21.5576585,22.9776279 21.471951,23.0567442 21.3510972,23.0856279 L21.600204,23.4152791 L21.4516032,23.4152791 L21.2197613,23.1063488 L21.0125834,23.1063488 L21.0125834,23.4152791 L20.8923462,23.4152791 L20.8923462,22.5939767 Z M21.2438087,22.997093 C21.3554134,22.997093 21.4343383,22.9437209 21.4343383,22.8520465 L21.4343383,22.8470233 C21.4343383,22.761 21.3652791,22.7044884 21.2493581,22.7044884 L21.0125834,22.7044884 L21.0125834,22.997093 L21.2438087,22.997093 Z" id="Fill-28" fill="#FEFEFE" mask="url(#mask-2)"></path>
        </g>
    </g>
</svg>