<svg version="1.1" id="Layer_1" xmlns:sketch="http://www.bohemiancoding.com/sketch/ns"
	 xmlns="http://www.w3.org/2000/svg" xmlns:xlink="http://www.w3.org/1999/xlink" x="0px" y="0px" width="239px" height="42px"
	 viewBox="0 0 239 42" enable-background="new 0 0 239 42" xml:space="preserve">
<g id="optim_logo_white" transform="translate(61.000000, 40.000000)" sketch:type="MSLayerGroup">
	<path id="Fill-1" sketch:type="MSShapeGroup" fill="#90BEDC" d="M-36.8-39.3c-4.9-1.1-9.9,0.6-12.7,5.2c-0.2,0.3,0,0.4,0.2,0.2
		c0.2-0.2,0.5-0.5,1.1-1.1c3-3.1,5.9-3.4,9-2.9c6.2,1.1,9.9,9.1,8.2,17.5c-0.5,2.7-1.5,5.1-2.9,7.1c3,0.1,5.7-0.6,8-1.7
		C-23.8-27-28.6-37.5-36.8-39.3"/>
	<path id="Fill-2" sketch:type="MSShapeGroup" fill="#508FBB" d="M-18.9-16.5c1.1-4.8-0.6-9.8-5.3-12.5c-0.3-0.1-0.4,0-0.2,0.2
		c0.2,0.2,0.5,0.5,1.1,1.1c3.1,3,3.4,5.9,2.9,8.9c-1.1,6.1-9.2,9.8-17.6,8.1c-2.7-0.5-5.1-1.5-7.2-2.8c-0.1,2.9,0.6,5.7,1.8,7.9
		C-31.3-3.6-20.7-8.4-18.9-16.5"/>
	<path id="Fill-3" sketch:type="MSShapeGroup" fill="#1E4166" d="M-42.3,1c4.9,1.1,9.9-0.6,12.7-5.2c0.1-0.3,0-0.4-0.2-0.2
		c-0.2,0.2-0.5,0.5-1.1,1.1c-3,3.1-5.9,3.4-9,2.9c-6.2-1.1-9.8-9.1-8.2-17.5c0.5-2.7,1.5-5.1,2.8-7.1c-3-0.1-5.7,0.6-8,1.7
		C-55.3-11.4-50.4-0.8-42.3,1"/>
	<path id="Fill-4" sketch:type="MSShapeGroup" fill="#508FBB" d="M-60.2-21.5c-1.1,4.8,0.6,9.8,5.3,12.5c0.3,0.1,0.4,0,0.2-0.2
		c-0.2-0.2-0.5-0.5-1.1-1.1c-3.1-3-3.4-5.9-2.9-8.9c1.1-6.1,9.2-9.8,17.6-8.1c2.7,0.5,5.1,1.5,7.2,2.8c0.1-3-0.6-5.7-1.8-7.9
		C-47.7-34.4-58.4-29.6-60.2-21.5"/>
	<path id="Fill-5" sketch:type="MSShapeGroup" fill="#1E4166" d="M-28.4-4.5L-28.4-4.5c0-0.7,0.5-1.2,1.2-1.2c0.7,0,1.2,0.6,1.2,1.2
		v0c0,0.7-0.5,1.2-1.2,1.2C-27.9-3.3-28.4-3.8-28.4-4.5L-28.4-4.5z M-26.1-4.5L-26.1-4.5c0-0.6-0.5-1.1-1.1-1.1
		c-0.6,0-1.1,0.5-1.1,1.1v0c0,0.6,0.5,1.1,1.1,1.1C-26.6-3.4-26.1-3.9-26.1-4.5L-26.1-4.5z M-27.7-5.1h0.6c0.2,0,0.3,0,0.4,0.1
		c0.1,0.1,0.1,0.1,0.1,0.2v0c0,0.2-0.1,0.3-0.3,0.4l0.4,0.5h-0.2l-0.4-0.5h-0.3v0.5h-0.2V-5.1L-27.7-5.1z M-27.1-4.5
		c0.2,0,0.3-0.1,0.3-0.2v0c0-0.1-0.1-0.2-0.3-0.2h-0.4v0.4H-27.1L-27.1-4.5z"/>
	<path id="Fill-6" sketch:type="MSShapeGroup" fill="#1E4166" d="M-9-17L-9-17c0-5.6,4.4-10.2,10.3-10.2s10.3,4.5,10.3,10v0.1
		c0,5.5-4.4,10-10.4,10C-4.6-7.1-9-11.5-9-17L-9-17z M7.3-17L7.3-17c0-3.5-2.5-6.3-5.9-6.3c-3.6,0-5.8,2.8-5.8,6.1v0.1
		c0,3.4,2.5,6.2,5.9,6.2C5-10.9,7.3-13.7,7.3-17L7.3-17z"/>
	<path id="Fill-7" sketch:type="MSShapeGroup" fill="#1E4166" d="M13.7-26.7h4.6v3.1c1.5-1.9,3.5-3.5,6.7-3.5c4.7,0,9.3,3.5,9.3,9.6
		v0.1c0,6.1-4.5,9.9-9.3,9.9c-3.3,0-5.3-1.5-6.7-3.2v7.1h-4.6V-26.7L13.7-26.7z M29.7-17.5L29.7-17.5c0-3.6-2.6-6-5.7-6
		c-3.1,0-5.8,2.4-5.8,5.9v0.1c0,3.6,2.7,5.9,5.8,5.9C27.1-11.6,29.7-13.8,29.7-17.5L29.7-17.5z"/>
	<path id="Fill-8" sketch:type="MSShapeGroup" fill="#1E4166" d="M37.4-12.5v-10.6h-2.5v-3.6h2.5v-4.6h4.6v4.6h5.3v3.6h-5.3v10
		c0,1.6,0.9,2.3,2.4,2.3c1,0,1.9-0.2,2.8-0.6V-8c-1.1,0.6-2.4,0.9-4.1,0.9C39.7-7.1,37.4-8.4,37.4-12.5"/>
	<path id="Fill-9" sketch:type="MSShapeGroup" fill="#1E4166" d="M50.2-26.8h4.6v19.5h-4.6V-26.8z"/>
	<path id="Fill-10" sketch:type="MSShapeGroup" fill="#1E4166" d="M58.2-26.8h4.6v3c1.3-1.6,3-3.2,6.1-3.2c2.9,0,4.9,1.3,5.9,3.3
		c1.6-2,3.7-3.3,6.7-3.3c4.3,0,7,2.6,7,7.1v12.7h-4.6v-11.4c0-2.9-1.5-4.5-4-4.5c-2.5,0-4.3,1.6-4.3,4.6v11.4H71v-11.5
		c0-2.9-1.5-4.5-4-4.5c-2.5,0-4.2,1.7-4.2,4.6v11.3h-4.6V-26.8"/>
	<path id="Fill-11" sketch:type="MSShapeGroup" fill="#1E4166" d="M103.1-18.3c-2.5-0.7-5.1-1.4-5.1-3.4v-0.1c0-1.8,1.7-3.1,4.1-3.1
		c1.8,0,3.8,0.6,5.6,1.8l0.1,0.1l1.1-1.7l-0.1-0.1c-1.9-1.3-4.5-2-6.7-2c-3.7,0-6.3,2.2-6.3,5.2v0.1c0,3.3,3.4,4.3,6.3,5.2l0.2,0
		c2.6,0.7,4.8,1.5,4.8,3.5v0.1c0,2-1.8,3.3-4.3,3.3c-2.3,0-4.5-0.8-6.6-2.4l-0.1-0.1l-1.2,1.7l0.1,0.1c2,1.6,5.1,2.7,7.7,2.7
		c3.8,0,6.6-2.3,6.6-5.5V-13C109.3-16.3,106.2-17.4,103.1-18.3"/>
	<path id="Fill-12" sketch:type="MSShapeGroup" fill="#1E4166" d="M122.1-26.9c-3,0-5.5,1.4-7.5,4.2v-3.8h-2.1V-2h2.1v-9.4
		c1.9,2.7,4.5,4.1,7.5,4.1c4.5,0,9.2-3.7,9.2-9.8v-0.1c0-3.6-1.6-5.9-2.9-7.1C126.7-26,124.4-26.9,122.1-26.9L122.1-26.9z
		 M129.1-17.1L129.1-17.1c0,4.6-2.9,7.8-7.1,7.8c-4.6,0-7.4-4-7.4-7.8v-0.1c0-4.8,3.9-7.8,7.4-7.8C126-24.9,129.1-21.6,129.1-17.1
		L129.1-17.1z"/>
	<path id="Fill-13" sketch:type="MSShapeGroup" fill="#1E4166" d="M134.6-26.5h2.1v18.7h-2.1V-26.5z"/>
	<path id="Fill-14" sketch:type="MSShapeGroup" fill="#1E4166" d="M149.9-26.9c-2.9,0-5.1,1.2-6.6,3.5v-3h-2.1v18.7h2.1v-10.8
		c0-3.7,2.7-6.4,6.3-6.4c3.5,0,5.8,2.3,5.8,6.1v11.1h2.1v-11.4C157.5-23.9,154.5-26.9,149.9-26.9"/>
	<path id="Fill-15" sketch:type="MSShapeGroup" fill="#1E4166" d="M169.1-26.9c-5,0-9,4.3-9,9.8v0.1c0,5.6,4,9.8,9.3,9.8
		c3.2,0,5.5-1.1,7.8-3.5l0.1-0.1l-1.5-1.3l-0.1,0.1c-1.8,1.9-3.8,2.8-6.3,2.8c-3.9,0-6.8-2.8-7.1-6.9h15.4l0-0.1c0-0.3,0-0.4,0-0.7
		C177.8-22.9,174.3-26.9,169.1-26.9L169.1-26.9z M162.4-18.1c0.4-4,3.2-6.8,6.7-6.8c4.4,0,6.2,3.6,6.5,6.8H162.4L162.4-18.1z"/>
</g>
</svg>
