<?xml version="1.0" encoding="UTF-8" standalone="no"?>
<svg width="10px" height="31px" viewBox="0 0 10 31" version="1.1" xmlns="http://www.w3.org/2000/svg" xmlns:xlink="http://www.w3.org/1999/xlink" xmlns:sketch="http://www.bohemiancoding.com/sketch/ns">
    <!-- Generator: Sketch 3.3.2 (12043) - http://www.bohemiancoding.com/sketch -->
    <title>phone_icon</title>
    <desc>Created with Sketch.</desc>
    <defs></defs>
    <g id="Homepage" stroke="none" stroke-width="1" fill="none" fill-rule="evenodd" sketch:type="MSPage">
        <g id="Mobile_01" sketch:type="MSArtboardGroup" transform="translate(-27.000000, -514.000000)" fill="#508FBB">
            <g id="bar_m" sketch:type="MSLayerGroup" transform="translate(0.000000, 468.000000)">
                <g id="call_us" transform="translate(0.000000, 24.000000)" sketch:type="MSShapeGroup">
                    <path d="M41.1988839,49.6666667 C40.9874689,49.6666667 40.8426271,49.6612661 40.7652583,49.6504649 C40.6752944,49.6387636 40.5421479,49.6216616 40.3640195,49.6000592 C40.1858911,49.5775567 39.8854119,49.4884468 39.4625819,49.3327294 C39.0397519,49.1770121 38.4495891,48.9204835 37.6929933,48.5649439 C36.9139064,48.1860016 36.101533,47.7350513 35.255873,47.2120931 C34.4102129,46.6891348 33.4314064,45.9870565 32.3185537,45.1076585 C31.2057011,44.2282604 30.1153394,43.2651531 29.046569,42.2183364 C27.989494,41.1715197 27.0214831,40.0805981 26.1425364,38.9446715 C24.7400002,37.1525717 23.6604342,35.4936868 22.9038383,33.9680167 C22.1472425,32.4315455 21.7406059,31.4738387 21.685728,31.0948965 C21.6407461,30.7276555 21.6128573,30.4936295 21.6020616,30.3937183 C21.5570797,29.9481686 21.6353482,29.475616 21.8359676,28.9742601 C22.0356873,28.4729042 22.5196928,27.8446342 23.2879839,27.0867497 C24.0553754,26.3297653 24.7400002,25.8734144 25.3409586,25.7176971 C25.9419171,25.5619797 26.5032914,25.7627021 27.0268809,26.3189641 C27.9058276,27.1983621 28.9404117,28.6790272 30.1315329,30.7609593 C30.4985853,31.39553 30.4706965,32.0138989 30.0478665,32.6151659 C29.91472,32.8149882 29.703305,33.1165218 29.4136215,33.5170665 C29.1248376,33.9176111 28.929616,34.1795403 28.8297562,34.301954 C28.3403529,34.9698284 28.3061667,35.6377029 28.7298963,36.3055773 C29.4747969,37.4865089 30.4041233,38.6332368 31.516976,39.7466609 C32.6298286,40.860085 33.7759679,41.7898886 34.9562934,42.5351717 C35.6121297,42.9474177 36.2796614,42.914114 36.9588884,42.4352606 L37.4932736,42.0347159 C37.7154842,41.8672973 37.9268992,41.7169805 38.1275186,41.5837657 C38.3281379,41.4496507 38.494571,41.3218365 38.6286172,41.1994228 C39.2295756,40.7646744 39.8521253,40.7376714 40.4980657,41.1157135 C42.6122158,42.3515513 44.0921209,43.3875667 44.9377809,44.2219597 C45.4937575,44.7566193 45.6943768,45.3245827 45.5387394,45.9258497 C45.3831019,46.5271167 44.9269853,47.2066925 44.1703894,47.9636768 C43.4128939,48.7197611 42.8623153,49.1707114 42.5177538,49.3156275 C42.1839879,49.4605437 41.9329888,49.5550542 41.7665557,49.6000592 C41.599223,49.6441642 41.410299,49.6666667 41.1988839,49.6666667 Z" id="phone_icon" transform="translate(33.589744, 37.666667) rotate(45.000000) translate(-33.589744, -37.666667) "></path>
                </g>
            </g>
        </g>
    </g>
</svg>