<?xml version="1.0" encoding="UTF-8" standalone="no"?>
<svg width="23px" height="23px" viewBox="0 0 23 23" version="1.1" xmlns="http://www.w3.org/2000/svg" xmlns:xlink="http://www.w3.org/1999/xlink" xmlns:sketch="http://www.bohemiancoding.com/sketch/ns">
    <!-- Generator: Sketch 3.3.2 (12043) - http://www.bohemiancoding.com/sketch -->
    <title>Imported Layers</title>
    <desc>Created with Sketch.</desc>
    <defs></defs>
    <g id="What_hurts?_landing" stroke="none" stroke-width="1" fill="none" fill-rule="evenodd" sketch:type="MSPage">
        <g id="Desktop-HD" sketch:type="MSArtboardGroup" transform="translate(-717.000000, -311.000000)" fill="#508FBB">
            <g id="filter_search" sketch:type="MSLayerGroup" transform="translate(57.000000, 293.000000)">
                <path d="M683.061,38.4456738 L677.846,33.2296738 C678.999,31.6466738 679.688,29.7046738 679.688,27.6006738 C679.688,22.3106738 675.384,18.0066738 670.094,18.0066738 C664.804,18.0066738 660.5,22.3106738 660.5,27.6006738 C660.5,32.8906738 664.804,37.1936738 670.094,37.1936738 C672.199,37.1936738 674.141,36.5046738 675.725,35.3516738 L680.94,40.5666738 L683.061,38.4456738 L683.061,38.4456738 Z M670.094,34.1936738 C666.459,34.1936738 663.5,31.2356738 663.5,27.6006738 C663.5,23.9646738 666.459,21.0066738 670.094,21.0066738 C673.73,21.0066738 676.688,23.9646738 676.688,27.6006738 C676.688,31.2356738 673.73,34.1936738 670.094,34.1936738 L670.094,34.1936738 Z" id="Imported-Layers" sketch:type="MSShapeGroup"></path>
            </g>
        </g>
    </g>
</svg>